<svg viewBox="0 0 725.0000610351562 400.0000305175781" xmlns="http://www.w3.org/2000/svg"><g><g><g><g><g><line x1="60" y1="378" x2="55" y2="378" style="visibility: inherit;" fill="rgb(0, 0, 0)" stroke="rgb(204, 204, 204)" stroke-width="1px"></line><line x1="60" y1="330.75" x2="55" y2="330.75" style="visibility: inherit;" fill="rgb(0, 0, 0)" stroke="rgb(204, 204, 204)" stroke-width="1px"></line><line x1="60" y1="283.5" x2="55" y2="283.5" style="visibility: inherit;" fill="rgb(0, 0, 0)" stroke="rgb(204, 204, 204)" stroke-width="1px"></line><line x1="60" y1="236.25" x2="55" y2="236.25" style="visibility: inherit;" fill="rgb(0, 0, 0)" stroke="rgb(204, 204, 204)" stroke-width="1px"></line><line x1="60" y1="189" x2="55" y2="189" style="visibility: inherit;" fill="rgb(0, 0, 0)" stroke="rgb(204, 204, 204)" stroke-width="1px"></line><line x1="60" y1="141.75" x2="55" y2="141.75" style="visibility: inherit;" fill="rgb(0, 0, 0)" stroke="rgb(204, 204, 204)" stroke-width="1px"></line><line x1="60" y1="94.5" x2="55" y2="94.5" style="visibility: inherit;" fill="rgb(0, 0, 0)" stroke="rgb(204, 204, 204)" stroke-width="1px"></line><line x1="60" y1="47.25" x2="55" y2="47.25" style="visibility: inherit;" fill="rgb(0, 0, 0)" stroke="rgb(204, 204, 204)" stroke-width="1px"></line><line x1="60" y1="0" x2="55" y2="0" style="visibility: inherit;" fill="rgb(0, 0, 0)" stroke="rgb(204, 204, 204)" stroke-width="1px"></line></g><g transform="translate(50, 0)"><text x="0" y="378" dx="0em" dy="0.3em" style="text-anchor: end; visibility: hidden; font-family: Roboto, sans-serif; font-size: 12px; font-weight: 200;" fill="rgb(50, 49, 63)" stroke="none" stroke-width="1px">0.86</text><text x="0" y="330.75" dx="0em" dy="0.3em" style="text-anchor: end; visibility: inherit; font-family: Roboto, sans-serif; font-size: 12px; font-weight: 200;" fill="rgb(50, 49, 63)" stroke="none" stroke-width="1px">0.865</text><text x="0" y="283.5" dx="0em" dy="0.3em" style="text-anchor: end; visibility: inherit; font-family: Roboto, sans-serif; font-size: 12px; font-weight: 200;" fill="rgb(50, 49, 63)" stroke="none" stroke-width="1px">0.87</text><text x="0" y="236.25" dx="0em" dy="0.3em" style="text-anchor: end; visibility: inherit; font-family: Roboto, sans-serif; font-size: 12px; font-weight: 200;" fill="rgb(50, 49, 63)" stroke="none" stroke-width="1px">0.875</text><text x="0" y="189" dx="0em" dy="0.3em" style="text-anchor: end; visibility: inherit; font-family: Roboto, sans-serif; font-size: 12px; font-weight: 200;" fill="rgb(50, 49, 63)" stroke="none" stroke-width="1px">0.88</text><text x="0" y="141.75" dx="0em" dy="0.3em" style="text-anchor: end; visibility: inherit; font-family: Roboto, sans-serif; font-size: 12px; font-weight: 200;" fill="rgb(50, 49, 63)" stroke="none" stroke-width="1px">0.885</text><text x="0" y="94.5" dx="0em" dy="0.3em" style="text-anchor: end; visibility: inherit; font-family: Roboto, sans-serif; font-size: 12px; font-weight: 200;" fill="rgb(50, 49, 63)" stroke="none" stroke-width="1px">0.89</text><text x="0" y="47.25" dx="0em" dy="0.3em" style="text-anchor: end; visibility: inherit; font-family: Roboto, sans-serif; font-size: 12px; font-weight: 200;" fill="rgb(50, 49, 63)" stroke="none" stroke-width="1px">0.895</text><text x="0" y="0" dx="0em" dy="0.3em" style="text-anchor: end; visibility: hidden; font-family: Roboto, sans-serif; font-size: 12px; font-weight: 200;" fill="rgb(50, 49, 63)" stroke="none" stroke-width="1px">0.9</text></g><line x1="60" y1="0" x2="60" y2="378" fill="rgb(0, 0, 0)" stroke="rgb(204, 204, 204)" stroke-width="1px"></line></g></g><g transform="translate(60, 0)" clip-path="url(#clip_0)"><clipPath id="clip_0"><rect width="665" height="377"></rect></clipPath><g><g><g><line x1="0" y1="0" x2="0" y2="378" fill="rgb(0, 0, 0)" stroke="rgb(60, 60, 60)" stroke-width="1px" opacity="0.25"></line><line x1="55.416666666666664" y1="0" x2="55.416666666666664" y2="378" fill="rgb(0, 0, 0)" stroke="rgb(60, 60, 60)" stroke-width="1px" opacity="0.25"></line><line x1="110.83333333333333" y1="0" x2="110.83333333333333" y2="378" fill="rgb(0, 0, 0)" stroke="rgb(60, 60, 60)" stroke-width="1px" opacity="0.25"></line><line x1="166.25" y1="0" x2="166.25" y2="378" fill="rgb(0, 0, 0)" stroke="rgb(60, 60, 60)" stroke-width="1px" opacity="0.25"></line><line x1="221.66666666666666" y1="0" x2="221.66666666666666" y2="378" fill="rgb(0, 0, 0)" stroke="rgb(60, 60, 60)" stroke-width="1px" opacity="0.25"></line><line x1="277.08333333333337" y1="0" x2="277.08333333333337" y2="378" fill="rgb(0, 0, 0)" stroke="rgb(60, 60, 60)" stroke-width="1px" opacity="0.25"></line><line x1="332.5" y1="0" x2="332.5" y2="378" fill="rgb(0, 0, 0)" stroke="rgb(60, 60, 60)" stroke-width="1px" opacity="0.25"></line><line x1="387.9166666666667" y1="0" x2="387.9166666666667" y2="378" fill="rgb(0, 0, 0)" stroke="rgb(60, 60, 60)" stroke-width="1px" opacity="0.25"></line><line x1="443.3333333333333" y1="0" x2="443.3333333333333" y2="378" fill="rgb(0, 0, 0)" stroke="rgb(60, 60, 60)" stroke-width="1px" opacity="0.25"></line><line x1="498.75" y1="0" x2="498.75" y2="378" fill="rgb(0, 0, 0)" stroke="rgb(60, 60, 60)" stroke-width="1px" opacity="0.25"></line><line x1="554.1666666666667" y1="0" x2="554.1666666666667" y2="378" fill="rgb(0, 0, 0)" stroke="rgb(60, 60, 60)" stroke-width="1px" opacity="0.25"></line><line x1="609.5833333333333" y1="0" x2="609.5833333333333" y2="378" fill="rgb(0, 0, 0)" stroke="rgb(60, 60, 60)" stroke-width="1px" opacity="0.25"></line><line x1="665" y1="0" x2="665" y2="378" fill="rgb(0, 0, 0)" stroke="rgb(60, 60, 60)" stroke-width="1px" opacity="0.25"></line></g><g><line x1="0" y1="378" x2="665" y2="378" fill="rgb(0, 0, 0)" stroke="rgb(60, 60, 60)" stroke-width="1px" opacity="0.25"></line><line x1="0" y1="330.75" x2="665" y2="330.75" fill="rgb(0, 0, 0)" stroke="rgb(60, 60, 60)" stroke-width="1px" opacity="0.25"></line><line x1="0" y1="283.5" x2="665" y2="283.5" fill="rgb(0, 0, 0)" stroke="rgb(60, 60, 60)" stroke-width="1px" opacity="0.25"></line><line x1="0" y1="236.25" x2="665" y2="236.25" fill="rgb(0, 0, 0)" stroke="rgb(60, 60, 60)" stroke-width="1px" opacity="0.25"></line><line x1="0" y1="189" x2="665" y2="189" fill="rgb(0, 0, 0)" stroke="rgb(60, 60, 60)" stroke-width="1px" opacity="0.25"></line><line x1="0" y1="141.75" x2="665" y2="141.75" fill="rgb(0, 0, 0)" stroke="rgb(60, 60, 60)" stroke-width="1px" opacity="0.25"></line><line x1="0" y1="94.5" x2="665" y2="94.5" fill="rgb(0, 0, 0)" stroke="rgb(60, 60, 60)" stroke-width="1px" opacity="0.25"></line><line x1="0" y1="47.25" x2="665" y2="47.25" fill="rgb(0, 0, 0)" stroke="rgb(60, 60, 60)" stroke-width="1px" opacity="0.25"></line><line x1="0" y1="0" x2="665" y2="0" fill="rgb(0, 0, 0)" stroke="rgb(60, 60, 60)" stroke-width="1px" opacity="0.25"></line></g></g></g><g><g><line x1="0" y1="8504.999999999993" x2="665" y2="8504.999999999993" fill="rgb(0, 0, 0)" stroke="rgb(153, 153, 153)" stroke-width="1.5px"></line></g></g><g><g><line x1="55.416666666666664" y1="0" x2="55.416666666666664" y2="378" fill="rgb(0, 0, 0)" stroke="rgb(153, 153, 153)" stroke-width="1.5px"></line></g></g><g><g><g><g><g><path stroke="rgb(0, 119, 187)" stroke-width="2px" d="M55.416666666666664,495.27985632419563L66.5,338.5145026445388L77.58333333333333,250.33441364765167L88.66666666666667,211.14307522773743L99.75,181.74971222877505L110.83333333333333,169.50210213661197L121.91666666666666,157.25505530834207L133,145.0080084800721L144.08333333333334,149.90671455860146L155.16666666666666,145.0080084800721L166.25,149.90671455860146L177.33333333333334,154.80542063713082L188.41666666666666,149.90671455860146L199.5,154.80542063713082L210.58333333333331,149.90671455860146L221.66666666666666,149.90671455860146L232.74999999999997,149.90671455860146L243.83333333333331,149.90671455860146L254.91666666666669,149.90671455860146L266,149.90671455860146L277.08333333333337,149.90671455860146L288.1666666666667,149.90671455860146L299.25,149.90671455860146L310.3333333333333,149.90671455860146L321.4166666666667,149.90671455860146L332.5,149.90671455860146L343.58333333333337,149.90671455860146L354.6666666666667,149.90671455860146L365.75000000000006,149.90671455860146L376.8333333333333,149.90671455860146L387.9166666666667,149.90671455860146L399,149.90671455860146L410.08333333333337,149.90671455860146L421.16666666666663,149.90671455860146L432.25,149.90671455860146L443.3333333333333,149.90671455860146L454.4166666666667,149.90671455860146L465.49999999999994,149.90671455860146L476.5833333333333,149.90671455860146L487.66666666666663,149.90671455860146L498.75,149.90671455860146L509.83333333333337,149.90671455860146L520.9166666666666,149.90671455860146L532,149.90671455860146L543.0833333333334,149.90671455860146L554.1666666666667,149.90671455860146L565.25,149.90671455860146L576.3333333333334,149.90671455860146L587.4166666666666,149.90671455860146L598.5,149.90671455860146" style="fill: none;" fill="none"></path></g><g><path stroke="rgb(0, 153, 136)" stroke-width="2px" d="M55.416666666666664,551.6175109148023L66.5,321.3687497377395L77.58333333333333,242.98607289791107L88.66666666666667,203.79473447799683L99.75,162.15376138687142L110.83333333333333,157.25505530834207L121.91666666666666,142.55837380886086L133,135.21003305912026L144.08333333333334,113.1650108098985L155.16666666666666,127.86169230937966L166.25,113.1650108098985L177.33333333333334,118.06371688842786L188.41666666666666,100.91740071773542L199.5,110.71537613868726L210.58333333333331,105.8166700601579L221.66666666666666,103.36703538894666L232.74999999999997,108.26574146747602L243.83333333333331,100.91740071773542L254.91666666666669,110.71537613868726L266,110.71537613868726L277.08333333333337,110.71537613868726L288.1666666666667,113.1650108098985L299.25,110.71537613868726L310.3333333333333,113.1650108098985L321.4166666666667,110.71537613868726L332.5,110.71537613868726L343.58333333333337,110.71537613868726L354.6666666666667,110.71537613868726L365.75000000000006,110.71537613868726L376.8333333333333,110.71537613868726L387.9166666666667,110.71537613868726L399,110.71537613868726L410.08333333333337,110.71537613868726L421.16666666666663,110.71537613868726L432.25,110.71537613868726L443.3333333333333,110.71537613868726L454.4166666666667,110.71537613868726L465.49999999999994,110.71537613868726L476.5833333333333,110.71537613868726L487.66666666666663,110.71537613868726L498.75,110.71537613868726L509.83333333333337,110.71537613868726L520.9166666666666,110.71537613868726L532,110.71537613868726L543.0833333333334,110.71537613868726L554.1666666666667,110.71537613868726L565.25,110.71537613868726L576.3333333333334,110.71537613868726L587.4166666666666,110.71537613868726L598.5,110.71537613868726" style="fill: none;" fill="none"></path></g><g><path stroke="rgb(51, 187, 238)" stroke-width="2px" d="M55.416666666666664,563.8645577430722L66.5,287.0761173963546L77.58333333333333,233.18809747695923L88.66666666666667,164.60339605808267L99.75,159.7046899795533L110.83333333333333,152.3563492298127L121.91666666666666,164.60339605808267L133,162.15376138687142L144.08333333333334,157.25505530834207L155.16666666666666,152.3563492298127L166.25,152.3563492298127L177.33333333333334,152.3563492298127L188.41666666666666,152.3563492298127L199.5,152.3563492298127L210.58333333333331,152.3563492298127L221.66666666666666,152.3563492298127L232.74999999999997,152.3563492298127L243.83333333333331,152.3563492298127L254.91666666666669,152.3563492298127L266,152.3563492298127L277.08333333333337,152.3563492298127L288.1666666666667,152.3563492298127L299.25,152.3563492298127L310.3333333333333,152.3563492298127L321.4166666666667,152.3563492298127L332.5,152.3563492298127L343.58333333333337,152.3563492298127L354.6666666666667,152.3563492298127L365.75000000000006,152.3563492298127L376.8333333333333,152.3563492298127L387.9166666666667,152.3563492298127L399,152.3563492298127L410.08333333333337,152.3563492298127L421.16666666666663,152.3563492298127L432.25,152.3563492298127L443.3333333333333,152.3563492298127L454.4166666666667,152.3563492298127L465.49999999999994,152.3563492298127L476.5833333333333,152.3563492298127L487.66666666666663,152.3563492298127L498.75,152.3563492298127L509.83333333333337,152.3563492298127L520.9166666666666,152.3563492298127L532,152.3563492298127L543.0833333333334,152.3563492298127L554.1666666666667,152.3563492298127L565.25,152.3563492298127L576.3333333333334,152.3563492298127L587.4166666666666,152.3563492298127L598.5,152.3563492298127" style="fill: none;" fill="none"></path></g><g><path stroke="rgb(204, 51, 17)" stroke-width="2px" d="M55.416666666666664,505.0778317451475L66.5,331.1661618947982L77.58333333333333,225.83975672721863L88.66666666666667,186.6484183073044L99.75,196.44639372825625L110.83333333333333,159.7046899795533L121.91666666666666,157.25505530834207L133,154.80542063713082L144.08333333333334,149.90671455860146L155.16666666666666,142.55837380886086L166.25,145.0080084800721L177.33333333333334,157.25505530834207L188.41666666666666,145.0080084800721L199.5,152.3563492298127L210.58333333333331,152.3563492298127L221.66666666666666,147.45707988739022L232.74999999999997,147.45707988739022L243.83333333333331,145.0080084800721L254.91666666666669,145.0080084800721L266,145.0080084800721L277.08333333333337,145.0080084800721L288.1666666666667,145.0080084800721L299.25,145.0080084800721L310.3333333333333,145.0080084800721L321.4166666666667,145.0080084800721L332.5,145.0080084800721L343.58333333333337,145.0080084800721L354.6666666666667,145.0080084800721L365.75000000000006,145.0080084800721L376.8333333333333,145.0080084800721L387.9166666666667,145.0080084800721L399,145.0080084800721L410.08333333333337,145.0080084800721L421.16666666666663,145.0080084800721L432.25,145.0080084800721L443.3333333333333,145.0080084800721L454.4166666666667,145.0080084800721L465.49999999999994,145.0080084800721L476.5833333333333,145.0080084800721L487.66666666666663,145.0080084800721L498.75,145.0080084800721L509.83333333333337,145.0080084800721L520.9166666666666,145.0080084800721L532,145.0080084800721L543.0833333333334,145.0080084800721L554.1666666666667,145.0080084800721L565.25,145.0080084800721L576.3333333333334,145.0080084800721L587.4166666666666,145.0080084800721L598.5,145.0080084800721" style="fill: none;" fill="none"></path></g><g><path stroke="rgb(238, 51, 119)" stroke-width="2px" d="M55.416666666666664,595.7075554132458L66.5,304.22243356704706L77.58333333333333,245.43570756912231L88.66666666666667,193.996759057045L99.75,176.85044288635257L110.83333333333333,171.9517368078232L121.91666666666666,179.3000775575638L133,181.74971222877505L144.08333333333334,186.6484183073044L155.16666666666666,189.09805297851565L166.25,189.09805297851565L177.33333333333334,189.09805297851565L188.41666666666666,189.09805297851565L199.5,189.09805297851565L210.58333333333331,189.09805297851565L221.66666666666666,189.09805297851565L232.74999999999997,189.09805297851565L243.83333333333331,189.09805297851565L254.91666666666669,189.09805297851565L266,189.09805297851565L277.08333333333337,189.09805297851565L288.1666666666667,189.09805297851565L299.25,189.09805297851565L310.3333333333333,189.09805297851565L321.4166666666667,189.09805297851565L332.5,189.09805297851565L343.58333333333337,189.09805297851565L354.6666666666667,189.09805297851565L365.75000000000006,189.09805297851565L376.8333333333333,189.09805297851565L387.9166666666667,189.09805297851565L399,189.09805297851565L410.08333333333337,189.09805297851565L421.16666666666663,189.09805297851565L432.25,189.09805297851565L443.3333333333333,189.09805297851565L454.4166666666667,189.09805297851565L465.49999999999994,189.09805297851565L476.5833333333333,189.09805297851565L487.66666666666663,189.09805297851565L498.75,189.09805297851565L509.83333333333337,189.09805297851565L520.9166666666666,189.09805297851565L532,189.09805297851565L543.0833333333334,189.09805297851565L554.1666666666667,189.09805297851565L565.25,189.09805297851565L576.3333333333334,189.09805297851565L587.4166666666666,189.09805297851565L598.5,189.09805297851565" style="fill: none;" fill="none"></path></g><g><path stroke="rgb(187, 187, 187)" stroke-width="2px" d="M55.416666666666664,485.4818809032438L66.5,316.469480395317L77.58333333333333,247.88477897644043L88.66666666666667,206.24436914920807L99.75,216.04178130626678L110.83333333333333,164.60339605808267L121.91666666666666,142.55837380886086L133,174.40137147903445L144.08333333333334,127.86169230937966L155.16666666666666,152.3563492298127L166.25,140.10873913764962L177.33333333333334,135.21003305912026L188.41666666666666,125.41205763816842L199.5,118.06371688842786L210.58333333333331,125.41205763816842L221.66666666666666,127.86169230937966L232.74999999999997,120.51335155963906L243.83333333333331,125.41205763816842L254.91666666666669,122.96242296695718L266,120.51335155963906L277.08333333333337,125.41205763816842L288.1666666666667,125.41205763816842L299.25,125.41205763816842L310.3333333333333,125.41205763816842L321.4166666666667,125.41205763816842L332.5,125.41205763816842L343.58333333333337,125.41205763816842L354.6666666666667,125.41205763816842L365.75000000000006,125.41205763816842L376.8333333333333,125.41205763816842L387.9166666666667,125.41205763816842L399,125.41205763816842L410.08333333333337,125.41205763816842L421.16666666666663,125.41205763816842L432.25,125.41205763816842L443.3333333333333,125.41205763816842L454.4166666666667,125.41205763816842L465.49999999999994,125.41205763816842L476.5833333333333,125.41205763816842L487.66666666666663,125.41205763816842L498.75,125.41205763816842L509.83333333333337,125.41205763816842L520.9166666666666,125.41205763816842L532,125.41205763816842L543.0833333333334,125.41205763816842L554.1666666666667,125.41205763816842L565.25,125.41205763816842L576.3333333333334,125.41205763816842L587.4166666666666,125.41205763816842L598.5,125.41205763816842" style="fill: none;" fill="none"></path></g><g><path stroke="rgb(255, 112, 67)" stroke-width="2px" d="M66.5,439.78653430938704L77.58333333333333,356.15818083286274L88.66666666666667,144.62780535221108L99.75,129.869728088379L110.83333333333333,139.708258509636L121.91666666666666,105.27312040328992L133,88.05583298206342L144.08333333333334,88.05583298206342L155.16666666666666,80.67651271820081L166.25,80.67651271820081L177.33333333333334,83.13628613948835L188.41666666666666,78.2173025608064L199.5,83.13628613948835L210.58333333333331,73.29775571823133L221.66666666666666,78.2173025608064L232.74999999999997,75.75752913951887L243.83333333333331,83.13628613948835L254.91666666666669,75.75752913951887L266,75.75752913951887L277.08333333333337,73.29775571823133L288.1666666666667,78.2173025608064L299.25,78.2173025608064L310.3333333333333,78.2173025608064L321.4166666666667,78.2173025608064L332.5,78.2173025608064L343.58333333333337,78.2173025608064L354.6666666666667,78.2173025608064L365.75000000000006,78.2173025608064L376.8333333333333,78.2173025608064L387.9166666666667,73.29775571823133L399,73.29775571823133L410.08333333333337,78.2173025608064L421.16666666666663,78.2173025608064L432.25,78.2173025608064L443.3333333333333,78.2173025608064L454.4166666666667,78.2173025608064L465.49999999999994,78.2173025608064L476.5833333333333,78.2173025608064L487.66666666666663,78.2173025608064L498.75,78.2173025608064L509.83333333333337,78.2173025608064L520.9166666666666,78.2173025608064L532,78.2173025608064L543.0833333333334,78.2173025608064L554.1666666666667,78.2173025608064L565.25,78.2173025608064L576.3333333333334,78.2173025608064L587.4166666666666,78.2173025608064L598.5,78.2173025608064" style="fill: none;" fill="none"></path></g></g></g></g></g></g><g transform="translate(60, 378)" clip-path="url(#clip_1)"><clipPath id="clip_1"><rect width="665" height="21"></rect></clipPath><g><g><line x1="0" y1="0" x2="0" y2="5" style="visibility: inherit;" fill="rgb(0, 0, 0)" stroke="rgb(204, 204, 204)" stroke-width="1px"></line><line x1="55.416666666666664" y1="0" x2="55.416666666666664" y2="5" style="visibility: inherit;" fill="rgb(0, 0, 0)" stroke="rgb(204, 204, 204)" stroke-width="1px"></line><line x1="110.83333333333333" y1="0" x2="110.83333333333333" y2="5" style="visibility: inherit;" fill="rgb(0, 0, 0)" stroke="rgb(204, 204, 204)" stroke-width="1px"></line><line x1="166.25" y1="0" x2="166.25" y2="5" style="visibility: inherit;" fill="rgb(0, 0, 0)" stroke="rgb(204, 204, 204)" stroke-width="1px"></line><line x1="221.66666666666666" y1="0" x2="221.66666666666666" y2="5" style="visibility: inherit;" fill="rgb(0, 0, 0)" stroke="rgb(204, 204, 204)" stroke-width="1px"></line><line x1="277.08333333333337" y1="0" x2="277.08333333333337" y2="5" style="visibility: inherit;" fill="rgb(0, 0, 0)" stroke="rgb(204, 204, 204)" stroke-width="1px"></line><line x1="332.5" y1="0" x2="332.5" y2="5" style="visibility: inherit;" fill="rgb(0, 0, 0)" stroke="rgb(204, 204, 204)" stroke-width="1px"></line><line x1="387.9166666666667" y1="0" x2="387.9166666666667" y2="5" style="visibility: inherit;" fill="rgb(0, 0, 0)" stroke="rgb(204, 204, 204)" stroke-width="1px"></line><line x1="443.3333333333333" y1="0" x2="443.3333333333333" y2="5" style="visibility: inherit;" fill="rgb(0, 0, 0)" stroke="rgb(204, 204, 204)" stroke-width="1px"></line><line x1="498.75" y1="0" x2="498.75" y2="5" style="visibility: inherit;" fill="rgb(0, 0, 0)" stroke="rgb(204, 204, 204)" stroke-width="1px"></line><line x1="554.1666666666667" y1="0" x2="554.1666666666667" y2="5" style="visibility: inherit;" fill="rgb(0, 0, 0)" stroke="rgb(204, 204, 204)" stroke-width="1px"></line><line x1="609.5833333333333" y1="0" x2="609.5833333333333" y2="5" style="visibility: inherit;" fill="rgb(0, 0, 0)" stroke="rgb(204, 204, 204)" stroke-width="1px"></line><line x1="665" y1="0" x2="665" y2="5" style="visibility: inherit;" fill="rgb(0, 0, 0)" stroke="rgb(204, 204, 204)" stroke-width="1px"></line></g><g transform="translate(0, 8)"><text x="0" y="0" dx="0em" dy="0.95em" style="text-anchor: middle; visibility: hidden; font-family: Roboto, sans-serif; font-size: 12px; font-weight: 200;" fill="rgb(50, 49, 63)" stroke="none" stroke-width="1px">-5</text><text x="55.416666666666664" y="0" dx="0em" dy="0.95em" style="text-anchor: middle; visibility: inherit; font-family: Roboto, sans-serif; font-size: 12px; font-weight: 200;" fill="rgb(50, 49, 63)" stroke="none" stroke-width="1px">0</text><text x="110.83333333333333" y="0" dx="0em" dy="0.95em" style="text-anchor: middle; visibility: inherit; font-family: Roboto, sans-serif; font-size: 12px; font-weight: 200;" fill="rgb(50, 49, 63)" stroke="none" stroke-width="1px">5</text><text x="166.25" y="0" dx="0em" dy="0.95em" style="text-anchor: middle; visibility: inherit; font-family: Roboto, sans-serif; font-size: 12px; font-weight: 200;" fill="rgb(50, 49, 63)" stroke="none" stroke-width="1px">10</text><text x="221.66666666666666" y="0" dx="0em" dy="0.95em" style="text-anchor: middle; visibility: inherit; font-family: Roboto, sans-serif; font-size: 12px; font-weight: 200;" fill="rgb(50, 49, 63)" stroke="none" stroke-width="1px">15</text><text x="277.08333333333337" y="0" dx="0em" dy="0.95em" style="text-anchor: middle; visibility: inherit; font-family: Roboto, sans-serif; font-size: 12px; font-weight: 200;" fill="rgb(50, 49, 63)" stroke="none" stroke-width="1px">20</text><text x="332.5" y="0" dx="0em" dy="0.95em" style="text-anchor: middle; visibility: inherit; font-family: Roboto, sans-serif; font-size: 12px; font-weight: 200;" fill="rgb(50, 49, 63)" stroke="none" stroke-width="1px">25</text><text x="387.9166666666667" y="0" dx="0em" dy="0.95em" style="text-anchor: middle; visibility: inherit; font-family: Roboto, sans-serif; font-size: 12px; font-weight: 200;" fill="rgb(50, 49, 63)" stroke="none" stroke-width="1px">30</text><text x="443.3333333333333" y="0" dx="0em" dy="0.95em" style="text-anchor: middle; visibility: inherit; font-family: Roboto, sans-serif; font-size: 12px; font-weight: 200;" fill="rgb(50, 49, 63)" stroke="none" stroke-width="1px">35</text><text x="498.75" y="0" dx="0em" dy="0.95em" style="text-anchor: middle; visibility: inherit; font-family: Roboto, sans-serif; font-size: 12px; font-weight: 200;" fill="rgb(50, 49, 63)" stroke="none" stroke-width="1px">40</text><text x="554.1666666666667" y="0" dx="0em" dy="0.95em" style="text-anchor: middle; visibility: inherit; font-family: Roboto, sans-serif; font-size: 12px; font-weight: 200;" fill="rgb(50, 49, 63)" stroke="none" stroke-width="1px">45</text><text x="609.5833333333333" y="0" dx="0em" dy="0.95em" style="text-anchor: middle; visibility: inherit; font-family: Roboto, sans-serif; font-size: 12px; font-weight: 200;" fill="rgb(50, 49, 63)" stroke="none" stroke-width="1px">50</text><text x="665" y="0" dx="0em" dy="0.95em" style="text-anchor: middle; visibility: hidden; font-family: Roboto, sans-serif; font-size: 12px; font-weight: 200;" fill="rgb(50, 49, 63)" stroke="none" stroke-width="1px">55</text></g><line x1="0" y1="0" x2="665" y2="0" fill="rgb(0, 0, 0)" stroke="rgb(204, 204, 204)" stroke-width="1px"></line></g></g></g></g></svg>