<svg viewBox="0 0 1369 400" xmlns="http://www.w3.org/2000/svg"><g><g><g><g><g><line x1="61.91500186920166" y1="377.5999994277954" x2="56.91500186920166" y2="377.5999994277954" style="visibility: inherit;" fill="rgb(0, 0, 0)" stroke="rgb(204, 204, 204)" stroke-width="1px"></line><line x1="61.91500186920166" y1="323.6571423666818" x2="56.91500186920166" y2="323.6571423666818" style="visibility: inherit;" fill="rgb(0, 0, 0)" stroke="rgb(204, 204, 204)" stroke-width="1px"></line><line x1="61.91500186920166" y1="269.7142853055682" x2="56.91500186920166" y2="269.7142853055682" style="visibility: inherit;" fill="rgb(0, 0, 0)" stroke="rgb(204, 204, 204)" stroke-width="1px"></line><line x1="61.91500186920166" y1="215.7714282444545" x2="56.91500186920166" y2="215.7714282444545" style="visibility: inherit;" fill="rgb(0, 0, 0)" stroke="rgb(204, 204, 204)" stroke-width="1px"></line><line x1="61.91500186920166" y1="161.8285711833409" x2="56.91500186920166" y2="161.8285711833409" style="visibility: inherit;" fill="rgb(0, 0, 0)" stroke="rgb(204, 204, 204)" stroke-width="1px"></line><line x1="61.91500186920166" y1="107.88571412222726" x2="56.91500186920166" y2="107.88571412222726" style="visibility: inherit;" fill="rgb(0, 0, 0)" stroke="rgb(204, 204, 204)" stroke-width="1px"></line><line x1="61.91500186920166" y1="53.94285706111365" x2="56.91500186920166" y2="53.94285706111365" style="visibility: inherit;" fill="rgb(0, 0, 0)" stroke="rgb(204, 204, 204)" stroke-width="1px"></line><line x1="61.91500186920166" y1="0" x2="56.91500186920166" y2="0" style="visibility: inherit;" fill="rgb(0, 0, 0)" stroke="rgb(204, 204, 204)" stroke-width="1px"></line></g><g transform="translate(51.91500186920166, 0)"><text style="text-anchor: end; visibility: hidden; font-family: Roboto, sans-serif; font-size: 12px; font-weight: 200;" x="0" y="377.5999994277954" dx="0em" dy="0.3em" fill="rgb(50, 49, 63)" stroke="none" stroke-width="1px">0.87</text><text style="text-anchor: end; visibility: inherit; font-family: Roboto, sans-serif; font-size: 12px; font-weight: 200;" x="0" y="323.6571423666818" dx="0em" dy="0.3em" fill="rgb(50, 49, 63)" stroke="none" stroke-width="1px">0.875</text><text style="text-anchor: end; visibility: inherit; font-family: Roboto, sans-serif; font-size: 12px; font-weight: 200;" x="0" y="269.7142853055682" dx="0em" dy="0.3em" fill="rgb(50, 49, 63)" stroke="none" stroke-width="1px">0.88</text><text style="text-anchor: end; visibility: inherit; font-family: Roboto, sans-serif; font-size: 12px; font-weight: 200;" x="0" y="215.7714282444545" dx="0em" dy="0.3em" fill="rgb(50, 49, 63)" stroke="none" stroke-width="1px">0.885</text><text style="text-anchor: end; visibility: inherit; font-family: Roboto, sans-serif; font-size: 12px; font-weight: 200;" x="0" y="161.8285711833409" dx="0em" dy="0.3em" fill="rgb(50, 49, 63)" stroke="none" stroke-width="1px">0.89</text><text style="text-anchor: end; visibility: inherit; font-family: Roboto, sans-serif; font-size: 12px; font-weight: 200;" x="0" y="107.88571412222726" dx="0em" dy="0.3em" fill="rgb(50, 49, 63)" stroke="none" stroke-width="1px">0.895</text><text style="text-anchor: end; visibility: inherit; font-family: Roboto, sans-serif; font-size: 12px; font-weight: 200;" x="0" y="53.94285706111365" dx="0em" dy="0.3em" fill="rgb(50, 49, 63)" stroke="none" stroke-width="1px">0.9</text><text style="text-anchor: end; visibility: hidden; font-family: Roboto, sans-serif; font-size: 12px; font-weight: 200;" x="0" y="0" dx="0em" dy="0.3em" fill="rgb(50, 49, 63)" stroke="none" stroke-width="1px">0.905</text></g><line x1="61.91500186920166" y1="0" x2="61.91500186920166" y2="377.5999994277954" fill="rgb(0, 0, 0)" stroke="rgb(204, 204, 204)" stroke-width="1px"></line></g></g><g transform="translate(61, 0)" clip-path="url(#clip_0)"><clipPath id="clip_0"><rect width="1307" height="377"></rect></clipPath><g><g><g><line x1="0" y1="0" x2="0" y2="377.5999994277954" fill="rgb(0, 0, 0)" stroke="rgb(60, 60, 60)" stroke-width="1px" opacity="0.25"></line><line x1="108.92374984423319" y1="0" x2="108.92374984423319" y2="377.5999994277954" fill="rgb(0, 0, 0)" stroke="rgb(60, 60, 60)" stroke-width="1px" opacity="0.25"></line><line x1="217.84749968846637" y1="0" x2="217.84749968846637" y2="377.5999994277954" fill="rgb(0, 0, 0)" stroke="rgb(60, 60, 60)" stroke-width="1px" opacity="0.25"></line><line x1="326.7712495326996" y1="0" x2="326.7712495326996" y2="377.5999994277954" fill="rgb(0, 0, 0)" stroke="rgb(60, 60, 60)" stroke-width="1px" opacity="0.25"></line><line x1="435.69499937693274" y1="0" x2="435.69499937693274" y2="377.5999994277954" fill="rgb(0, 0, 0)" stroke="rgb(60, 60, 60)" stroke-width="1px" opacity="0.25"></line><line x1="544.618749221166" y1="0" x2="544.618749221166" y2="377.5999994277954" fill="rgb(0, 0, 0)" stroke="rgb(60, 60, 60)" stroke-width="1px" opacity="0.25"></line><line x1="653.5424990653992" y1="0" x2="653.5424990653992" y2="377.5999994277954" fill="rgb(0, 0, 0)" stroke="rgb(60, 60, 60)" stroke-width="1px" opacity="0.25"></line><line x1="762.4662489096324" y1="0" x2="762.4662489096324" y2="377.5999994277954" fill="rgb(0, 0, 0)" stroke="rgb(60, 60, 60)" stroke-width="1px" opacity="0.25"></line><line x1="871.3899987538655" y1="0" x2="871.3899987538655" y2="377.5999994277954" fill="rgb(0, 0, 0)" stroke="rgb(60, 60, 60)" stroke-width="1px" opacity="0.25"></line><line x1="980.3137485980988" y1="0" x2="980.3137485980988" y2="377.5999994277954" fill="rgb(0, 0, 0)" stroke="rgb(60, 60, 60)" stroke-width="1px" opacity="0.25"></line><line x1="1089.237498442332" y1="0" x2="1089.237498442332" y2="377.5999994277954" fill="rgb(0, 0, 0)" stroke="rgb(60, 60, 60)" stroke-width="1px" opacity="0.25"></line><line x1="1198.161248286565" y1="0" x2="1198.161248286565" y2="377.5999994277954" fill="rgb(0, 0, 0)" stroke="rgb(60, 60, 60)" stroke-width="1px" opacity="0.25"></line><line x1="1307.0849981307983" y1="0" x2="1307.0849981307983" y2="377.5999994277954" fill="rgb(0, 0, 0)" stroke="rgb(60, 60, 60)" stroke-width="1px" opacity="0.25"></line></g><g><line x1="0" y1="377.5999994277954" x2="1307.0849981307983" y2="377.5999994277954" fill="rgb(0, 0, 0)" stroke="rgb(60, 60, 60)" stroke-width="1px" opacity="0.25"></line><line x1="0" y1="323.6571423666818" x2="1307.0849981307983" y2="323.6571423666818" fill="rgb(0, 0, 0)" stroke="rgb(60, 60, 60)" stroke-width="1px" opacity="0.25"></line><line x1="0" y1="269.7142853055682" x2="1307.0849981307983" y2="269.7142853055682" fill="rgb(0, 0, 0)" stroke="rgb(60, 60, 60)" stroke-width="1px" opacity="0.25"></line><line x1="0" y1="215.7714282444545" x2="1307.0849981307983" y2="215.7714282444545" fill="rgb(0, 0, 0)" stroke="rgb(60, 60, 60)" stroke-width="1px" opacity="0.25"></line><line x1="0" y1="161.8285711833409" x2="1307.0849981307983" y2="161.8285711833409" fill="rgb(0, 0, 0)" stroke="rgb(60, 60, 60)" stroke-width="1px" opacity="0.25"></line><line x1="0" y1="107.88571412222726" x2="1307.0849981307983" y2="107.88571412222726" fill="rgb(0, 0, 0)" stroke="rgb(60, 60, 60)" stroke-width="1px" opacity="0.25"></line><line x1="0" y1="53.94285706111365" x2="1307.0849981307983" y2="53.94285706111365" fill="rgb(0, 0, 0)" stroke="rgb(60, 60, 60)" stroke-width="1px" opacity="0.25"></line><line x1="0" y1="0" x2="1307.0849981307983" y2="0" fill="rgb(0, 0, 0)" stroke="rgb(60, 60, 60)" stroke-width="1px" opacity="0.25"></line></g></g></g><g><g><line x1="0" y1="9763.657128061559" x2="1307.0849981307983" y2="9763.657128061559" fill="rgb(0, 0, 0)" stroke="rgb(153, 153, 153)" stroke-width="1.5px"></line></g></g><g><g><line x1="108.92374984423319" y1="0" x2="108.92374984423319" y2="377.5999994277954" fill="rgb(0, 0, 0)" stroke="rgb(153, 153, 153)" stroke-width="1.5px"></line></g></g><g><g><g><g><g><path style="fill: none;" stroke="rgb(0, 153, 136)" stroke-width="2px" d="M152.49324978192647,381.924452284663L174.27799975077312,275.2181928551239L196.06274971961975,174.12768005142206L217.84749968846637,154.47160228754205L239.63224965731303,115.1588037108154L261.4169996261597,115.1588037108154L283.20174959500633,117.96635549925062L304.98649956385293,112.35060887341348L326.7712495326996,109.54241403601156L348.55599950154624,103.92666741017442L370.34074947039284,89.88633627213156L392.1254994392395,87.07814143472969L413.91024940808614,101.11847257277255L435.69499937693274,87.07814143472969L457.4797493457794,103.92666741017442L479.26449931462605,101.11847257277255L501.0492492834727,106.7342191986097L522.8339992523194,109.54241403601156L544.618749221166,106.7342191986097L566.4034991900127,117.96635549925062L588.1882491588593,112.35060887341348L609.9729991277059,112.35060887341348L631.7577490965525,112.35060887341348L653.5424990653992,112.35060887341348L675.3272490342458,112.35060887341348L697.1119990030925,112.35060887341348L718.8967489719391,112.35060887341348L740.6814989407857,112.35060887341348L762.4662489096324,112.35060887341348L784.250998878479,112.35060887341348L806.0357488473256,112.35060887341348L827.8204988161723,112.35060887341348L849.605248785019,112.35060887341348L871.3899987538655,112.35060887341348L893.1747487227123,112.35060887341348L914.9594986915588,112.35060887341348L936.7442486604054,112.35060887341348L958.5289986292521,112.35060887341348L980.3137485980988,112.35060887341348L1002.0984985669454,112.35060887341348L1023.8832485357921,112.35060887341348L1045.6679985046387,112.35060887341348L1067.4527484734854,112.35060887341348L1089.237498442332,112.35060887341348L1111.0222484111785,112.35060887341348L1132.8069983800253,112.35060887341348L1154.5917483488718,112.35060887341348L1176.3764983177186,112.35060887341348" fill="none"></path></g><g><path style="fill: none;" stroke="rgb(204, 51, 17)" stroke-width="2px" d="M130.70849981307984,452.1261079748773L152.49324978192647,314.5309914318506L174.27799975077312,227.48080976619156L196.06274971961975,205.01653716490964L217.84749968846637,154.47160228754205L239.63224965731303,146.04701777533634L261.4169996261597,106.7342191986097L283.20174959500633,115.1588037108154L304.98649956385293,117.96635549925062L326.7712495326996,101.11847257277255L348.55599950154624,106.7342191986097L370.34074947039284,101.11847257277255L392.1254994392395,106.7342191986097L413.91024940808614,103.92666741017442L435.69499937693274,115.1588037108154L457.4797493457794,120.77455033665254L479.26449931462605,103.92666741017442L501.0492492834727,95.5020828979687L522.8339992523194,101.11847257277255L544.618749221166,89.88633627213156L566.4034991900127,98.31027773537063L588.1882491588593,103.92666741017442L609.9729991277059,98.31027773537063L631.7577490965525,92.69388806056683L653.5424990653992,101.11847257277255L675.3272490342458,101.11847257277255L697.1119990030925,101.11847257277255L718.8967489719391,101.11847257277255L740.6814989407857,98.31027773537063L762.4662489096324,98.31027773537063L784.250998878479,98.31027773537063L806.0357488473256,98.31027773537063L827.8204988161723,98.31027773537063L849.605248785019,98.31027773537063L871.3899987538655,98.31027773537063L893.1747487227123,98.31027773537063L914.9594986915588,98.31027773537063L936.7442486604054,98.31027773537063L958.5289986292521,98.31027773537063L980.3137485980988,98.31027773537063L1002.0984985669454,98.31027773537063L1023.8832485357921,98.31027773537063L1045.6679985046387,98.31027773537063L1067.4527484734854,98.31027773537063L1089.237498442332,98.31027773537063L1111.0222484111785,98.31027773537063L1132.8069983800253,98.31027773537063L1154.5917483488718,98.31027773537063L1176.3764983177186,98.31027773537063" fill="none"></path></g><g><path style="fill: none;" stroke="rgb(238, 51, 119)" stroke-width="2px" d="M130.70849981307984,494.24710138900576L152.49324978192647,244.32933574163633L174.27799975077312,188.1680111894649L196.06274971961975,160.0873489133792L217.84749968846637,103.92666741017442L239.63224965731303,89.88633627213156L261.4169996261597,87.07814143472969L283.20174959500633,101.11847257277255L304.98649956385293,64.61322578448113L326.7712495326996,84.26994659732777L348.55599950154624,87.07814143472969L370.34074947039284,78.65355692252398L392.1254994392395,81.46175175992586L413.91024940808614,73.03781029668683L435.69499937693274,89.88633627213156L457.4797493457794,92.69388806056683L479.26449931462605,95.5020828979687L501.0492492834727,92.69388806056683L522.8339992523194,89.88633627213156L544.618749221166,92.69388806056683L566.4034991900127,92.69388806056683L588.1882491588593,89.88633627213156L609.9729991277059,92.69388806056683L631.7577490965525,89.88633627213156L653.5424990653992,89.88633627213156L675.3272490342458,89.88633627213156L697.1119990030925,89.88633627213156L718.8967489719391,84.26994659732777L740.6814989407857,84.26994659732777L762.4662489096324,84.26994659732777L784.250998878479,84.26994659732777L806.0357488473256,84.26994659732777L827.8204988161723,84.26994659732777L849.605248785019,84.26994659732777L871.3899987538655,84.26994659732777L893.1747487227123,84.26994659732777L914.9594986915588,84.26994659732777L936.7442486604054,84.26994659732777L958.5289986292521,84.26994659732777L980.3137485980988,84.26994659732777L1002.0984985669454,84.26994659732777L1023.8832485357921,84.26994659732777L1045.6679985046387,84.26994659732777L1067.4527484734854,84.26994659732777L1089.237498442332,84.26994659732777L1111.0222484111785,84.26994659732777L1132.8069983800253,84.26994659732777L1154.5917483488718,84.26994659732777L1176.3764983177186,84.26994659732777" fill="none"></path></g><g><path style="fill: none;" stroke="rgb(51, 187, 238)" stroke-width="2px" d="M108.92374984423319,923.8803339445637L130.70849981307984,367.8841211466201L152.49324978192647,219.0568683029525L174.27799975077312,244.32933574163633L196.06274971961975,157.27979712494397L217.84749968846637,168.5119334255849L239.63224965731303,157.27979712494397L261.4169996261597,109.54241403601156L283.20174959500633,98.31027773537063L304.98649956385293,64.61322578448113L326.7712495326996,101.11847257277255L348.55599950154624,89.88633627213156L370.34074947039284,109.54241403601156L392.1254994392395,92.69388806056683L413.91024940808614,98.31027773537063L435.69499937693274,109.54241403601156L457.4797493457794,109.54241403601156L479.26449931462605,109.54241403601156L501.0492492834727,109.54241403601156L522.8339992523194,103.92666741017442L544.618749221166,106.7342191986097L566.4034991900127,106.7342191986097L588.1882491588593,98.31027773537063L609.9729991277059,98.31027773537063L631.7577490965525,101.11847257277255L653.5424990653992,101.11847257277255L675.3272490342458,101.11847257277255L697.1119990030925,101.11847257277255L718.8967489719391,101.11847257277255L740.6814989407857,101.11847257277255L762.4662489096324,101.11847257277255L784.250998878479,101.11847257277255L806.0357488473256,101.11847257277255L827.8204988161723,101.11847257277255L849.605248785019,101.11847257277255L871.3899987538655,101.11847257277255L893.1747487227123,101.11847257277255L914.9594986915588,101.11847257277255L936.7442486604054,101.11847257277255L958.5289986292521,101.11847257277255L980.3137485980988,101.11847257277255L1002.0984985669454,101.11847257277255L1023.8832485357921,101.11847257277255L1045.6679985046387,101.11847257277255L1067.4527484734854,101.11847257277255L1089.237498442332,101.11847257277255L1111.0222484111785,101.11847257277255L1132.8069983800253,101.11847257277255L1154.5917483488718,101.11847257277255L1176.3764983177186,101.11847257277255" fill="none"></path></g><g><path style="fill: none;" stroke="rgb(0, 119, 187)" stroke-width="2px" d="M130.70849981307984,522.3277636650914L152.49324978192647,320.1473811066544L174.27799975077312,219.0568683029525L196.06274971961975,202.20834232750775L217.84749968846637,134.8148814746954L239.63224965731303,126.39094001145634L261.4169996261597,120.77455033665254L283.20174959500633,112.35060887341348L304.98649956385293,95.5020828979687L326.7712495326996,106.7342191986097L348.55599950154624,112.35060887341348L370.34074947039284,117.96635549925062L392.1254994392395,101.11847257277255L413.91024940808614,101.11847257277255L435.69499937693274,95.5020828979687L457.4797493457794,87.07814143472969L479.26449931462605,89.88633627213156L501.0492492834727,92.69388806056683L522.8339992523194,101.11847257277255L544.618749221166,98.31027773537063L566.4034991900127,101.11847257277255L588.1882491588593,101.11847257277255L609.9729991277059,92.69388806056683L631.7577490965525,95.5020828979687L653.5424990653992,103.92666741017442L675.3272490342458,106.7342191986097L697.1119990030925,103.92666741017442L718.8967489719391,98.31027773537063L740.6814989407857,98.31027773537063L762.4662489096324,98.31027773537063L784.250998878479,98.31027773537063L806.0357488473256,98.31027773537063L827.8204988161723,98.31027773537063L849.605248785019,98.31027773537063L871.3899987538655,95.5020828979687L893.1747487227123,95.5020828979687L914.9594986915588,95.5020828979687L936.7442486604054,95.5020828979687L958.5289986292521,95.5020828979687L980.3137485980988,95.5020828979687L1002.0984985669454,95.5020828979687L1023.8832485357921,95.5020828979687L1045.6679985046387,95.5020828979687L1067.4527484734854,95.5020828979687L1089.237498442332,95.5020828979687L1111.0222484111785,95.5020828979687L1132.8069983800253,95.5020828979687L1154.5917483488718,95.5020828979687L1176.3764983177186,95.5020828979687" fill="none"></path></g><g><path style="fill: none;" stroke="rgb(255, 112, 67)" stroke-width="2px" d="M152.49324978192647,460.5500494381163L174.27799975077312,219.0568683029525L196.06274971961975,202.20834232750775L217.84749968846637,213.4404786281487L239.63224965731303,174.12768005142206L261.4169996261597,154.47160228754205L283.20174959500633,154.47160228754205L304.98649956385293,146.04701777533634L326.7712495326996,146.04701777533634L348.55599950154624,148.85521261273826L370.34074947039284,143.2394659869011L392.1254994392395,148.85521261273826L413.91024940808614,137.62307631209728L435.69499937693274,143.2394659869011L457.4797493457794,140.4312711494992L479.26449931462605,148.85521261273826L501.0492492834727,140.4312711494992L522.8339992523194,140.4312711494992L544.618749221166,137.62307631209728L566.4034991900127,143.2394659869011L588.1882491588593,143.2394659869011L609.9729991277059,143.2394659869011L631.7577490965525,143.2394659869011L653.5424990653992,143.2394659869011L675.3272490342458,143.2394659869011L697.1119990030925,143.2394659869011L718.8967489719391,143.2394659869011L740.6814989407857,143.2394659869011L762.4662489096324,137.62307631209728L784.250998878479,137.62307631209728L806.0357488473256,143.2394659869011L827.8204988161723,143.2394659869011L849.605248785019,143.2394659869011L871.3899987538655,143.2394659869011L893.1747487227123,143.2394659869011L914.9594986915588,143.2394659869011L936.7442486604054,143.2394659869011L958.5289986292521,143.2394659869011L980.3137485980988,143.2394659869011L1002.0984985669454,143.2394659869011L1023.8832485357921,143.2394659869011L1045.6679985046387,143.2394659869011L1067.4527484734854,143.2394659869011L1089.237498442332,143.2394659869011L1111.0222484111785,143.2394659869011L1132.8069983800253,143.2394659869011L1154.5917483488718,143.2394659869011L1176.3764983177186,143.2394659869011" fill="none"></path></g></g></g></g></g></g><g transform="translate(61, 377)" clip-path="url(#clip_1)"><clipPath id="clip_1"><rect width="1307" height="22"></rect></clipPath><g><g><line x1="0" y1="0" x2="0" y2="5" style="visibility: inherit;" fill="rgb(0, 0, 0)" stroke="rgb(204, 204, 204)" stroke-width="1px"></line><line x1="108.92374984423319" y1="0" x2="108.92374984423319" y2="5" style="visibility: inherit;" fill="rgb(0, 0, 0)" stroke="rgb(204, 204, 204)" stroke-width="1px"></line><line x1="217.84749968846637" y1="0" x2="217.84749968846637" y2="5" style="visibility: inherit;" fill="rgb(0, 0, 0)" stroke="rgb(204, 204, 204)" stroke-width="1px"></line><line x1="326.7712495326996" y1="0" x2="326.7712495326996" y2="5" style="visibility: inherit;" fill="rgb(0, 0, 0)" stroke="rgb(204, 204, 204)" stroke-width="1px"></line><line x1="435.69499937693274" y1="0" x2="435.69499937693274" y2="5" style="visibility: inherit;" fill="rgb(0, 0, 0)" stroke="rgb(204, 204, 204)" stroke-width="1px"></line><line x1="544.618749221166" y1="0" x2="544.618749221166" y2="5" style="visibility: inherit;" fill="rgb(0, 0, 0)" stroke="rgb(204, 204, 204)" stroke-width="1px"></line><line x1="653.5424990653992" y1="0" x2="653.5424990653992" y2="5" style="visibility: inherit;" fill="rgb(0, 0, 0)" stroke="rgb(204, 204, 204)" stroke-width="1px"></line><line x1="762.4662489096324" y1="0" x2="762.4662489096324" y2="5" style="visibility: inherit;" fill="rgb(0, 0, 0)" stroke="rgb(204, 204, 204)" stroke-width="1px"></line><line x1="871.3899987538655" y1="0" x2="871.3899987538655" y2="5" style="visibility: inherit;" fill="rgb(0, 0, 0)" stroke="rgb(204, 204, 204)" stroke-width="1px"></line><line x1="980.3137485980988" y1="0" x2="980.3137485980988" y2="5" style="visibility: inherit;" fill="rgb(0, 0, 0)" stroke="rgb(204, 204, 204)" stroke-width="1px"></line><line x1="1089.237498442332" y1="0" x2="1089.237498442332" y2="5" style="visibility: inherit;" fill="rgb(0, 0, 0)" stroke="rgb(204, 204, 204)" stroke-width="1px"></line><line x1="1198.161248286565" y1="0" x2="1198.161248286565" y2="5" style="visibility: inherit;" fill="rgb(0, 0, 0)" stroke="rgb(204, 204, 204)" stroke-width="1px"></line><line x1="1307.0849981307983" y1="0" x2="1307.0849981307983" y2="5" style="visibility: inherit;" fill="rgb(0, 0, 0)" stroke="rgb(204, 204, 204)" stroke-width="1px"></line></g><g transform="translate(0, 8)"><text style="text-anchor: middle; visibility: hidden; font-family: Roboto, sans-serif; font-size: 12px; font-weight: 200;" x="0" y="0" dx="0em" dy="0.95em" fill="rgb(50, 49, 63)" stroke="none" stroke-width="1px">-5</text><text style="text-anchor: middle; visibility: inherit; font-family: Roboto, sans-serif; font-size: 12px; font-weight: 200;" x="108.92374984423319" y="0" dx="0em" dy="0.95em" fill="rgb(50, 49, 63)" stroke="none" stroke-width="1px">0</text><text style="text-anchor: middle; visibility: inherit; font-family: Roboto, sans-serif; font-size: 12px; font-weight: 200;" x="217.84749968846637" y="0" dx="0em" dy="0.95em" fill="rgb(50, 49, 63)" stroke="none" stroke-width="1px">5</text><text style="text-anchor: middle; visibility: inherit; font-family: Roboto, sans-serif; font-size: 12px; font-weight: 200;" x="326.7712495326996" y="0" dx="0em" dy="0.95em" fill="rgb(50, 49, 63)" stroke="none" stroke-width="1px">10</text><text style="text-anchor: middle; visibility: inherit; font-family: Roboto, sans-serif; font-size: 12px; font-weight: 200;" x="435.69499937693274" y="0" dx="0em" dy="0.95em" fill="rgb(50, 49, 63)" stroke="none" stroke-width="1px">15</text><text style="text-anchor: middle; visibility: inherit; font-family: Roboto, sans-serif; font-size: 12px; font-weight: 200;" x="544.618749221166" y="0" dx="0em" dy="0.95em" fill="rgb(50, 49, 63)" stroke="none" stroke-width="1px">20</text><text style="text-anchor: middle; visibility: inherit; font-family: Roboto, sans-serif; font-size: 12px; font-weight: 200;" x="653.5424990653992" y="0" dx="0em" dy="0.95em" fill="rgb(50, 49, 63)" stroke="none" stroke-width="1px">25</text><text style="text-anchor: middle; visibility: inherit; font-family: Roboto, sans-serif; font-size: 12px; font-weight: 200;" x="762.4662489096324" y="0" dx="0em" dy="0.95em" fill="rgb(50, 49, 63)" stroke="none" stroke-width="1px">30</text><text style="text-anchor: middle; visibility: inherit; font-family: Roboto, sans-serif; font-size: 12px; font-weight: 200;" x="871.3899987538655" y="0" dx="0em" dy="0.95em" fill="rgb(50, 49, 63)" stroke="none" stroke-width="1px">35</text><text style="text-anchor: middle; visibility: inherit; font-family: Roboto, sans-serif; font-size: 12px; font-weight: 200;" x="980.3137485980988" y="0" dx="0em" dy="0.95em" fill="rgb(50, 49, 63)" stroke="none" stroke-width="1px">40</text><text style="text-anchor: middle; visibility: inherit; font-family: Roboto, sans-serif; font-size: 12px; font-weight: 200;" x="1089.237498442332" y="0" dx="0em" dy="0.95em" fill="rgb(50, 49, 63)" stroke="none" stroke-width="1px">45</text><text style="text-anchor: middle; visibility: inherit; font-family: Roboto, sans-serif; font-size: 12px; font-weight: 200;" x="1198.161248286565" y="0" dx="0em" dy="0.95em" fill="rgb(50, 49, 63)" stroke="none" stroke-width="1px">50</text><text style="text-anchor: middle; visibility: hidden; font-family: Roboto, sans-serif; font-size: 12px; font-weight: 200;" x="1307.0849981307983" y="0" dx="0em" dy="0.95em" fill="rgb(50, 49, 63)" stroke="none" stroke-width="1px">55</text></g><line x1="0" y1="0" x2="1307.0849981307983" y2="0" fill="rgb(0, 0, 0)" stroke="rgb(204, 204, 204)" stroke-width="1px"></line></g></g></g></g></svg>