<svg viewBox="0 0 800.5556030273438 400.0000305175781" xmlns="http://www.w3.org/2000/svg"><g><g><g><g><g><line x1="50" y1="378" x2="45" y2="378" style="visibility: inherit;" fill="rgb(0, 0, 0)" stroke="rgb(204, 204, 204)" stroke-width="1px"></line><line x1="50" y1="336" x2="45" y2="336" style="visibility: inherit;" fill="rgb(0, 0, 0)" stroke="rgb(204, 204, 204)" stroke-width="1px"></line><line x1="50" y1="293.99999999999994" x2="45" y2="293.99999999999994" style="visibility: inherit;" fill="rgb(0, 0, 0)" stroke="rgb(204, 204, 204)" stroke-width="1px"></line><line x1="50" y1="251.99999999999994" x2="45" y2="251.99999999999994" style="visibility: inherit;" fill="rgb(0, 0, 0)" stroke="rgb(204, 204, 204)" stroke-width="1px"></line><line x1="50" y1="210.00000000000014" x2="45" y2="210.00000000000014" style="visibility: inherit;" fill="rgb(0, 0, 0)" stroke="rgb(204, 204, 204)" stroke-width="1px"></line><line x1="50" y1="168.0000000000001" x2="45" y2="168.0000000000001" style="visibility: inherit;" fill="rgb(0, 0, 0)" stroke="rgb(204, 204, 204)" stroke-width="1px"></line><line x1="50" y1="126.0000000000001" x2="45" y2="126.0000000000001" style="visibility: inherit;" fill="rgb(0, 0, 0)" stroke="rgb(204, 204, 204)" stroke-width="1px"></line><line x1="50" y1="84.00000000000004" x2="45" y2="84.00000000000004" style="visibility: inherit;" fill="rgb(0, 0, 0)" stroke="rgb(204, 204, 204)" stroke-width="1px"></line><line x1="50" y1="42.00000000000002" x2="45" y2="42.00000000000002" style="visibility: inherit;" fill="rgb(0, 0, 0)" stroke="rgb(204, 204, 204)" stroke-width="1px"></line><line x1="50" y1="0" x2="45" y2="0" style="visibility: inherit;" fill="rgb(0, 0, 0)" stroke="rgb(204, 204, 204)" stroke-width="1px"></line></g><g transform="translate(40, 0)"><text x="0" y="378" dx="0em" dy="0.3em" style="text-anchor: end; visibility: hidden; font-family: Roboto, sans-serif; font-size: 12px; font-weight: 200;" fill="rgb(50, 49, 63)" stroke="none" stroke-width="1px">0.25</text><text x="0" y="336" dx="0em" dy="0.3em" style="text-anchor: end; visibility: inherit; font-family: Roboto, sans-serif; font-size: 12px; font-weight: 200;" fill="rgb(50, 49, 63)" stroke="none" stroke-width="1px">0.26</text><text x="0" y="293.99999999999994" dx="0em" dy="0.3em" style="text-anchor: end; visibility: inherit; font-family: Roboto, sans-serif; font-size: 12px; font-weight: 200;" fill="rgb(50, 49, 63)" stroke="none" stroke-width="1px">0.27</text><text x="0" y="251.99999999999994" dx="0em" dy="0.3em" style="text-anchor: end; visibility: inherit; font-family: Roboto, sans-serif; font-size: 12px; font-weight: 200;" fill="rgb(50, 49, 63)" stroke="none" stroke-width="1px">0.28</text><text x="0" y="210.00000000000014" dx="0em" dy="0.3em" style="text-anchor: end; visibility: inherit; font-family: Roboto, sans-serif; font-size: 12px; font-weight: 200;" fill="rgb(50, 49, 63)" stroke="none" stroke-width="1px">0.29</text><text x="0" y="168.0000000000001" dx="0em" dy="0.3em" style="text-anchor: end; visibility: inherit; font-family: Roboto, sans-serif; font-size: 12px; font-weight: 200;" fill="rgb(50, 49, 63)" stroke="none" stroke-width="1px">0.3</text><text x="0" y="126.0000000000001" dx="0em" dy="0.3em" style="text-anchor: end; visibility: inherit; font-family: Roboto, sans-serif; font-size: 12px; font-weight: 200;" fill="rgb(50, 49, 63)" stroke="none" stroke-width="1px">0.31</text><text x="0" y="84.00000000000004" dx="0em" dy="0.3em" style="text-anchor: end; visibility: inherit; font-family: Roboto, sans-serif; font-size: 12px; font-weight: 200;" fill="rgb(50, 49, 63)" stroke="none" stroke-width="1px">0.32</text><text x="0" y="42.00000000000002" dx="0em" dy="0.3em" style="text-anchor: end; visibility: inherit; font-family: Roboto, sans-serif; font-size: 12px; font-weight: 200;" fill="rgb(50, 49, 63)" stroke="none" stroke-width="1px">0.33</text><text x="0" y="0" dx="0em" dy="0.3em" style="text-anchor: end; visibility: hidden; font-family: Roboto, sans-serif; font-size: 12px; font-weight: 200;" fill="rgb(50, 49, 63)" stroke="none" stroke-width="1px">0.34</text></g><line x1="50" y1="0" x2="50" y2="378" fill="rgb(0, 0, 0)" stroke="rgb(204, 204, 204)" stroke-width="1px"></line></g></g><g transform="translate(50, 0)" clip-path="url(#clip_0)"><clipPath id="clip_0"><rect width="750" height="377"></rect></clipPath><g><g><g><line x1="0" y1="0" x2="0" y2="378" fill="rgb(0, 0, 0)" stroke="rgb(60, 60, 60)" stroke-width="1px" opacity="0.25"></line><line x1="62.54633333333334" y1="0" x2="62.54633333333334" y2="378" fill="rgb(0, 0, 0)" stroke="rgb(60, 60, 60)" stroke-width="1px" opacity="0.25"></line><line x1="125.09266666666667" y1="0" x2="125.09266666666667" y2="378" fill="rgb(0, 0, 0)" stroke="rgb(60, 60, 60)" stroke-width="1px" opacity="0.25"></line><line x1="187.639" y1="0" x2="187.639" y2="378" fill="rgb(0, 0, 0)" stroke="rgb(60, 60, 60)" stroke-width="1px" opacity="0.25"></line><line x1="250.18533333333335" y1="0" x2="250.18533333333335" y2="378" fill="rgb(0, 0, 0)" stroke="rgb(60, 60, 60)" stroke-width="1px" opacity="0.25"></line><line x1="312.7316666666667" y1="0" x2="312.7316666666667" y2="378" fill="rgb(0, 0, 0)" stroke="rgb(60, 60, 60)" stroke-width="1px" opacity="0.25"></line><line x1="375.278" y1="0" x2="375.278" y2="378" fill="rgb(0, 0, 0)" stroke="rgb(60, 60, 60)" stroke-width="1px" opacity="0.25"></line><line x1="437.82433333333336" y1="0" x2="437.82433333333336" y2="378" fill="rgb(0, 0, 0)" stroke="rgb(60, 60, 60)" stroke-width="1px" opacity="0.25"></line><line x1="500.3706666666667" y1="0" x2="500.3706666666667" y2="378" fill="rgb(0, 0, 0)" stroke="rgb(60, 60, 60)" stroke-width="1px" opacity="0.25"></line><line x1="562.917" y1="0" x2="562.917" y2="378" fill="rgb(0, 0, 0)" stroke="rgb(60, 60, 60)" stroke-width="1px" opacity="0.25"></line><line x1="625.4633333333334" y1="0" x2="625.4633333333334" y2="378" fill="rgb(0, 0, 0)" stroke="rgb(60, 60, 60)" stroke-width="1px" opacity="0.25"></line><line x1="688.0096666666667" y1="0" x2="688.0096666666667" y2="378" fill="rgb(0, 0, 0)" stroke="rgb(60, 60, 60)" stroke-width="1px" opacity="0.25"></line><line x1="750.556" y1="0" x2="750.556" y2="378" fill="rgb(0, 0, 0)" stroke="rgb(60, 60, 60)" stroke-width="1px" opacity="0.25"></line></g><g><line x1="0" y1="378" x2="750.556" y2="378" fill="rgb(0, 0, 0)" stroke="rgb(60, 60, 60)" stroke-width="1px" opacity="0.25"></line><line x1="0" y1="336" x2="750.556" y2="336" fill="rgb(0, 0, 0)" stroke="rgb(60, 60, 60)" stroke-width="1px" opacity="0.25"></line><line x1="0" y1="293.99999999999994" x2="750.556" y2="293.99999999999994" fill="rgb(0, 0, 0)" stroke="rgb(60, 60, 60)" stroke-width="1px" opacity="0.25"></line><line x1="0" y1="251.99999999999994" x2="750.556" y2="251.99999999999994" fill="rgb(0, 0, 0)" stroke="rgb(60, 60, 60)" stroke-width="1px" opacity="0.25"></line><line x1="0" y1="210.00000000000014" x2="750.556" y2="210.00000000000014" fill="rgb(0, 0, 0)" stroke="rgb(60, 60, 60)" stroke-width="1px" opacity="0.25"></line><line x1="0" y1="168.0000000000001" x2="750.556" y2="168.0000000000001" fill="rgb(0, 0, 0)" stroke="rgb(60, 60, 60)" stroke-width="1px" opacity="0.25"></line><line x1="0" y1="126.0000000000001" x2="750.556" y2="126.0000000000001" fill="rgb(0, 0, 0)" stroke="rgb(60, 60, 60)" stroke-width="1px" opacity="0.25"></line><line x1="0" y1="84.00000000000004" x2="750.556" y2="84.00000000000004" fill="rgb(0, 0, 0)" stroke="rgb(60, 60, 60)" stroke-width="1px" opacity="0.25"></line><line x1="0" y1="42.00000000000002" x2="750.556" y2="42.00000000000002" fill="rgb(0, 0, 0)" stroke="rgb(60, 60, 60)" stroke-width="1px" opacity="0.25"></line><line x1="0" y1="0" x2="750.556" y2="0" fill="rgb(0, 0, 0)" stroke="rgb(60, 60, 60)" stroke-width="1px" opacity="0.25"></line></g></g></g><g><g><line x1="0" y1="1427.9999999999998" x2="750.556" y2="1427.9999999999998" fill="rgb(0, 0, 0)" stroke="rgb(153, 153, 153)" stroke-width="1.5px"></line></g></g><g><g><line x1="62.54633333333334" y1="0" x2="62.54633333333334" y2="378" fill="rgb(0, 0, 0)" stroke="rgb(153, 153, 153)" stroke-width="1.5px"></line></g></g><g><g><g><g><g><path stroke="rgb(255, 112, 67)" stroke-width="2px" d="M75.05560000000001,-41.63685750961292L87.56486666666667,122.06991004943853L100.07413333333334,269.9634819030762L112.5834,290.6286327838898L125.09266666666667,282.1747927665711L137.60193333333333,307.32127118110657L150.11120000000003,311.0848753452301L162.6204666666667,311.1802546977997L175.12973333333335,300.9313552379609L187.639,312.1381788253784L200.14826666666667,313.0610554218292L212.65753333333333,315.08242177963257L225.1668,313.1630687713623L237.67606666666666,312.45035219192505L250.18533333333335,313.04390716552734L262.6946,314.014723777771L275.20386666666667,316.1852924823761L287.71313333333336,313.34969687461853L300.22240000000005,312.8672926425934L312.7316666666667,313.9625279903412L325.2409333333334,313.6649994850159L337.7502,313.9311103820801L350.2594666666667,314.04814410209656L362.76873333333333,313.9507620334625L375.278,314.0518991947174L387.7872666666667,313.8981907367707L400.29653333333334,313.9841823577881L412.80580000000003,313.91596484184265L425.31506666666667,313.9072029590607L437.82433333333336,313.8388602733612L450.3336,313.802561044693L462.84286666666674,313.78078150749207L475.3521333333333,313.77239513397217L487.86140000000006,313.78153252601624L500.3706666666667,313.78078150749207L512.8799333333334,313.7791543006897L525.3892,313.78040599823L537.8984666666666,313.78240871429443L550.4077333333333,313.78566312789917L562.917,313.7876658439636L575.4262666666667,313.7880413532257L587.9355333333334,313.78841686248785L600.4448000000001,313.78866720199585L612.9540666666667,313.78866720199585L625.4633333333334,313.78904271125793L637.9726,313.78904271125793L650.4818666666667,313.78891754150396L662.9911333333333,313.78891754150396L675.5004,313.7887923717499" style="fill: none;" fill="none"></path></g><g><path stroke="rgb(0, 153, 136)" stroke-width="2px" d="M100.07413333333334,-51.02471423149102L112.5834,37.75744128227245L125.09266666666667,72.088500738144L137.60193333333333,97.50784921646125L150.11120000000003,145.1419501304627L162.6204666666667,156.36266756057745L175.12973333333335,166.97255659103396L187.639,155.4440467357636L200.14826666666667,160.04153180122384L212.65753333333333,165.1122837066651L225.1668,177.84843134880072L237.67606666666666,172.73962783813482L250.18533333333335,168.68500399589544L262.6946,167.49839472770697L275.20386666666667,171.8706994056702L287.71313333333336,174.3320374488831L300.22240000000005,175.17805981636053L312.7316666666667,174.7019140720368L325.2409333333334,173.97730636596683L337.7502,176.05074334144595L350.2594666666667,175.75346517562872L362.76873333333333,176.0578780174256L375.278,175.91305661201483L387.7872666666667,176.07502627372747L400.29653333333334,175.86373972892764L412.80580000000003,176.03021550178534L425.31506666666667,175.95198440551763L437.82433333333336,175.86999821662909L450.3336,175.89778590202337L462.84286666666674,176.0078101158143L475.3521333333333,176.0018019676209L487.86140000000006,175.99979925155645L500.3706666666667,175.98953533172613L512.8799333333334,175.99654483795175L525.3892,176.01018834114078L537.8984666666666,176.0136930942536L550.4077333333333,176.02057743072515L562.917,176.02132844924935L575.4262666666667,176.02057743072515L587.9355333333334,176.02182912826544L600.4448000000001,176.02182912826544L612.9540666666667,176.02232980728155L625.4633333333334,176.0220794677735L637.9726,176.02195429801944L650.4818666666667,176.02195429801944L662.9911333333333,176.02220463752752L675.5004,176.02232980728155" style="fill: none;" fill="none"></path></g><g><path stroke="rgb(187, 187, 187)" stroke-width="2px" d="M62.54633333333334,-332.29867529869057L75.05560000000001,67.08972144126902L87.56486666666667,84.8056225776673L100.07413333333334,219.10913872718814L112.5834,254.89304351806643L125.09266666666667,257.9548208713532L137.60193333333333,268.1047110557556L150.11120000000003,270.4367487430573L162.6204666666667,249.71264290809634L175.12973333333335,257.0370762348175L187.639,259.44509196281433L200.14826666666667,258.64913749694824L212.65753333333333,255.6005029678345L225.1668,254.16543173789978L237.67606666666666,255.13124155998233L250.18533333333335,257.71174120903015L262.6946,257.3817937374115L275.20386666666667,256.51599454879766L287.71313333333336,256.28405499458313L300.22240000000005,252.8462677001953L312.7316666666667,253.04441142082217L325.2409333333334,253.1909852027893L337.7502,253.44946074485784L350.2594666666667,253.507789850235L362.76873333333333,253.7760286331177L375.278,253.4540920257569L387.7872666666667,253.193738937378L400.29653333333334,253.10624527931216L412.80580000000003,253.00936388969424L425.31506666666667,252.9963462352753L437.82433333333336,252.95967149734503L450.3336,252.97356534004211L462.84286666666674,252.98495578765872L475.3521333333333,253.00510811805725L487.86140000000006,252.99234080314642L500.3706666666667,252.98946189880374L512.8799333333334,253.00122785568243L525.3892,253.003856420517L537.8984666666666,253.01286864280704L550.4077333333333,253.0162482261658L562.917,253.0185012817383L575.4262666666667,253.0188767910004L587.9355333333334,253.02000331878665L600.4448000000001,253.02087950706482L612.9540666666667,253.0205039978028L625.4633333333334,253.02012848854068L637.9726,253.0205039978028L650.4818666666667,253.02025365829473L662.9911333333333,253.02025365829473L675.5004,253.02025365829473" style="fill: none;" fill="none"></path></g><g><path stroke="rgb(204, 51, 17)" stroke-width="2px" d="M75.05560000000001,-40.073487281799224L87.56486666666667,136.04999470710763L100.07413333333334,166.1951272487641L112.5834,210.87897706031802L125.09266666666667,192.32606577873233L137.60193333333333,196.66895556449893L150.11120000000003,197.9645876884461L162.6204666666667,199.1111426353455L175.12973333333335,212.30503606796267L187.639,213.67752242088324L200.14826666666667,220.48588085174563L212.65753333333333,217.826649427414L225.1668,217.14797902107242L237.67606666666666,217.08276557922366L250.18533333333335,216.3978366851807L262.6946,214.1688137054444L275.20386666666667,213.05780696868902L287.71313333333336,214.65059208869937L300.22240000000005,216.32761645317083L312.7316666666667,216.5797083377839L325.2409333333334,216.31197023391726L337.7502,216.16301822662356L350.2594666666667,215.8235578536988L362.76873333333333,216.42274546623236L375.278,216.72740864753726L387.7872666666667,216.8669729232789L400.29653333333334,216.7448072433472L412.80580000000003,216.6324048042298L425.31506666666667,216.66394758224493L437.82433333333336,216.7270331382752L450.3336,216.71864676475528L462.84286666666674,216.68059515953067L475.3521333333333,216.65293264389047L487.86140000000006,216.6629462242127L500.3706666666667,216.65568637847903L512.8799333333334,216.6518061161042L525.3892,216.65919113159183L537.8984666666666,216.6546850204468L550.4077333333333,216.65806460380557L562.917,216.65668773651126L575.4262666666667,216.65806460380557L587.9355333333334,216.65856528282174L600.4448000000001,216.65919113159183L612.9540666666667,216.66006731987002L625.4633333333334,216.66006731987002L637.9726,216.66031765937808L650.4818666666667,216.66019248962405L662.9911333333333,216.66031765937808L675.5004,216.66019248962405" style="fill: none;" fill="none"></path></g><g><path stroke="rgb(0, 119, 187)" stroke-width="2px" d="M87.56486666666667,-55.02801847457876L100.07413333333334,56.87824773788461L112.5834,158.6881964206696L125.09266666666667,173.46411037445077L137.60193333333333,178.0350594520569L150.11120000000003,190.16613650321963L162.6204666666667,216.20858001708987L175.12973333333335,229.55042409896856L187.639,231.34022641181951L200.14826666666667,217.3205881118775L212.65753333333333,231.0614733695984L225.1668,222.825428724289L237.67606666666666,226.1208980083466L250.18533333333335,225.33345508575442L262.6946,225.2448348999024L275.20386666666667,222.8370695114136L287.71313333333336,224.32846713066104L300.22240000000005,222.64430809021L312.7316666666667,223.3306138515473L325.2409333333334,224.02480530738836L337.7502,225.54599332809454L350.2594666666667,225.72636294364932L362.76873333333333,225.9467868804932L375.278,225.50318527221685L387.7872666666667,225.28952050209048L400.29653333333334,225.01314568519598L412.80580000000003,224.9660818576813L425.31506666666667,225.16359972953802L437.82433333333336,225.1648514270783L450.3336,225.19639420509344L462.84286666666674,225.13130593299869L475.3521333333333,225.15133309364325L487.86140000000006,225.1335589885712L500.3706666666667,225.16109633445743L512.8799333333334,225.19313979148868L525.3892,225.19576835632327L537.8984666666666,225.20740914344793L550.4077333333333,225.21141457557684L562.917,225.21329212188726L575.4262666666667,225.21366763114935L587.9355333333334,225.2140431404114L600.4448000000001,225.21504449844363L612.9540666666667,225.2140431404114L625.4633333333334,225.21441864967352L637.9726,225.2142934799195L650.4818666666667,225.2142934799195L662.9911333333333,225.21441864967352L675.5004,225.2142934799195" style="fill: none;" fill="none"></path></g><g><path stroke="rgb(238, 51, 119)" stroke-width="2px" d="M62.54633333333334,-488.97903871536226L75.05560000000001,42.28470611572275L87.56486666666667,173.97980976104742L100.07413333333334,201.29260110855108L112.5834,193.78629612922674L125.09266666666667,222.03723478317264L137.60193333333333,227.88253712654117L150.11120000000003,211.639132976532L162.6204666666667,232.5051813125611L175.12973333333335,218.38040041923526L187.639,209.61301016807562L200.14826666666667,220.54721403121954L212.65753333333333,206.781795501709L225.1668,205.41882205009466L237.67606666666666,208.85610866546637L250.18533333333335,209.03622794151312L262.6946,206.84337902069097L275.20386666666667,211.51609110832217L287.71313333333336,212.75214242935184L300.22240000000005,211.77168774604806L312.7316666666667,212.06846523284915L325.2409333333334,211.868819475174L337.7502,212.3266904354096L350.2594666666667,211.96457433700567L362.76873333333333,212.05607342720035L375.278,211.91650915145877L387.7872666666667,211.9416682720185L400.29653333333334,211.89835953712466L412.80580000000003,211.9422941207886L425.31506666666667,212.04017686843875L437.82433333333336,212.1276705265046L450.3336,212.1828703880311L462.84286666666674,212.20615196228033L475.3521333333333,212.19401049613958L487.86140000000006,212.20152068138125L500.3706666666667,212.20389890670782L512.8799333333334,212.21691656112677L525.3892,212.21729207038882L537.8984666666666,212.22054648399356L550.4077333333333,212.2219233512879L562.917,212.22217369079596L575.4262666666667,212.22092199325567L587.9355333333334,212.22154784202579L600.4448000000001,212.22129750251773L612.9540666666667,212.22129750251773L625.4633333333334,212.22154784202579L637.9726,212.22154784202579L650.4818666666667,212.22179818153384L662.9911333333333,212.22142267227179L675.5004,212.22154784202579" style="fill: none;" fill="none"></path></g><g><path stroke="rgb(51, 187, 238)" stroke-width="2px" d="M75.05560000000001,-11.0013098716735L87.56486666666667,117.55791592597969L100.07413333333334,103.65180659294134L112.5834,77.91465210914618L125.09266666666667,159.10476136207586L137.60193333333333,155.8793871402741L150.11120000000003,151.7252533435822L162.6204666666667,184.6446483135224L175.12973333333335,172.1335558891297L187.639,173.83336114883429L200.14826666666667,179.81985497474676L212.65753333333333,189.7277920246125L225.1668,187.90018844604498L237.67606666666666,184.90775513648993L250.18533333333335,182.8669874668122L262.6946,184.25737309455874L275.20386666666667,181.83083224296573L287.71313333333336,181.19697260856634L300.22240000000005,181.26644182205203L312.7316666666667,179.64624452590948L325.2409333333334,178.72724819183358L337.7502,179.12265944480905L350.2594666666667,179.4027893543244L362.76873333333333,179.4270722866059L375.278,179.5034258365632L387.7872666666667,179.4947891235352L400.29653333333334,179.41555666923531L412.80580000000003,179.31692290306097L425.31506666666667,179.30240321159366L437.82433333333336,179.2936413288117L450.3336,179.28863453865057L462.84286666666674,179.28838419914248L475.3521333333333,179.27599239349368L487.86140000000006,179.27761960029605L500.3706666666667,179.27987265586856L512.8799333333334,179.29176378250125L525.3892,179.29414200782782L537.8984666666666,179.299399137497L550.4077333333333,179.2990236282349L562.917,179.30090117454534L575.4262666666667,179.30052566528326L587.9355333333334,179.30015015602115L600.4448000000001,179.30102634429937L612.9540666666667,179.3007760047913L625.4633333333334,179.30090117454534L637.9726,179.30065083503732L650.4818666666667,179.3007760047913L662.9911333333333,179.3007760047913L675.5004,179.30065083503732" style="fill: none;" fill="none"></path></g></g></g></g></g></g><g transform="translate(50, 378)" clip-path="url(#clip_1)"><clipPath id="clip_1"><rect width="750" height="21"></rect></clipPath><g><g><line x1="0" y1="0" x2="0" y2="5" style="visibility: inherit;" fill="rgb(0, 0, 0)" stroke="rgb(204, 204, 204)" stroke-width="1px"></line><line x1="62.54633333333334" y1="0" x2="62.54633333333334" y2="5" style="visibility: inherit;" fill="rgb(0, 0, 0)" stroke="rgb(204, 204, 204)" stroke-width="1px"></line><line x1="125.09266666666667" y1="0" x2="125.09266666666667" y2="5" style="visibility: inherit;" fill="rgb(0, 0, 0)" stroke="rgb(204, 204, 204)" stroke-width="1px"></line><line x1="187.639" y1="0" x2="187.639" y2="5" style="visibility: inherit;" fill="rgb(0, 0, 0)" stroke="rgb(204, 204, 204)" stroke-width="1px"></line><line x1="250.18533333333335" y1="0" x2="250.18533333333335" y2="5" style="visibility: inherit;" fill="rgb(0, 0, 0)" stroke="rgb(204, 204, 204)" stroke-width="1px"></line><line x1="312.7316666666667" y1="0" x2="312.7316666666667" y2="5" style="visibility: inherit;" fill="rgb(0, 0, 0)" stroke="rgb(204, 204, 204)" stroke-width="1px"></line><line x1="375.278" y1="0" x2="375.278" y2="5" style="visibility: inherit;" fill="rgb(0, 0, 0)" stroke="rgb(204, 204, 204)" stroke-width="1px"></line><line x1="437.82433333333336" y1="0" x2="437.82433333333336" y2="5" style="visibility: inherit;" fill="rgb(0, 0, 0)" stroke="rgb(204, 204, 204)" stroke-width="1px"></line><line x1="500.3706666666667" y1="0" x2="500.3706666666667" y2="5" style="visibility: inherit;" fill="rgb(0, 0, 0)" stroke="rgb(204, 204, 204)" stroke-width="1px"></line><line x1="562.917" y1="0" x2="562.917" y2="5" style="visibility: inherit;" fill="rgb(0, 0, 0)" stroke="rgb(204, 204, 204)" stroke-width="1px"></line><line x1="625.4633333333334" y1="0" x2="625.4633333333334" y2="5" style="visibility: inherit;" fill="rgb(0, 0, 0)" stroke="rgb(204, 204, 204)" stroke-width="1px"></line><line x1="688.0096666666667" y1="0" x2="688.0096666666667" y2="5" style="visibility: inherit;" fill="rgb(0, 0, 0)" stroke="rgb(204, 204, 204)" stroke-width="1px"></line><line x1="750.556" y1="0" x2="750.556" y2="5" style="visibility: inherit;" fill="rgb(0, 0, 0)" stroke="rgb(204, 204, 204)" stroke-width="1px"></line></g><g transform="translate(0, 8)"><text x="0" y="0" dx="0em" dy="0.95em" style="text-anchor: middle; visibility: hidden; font-family: Roboto, sans-serif; font-size: 12px; font-weight: 200;" fill="rgb(50, 49, 63)" stroke="none" stroke-width="1px">-5</text><text x="62.54633333333334" y="0" dx="0em" dy="0.95em" style="text-anchor: middle; visibility: inherit; font-family: Roboto, sans-serif; font-size: 12px; font-weight: 200;" fill="rgb(50, 49, 63)" stroke="none" stroke-width="1px">0</text><text x="125.09266666666667" y="0" dx="0em" dy="0.95em" style="text-anchor: middle; visibility: inherit; font-family: Roboto, sans-serif; font-size: 12px; font-weight: 200;" fill="rgb(50, 49, 63)" stroke="none" stroke-width="1px">5</text><text x="187.639" y="0" dx="0em" dy="0.95em" style="text-anchor: middle; visibility: inherit; font-family: Roboto, sans-serif; font-size: 12px; font-weight: 200;" fill="rgb(50, 49, 63)" stroke="none" stroke-width="1px">10</text><text x="250.18533333333335" y="0" dx="0em" dy="0.95em" style="text-anchor: middle; visibility: inherit; font-family: Roboto, sans-serif; font-size: 12px; font-weight: 200;" fill="rgb(50, 49, 63)" stroke="none" stroke-width="1px">15</text><text x="312.7316666666667" y="0" dx="0em" dy="0.95em" style="text-anchor: middle; visibility: inherit; font-family: Roboto, sans-serif; font-size: 12px; font-weight: 200;" fill="rgb(50, 49, 63)" stroke="none" stroke-width="1px">20</text><text x="375.278" y="0" dx="0em" dy="0.95em" style="text-anchor: middle; visibility: inherit; font-family: Roboto, sans-serif; font-size: 12px; font-weight: 200;" fill="rgb(50, 49, 63)" stroke="none" stroke-width="1px">25</text><text x="437.82433333333336" y="0" dx="0em" dy="0.95em" style="text-anchor: middle; visibility: inherit; font-family: Roboto, sans-serif; font-size: 12px; font-weight: 200;" fill="rgb(50, 49, 63)" stroke="none" stroke-width="1px">30</text><text x="500.3706666666667" y="0" dx="0em" dy="0.95em" style="text-anchor: middle; visibility: inherit; font-family: Roboto, sans-serif; font-size: 12px; font-weight: 200;" fill="rgb(50, 49, 63)" stroke="none" stroke-width="1px">35</text><text x="562.917" y="0" dx="0em" dy="0.95em" style="text-anchor: middle; visibility: inherit; font-family: Roboto, sans-serif; font-size: 12px; font-weight: 200;" fill="rgb(50, 49, 63)" stroke="none" stroke-width="1px">40</text><text x="625.4633333333334" y="0" dx="0em" dy="0.95em" style="text-anchor: middle; visibility: inherit; font-family: Roboto, sans-serif; font-size: 12px; font-weight: 200;" fill="rgb(50, 49, 63)" stroke="none" stroke-width="1px">45</text><text x="688.0096666666667" y="0" dx="0em" dy="0.95em" style="text-anchor: middle; visibility: inherit; font-family: Roboto, sans-serif; font-size: 12px; font-weight: 200;" fill="rgb(50, 49, 63)" stroke="none" stroke-width="1px">50</text><text x="750.556" y="0" dx="0em" dy="0.95em" style="text-anchor: middle; visibility: hidden; font-family: Roboto, sans-serif; font-size: 12px; font-weight: 200;" fill="rgb(50, 49, 63)" stroke="none" stroke-width="1px">55</text></g><line x1="0" y1="0" x2="750.556" y2="0" fill="rgb(0, 0, 0)" stroke="rgb(204, 204, 204)" stroke-width="1px"></line></g></g></g></g></svg>