<svg viewBox="0 0 800.5556030273438 400.0000305175781" xmlns="http://www.w3.org/2000/svg"><g><g><g><g><g><line x1="60" y1="378" x2="55" y2="378" style="visibility: inherit;" fill="rgb(0, 0, 0)" stroke="rgb(204, 204, 204)" stroke-width="1px"></line><line x1="60" y1="330.75" x2="55" y2="330.75" style="visibility: inherit;" fill="rgb(0, 0, 0)" stroke="rgb(204, 204, 204)" stroke-width="1px"></line><line x1="60" y1="283.5" x2="55" y2="283.5" style="visibility: inherit;" fill="rgb(0, 0, 0)" stroke="rgb(204, 204, 204)" stroke-width="1px"></line><line x1="60" y1="236.25" x2="55" y2="236.25" style="visibility: inherit;" fill="rgb(0, 0, 0)" stroke="rgb(204, 204, 204)" stroke-width="1px"></line><line x1="60" y1="189" x2="55" y2="189" style="visibility: inherit;" fill="rgb(0, 0, 0)" stroke="rgb(204, 204, 204)" stroke-width="1px"></line><line x1="60" y1="141.75" x2="55" y2="141.75" style="visibility: inherit;" fill="rgb(0, 0, 0)" stroke="rgb(204, 204, 204)" stroke-width="1px"></line><line x1="60" y1="94.5" x2="55" y2="94.5" style="visibility: inherit;" fill="rgb(0, 0, 0)" stroke="rgb(204, 204, 204)" stroke-width="1px"></line><line x1="60" y1="47.25" x2="55" y2="47.25" style="visibility: inherit;" fill="rgb(0, 0, 0)" stroke="rgb(204, 204, 204)" stroke-width="1px"></line><line x1="60" y1="0" x2="55" y2="0" style="visibility: inherit;" fill="rgb(0, 0, 0)" stroke="rgb(204, 204, 204)" stroke-width="1px"></line></g><g transform="translate(50, 0)"><text x="0" y="378" dx="0em" dy="0.3em" style="text-anchor: end; visibility: hidden; font-family: Roboto, sans-serif; font-size: 12px; font-weight: 200;" fill="rgb(50, 49, 63)" stroke="none" stroke-width="1px">0.865</text><text x="0" y="330.75" dx="0em" dy="0.3em" style="text-anchor: end; visibility: inherit; font-family: Roboto, sans-serif; font-size: 12px; font-weight: 200;" fill="rgb(50, 49, 63)" stroke="none" stroke-width="1px">0.87</text><text x="0" y="283.5" dx="0em" dy="0.3em" style="text-anchor: end; visibility: inherit; font-family: Roboto, sans-serif; font-size: 12px; font-weight: 200;" fill="rgb(50, 49, 63)" stroke="none" stroke-width="1px">0.875</text><text x="0" y="236.25" dx="0em" dy="0.3em" style="text-anchor: end; visibility: inherit; font-family: Roboto, sans-serif; font-size: 12px; font-weight: 200;" fill="rgb(50, 49, 63)" stroke="none" stroke-width="1px">0.88</text><text x="0" y="189" dx="0em" dy="0.3em" style="text-anchor: end; visibility: inherit; font-family: Roboto, sans-serif; font-size: 12px; font-weight: 200;" fill="rgb(50, 49, 63)" stroke="none" stroke-width="1px">0.885</text><text x="0" y="141.75" dx="0em" dy="0.3em" style="text-anchor: end; visibility: inherit; font-family: Roboto, sans-serif; font-size: 12px; font-weight: 200;" fill="rgb(50, 49, 63)" stroke="none" stroke-width="1px">0.89</text><text x="0" y="94.5" dx="0em" dy="0.3em" style="text-anchor: end; visibility: inherit; font-family: Roboto, sans-serif; font-size: 12px; font-weight: 200;" fill="rgb(50, 49, 63)" stroke="none" stroke-width="1px">0.895</text><text x="0" y="47.25" dx="0em" dy="0.3em" style="text-anchor: end; visibility: inherit; font-family: Roboto, sans-serif; font-size: 12px; font-weight: 200;" fill="rgb(50, 49, 63)" stroke="none" stroke-width="1px">0.9</text><text x="0" y="0" dx="0em" dy="0.3em" style="text-anchor: end; visibility: hidden; font-family: Roboto, sans-serif; font-size: 12px; font-weight: 200;" fill="rgb(50, 49, 63)" stroke="none" stroke-width="1px">0.905</text></g><line x1="60" y1="0" x2="60" y2="378" fill="rgb(0, 0, 0)" stroke="rgb(204, 204, 204)" stroke-width="1px"></line></g></g><g transform="translate(60, 0)" clip-path="url(#clip_0)"><clipPath id="clip_0"><rect width="740" height="377"></rect></clipPath><g><g><g><line x1="0" y1="0" x2="0" y2="378" fill="rgb(0, 0, 0)" stroke="rgb(60, 60, 60)" stroke-width="1px" opacity="0.25"></line><line x1="61.713" y1="0" x2="61.713" y2="378" fill="rgb(0, 0, 0)" stroke="rgb(60, 60, 60)" stroke-width="1px" opacity="0.25"></line><line x1="123.426" y1="0" x2="123.426" y2="378" fill="rgb(0, 0, 0)" stroke="rgb(60, 60, 60)" stroke-width="1px" opacity="0.25"></line><line x1="185.139" y1="0" x2="185.139" y2="378" fill="rgb(0, 0, 0)" stroke="rgb(60, 60, 60)" stroke-width="1px" opacity="0.25"></line><line x1="246.852" y1="0" x2="246.852" y2="378" fill="rgb(0, 0, 0)" stroke="rgb(60, 60, 60)" stroke-width="1px" opacity="0.25"></line><line x1="308.56500000000005" y1="0" x2="308.56500000000005" y2="378" fill="rgb(0, 0, 0)" stroke="rgb(60, 60, 60)" stroke-width="1px" opacity="0.25"></line><line x1="370.278" y1="0" x2="370.278" y2="378" fill="rgb(0, 0, 0)" stroke="rgb(60, 60, 60)" stroke-width="1px" opacity="0.25"></line><line x1="431.99100000000004" y1="0" x2="431.99100000000004" y2="378" fill="rgb(0, 0, 0)" stroke="rgb(60, 60, 60)" stroke-width="1px" opacity="0.25"></line><line x1="493.704" y1="0" x2="493.704" y2="378" fill="rgb(0, 0, 0)" stroke="rgb(60, 60, 60)" stroke-width="1px" opacity="0.25"></line><line x1="555.417" y1="0" x2="555.417" y2="378" fill="rgb(0, 0, 0)" stroke="rgb(60, 60, 60)" stroke-width="1px" opacity="0.25"></line><line x1="617.1300000000001" y1="0" x2="617.1300000000001" y2="378" fill="rgb(0, 0, 0)" stroke="rgb(60, 60, 60)" stroke-width="1px" opacity="0.25"></line><line x1="678.843" y1="0" x2="678.843" y2="378" fill="rgb(0, 0, 0)" stroke="rgb(60, 60, 60)" stroke-width="1px" opacity="0.25"></line><line x1="740.556" y1="0" x2="740.556" y2="378" fill="rgb(0, 0, 0)" stroke="rgb(60, 60, 60)" stroke-width="1px" opacity="0.25"></line></g><g><line x1="0" y1="378" x2="740.556" y2="378" fill="rgb(0, 0, 0)" stroke="rgb(60, 60, 60)" stroke-width="1px" opacity="0.25"></line><line x1="0" y1="330.75" x2="740.556" y2="330.75" fill="rgb(0, 0, 0)" stroke="rgb(60, 60, 60)" stroke-width="1px" opacity="0.25"></line><line x1="0" y1="283.5" x2="740.556" y2="283.5" fill="rgb(0, 0, 0)" stroke="rgb(60, 60, 60)" stroke-width="1px" opacity="0.25"></line><line x1="0" y1="236.25" x2="740.556" y2="236.25" fill="rgb(0, 0, 0)" stroke="rgb(60, 60, 60)" stroke-width="1px" opacity="0.25"></line><line x1="0" y1="189" x2="740.556" y2="189" fill="rgb(0, 0, 0)" stroke="rgb(60, 60, 60)" stroke-width="1px" opacity="0.25"></line><line x1="0" y1="141.75" x2="740.556" y2="141.75" fill="rgb(0, 0, 0)" stroke="rgb(60, 60, 60)" stroke-width="1px" opacity="0.25"></line><line x1="0" y1="94.5" x2="740.556" y2="94.5" fill="rgb(0, 0, 0)" stroke="rgb(60, 60, 60)" stroke-width="1px" opacity="0.25"></line><line x1="0" y1="47.25" x2="740.556" y2="47.25" fill="rgb(0, 0, 0)" stroke="rgb(60, 60, 60)" stroke-width="1px" opacity="0.25"></line><line x1="0" y1="0" x2="740.556" y2="0" fill="rgb(0, 0, 0)" stroke="rgb(60, 60, 60)" stroke-width="1px" opacity="0.25"></line></g></g></g><g><g><line x1="0" y1="8552.249999999993" x2="740.556" y2="8552.249999999993" fill="rgb(0, 0, 0)" stroke="rgb(153, 153, 153)" stroke-width="1.5px"></line></g></g><g><g><line x1="61.713" y1="0" x2="61.713" y2="378" fill="rgb(0, 0, 0)" stroke="rgb(153, 153, 153)" stroke-width="1.5px"></line></g></g><g><g><g><g><g><path stroke="rgb(255, 112, 67)" stroke-width="2px" d="M86.3982,403.4081808328628L98.74080000000001,191.87780535221108L111.0834,177.119728088379L123.426,186.958258509636L135.7686,152.5231204032899L148.11120000000003,135.3058329820634L160.4538,135.3058329820634L172.7964,127.92651271820081L185.139,127.92651271820081L197.48160000000001,130.38628613948833L209.82420000000002,125.4673025608064L222.1668,130.38628613948833L234.5094,120.54775571823133L246.852,125.4673025608064L259.1946,123.00752913951887L271.5372,130.38628613948833L283.87980000000005,123.00752913951887L296.22240000000005,123.00752913951887L308.56500000000005,120.54775571823133L320.9076,125.4673025608064L333.2502,125.4673025608064L345.5928,125.4673025608064L357.9354,125.4673025608064L370.278,125.4673025608064L382.6206000000001,125.4673025608064L394.96320000000003,125.4673025608064L407.30580000000003,125.4673025608064L419.64840000000004,125.4673025608064L431.99100000000004,120.54775571823133L444.3336,120.54775571823133L456.67620000000005,125.4673025608064L469.0188,125.4673025608064L481.36140000000006,125.4673025608064L493.704,125.4673025608064L506.0466,125.4673025608064L518.3892,125.4673025608064L530.7318,125.4673025608064L543.0744,125.4673025608064L555.417,125.4673025608064L567.7596000000001,125.4673025608064L580.1022,125.4673025608064L592.4448000000001,125.4673025608064L604.7874,125.4673025608064L617.1300000000001,125.4673025608064L629.4726,125.4673025608064L641.8152,125.4673025608064L654.1578000000001,125.4673025608064L666.5004,125.4673025608064" style="fill: none;" fill="none"></path></g><g><path stroke="rgb(0, 153, 136)" stroke-width="2px" d="M86.3982,464.89970004558546L98.74080000000001,324.6993741989135L111.0834,268.12740182876587L123.426,223.85317003726968L135.7686,221.39339661598214L148.11120000000003,194.33757877349862L160.4538,172.20074450969705L172.7964,169.7409710884095L185.139,184.4990483522416L197.48160000000001,169.7409710884095L209.82420000000002,174.65995466709145L222.1668,164.82142424583446L234.5094,162.36165082454693L246.852,167.28119766712197L259.1946,162.36165082454693L271.5372,162.36165082454693L283.87980000000005,174.65995466709145L296.22240000000005,164.82142424583446L308.56500000000005,152.5231204032899L320.9076,162.36165082454693L333.2502,164.82142424583446L345.5928,164.82142424583446L357.9354,164.82142424583446L370.278,162.36165082454693L382.6206000000001,164.82142424583446L394.96320000000003,164.82142424583446L407.30580000000003,164.82142424583446L419.64840000000004,164.82142424583446L431.99100000000004,162.36165082454693L444.3336,164.82142424583446L456.67620000000005,162.36165082454693L469.0188,162.36165082454693L481.36140000000006,162.36165082454693L493.704,162.36165082454693L506.0466,162.36165082454693L518.3892,162.36165082454693L530.7318,162.36165082454693L543.0744,162.36165082454693L555.417,162.36165082454693L567.7596000000001,162.36165082454693L580.1022,162.36165082454693L592.4448000000001,162.36165082454693L604.7874,162.36165082454693L617.1300000000001,162.36165082454693L629.4726,162.36165082454693L641.8152,162.36165082454693L654.1578000000001,162.36165082454693L666.5004,162.36165082454693" style="fill: none;" fill="none"></path></g><g><path stroke="rgb(187, 187, 187)" stroke-width="2px" d="M61.713,607.5597993135449L74.05560000000001,292.72344624996185L86.3982,305.0217500925064L98.74080000000001,145.14436340332043L111.0834,110.70922529697435L123.426,118.08798229694384L135.7686,98.4109214544298L148.11120000000003,51.677479505539154L160.4538,73.81431376934069L172.7964,63.97578334808371L185.139,56.5964630842211L197.48160000000001,59.056236505508636L209.82420000000002,46.75793266296408L222.1668,66.43555676937125L234.5094,59.056236505508636L246.852,59.056236505508636L259.1946,59.056236505508636L271.5372,59.056236505508636L283.87980000000005,59.056236505508636L296.22240000000005,63.97578334808371L308.56500000000005,61.51600992679617L320.9076,59.056236505508636L333.2502,49.21770608425162L345.5928,49.21770608425162L357.9354,51.677479505539154L370.278,49.21770608425162L382.6206000000001,54.13725292682669L394.96320000000003,54.13725292682669L407.30580000000003,54.13725292682669L419.64840000000004,54.13725292682669L431.99100000000004,54.13725292682669L444.3336,54.13725292682669L456.67620000000005,54.13725292682669L469.0188,54.13725292682669L481.36140000000006,54.13725292682669L493.704,54.13725292682669L506.0466,54.13725292682669L518.3892,54.13725292682669L530.7318,54.13725292682669L543.0744,54.13725292682669L555.417,54.13725292682669L567.7596000000001,54.13725292682669L580.1022,54.13725292682669L592.4448000000001,54.13725292682669L604.7874,54.13725292682669L617.1300000000001,54.13725292682669L629.4726,54.13725292682669L641.8152,54.13725292682669L654.1578000000001,54.13725292682669L666.5004,54.13725292682669" style="fill: none;" fill="none"></path></g><g><path stroke="rgb(204, 51, 17)" stroke-width="2px" d="M61.713,789.5745835304257L74.05560000000001,371.4328161478042L86.3982,191.87780535221108L98.74080000000001,174.65995466709145L111.0834,118.08798229694384L123.426,95.95114803314226L135.7686,93.49137461185472L148.11120000000003,91.03216445446031L160.4538,105.78967845439928L172.7964,78.73386061191576L185.139,86.11261761188524L197.48160000000001,91.03216445446031L209.82420000000002,73.81431376934069L222.1668,100.87069487571733L234.5094,93.49137461185472L246.852,93.49137461185472L259.1946,95.95114803314226L271.5372,95.95114803314226L283.87980000000005,93.49137461185472L296.22240000000005,95.95114803314226L308.56500000000005,86.11261761188524L320.9076,83.6528441905977L333.2502,83.6528441905977L345.5928,86.11261761188524L357.9354,83.6528441905977L370.278,83.6528441905977L382.6206000000001,83.6528441905977L394.96320000000003,83.6528441905977L407.30580000000003,83.6528441905977L419.64840000000004,83.6528441905977L431.99100000000004,83.6528441905977L444.3336,83.6528441905977L456.67620000000005,83.6528441905977L469.0188,83.6528441905977L481.36140000000006,83.6528441905977L493.704,83.6528441905977L506.0466,83.6528441905977L518.3892,83.6528441905977L530.7318,83.6528441905977L543.0744,83.6528441905977L555.417,83.6528441905977L567.7596000000001,83.6528441905977L580.1022,83.6528441905977L592.4448000000001,83.6528441905977L604.7874,83.6528441905977L617.1300000000001,83.6528441905977L629.4726,83.6528441905977L641.8152,83.6528441905977L654.1578000000001,83.6528441905977L666.5004,83.6528441905977" style="fill: none;" fill="none"></path></g><g><path stroke="rgb(0, 119, 187)" stroke-width="2px" d="M74.05560000000001,501.79461157321913L86.3982,366.51326930522913L98.74080000000001,346.8362084627151L111.0834,248.4497777223587L123.426,218.93418645858773L135.7686,172.20074450969705L148.11120000000003,184.4990483522416L160.4538,137.76560640335094L172.7964,145.14436340332043L185.139,140.22481656074535L197.48160000000001,150.0639102458955L209.82420000000002,137.76560640335094L222.1668,147.60413682460796L234.5094,145.14436340332043L246.852,157.44266724586498L259.1946,145.14436340332043L271.5372,145.14436340332043L283.87980000000005,150.0639102458955L296.22240000000005,147.60413682460796L308.56500000000005,150.0639102458955L320.9076,145.14436340332043L333.2502,147.60413682460796L345.5928,147.60413682460796L357.9354,150.0639102458955L370.278,150.0639102458955L382.6206000000001,150.0639102458955L394.96320000000003,150.0639102458955L407.30580000000003,150.0639102458955L419.64840000000004,150.0639102458955L431.99100000000004,150.0639102458955L444.3336,150.0639102458955L456.67620000000005,150.0639102458955L469.0188,150.0639102458955L481.36140000000006,150.0639102458955L493.704,150.0639102458955L506.0466,150.0639102458955L518.3892,150.0639102458955L530.7318,150.0639102458955L543.0744,150.0639102458955L555.417,150.0639102458955L567.7596000000001,150.0639102458955L580.1022,150.0639102458955L592.4448000000001,150.0639102458955L604.7874,150.0639102458955L617.1300000000001,150.0639102458955L629.4726,150.0639102458955L641.8152,150.0639102458955L654.1578000000001,150.0639102458955L666.5004,150.0639102458955" style="fill: none;" fill="none"></path></g><g><path stroke="rgb(238, 51, 119)" stroke-width="2px" d="M61.713,752.6796720027919L74.05560000000001,282.88491582870483L86.3982,204.17610919475564L98.74080000000001,152.5231204032899L111.0834,125.4673025608064L123.426,73.81431376934069L135.7686,86.11261761188524L148.11120000000003,66.43555676937125L160.4538,54.13725292682669L172.7964,63.97578334808371L185.139,44.298159241676544L197.48160000000001,39.3791756629946L209.82420000000002,66.43555676937125L222.1668,68.89476692676566L234.5094,51.677479505539154L246.852,56.5964630842211L259.1946,61.51600992679617L271.5372,49.21770608425162L283.87980000000005,49.21770608425162L296.22240000000005,49.21770608425162L308.56500000000005,49.21770608425162L320.9076,51.677479505539154L333.2502,51.677479505539154L345.5928,51.677479505539154L357.9354,51.677479505539154L370.278,51.677479505539154L382.6206000000001,51.677479505539154L394.96320000000003,51.677479505539154L407.30580000000003,51.677479505539154L419.64840000000004,51.677479505539154L431.99100000000004,51.677479505539154L444.3336,44.298159241676544L456.67620000000005,51.677479505539154L469.0188,44.298159241676544L481.36140000000006,44.298159241676544L493.704,51.677479505539154L506.0466,51.677479505539154L518.3892,51.677479505539154L530.7318,51.677479505539154L543.0744,51.677479505539154L555.417,51.677479505539154L567.7596000000001,51.677479505539154L580.1022,51.677479505539154L592.4448000000001,51.677479505539154L604.7874,51.677479505539154L617.1300000000001,51.677479505539154L629.4726,51.677479505539154L641.8152,51.677479505539154L654.1578000000001,51.677479505539154L666.5004,51.677479505539154" style="fill: none;" fill="none"></path></g><g><path stroke="rgb(51, 187, 238)" stroke-width="2px" d="M61.713,836.3080254793163L74.05560000000001,336.9976780414581L86.3982,241.07102072238925L98.74080000000001,214.01463961601266L111.0834,167.28119766712197L123.426,127.92651271820081L135.7686,140.22481656074535L148.11120000000003,108.24945187568682L160.4538,78.73386061191576L172.7964,91.03216445446031L185.139,81.19307076931017L197.48160000000001,78.73386061191576L209.82420000000002,76.27408719062822L222.1668,76.27408719062822L234.5094,76.27408719062822L246.852,76.27408719062822L259.1946,86.11261761188524L271.5372,81.19307076931017L283.87980000000005,93.49137461185472L296.22240000000005,91.03216445446031L308.56500000000005,91.03216445446031L320.9076,91.03216445446031L333.2502,91.03216445446031L345.5928,91.03216445446031L357.9354,91.03216445446031L370.278,91.03216445446031L382.6206000000001,88.57239103317278L394.96320000000003,88.57239103317278L407.30580000000003,88.57239103317278L419.64840000000004,88.57239103317278L431.99100000000004,88.57239103317278L444.3336,88.57239103317278L456.67620000000005,88.57239103317278L469.0188,88.57239103317278L481.36140000000006,88.57239103317278L493.704,88.57239103317278L506.0466,88.57239103317278L518.3892,88.57239103317278L530.7318,88.57239103317278L543.0744,88.57239103317278L555.417,88.57239103317278L567.7596000000001,88.57239103317278L580.1022,88.57239103317278L592.4448000000001,88.57239103317278L604.7874,88.57239103317278L617.1300000000001,88.57239103317278L629.4726,88.57239103317278L641.8152,88.57239103317278L654.1578000000001,88.57239103317278L666.5004,88.57239103317278" style="fill: none;" fill="none"></path></g></g></g></g></g></g><g transform="translate(60, 378)" clip-path="url(#clip_1)"><clipPath id="clip_1"><rect width="740" height="21"></rect></clipPath><g><g><line x1="0" y1="0" x2="0" y2="5" style="visibility: inherit;" fill="rgb(0, 0, 0)" stroke="rgb(204, 204, 204)" stroke-width="1px"></line><line x1="61.713" y1="0" x2="61.713" y2="5" style="visibility: inherit;" fill="rgb(0, 0, 0)" stroke="rgb(204, 204, 204)" stroke-width="1px"></line><line x1="123.426" y1="0" x2="123.426" y2="5" style="visibility: inherit;" fill="rgb(0, 0, 0)" stroke="rgb(204, 204, 204)" stroke-width="1px"></line><line x1="185.139" y1="0" x2="185.139" y2="5" style="visibility: inherit;" fill="rgb(0, 0, 0)" stroke="rgb(204, 204, 204)" stroke-width="1px"></line><line x1="246.852" y1="0" x2="246.852" y2="5" style="visibility: inherit;" fill="rgb(0, 0, 0)" stroke="rgb(204, 204, 204)" stroke-width="1px"></line><line x1="308.56500000000005" y1="0" x2="308.56500000000005" y2="5" style="visibility: inherit;" fill="rgb(0, 0, 0)" stroke="rgb(204, 204, 204)" stroke-width="1px"></line><line x1="370.278" y1="0" x2="370.278" y2="5" style="visibility: inherit;" fill="rgb(0, 0, 0)" stroke="rgb(204, 204, 204)" stroke-width="1px"></line><line x1="431.99100000000004" y1="0" x2="431.99100000000004" y2="5" style="visibility: inherit;" fill="rgb(0, 0, 0)" stroke="rgb(204, 204, 204)" stroke-width="1px"></line><line x1="493.704" y1="0" x2="493.704" y2="5" style="visibility: inherit;" fill="rgb(0, 0, 0)" stroke="rgb(204, 204, 204)" stroke-width="1px"></line><line x1="555.417" y1="0" x2="555.417" y2="5" style="visibility: inherit;" fill="rgb(0, 0, 0)" stroke="rgb(204, 204, 204)" stroke-width="1px"></line><line x1="617.1300000000001" y1="0" x2="617.1300000000001" y2="5" style="visibility: inherit;" fill="rgb(0, 0, 0)" stroke="rgb(204, 204, 204)" stroke-width="1px"></line><line x1="678.843" y1="0" x2="678.843" y2="5" style="visibility: inherit;" fill="rgb(0, 0, 0)" stroke="rgb(204, 204, 204)" stroke-width="1px"></line><line x1="740.556" y1="0" x2="740.556" y2="5" style="visibility: inherit;" fill="rgb(0, 0, 0)" stroke="rgb(204, 204, 204)" stroke-width="1px"></line></g><g transform="translate(0, 8)"><text x="0" y="0" dx="0em" dy="0.95em" style="text-anchor: middle; visibility: hidden; font-family: Roboto, sans-serif; font-size: 12px; font-weight: 200;" fill="rgb(50, 49, 63)" stroke="none" stroke-width="1px">-5</text><text x="61.713" y="0" dx="0em" dy="0.95em" style="text-anchor: middle; visibility: inherit; font-family: Roboto, sans-serif; font-size: 12px; font-weight: 200;" fill="rgb(50, 49, 63)" stroke="none" stroke-width="1px">0</text><text x="123.426" y="0" dx="0em" dy="0.95em" style="text-anchor: middle; visibility: inherit; font-family: Roboto, sans-serif; font-size: 12px; font-weight: 200;" fill="rgb(50, 49, 63)" stroke="none" stroke-width="1px">5</text><text x="185.139" y="0" dx="0em" dy="0.95em" style="text-anchor: middle; visibility: inherit; font-family: Roboto, sans-serif; font-size: 12px; font-weight: 200;" fill="rgb(50, 49, 63)" stroke="none" stroke-width="1px">10</text><text x="246.852" y="0" dx="0em" dy="0.95em" style="text-anchor: middle; visibility: inherit; font-family: Roboto, sans-serif; font-size: 12px; font-weight: 200;" fill="rgb(50, 49, 63)" stroke="none" stroke-width="1px">15</text><text x="308.56500000000005" y="0" dx="0em" dy="0.95em" style="text-anchor: middle; visibility: inherit; font-family: Roboto, sans-serif; font-size: 12px; font-weight: 200;" fill="rgb(50, 49, 63)" stroke="none" stroke-width="1px">20</text><text x="370.278" y="0" dx="0em" dy="0.95em" style="text-anchor: middle; visibility: inherit; font-family: Roboto, sans-serif; font-size: 12px; font-weight: 200;" fill="rgb(50, 49, 63)" stroke="none" stroke-width="1px">25</text><text x="431.99100000000004" y="0" dx="0em" dy="0.95em" style="text-anchor: middle; visibility: inherit; font-family: Roboto, sans-serif; font-size: 12px; font-weight: 200;" fill="rgb(50, 49, 63)" stroke="none" stroke-width="1px">30</text><text x="493.704" y="0" dx="0em" dy="0.95em" style="text-anchor: middle; visibility: inherit; font-family: Roboto, sans-serif; font-size: 12px; font-weight: 200;" fill="rgb(50, 49, 63)" stroke="none" stroke-width="1px">35</text><text x="555.417" y="0" dx="0em" dy="0.95em" style="text-anchor: middle; visibility: inherit; font-family: Roboto, sans-serif; font-size: 12px; font-weight: 200;" fill="rgb(50, 49, 63)" stroke="none" stroke-width="1px">40</text><text x="617.1300000000001" y="0" dx="0em" dy="0.95em" style="text-anchor: middle; visibility: inherit; font-family: Roboto, sans-serif; font-size: 12px; font-weight: 200;" fill="rgb(50, 49, 63)" stroke="none" stroke-width="1px">45</text><text x="678.843" y="0" dx="0em" dy="0.95em" style="text-anchor: middle; visibility: inherit; font-family: Roboto, sans-serif; font-size: 12px; font-weight: 200;" fill="rgb(50, 49, 63)" stroke="none" stroke-width="1px">50</text><text x="740.556" y="0" dx="0em" dy="0.95em" style="text-anchor: middle; visibility: hidden; font-family: Roboto, sans-serif; font-size: 12px; font-weight: 200;" fill="rgb(50, 49, 63)" stroke="none" stroke-width="1px">55</text></g><line x1="0" y1="0" x2="740.556" y2="0" fill="rgb(0, 0, 0)" stroke="rgb(204, 204, 204)" stroke-width="1px"></line></g></g></g></g></svg>