<svg viewBox="0 0 746.388916015625 400.0000305175781" xmlns="http://www.w3.org/2000/svg"><g><g><g><g><g><line x1="50" y1="378" x2="45" y2="378" style="visibility: inherit;" fill="rgb(0, 0, 0)" stroke="rgb(204, 204, 204)" stroke-width="1px"></line><line x1="50" y1="336" x2="45" y2="336" style="visibility: inherit;" fill="rgb(0, 0, 0)" stroke="rgb(204, 204, 204)" stroke-width="1px"></line><line x1="50" y1="294" x2="45" y2="294" style="visibility: inherit;" fill="rgb(0, 0, 0)" stroke="rgb(204, 204, 204)" stroke-width="1px"></line><line x1="50" y1="252.00000000000003" x2="45" y2="252.00000000000003" style="visibility: inherit;" fill="rgb(0, 0, 0)" stroke="rgb(204, 204, 204)" stroke-width="1px"></line><line x1="50" y1="210" x2="45" y2="210" style="visibility: inherit;" fill="rgb(0, 0, 0)" stroke="rgb(204, 204, 204)" stroke-width="1px"></line><line x1="50" y1="168" x2="45" y2="168" style="visibility: inherit;" fill="rgb(0, 0, 0)" stroke="rgb(204, 204, 204)" stroke-width="1px"></line><line x1="50" y1="126.00000000000001" x2="45" y2="126.00000000000001" style="visibility: inherit;" fill="rgb(0, 0, 0)" stroke="rgb(204, 204, 204)" stroke-width="1px"></line><line x1="50" y1="84" x2="45" y2="84" style="visibility: inherit;" fill="rgb(0, 0, 0)" stroke="rgb(204, 204, 204)" stroke-width="1px"></line><line x1="50" y1="42.00000000000002" x2="45" y2="42.00000000000002" style="visibility: inherit;" fill="rgb(0, 0, 0)" stroke="rgb(204, 204, 204)" stroke-width="1px"></line><line x1="50" y1="0" x2="45" y2="0" style="visibility: inherit;" fill="rgb(0, 0, 0)" stroke="rgb(204, 204, 204)" stroke-width="1px"></line></g><g transform="translate(40, 0)"><text x="0" y="378" dx="0em" dy="0.3em" style="text-anchor: end; visibility: hidden; font-family: Roboto, sans-serif; font-size: 12px; font-weight: 200;" fill="rgb(50, 49, 63)" stroke="none" stroke-width="1px">0.82</text><text x="0" y="336" dx="0em" dy="0.3em" style="text-anchor: end; visibility: inherit; font-family: Roboto, sans-serif; font-size: 12px; font-weight: 200;" fill="rgb(50, 49, 63)" stroke="none" stroke-width="1px">0.83</text><text x="0" y="294" dx="0em" dy="0.3em" style="text-anchor: end; visibility: inherit; font-family: Roboto, sans-serif; font-size: 12px; font-weight: 200;" fill="rgb(50, 49, 63)" stroke="none" stroke-width="1px">0.84</text><text x="0" y="252.00000000000003" dx="0em" dy="0.3em" style="text-anchor: end; visibility: inherit; font-family: Roboto, sans-serif; font-size: 12px; font-weight: 200;" fill="rgb(50, 49, 63)" stroke="none" stroke-width="1px">0.85</text><text x="0" y="210" dx="0em" dy="0.3em" style="text-anchor: end; visibility: inherit; font-family: Roboto, sans-serif; font-size: 12px; font-weight: 200;" fill="rgb(50, 49, 63)" stroke="none" stroke-width="1px">0.86</text><text x="0" y="168" dx="0em" dy="0.3em" style="text-anchor: end; visibility: inherit; font-family: Roboto, sans-serif; font-size: 12px; font-weight: 200;" fill="rgb(50, 49, 63)" stroke="none" stroke-width="1px">0.87</text><text x="0" y="126.00000000000001" dx="0em" dy="0.3em" style="text-anchor: end; visibility: inherit; font-family: Roboto, sans-serif; font-size: 12px; font-weight: 200;" fill="rgb(50, 49, 63)" stroke="none" stroke-width="1px">0.88</text><text x="0" y="84" dx="0em" dy="0.3em" style="text-anchor: end; visibility: inherit; font-family: Roboto, sans-serif; font-size: 12px; font-weight: 200;" fill="rgb(50, 49, 63)" stroke="none" stroke-width="1px">0.89</text><text x="0" y="42.00000000000002" dx="0em" dy="0.3em" style="text-anchor: end; visibility: inherit; font-family: Roboto, sans-serif; font-size: 12px; font-weight: 200;" fill="rgb(50, 49, 63)" stroke="none" stroke-width="1px">0.9</text><text x="0" y="0" dx="0em" dy="0.3em" style="text-anchor: end; visibility: hidden; font-family: Roboto, sans-serif; font-size: 12px; font-weight: 200;" fill="rgb(50, 49, 63)" stroke="none" stroke-width="1px">0.91</text></g><line x1="50" y1="0" x2="50" y2="378" fill="rgb(0, 0, 0)" stroke="rgb(204, 204, 204)" stroke-width="1px"></line></g></g><g transform="translate(50, 0)" clip-path="url(#clip_0)"><clipPath id="clip_0"><rect width="696" height="377"></rect></clipPath><g><g><g><line x1="0" y1="0" x2="0" y2="378" fill="rgb(0, 0, 0)" stroke="rgb(60, 60, 60)" stroke-width="1px" opacity="0.25"></line><line x1="58.03241666666666" y1="0" x2="58.03241666666666" y2="378" fill="rgb(0, 0, 0)" stroke="rgb(60, 60, 60)" stroke-width="1px" opacity="0.25"></line><line x1="116.06483333333333" y1="0" x2="116.06483333333333" y2="378" fill="rgb(0, 0, 0)" stroke="rgb(60, 60, 60)" stroke-width="1px" opacity="0.25"></line><line x1="174.09725" y1="0" x2="174.09725" y2="378" fill="rgb(0, 0, 0)" stroke="rgb(60, 60, 60)" stroke-width="1px" opacity="0.25"></line><line x1="232.12966666666665" y1="0" x2="232.12966666666665" y2="378" fill="rgb(0, 0, 0)" stroke="rgb(60, 60, 60)" stroke-width="1px" opacity="0.25"></line><line x1="290.1620833333333" y1="0" x2="290.1620833333333" y2="378" fill="rgb(0, 0, 0)" stroke="rgb(60, 60, 60)" stroke-width="1px" opacity="0.25"></line><line x1="348.1945" y1="0" x2="348.1945" y2="378" fill="rgb(0, 0, 0)" stroke="rgb(60, 60, 60)" stroke-width="1px" opacity="0.25"></line><line x1="406.2269166666667" y1="0" x2="406.2269166666667" y2="378" fill="rgb(0, 0, 0)" stroke="rgb(60, 60, 60)" stroke-width="1px" opacity="0.25"></line><line x1="464.2593333333333" y1="0" x2="464.2593333333333" y2="378" fill="rgb(0, 0, 0)" stroke="rgb(60, 60, 60)" stroke-width="1px" opacity="0.25"></line><line x1="522.29175" y1="0" x2="522.29175" y2="378" fill="rgb(0, 0, 0)" stroke="rgb(60, 60, 60)" stroke-width="1px" opacity="0.25"></line><line x1="580.3241666666667" y1="0" x2="580.3241666666667" y2="378" fill="rgb(0, 0, 0)" stroke="rgb(60, 60, 60)" stroke-width="1px" opacity="0.25"></line><line x1="638.3565833333333" y1="0" x2="638.3565833333333" y2="378" fill="rgb(0, 0, 0)" stroke="rgb(60, 60, 60)" stroke-width="1px" opacity="0.25"></line><line x1="696.389" y1="0" x2="696.389" y2="378" fill="rgb(0, 0, 0)" stroke="rgb(60, 60, 60)" stroke-width="1px" opacity="0.25"></line></g><g><line x1="0" y1="378" x2="696.389" y2="378" fill="rgb(0, 0, 0)" stroke="rgb(60, 60, 60)" stroke-width="1px" opacity="0.25"></line><line x1="0" y1="336" x2="696.389" y2="336" fill="rgb(0, 0, 0)" stroke="rgb(60, 60, 60)" stroke-width="1px" opacity="0.25"></line><line x1="0" y1="294" x2="696.389" y2="294" fill="rgb(0, 0, 0)" stroke="rgb(60, 60, 60)" stroke-width="1px" opacity="0.25"></line><line x1="0" y1="252.00000000000003" x2="696.389" y2="252.00000000000003" fill="rgb(0, 0, 0)" stroke="rgb(60, 60, 60)" stroke-width="1px" opacity="0.25"></line><line x1="0" y1="210" x2="696.389" y2="210" fill="rgb(0, 0, 0)" stroke="rgb(60, 60, 60)" stroke-width="1px" opacity="0.25"></line><line x1="0" y1="168" x2="696.389" y2="168" fill="rgb(0, 0, 0)" stroke="rgb(60, 60, 60)" stroke-width="1px" opacity="0.25"></line><line x1="0" y1="126.00000000000001" x2="696.389" y2="126.00000000000001" fill="rgb(0, 0, 0)" stroke="rgb(60, 60, 60)" stroke-width="1px" opacity="0.25"></line><line x1="0" y1="84" x2="696.389" y2="84" fill="rgb(0, 0, 0)" stroke="rgb(60, 60, 60)" stroke-width="1px" opacity="0.25"></line><line x1="0" y1="42.00000000000002" x2="696.389" y2="42.00000000000002" fill="rgb(0, 0, 0)" stroke="rgb(60, 60, 60)" stroke-width="1px" opacity="0.25"></line><line x1="0" y1="0" x2="696.389" y2="0" fill="rgb(0, 0, 0)" stroke="rgb(60, 60, 60)" stroke-width="1px" opacity="0.25"></line></g></g></g><g><g><line x1="0" y1="3821.9999999999964" x2="696.389" y2="3821.9999999999964" fill="rgb(0, 0, 0)" stroke="rgb(153, 153, 153)" stroke-width="1.5px"></line></g></g><g><g><line x1="58.03241666666666" y1="0" x2="58.03241666666666" y2="378" fill="rgb(0, 0, 0)" stroke="rgb(153, 153, 153)" stroke-width="1.5px"></line></g></g><g><g><g><g><g><path stroke="rgb(51, 187, 238)" stroke-width="2px" d="M58.03241666666666,287.1633381843566L69.6389,184.83055543899536L81.24538333333334,149.99381017684937L92.85186666666667,132.5754375457764L104.45835,114.06833839416507L116.06483333333333,111.89113569259645L127.67131666666666,105.35927724838261L139.2778,102.09334802627566L150.88428333333334,92.29556035995488L162.49076666666667,98.82741880416873L174.09725,92.29556035995488L185.70373333333333,94.4727630615235L197.31021666666666,86.85217809677128L208.9167,91.20683383941656L220.52318333333332,89.02963113784794L232.12966666666665,87.94090461730961L243.73614999999998,90.11810731887823L255.3426333333333,86.85217809677128L266.94911666666667,91.20683383941656L278.5556,91.20683383941656L290.1620833333333,91.20683383941656L301.7685666666667,92.29556035995488L313.37505,91.20683383941656L324.98153333333335,92.29556035995488L336.58801666666665,91.20683383941656L348.1945,91.20683383941656L359.80098333333336,91.20683383941656L371.40746666666666,91.20683383941656L383.01395,91.20683383941656L394.6204333333333,91.20683383941656L406.2269166666667,91.20683383941656L417.8334,91.20683383941656L429.43988333333334,91.20683383941656L441.04636666666664,91.20683383941656L452.65285,91.20683383941656L464.2593333333333,91.20683383941656L475.86581666666666,91.20683383941656L487.47229999999996,91.20683383941656L499.0787833333333,91.20683383941656L510.6852666666666,91.20683383941656L522.29175,91.20683383941656L533.8982333333333,91.20683383941656L545.5047166666667,91.20683383941656L557.1112,91.20683383941656L568.7176833333333,91.20683383941656L580.3241666666667,91.20683383941656L591.93065,91.20683383941656L603.5371333333334,91.20683383941656L615.1436166666666,91.20683383941656L626.7501,91.20683383941656" style="fill: none;" fill="none"></path></g><g><path stroke="rgb(0, 119, 187)" stroke-width="2px" d="M92.85186666666667,406.90372896194435L104.45835,320.54235649108875L116.06483333333333,327.10150194168074L127.67131666666666,304.1446180343627L139.2778,297.58572292327864L150.88428333333334,287.74712991714466L162.49076666666667,288.84011220931995L174.09725,287.74712991714466L185.70373333333333,285.56066465377796L197.31021666666666,285.56066465377796L208.9167,281.18798446655256L220.52318333333332,279.0015192031859L232.12966666666665,280.09475183486927L243.73614999999998,276.8153042793273L255.3426333333333,281.18798446655256L266.94911666666667,271.3493914604186L278.5556,273.53560638427723L290.1620833333333,272.4423737525939L301.7685666666667,272.4423737525939L313.37505,271.3493914604186L324.98153333333335,272.4423737525939L336.58801666666665,270.25615882873524L348.1945,271.3493914604186L359.80098333333336,270.25615882873524L371.40746666666666,270.25615882873524L383.01395,271.3493914604186L394.6204333333333,271.3493914604186L406.2269166666667,270.25615882873524L417.8334,271.3493914604186L429.43988333333334,271.3493914604186L441.04636666666664,271.3493914604186L452.65285,270.25615882873524L464.2593333333333,270.25615882873524L475.86581666666666,270.25615882873524L487.47229999999996,270.25615882873524L499.0787833333333,270.25615882873524L510.6852666666666,270.25615882873524L522.29175,270.25615882873524L533.8982333333333,270.25615882873524L545.5047166666667,270.25615882873524L557.1112,270.25615882873524L568.7176833333333,270.25615882873524L580.3241666666667,270.25615882873524L591.93065,270.25615882873524L603.5371333333334,270.25615882873524L615.1436166666666,270.25615882873524L626.7501,270.25615882873524" style="fill: none;" fill="none"></path></g><g><path stroke="rgb(204, 51, 17)" stroke-width="2px" d="M58.03241666666666,400.3445835113523L69.6389,348.9651532173155L81.24538333333334,240.74012947082514L92.85186666666667,259.32433319091786L104.45835,201.38575744628898L116.06483333333333,194.826611995697L127.67131666666666,195.9198446273803L139.2778,192.64039707183835L150.88428333333334,183.8947863578796L162.49076666666667,184.98801898956296L174.09725,176.24265861511228L185.70373333333333,176.24265861511228L197.31021666666666,178.42887353897092L208.9167,172.96296072006223L220.52318333333332,169.68351316452024L232.12966666666665,171.86997842788696L243.73614999999998,171.86997842788696L255.3426333333333,169.68351316452024L266.94911666666667,168.59028053283689L278.5556,166.40406560897827L290.1620833333333,170.77674579620358L301.7685666666667,167.49704790115354L313.37505,169.68351316452024L324.98153333333335,166.40406560897827L336.58801666666665,168.59028053283689L348.1945,166.40406560897827L359.80098333333336,166.40406560897827L371.40746666666666,167.49704790115354L383.01395,167.49704790115354L394.6204333333333,167.49704790115354L406.2269166666667,167.49704790115354L417.8334,167.49704790115354L429.43988333333334,167.49704790115354L441.04636666666664,167.49704790115354L452.65285,167.49704790115354L464.2593333333333,167.49704790115354L475.86581666666666,167.49704790115354L487.47229999999996,167.49704790115354L499.0787833333333,167.49704790115354L510.6852666666666,167.49704790115354L522.29175,167.49704790115354L533.8982333333333,167.49704790115354L545.5047166666667,167.49704790115354L557.1112,167.49704790115354L568.7176833333333,167.49704790115354L580.3241666666667,167.49704790115354L591.93065,167.49704790115354L603.5371333333334,167.49704790115354L615.1436166666666,167.49704790115354L626.7501,167.49704790115354" style="fill: none;" fill="none"></path></g><g><path stroke="rgb(255, 112, 67)" stroke-width="2px" d="M58.03241666666666,360.99021148681624L69.6389,237.46068191528315L81.24538333333334,200.29252481460568L92.85186666666667,106.27902460098271L104.45835,99.71987915039067L116.06483333333333,104.09255933761601L127.67131666666666,88.78805351257328L139.2778,81.13592576980598L150.88428333333334,81.13592576980598L162.49076666666667,77.8562278747559L174.09725,77.8562278747559L185.70373333333333,78.9494605064393L197.31021666666666,76.76324558258064L208.9167,78.9494605064393L220.52318333333332,74.57678031921394L232.12966666666665,76.76324558258064L243.73614999999998,75.67001295089729L255.3426333333333,78.9494605064393L266.94911666666667,75.67001295089729L278.5556,75.67001295089729L290.1620833333333,74.57678031921394L301.7685666666667,76.76324558258064L313.37505,76.76324558258064L324.98153333333335,76.76324558258064L336.58801666666665,76.76324558258064L348.1945,76.76324558258064L359.80098333333336,76.76324558258064L371.40746666666666,76.76324558258064L383.01395,76.76324558258064L394.6204333333333,76.76324558258064L406.2269166666667,74.57678031921394L417.8334,74.57678031921394L429.43988333333334,76.76324558258064L441.04636666666664,76.76324558258064L452.65285,76.76324558258064L464.2593333333333,76.76324558258064L475.86581666666666,76.76324558258064L487.47229999999996,76.76324558258064L499.0787833333333,76.76324558258064L510.6852666666666,76.76324558258064L522.29175,76.76324558258064L533.8982333333333,76.76324558258064L545.5047166666667,76.76324558258064L557.1112,76.76324558258064L568.7176833333333,76.76324558258064L580.3241666666667,76.76324558258064L591.93065,76.76324558258064L603.5371333333334,76.76324558258064L615.1436166666666,76.76324558258064L626.7501,76.76324558258064" style="fill: none;" fill="none"></path></g></g></g></g></g></g><g transform="translate(50, 378)" clip-path="url(#clip_1)"><clipPath id="clip_1"><rect width="696" height="21"></rect></clipPath><g><g><line x1="0" y1="0" x2="0" y2="5" style="visibility: inherit;" fill="rgb(0, 0, 0)" stroke="rgb(204, 204, 204)" stroke-width="1px"></line><line x1="58.03241666666666" y1="0" x2="58.03241666666666" y2="5" style="visibility: inherit;" fill="rgb(0, 0, 0)" stroke="rgb(204, 204, 204)" stroke-width="1px"></line><line x1="116.06483333333333" y1="0" x2="116.06483333333333" y2="5" style="visibility: inherit;" fill="rgb(0, 0, 0)" stroke="rgb(204, 204, 204)" stroke-width="1px"></line><line x1="174.09725" y1="0" x2="174.09725" y2="5" style="visibility: inherit;" fill="rgb(0, 0, 0)" stroke="rgb(204, 204, 204)" stroke-width="1px"></line><line x1="232.12966666666665" y1="0" x2="232.12966666666665" y2="5" style="visibility: inherit;" fill="rgb(0, 0, 0)" stroke="rgb(204, 204, 204)" stroke-width="1px"></line><line x1="290.1620833333333" y1="0" x2="290.1620833333333" y2="5" style="visibility: inherit;" fill="rgb(0, 0, 0)" stroke="rgb(204, 204, 204)" stroke-width="1px"></line><line x1="348.1945" y1="0" x2="348.1945" y2="5" style="visibility: inherit;" fill="rgb(0, 0, 0)" stroke="rgb(204, 204, 204)" stroke-width="1px"></line><line x1="406.2269166666667" y1="0" x2="406.2269166666667" y2="5" style="visibility: inherit;" fill="rgb(0, 0, 0)" stroke="rgb(204, 204, 204)" stroke-width="1px"></line><line x1="464.2593333333333" y1="0" x2="464.2593333333333" y2="5" style="visibility: inherit;" fill="rgb(0, 0, 0)" stroke="rgb(204, 204, 204)" stroke-width="1px"></line><line x1="522.29175" y1="0" x2="522.29175" y2="5" style="visibility: inherit;" fill="rgb(0, 0, 0)" stroke="rgb(204, 204, 204)" stroke-width="1px"></line><line x1="580.3241666666667" y1="0" x2="580.3241666666667" y2="5" style="visibility: inherit;" fill="rgb(0, 0, 0)" stroke="rgb(204, 204, 204)" stroke-width="1px"></line><line x1="638.3565833333333" y1="0" x2="638.3565833333333" y2="5" style="visibility: inherit;" fill="rgb(0, 0, 0)" stroke="rgb(204, 204, 204)" stroke-width="1px"></line><line x1="696.389" y1="0" x2="696.389" y2="5" style="visibility: inherit;" fill="rgb(0, 0, 0)" stroke="rgb(204, 204, 204)" stroke-width="1px"></line></g><g transform="translate(0, 8)"><text x="0" y="0" dx="0em" dy="0.95em" style="text-anchor: middle; visibility: hidden; font-family: Roboto, sans-serif; font-size: 12px; font-weight: 200;" fill="rgb(50, 49, 63)" stroke="none" stroke-width="1px">-5</text><text x="58.03241666666666" y="0" dx="0em" dy="0.95em" style="text-anchor: middle; visibility: inherit; font-family: Roboto, sans-serif; font-size: 12px; font-weight: 200;" fill="rgb(50, 49, 63)" stroke="none" stroke-width="1px">0</text><text x="116.06483333333333" y="0" dx="0em" dy="0.95em" style="text-anchor: middle; visibility: inherit; font-family: Roboto, sans-serif; font-size: 12px; font-weight: 200;" fill="rgb(50, 49, 63)" stroke="none" stroke-width="1px">5</text><text x="174.09725" y="0" dx="0em" dy="0.95em" style="text-anchor: middle; visibility: inherit; font-family: Roboto, sans-serif; font-size: 12px; font-weight: 200;" fill="rgb(50, 49, 63)" stroke="none" stroke-width="1px">10</text><text x="232.12966666666665" y="0" dx="0em" dy="0.95em" style="text-anchor: middle; visibility: inherit; font-family: Roboto, sans-serif; font-size: 12px; font-weight: 200;" fill="rgb(50, 49, 63)" stroke="none" stroke-width="1px">15</text><text x="290.1620833333333" y="0" dx="0em" dy="0.95em" style="text-anchor: middle; visibility: inherit; font-family: Roboto, sans-serif; font-size: 12px; font-weight: 200;" fill="rgb(50, 49, 63)" stroke="none" stroke-width="1px">20</text><text x="348.1945" y="0" dx="0em" dy="0.95em" style="text-anchor: middle; visibility: inherit; font-family: Roboto, sans-serif; font-size: 12px; font-weight: 200;" fill="rgb(50, 49, 63)" stroke="none" stroke-width="1px">25</text><text x="406.2269166666667" y="0" dx="0em" dy="0.95em" style="text-anchor: middle; visibility: inherit; font-family: Roboto, sans-serif; font-size: 12px; font-weight: 200;" fill="rgb(50, 49, 63)" stroke="none" stroke-width="1px">30</text><text x="464.2593333333333" y="0" dx="0em" dy="0.95em" style="text-anchor: middle; visibility: inherit; font-family: Roboto, sans-serif; font-size: 12px; font-weight: 200;" fill="rgb(50, 49, 63)" stroke="none" stroke-width="1px">35</text><text x="522.29175" y="0" dx="0em" dy="0.95em" style="text-anchor: middle; visibility: inherit; font-family: Roboto, sans-serif; font-size: 12px; font-weight: 200;" fill="rgb(50, 49, 63)" stroke="none" stroke-width="1px">40</text><text x="580.3241666666667" y="0" dx="0em" dy="0.95em" style="text-anchor: middle; visibility: inherit; font-family: Roboto, sans-serif; font-size: 12px; font-weight: 200;" fill="rgb(50, 49, 63)" stroke="none" stroke-width="1px">45</text><text x="638.3565833333333" y="0" dx="0em" dy="0.95em" style="text-anchor: middle; visibility: inherit; font-family: Roboto, sans-serif; font-size: 12px; font-weight: 200;" fill="rgb(50, 49, 63)" stroke="none" stroke-width="1px">50</text><text x="696.389" y="0" dx="0em" dy="0.95em" style="text-anchor: middle; visibility: hidden; font-family: Roboto, sans-serif; font-size: 12px; font-weight: 200;" fill="rgb(50, 49, 63)" stroke="none" stroke-width="1px">55</text></g><line x1="0" y1="0" x2="696.389" y2="0" fill="rgb(0, 0, 0)" stroke="rgb(204, 204, 204)" stroke-width="1px"></line></g></g></g></g></svg>