<svg viewBox="0 0 746.388916015625 400.0000305175781" xmlns="http://www.w3.org/2000/svg"><g><g><g><g><g><line x1="50" y1="378" x2="45" y2="378" style="visibility: inherit;" fill="rgb(0, 0, 0)" stroke="rgb(204, 204, 204)" stroke-width="1px"></line><line x1="50" y1="351" x2="45" y2="351" style="visibility: inherit;" fill="rgb(0, 0, 0)" stroke="rgb(204, 204, 204)" stroke-width="1px"></line><line x1="50" y1="324" x2="45" y2="324" style="visibility: inherit;" fill="rgb(0, 0, 0)" stroke="rgb(204, 204, 204)" stroke-width="1px"></line><line x1="50" y1="296.99999999999994" x2="45" y2="296.99999999999994" style="visibility: inherit;" fill="rgb(0, 0, 0)" stroke="rgb(204, 204, 204)" stroke-width="1px"></line><line x1="50" y1="270.00000000000006" x2="45" y2="270.00000000000006" style="visibility: inherit;" fill="rgb(0, 0, 0)" stroke="rgb(204, 204, 204)" stroke-width="1px"></line><line x1="50" y1="242.99999999999997" x2="45" y2="242.99999999999997" style="visibility: inherit;" fill="rgb(0, 0, 0)" stroke="rgb(204, 204, 204)" stroke-width="1px"></line><line x1="50" y1="216" x2="45" y2="216" style="visibility: inherit;" fill="rgb(0, 0, 0)" stroke="rgb(204, 204, 204)" stroke-width="1px"></line><line x1="50" y1="189.00000000000003" x2="45" y2="189.00000000000003" style="visibility: inherit;" fill="rgb(0, 0, 0)" stroke="rgb(204, 204, 204)" stroke-width="1px"></line><line x1="50" y1="162" x2="45" y2="162" style="visibility: inherit;" fill="rgb(0, 0, 0)" stroke="rgb(204, 204, 204)" stroke-width="1px"></line><line x1="50" y1="134.99999999999997" x2="45" y2="134.99999999999997" style="visibility: inherit;" fill="rgb(0, 0, 0)" stroke="rgb(204, 204, 204)" stroke-width="1px"></line><line x1="50" y1="108.00000000000004" x2="45" y2="108.00000000000004" style="visibility: inherit;" fill="rgb(0, 0, 0)" stroke="rgb(204, 204, 204)" stroke-width="1px"></line><line x1="50" y1="81" x2="45" y2="81" style="visibility: inherit;" fill="rgb(0, 0, 0)" stroke="rgb(204, 204, 204)" stroke-width="1px"></line><line x1="50" y1="54.00000000000002" x2="45" y2="54.00000000000002" style="visibility: inherit;" fill="rgb(0, 0, 0)" stroke="rgb(204, 204, 204)" stroke-width="1px"></line><line x1="50" y1="27.00000000000003" x2="45" y2="27.00000000000003" style="visibility: inherit;" fill="rgb(0, 0, 0)" stroke="rgb(204, 204, 204)" stroke-width="1px"></line><line x1="50" y1="0" x2="45" y2="0" style="visibility: inherit;" fill="rgb(0, 0, 0)" stroke="rgb(204, 204, 204)" stroke-width="1px"></line></g><g transform="translate(40, 0)"><text x="0" y="378" dx="0em" dy="0.3em" style="text-anchor: end; visibility: hidden; font-family: Roboto, sans-serif; font-size: 12px; font-weight: 200;" fill="rgb(50, 49, 63)" stroke="none" stroke-width="1px">0.22</text><text x="0" y="351" dx="0em" dy="0.3em" style="text-anchor: end; visibility: inherit; font-family: Roboto, sans-serif; font-size: 12px; font-weight: 200;" fill="rgb(50, 49, 63)" stroke="none" stroke-width="1px">0.24</text><text x="0" y="324" dx="0em" dy="0.3em" style="text-anchor: end; visibility: inherit; font-family: Roboto, sans-serif; font-size: 12px; font-weight: 200;" fill="rgb(50, 49, 63)" stroke="none" stroke-width="1px">0.26</text><text x="0" y="296.99999999999994" dx="0em" dy="0.3em" style="text-anchor: end; visibility: inherit; font-family: Roboto, sans-serif; font-size: 12px; font-weight: 200;" fill="rgb(50, 49, 63)" stroke="none" stroke-width="1px">0.28</text><text x="0" y="270.00000000000006" dx="0em" dy="0.3em" style="text-anchor: end; visibility: inherit; font-family: Roboto, sans-serif; font-size: 12px; font-weight: 200;" fill="rgb(50, 49, 63)" stroke="none" stroke-width="1px">0.3</text><text x="0" y="242.99999999999997" dx="0em" dy="0.3em" style="text-anchor: end; visibility: inherit; font-family: Roboto, sans-serif; font-size: 12px; font-weight: 200;" fill="rgb(50, 49, 63)" stroke="none" stroke-width="1px">0.32</text><text x="0" y="216" dx="0em" dy="0.3em" style="text-anchor: end; visibility: inherit; font-family: Roboto, sans-serif; font-size: 12px; font-weight: 200;" fill="rgb(50, 49, 63)" stroke="none" stroke-width="1px">0.34</text><text x="0" y="189.00000000000003" dx="0em" dy="0.3em" style="text-anchor: end; visibility: inherit; font-family: Roboto, sans-serif; font-size: 12px; font-weight: 200;" fill="rgb(50, 49, 63)" stroke="none" stroke-width="1px">0.36</text><text x="0" y="162" dx="0em" dy="0.3em" style="text-anchor: end; visibility: inherit; font-family: Roboto, sans-serif; font-size: 12px; font-weight: 200;" fill="rgb(50, 49, 63)" stroke="none" stroke-width="1px">0.38</text><text x="0" y="134.99999999999997" dx="0em" dy="0.3em" style="text-anchor: end; visibility: inherit; font-family: Roboto, sans-serif; font-size: 12px; font-weight: 200;" fill="rgb(50, 49, 63)" stroke="none" stroke-width="1px">0.4</text><text x="0" y="108.00000000000004" dx="0em" dy="0.3em" style="text-anchor: end; visibility: inherit; font-family: Roboto, sans-serif; font-size: 12px; font-weight: 200;" fill="rgb(50, 49, 63)" stroke="none" stroke-width="1px">0.42</text><text x="0" y="81" dx="0em" dy="0.3em" style="text-anchor: end; visibility: inherit; font-family: Roboto, sans-serif; font-size: 12px; font-weight: 200;" fill="rgb(50, 49, 63)" stroke="none" stroke-width="1px">0.44</text><text x="0" y="54.00000000000002" dx="0em" dy="0.3em" style="text-anchor: end; visibility: inherit; font-family: Roboto, sans-serif; font-size: 12px; font-weight: 200;" fill="rgb(50, 49, 63)" stroke="none" stroke-width="1px">0.46</text><text x="0" y="27.00000000000003" dx="0em" dy="0.3em" style="text-anchor: end; visibility: inherit; font-family: Roboto, sans-serif; font-size: 12px; font-weight: 200;" fill="rgb(50, 49, 63)" stroke="none" stroke-width="1px">0.48</text><text x="0" y="0" dx="0em" dy="0.3em" style="text-anchor: end; visibility: hidden; font-family: Roboto, sans-serif; font-size: 12px; font-weight: 200;" fill="rgb(50, 49, 63)" stroke="none" stroke-width="1px">0.5</text></g><line x1="50" y1="0" x2="50" y2="378" fill="rgb(0, 0, 0)" stroke="rgb(204, 204, 204)" stroke-width="1px"></line></g></g><g transform="translate(50, 0)" clip-path="url(#clip_0)"><clipPath id="clip_0"><rect width="696" height="377"></rect></clipPath><g><g><g><line x1="0" y1="0" x2="0" y2="378" fill="rgb(0, 0, 0)" stroke="rgb(60, 60, 60)" stroke-width="1px" opacity="0.25"></line><line x1="58.03241666666666" y1="0" x2="58.03241666666666" y2="378" fill="rgb(0, 0, 0)" stroke="rgb(60, 60, 60)" stroke-width="1px" opacity="0.25"></line><line x1="116.06483333333333" y1="0" x2="116.06483333333333" y2="378" fill="rgb(0, 0, 0)" stroke="rgb(60, 60, 60)" stroke-width="1px" opacity="0.25"></line><line x1="174.09725" y1="0" x2="174.09725" y2="378" fill="rgb(0, 0, 0)" stroke="rgb(60, 60, 60)" stroke-width="1px" opacity="0.25"></line><line x1="232.12966666666665" y1="0" x2="232.12966666666665" y2="378" fill="rgb(0, 0, 0)" stroke="rgb(60, 60, 60)" stroke-width="1px" opacity="0.25"></line><line x1="290.1620833333333" y1="0" x2="290.1620833333333" y2="378" fill="rgb(0, 0, 0)" stroke="rgb(60, 60, 60)" stroke-width="1px" opacity="0.25"></line><line x1="348.1945" y1="0" x2="348.1945" y2="378" fill="rgb(0, 0, 0)" stroke="rgb(60, 60, 60)" stroke-width="1px" opacity="0.25"></line><line x1="406.2269166666667" y1="0" x2="406.2269166666667" y2="378" fill="rgb(0, 0, 0)" stroke="rgb(60, 60, 60)" stroke-width="1px" opacity="0.25"></line><line x1="464.2593333333333" y1="0" x2="464.2593333333333" y2="378" fill="rgb(0, 0, 0)" stroke="rgb(60, 60, 60)" stroke-width="1px" opacity="0.25"></line><line x1="522.29175" y1="0" x2="522.29175" y2="378" fill="rgb(0, 0, 0)" stroke="rgb(60, 60, 60)" stroke-width="1px" opacity="0.25"></line><line x1="580.3241666666667" y1="0" x2="580.3241666666667" y2="378" fill="rgb(0, 0, 0)" stroke="rgb(60, 60, 60)" stroke-width="1px" opacity="0.25"></line><line x1="638.3565833333333" y1="0" x2="638.3565833333333" y2="378" fill="rgb(0, 0, 0)" stroke="rgb(60, 60, 60)" stroke-width="1px" opacity="0.25"></line><line x1="696.389" y1="0" x2="696.389" y2="378" fill="rgb(0, 0, 0)" stroke="rgb(60, 60, 60)" stroke-width="1px" opacity="0.25"></line></g><g><line x1="0" y1="378" x2="696.389" y2="378" fill="rgb(0, 0, 0)" stroke="rgb(60, 60, 60)" stroke-width="1px" opacity="0.25"></line><line x1="0" y1="351" x2="696.389" y2="351" fill="rgb(0, 0, 0)" stroke="rgb(60, 60, 60)" stroke-width="1px" opacity="0.25"></line><line x1="0" y1="324" x2="696.389" y2="324" fill="rgb(0, 0, 0)" stroke="rgb(60, 60, 60)" stroke-width="1px" opacity="0.25"></line><line x1="0" y1="296.99999999999994" x2="696.389" y2="296.99999999999994" fill="rgb(0, 0, 0)" stroke="rgb(60, 60, 60)" stroke-width="1px" opacity="0.25"></line><line x1="0" y1="270.00000000000006" x2="696.389" y2="270.00000000000006" fill="rgb(0, 0, 0)" stroke="rgb(60, 60, 60)" stroke-width="1px" opacity="0.25"></line><line x1="0" y1="242.99999999999997" x2="696.389" y2="242.99999999999997" fill="rgb(0, 0, 0)" stroke="rgb(60, 60, 60)" stroke-width="1px" opacity="0.25"></line><line x1="0" y1="216" x2="696.389" y2="216" fill="rgb(0, 0, 0)" stroke="rgb(60, 60, 60)" stroke-width="1px" opacity="0.25"></line><line x1="0" y1="189.00000000000003" x2="696.389" y2="189.00000000000003" fill="rgb(0, 0, 0)" stroke="rgb(60, 60, 60)" stroke-width="1px" opacity="0.25"></line><line x1="0" y1="162" x2="696.389" y2="162" fill="rgb(0, 0, 0)" stroke="rgb(60, 60, 60)" stroke-width="1px" opacity="0.25"></line><line x1="0" y1="134.99999999999997" x2="696.389" y2="134.99999999999997" fill="rgb(0, 0, 0)" stroke="rgb(60, 60, 60)" stroke-width="1px" opacity="0.25"></line><line x1="0" y1="108.00000000000004" x2="696.389" y2="108.00000000000004" fill="rgb(0, 0, 0)" stroke="rgb(60, 60, 60)" stroke-width="1px" opacity="0.25"></line><line x1="0" y1="81" x2="696.389" y2="81" fill="rgb(0, 0, 0)" stroke="rgb(60, 60, 60)" stroke-width="1px" opacity="0.25"></line><line x1="0" y1="54.00000000000002" x2="696.389" y2="54.00000000000002" fill="rgb(0, 0, 0)" stroke="rgb(60, 60, 60)" stroke-width="1px" opacity="0.25"></line><line x1="0" y1="27.00000000000003" x2="696.389" y2="27.00000000000003" fill="rgb(0, 0, 0)" stroke="rgb(60, 60, 60)" stroke-width="1px" opacity="0.25"></line><line x1="0" y1="0" x2="696.389" y2="0" fill="rgb(0, 0, 0)" stroke="rgb(60, 60, 60)" stroke-width="1px" opacity="0.25"></line></g></g></g><g><g><line x1="0" y1="675" x2="696.389" y2="675" fill="rgb(0, 0, 0)" stroke="rgb(153, 153, 153)" stroke-width="1.5px"></line></g></g><g><g><line x1="58.03241666666666" y1="0" x2="58.03241666666666" y2="378" fill="rgb(0, 0, 0)" stroke="rgb(153, 153, 153)" stroke-width="1.5px"></line></g></g><g><g><g><g><g><path stroke="rgb(51, 187, 238)" stroke-width="2px" d="M58.03241666666666,166.15295112133026L69.6389,248.94002974033356L81.24538333333334,272.98371344804764L92.85186666666667,295.57127952575684L104.45835,292.2500744462013L116.06483333333333,304.79227155447006L127.67131666666666,311.6617575287819L139.2778,316.9417127966881L150.88428333333334,314.42553251981735L162.49076666666667,317.317570745945L174.09725,320.39858400821686L185.70373333333333,315.1278018951416L197.31021666666666,319.1235154867172L208.9167,320.45016288757324L220.52318333333332,318.9468517899513L232.12966666666665,319.38265711069107L243.73614999999998,319.8961928486824L255.3426333333333,319.66336369514465L266.94911666666667,319.67917531728745L278.5556,320.238496363163L290.1620833333333,320.2564001083374L301.7685666666667,320.4268276691437L313.37505,320.53823322057724L324.98153333333335,320.42127549648285L336.58801666666665,320.4130679368973L348.1945,320.4392597079277L359.80098333333336,320.4073950648308L371.40746666666666,320.40888369083405L383.01395,320.4059064388275L394.6204333333333,320.4330638051033L406.2269166666667,320.4292416572571L417.8334,320.4337075352669L429.43988333333334,320.43024748563766L441.04636666666664,320.4306498169899L452.65285,320.4270288348198L464.2593333333333,320.4251378774643L475.86581666666666,320.4292818903923L487.47229999999996,320.4304486513138L499.0787833333333,320.4327017068863L510.6852666666666,320.4331040382385L522.29175,320.4342305660248L533.8982333333333,320.43455243110657L545.5047166666667,320.4349145293236L557.1112,320.4349547624588L568.7176833333333,320.43503522872925L580.3241666666667,320.43507546186447L591.93065,320.4351156949997L603.5371333333334,320.4351156949997L615.1436166666666,320.43519616127014L626.7501,320.4351156949997" style="fill: none;" fill="none"></path></g><g><path stroke="rgb(0, 119, 187)" stroke-width="2px" d="M92.85186666666667,-5.198121070861852L104.45835,52.910032868385336L116.06483333333333,52.85390764474872L127.67131666666666,75.79701393842701L139.2778,91.01374894380571L150.88428333333334,98.01254421472552L162.49076666666667,112.35151290893558L174.09725,105.11578470468525L185.70373333333333,114.13492709398271L197.31021666666666,118.25548410415651L208.9167,117.18628853559497L220.52318333333332,118.39766800403596L232.12966666666665,122.08386808633807L243.73614999999998,123.5681086778641L255.3426333333333,123.51214438676836L266.94911666666667,124.84816610813142L278.5556,125.68143457174304L290.1620833333333,125.73498487472537L301.7685666666667,125.49632191658024L313.37505,125.32006055116658L324.98153333333335,125.69076865911487L336.58801666666665,125.76041221618654L348.1945,125.77332705259325L359.80098333333336,125.57204067707062L371.40746666666666,125.58330595493317L383.01395,125.57264417409901L394.6204333333333,125.53554922342303L406.2269166666667,125.52315741777423L417.8334,125.52440464496614L429.43988333333334,125.50569623708728L441.04636666666664,125.50617903470997L452.65285,125.50911605358127L464.2593333333333,125.50432831048968L475.86581666666666,125.5031615495682L487.47229999999996,125.50360411405563L499.0787833333333,125.50432831048968L510.6852666666666,125.50473064184189L522.29175,125.50545483827594L533.8982333333333,125.50481110811238L545.5047166666667,125.50485134124759L557.1112,125.50477087497715L568.7176833333333,125.50473064184189L580.3241666666667,125.50485134124759L591.93065,125.50481110811238L603.5371333333334,125.50481110811238L615.1436166666666,125.50485134124759L626.7501,125.50481110811238" style="fill: none;" fill="none"></path></g><g><path stroke="rgb(204, 51, 17)" stroke-width="2px" d="M58.03241666666666,-73.38934242725372L69.6389,5.925294756889337L81.24538333333334,143.90595853328705L92.85186666666667,126.87040418386464L104.45835,177.15164422988894L116.06483333333333,182.2404518723488L127.67131666666666,187.4264627695084L139.2778,198.8566160202027L150.88428333333334,202.9762074351311L162.49076666666667,215.4024124145508L174.09725,216.76796525716782L185.70373333333333,220.66088318824768L197.31021666666666,220.55901288986206L208.9167,217.09996908903125L220.52318333333332,220.4928293824196L232.12966666666665,218.29722672700882L243.73614999999998,219.58464682102206L255.3426333333333,221.36914730072021L266.94911666666667,220.34006416797644L278.5556,221.87133729457855L290.1620833333333,220.9660917520523L301.7685666666667,221.39686793088913L313.37505,221.67624682188034L324.98153333333335,221.7116117477417L336.58801666666665,221.96660935878754L348.1945,222.19831198453903L359.80098333333336,222.26711064577103L371.40746666666666,222.35373258590698L383.01395,222.39565551280975L394.6204333333333,222.4634483456612L406.2269166666667,222.47495502233505L417.8334,222.4276810884476L429.43988333333334,222.42788225412372L441.04636666666664,222.43617027997973L452.65285,222.43391722440722L464.2593333333333,222.43315279483795L475.86581666666666,222.4317044019699L487.47229999999996,222.434963285923L499.0787833333333,222.44055569171908L510.6852666666666,222.4430501461029L522.29175,222.44313061237335L533.8982333333333,222.44465947151184L545.5047166666667,222.44554460048676L557.1112,222.4462687969208L568.7176833333333,222.44606763124466L580.3241666666667,222.44618833065036L591.93065,222.44618833065036L603.5371333333334,222.4462687969208L615.1436166666666,222.44630903005603L626.7501,222.44630903005603" style="fill: none;" fill="none"></path></g><g><path stroke="rgb(255, 112, 67)" stroke-width="2px" d="M58.03241666666666,38.04714828729628L69.6389,202.6167243719101L81.24538333333334,255.23675680160522L92.85186666666667,302.77397632598877L104.45835,309.41634625196457L116.06483333333333,306.6990405321121L127.67131666666666,314.7818371653557L139.2778,315.99156707525253L150.88428333333334,316.02222472429276L162.49076666666667,312.7279356122017L174.09725,316.33012890815735L185.70373333333333,316.6267678141594L197.31021666666666,317.2764927148819L208.9167,316.65955781936646L220.52318333333332,316.4304703474045L232.12966666666665,316.6212558746338L243.73614999999998,316.9333040714264L255.3426333333333,317.6309868693352L266.94911666666667,316.7195454239845L278.5556,316.5644869208336L290.1620833333333,316.91652685403824L301.7685666666667,316.82089269161224L313.37505,316.90642833709717L324.98153333333335,316.94404631853104L336.58801666666665,316.91274493932724L348.1945,316.94525331258774L359.80098333333336,316.8958470225334L371.40746666666666,316.9234871864319L383.01395,316.90156012773514L394.6204333333333,316.8987438082695L406.2269166666667,316.87677651643753L417.8334,316.86510890722275L429.43988333333334,316.8581083416939L441.04636666666664,316.8554127216339L452.65285,316.8583497405052L464.2593333333333,316.8581083416939L475.86581666666666,316.857585310936L487.47229999999996,316.8579876422882L499.0787833333333,316.8586313724518L510.6852666666666,316.8596774339676L522.29175,316.86032116413116L533.8982333333333,316.86044186353683L545.5047166666667,316.8605625629425L557.1112,316.86064302921295L568.7176833333333,316.86064302921295L580.3241666666667,316.8607637286186L591.93065,316.8607637286186L603.5371333333334,316.8607234954834L615.1436166666666,316.8607234954834L626.7501,316.8606832623482" style="fill: none;" fill="none"></path></g></g></g></g></g><g><g opacity="0.0128323"><span fill="rgb(0, 0, 0)" stroke="none" stroke-width="1px">Alt + Scroll to Zoom</span></g></g></g><g transform="translate(50, 378)" clip-path="url(#clip_1)"><clipPath id="clip_1"><rect width="696" height="21"></rect></clipPath><g><g><line x1="0" y1="0" x2="0" y2="5" style="visibility: inherit;" fill="rgb(0, 0, 0)" stroke="rgb(204, 204, 204)" stroke-width="1px"></line><line x1="58.03241666666666" y1="0" x2="58.03241666666666" y2="5" style="visibility: inherit;" fill="rgb(0, 0, 0)" stroke="rgb(204, 204, 204)" stroke-width="1px"></line><line x1="116.06483333333333" y1="0" x2="116.06483333333333" y2="5" style="visibility: inherit;" fill="rgb(0, 0, 0)" stroke="rgb(204, 204, 204)" stroke-width="1px"></line><line x1="174.09725" y1="0" x2="174.09725" y2="5" style="visibility: inherit;" fill="rgb(0, 0, 0)" stroke="rgb(204, 204, 204)" stroke-width="1px"></line><line x1="232.12966666666665" y1="0" x2="232.12966666666665" y2="5" style="visibility: inherit;" fill="rgb(0, 0, 0)" stroke="rgb(204, 204, 204)" stroke-width="1px"></line><line x1="290.1620833333333" y1="0" x2="290.1620833333333" y2="5" style="visibility: inherit;" fill="rgb(0, 0, 0)" stroke="rgb(204, 204, 204)" stroke-width="1px"></line><line x1="348.1945" y1="0" x2="348.1945" y2="5" style="visibility: inherit;" fill="rgb(0, 0, 0)" stroke="rgb(204, 204, 204)" stroke-width="1px"></line><line x1="406.2269166666667" y1="0" x2="406.2269166666667" y2="5" style="visibility: inherit;" fill="rgb(0, 0, 0)" stroke="rgb(204, 204, 204)" stroke-width="1px"></line><line x1="464.2593333333333" y1="0" x2="464.2593333333333" y2="5" style="visibility: inherit;" fill="rgb(0, 0, 0)" stroke="rgb(204, 204, 204)" stroke-width="1px"></line><line x1="522.29175" y1="0" x2="522.29175" y2="5" style="visibility: inherit;" fill="rgb(0, 0, 0)" stroke="rgb(204, 204, 204)" stroke-width="1px"></line><line x1="580.3241666666667" y1="0" x2="580.3241666666667" y2="5" style="visibility: inherit;" fill="rgb(0, 0, 0)" stroke="rgb(204, 204, 204)" stroke-width="1px"></line><line x1="638.3565833333333" y1="0" x2="638.3565833333333" y2="5" style="visibility: inherit;" fill="rgb(0, 0, 0)" stroke="rgb(204, 204, 204)" stroke-width="1px"></line><line x1="696.389" y1="0" x2="696.389" y2="5" style="visibility: inherit;" fill="rgb(0, 0, 0)" stroke="rgb(204, 204, 204)" stroke-width="1px"></line></g><g transform="translate(0, 8)"><text x="0" y="0" dx="0em" dy="0.95em" style="text-anchor: middle; visibility: hidden; font-family: Roboto, sans-serif; font-size: 12px; font-weight: 200;" fill="rgb(50, 49, 63)" stroke="none" stroke-width="1px">-5</text><text x="58.03241666666666" y="0" dx="0em" dy="0.95em" style="text-anchor: middle; visibility: inherit; font-family: Roboto, sans-serif; font-size: 12px; font-weight: 200;" fill="rgb(50, 49, 63)" stroke="none" stroke-width="1px">0</text><text x="116.06483333333333" y="0" dx="0em" dy="0.95em" style="text-anchor: middle; visibility: inherit; font-family: Roboto, sans-serif; font-size: 12px; font-weight: 200;" fill="rgb(50, 49, 63)" stroke="none" stroke-width="1px">5</text><text x="174.09725" y="0" dx="0em" dy="0.95em" style="text-anchor: middle; visibility: inherit; font-family: Roboto, sans-serif; font-size: 12px; font-weight: 200;" fill="rgb(50, 49, 63)" stroke="none" stroke-width="1px">10</text><text x="232.12966666666665" y="0" dx="0em" dy="0.95em" style="text-anchor: middle; visibility: inherit; font-family: Roboto, sans-serif; font-size: 12px; font-weight: 200;" fill="rgb(50, 49, 63)" stroke="none" stroke-width="1px">15</text><text x="290.1620833333333" y="0" dx="0em" dy="0.95em" style="text-anchor: middle; visibility: inherit; font-family: Roboto, sans-serif; font-size: 12px; font-weight: 200;" fill="rgb(50, 49, 63)" stroke="none" stroke-width="1px">20</text><text x="348.1945" y="0" dx="0em" dy="0.95em" style="text-anchor: middle; visibility: inherit; font-family: Roboto, sans-serif; font-size: 12px; font-weight: 200;" fill="rgb(50, 49, 63)" stroke="none" stroke-width="1px">25</text><text x="406.2269166666667" y="0" dx="0em" dy="0.95em" style="text-anchor: middle; visibility: inherit; font-family: Roboto, sans-serif; font-size: 12px; font-weight: 200;" fill="rgb(50, 49, 63)" stroke="none" stroke-width="1px">30</text><text x="464.2593333333333" y="0" dx="0em" dy="0.95em" style="text-anchor: middle; visibility: inherit; font-family: Roboto, sans-serif; font-size: 12px; font-weight: 200;" fill="rgb(50, 49, 63)" stroke="none" stroke-width="1px">35</text><text x="522.29175" y="0" dx="0em" dy="0.95em" style="text-anchor: middle; visibility: inherit; font-family: Roboto, sans-serif; font-size: 12px; font-weight: 200;" fill="rgb(50, 49, 63)" stroke="none" stroke-width="1px">40</text><text x="580.3241666666667" y="0" dx="0em" dy="0.95em" style="text-anchor: middle; visibility: inherit; font-family: Roboto, sans-serif; font-size: 12px; font-weight: 200;" fill="rgb(50, 49, 63)" stroke="none" stroke-width="1px">45</text><text x="638.3565833333333" y="0" dx="0em" dy="0.95em" style="text-anchor: middle; visibility: inherit; font-family: Roboto, sans-serif; font-size: 12px; font-weight: 200;" fill="rgb(50, 49, 63)" stroke="none" stroke-width="1px">50</text><text x="696.389" y="0" dx="0em" dy="0.95em" style="text-anchor: middle; visibility: hidden; font-family: Roboto, sans-serif; font-size: 12px; font-weight: 200;" fill="rgb(50, 49, 63)" stroke="none" stroke-width="1px">55</text></g><line x1="0" y1="0" x2="696.389" y2="0" fill="rgb(0, 0, 0)" stroke="rgb(204, 204, 204)" stroke-width="1px"></line></g></g></g></g></svg>