<svg viewBox="0 0 1156 400" xmlns="http://www.w3.org/2000/svg"><g><g><g><g><g><line x1="59.98000144958496" y1="378.6199998855591" x2="54.98000144958496" y2="378.6199998855591" style="visibility: inherit;" fill="rgb(0, 0, 0)" stroke="rgb(204, 204, 204)" stroke-width="1px"></line><line x1="59.98000144958496" y1="331.2924998998642" x2="54.98000144958496" y2="331.2924998998642" style="visibility: inherit;" fill="rgb(0, 0, 0)" stroke="rgb(204, 204, 204)" stroke-width="1px"></line><line x1="59.98000144958496" y1="283.9649999141693" x2="54.98000144958496" y2="283.9649999141693" style="visibility: inherit;" fill="rgb(0, 0, 0)" stroke="rgb(204, 204, 204)" stroke-width="1px"></line><line x1="59.98000144958496" y1="236.63749992847443" x2="54.98000144958496" y2="236.63749992847443" style="visibility: inherit;" fill="rgb(0, 0, 0)" stroke="rgb(204, 204, 204)" stroke-width="1px"></line><line x1="59.98000144958496" y1="189.30999994277954" x2="54.98000144958496" y2="189.30999994277954" style="visibility: inherit;" fill="rgb(0, 0, 0)" stroke="rgb(204, 204, 204)" stroke-width="1px"></line><line x1="59.98000144958496" y1="141.98249995708466" x2="54.98000144958496" y2="141.98249995708466" style="visibility: inherit;" fill="rgb(0, 0, 0)" stroke="rgb(204, 204, 204)" stroke-width="1px"></line><line x1="59.98000144958496" y1="94.65499997138977" x2="54.98000144958496" y2="94.65499997138977" style="visibility: inherit;" fill="rgb(0, 0, 0)" stroke="rgb(204, 204, 204)" stroke-width="1px"></line><line x1="59.98000144958496" y1="47.327499985694885" x2="54.98000144958496" y2="47.327499985694885" style="visibility: inherit;" fill="rgb(0, 0, 0)" stroke="rgb(204, 204, 204)" stroke-width="1px"></line><line x1="59.98000144958496" y1="0" x2="54.98000144958496" y2="0" style="visibility: inherit;" fill="rgb(0, 0, 0)" stroke="rgb(204, 204, 204)" stroke-width="1px"></line></g><g transform="translate(49.98000144958496, 0)"><text style="text-anchor: end; visibility: hidden; font-family: Roboto, sans-serif; font-size: 12px; font-weight: 200;" x="0" y="378.6199998855591" dx="0em" dy="0.3em" fill="rgb(50, 49, 63)" stroke="none" stroke-width="1px">0.86</text><text style="text-anchor: end; visibility: inherit; font-family: Roboto, sans-serif; font-size: 12px; font-weight: 200;" x="0" y="331.2924998998642" dx="0em" dy="0.3em" fill="rgb(50, 49, 63)" stroke="none" stroke-width="1px">0.865</text><text style="text-anchor: end; visibility: inherit; font-family: Roboto, sans-serif; font-size: 12px; font-weight: 200;" x="0" y="283.9649999141693" dx="0em" dy="0.3em" fill="rgb(50, 49, 63)" stroke="none" stroke-width="1px">0.87</text><text style="text-anchor: end; visibility: inherit; font-family: Roboto, sans-serif; font-size: 12px; font-weight: 200;" x="0" y="236.63749992847443" dx="0em" dy="0.3em" fill="rgb(50, 49, 63)" stroke="none" stroke-width="1px">0.875</text><text style="text-anchor: end; visibility: inherit; font-family: Roboto, sans-serif; font-size: 12px; font-weight: 200;" x="0" y="189.30999994277954" dx="0em" dy="0.3em" fill="rgb(50, 49, 63)" stroke="none" stroke-width="1px">0.88</text><text style="text-anchor: end; visibility: inherit; font-family: Roboto, sans-serif; font-size: 12px; font-weight: 200;" x="0" y="141.98249995708466" dx="0em" dy="0.3em" fill="rgb(50, 49, 63)" stroke="none" stroke-width="1px">0.885</text><text style="text-anchor: end; visibility: inherit; font-family: Roboto, sans-serif; font-size: 12px; font-weight: 200;" x="0" y="94.65499997138977" dx="0em" dy="0.3em" fill="rgb(50, 49, 63)" stroke="none" stroke-width="1px">0.89</text><text style="text-anchor: end; visibility: inherit; font-family: Roboto, sans-serif; font-size: 12px; font-weight: 200;" x="0" y="47.327499985694885" dx="0em" dy="0.3em" fill="rgb(50, 49, 63)" stroke="none" stroke-width="1px">0.895</text><text style="text-anchor: end; visibility: hidden; font-family: Roboto, sans-serif; font-size: 12px; font-weight: 200;" x="0" y="0" dx="0em" dy="0.3em" fill="rgb(50, 49, 63)" stroke="none" stroke-width="1px">0.9</text></g><line x1="59.98000144958496" y1="0" x2="59.98000144958496" y2="378.6199998855591" fill="rgb(0, 0, 0)" stroke="rgb(204, 204, 204)" stroke-width="1px"></line></g></g><g transform="translate(59, 0)" clip-path="url(#clip_0)"><clipPath id="clip_0"><rect width="1096" height="378"></rect></clipPath><g><g><g><line x1="0" y1="0" x2="0" y2="378.6199998855591" fill="rgb(0, 0, 0)" stroke="rgb(60, 60, 60)" stroke-width="1px" opacity="0.25"></line><line x1="91.33499987920125" y1="0" x2="91.33499987920125" y2="378.6199998855591" fill="rgb(0, 0, 0)" stroke="rgb(60, 60, 60)" stroke-width="1px" opacity="0.25"></line><line x1="182.6699997584025" y1="0" x2="182.6699997584025" y2="378.6199998855591" fill="rgb(0, 0, 0)" stroke="rgb(60, 60, 60)" stroke-width="1px" opacity="0.25"></line><line x1="274.00499963760376" y1="0" x2="274.00499963760376" y2="378.6199998855591" fill="rgb(0, 0, 0)" stroke="rgb(60, 60, 60)" stroke-width="1px" opacity="0.25"></line><line x1="365.339999516805" y1="0" x2="365.339999516805" y2="378.6199998855591" fill="rgb(0, 0, 0)" stroke="rgb(60, 60, 60)" stroke-width="1px" opacity="0.25"></line><line x1="456.6749993960063" y1="0" x2="456.6749993960063" y2="378.6199998855591" fill="rgb(0, 0, 0)" stroke="rgb(60, 60, 60)" stroke-width="1px" opacity="0.25"></line><line x1="548.0099992752075" y1="0" x2="548.0099992752075" y2="378.6199998855591" fill="rgb(0, 0, 0)" stroke="rgb(60, 60, 60)" stroke-width="1px" opacity="0.25"></line><line x1="639.3449991544088" y1="0" x2="639.3449991544088" y2="378.6199998855591" fill="rgb(0, 0, 0)" stroke="rgb(60, 60, 60)" stroke-width="1px" opacity="0.25"></line><line x1="730.67999903361" y1="0" x2="730.67999903361" y2="378.6199998855591" fill="rgb(0, 0, 0)" stroke="rgb(60, 60, 60)" stroke-width="1px" opacity="0.25"></line><line x1="822.0149989128113" y1="0" x2="822.0149989128113" y2="378.6199998855591" fill="rgb(0, 0, 0)" stroke="rgb(60, 60, 60)" stroke-width="1px" opacity="0.25"></line><line x1="913.3499987920126" y1="0" x2="913.3499987920126" y2="378.6199998855591" fill="rgb(0, 0, 0)" stroke="rgb(60, 60, 60)" stroke-width="1px" opacity="0.25"></line><line x1="1004.6849986712137" y1="0" x2="1004.6849986712137" y2="378.6199998855591" fill="rgb(0, 0, 0)" stroke="rgb(60, 60, 60)" stroke-width="1px" opacity="0.25"></line><line x1="1096.019998550415" y1="0" x2="1096.019998550415" y2="378.6199998855591" fill="rgb(0, 0, 0)" stroke="rgb(60, 60, 60)" stroke-width="1px" opacity="0.25"></line></g><g><line x1="0" y1="378.6199998855591" x2="1096.019998550415" y2="378.6199998855591" fill="rgb(0, 0, 0)" stroke="rgb(60, 60, 60)" stroke-width="1px" opacity="0.25"></line><line x1="0" y1="331.2924998998642" x2="1096.019998550415" y2="331.2924998998642" fill="rgb(0, 0, 0)" stroke="rgb(60, 60, 60)" stroke-width="1px" opacity="0.25"></line><line x1="0" y1="283.9649999141693" x2="1096.019998550415" y2="283.9649999141693" fill="rgb(0, 0, 0)" stroke="rgb(60, 60, 60)" stroke-width="1px" opacity="0.25"></line><line x1="0" y1="236.63749992847443" x2="1096.019998550415" y2="236.63749992847443" fill="rgb(0, 0, 0)" stroke="rgb(60, 60, 60)" stroke-width="1px" opacity="0.25"></line><line x1="0" y1="189.30999994277954" x2="1096.019998550415" y2="189.30999994277954" fill="rgb(0, 0, 0)" stroke="rgb(60, 60, 60)" stroke-width="1px" opacity="0.25"></line><line x1="0" y1="141.98249995708466" x2="1096.019998550415" y2="141.98249995708466" fill="rgb(0, 0, 0)" stroke="rgb(60, 60, 60)" stroke-width="1px" opacity="0.25"></line><line x1="0" y1="94.65499997138977" x2="1096.019998550415" y2="94.65499997138977" fill="rgb(0, 0, 0)" stroke="rgb(60, 60, 60)" stroke-width="1px" opacity="0.25"></line><line x1="0" y1="47.327499985694885" x2="1096.019998550415" y2="47.327499985694885" fill="rgb(0, 0, 0)" stroke="rgb(60, 60, 60)" stroke-width="1px" opacity="0.25"></line><line x1="0" y1="0" x2="1096.019998550415" y2="0" fill="rgb(0, 0, 0)" stroke="rgb(60, 60, 60)" stroke-width="1px" opacity="0.25"></line></g></g></g><g><g><line x1="0" y1="8518.949997425072" x2="1096.019998550415" y2="8518.949997425072" fill="rgb(0, 0, 0)" stroke="rgb(153, 153, 153)" stroke-width="1.5px"></line></g></g><g><g><line x1="91.33499987920125" y1="0" x2="91.33499987920125" y2="378.6199998855591" fill="rgb(0, 0, 0)" stroke="rgb(153, 153, 153)" stroke-width="1.5px"></line></g></g><g><g><g><g><g><path style="fill: none;" stroke="rgb(255, 112, 67)" stroke-width="2px" d="M109.60199985504151,440.5078771690226L127.86899983088176,356.7423555189932L146.135999806722,144.86502551826143L164.40299978256226,130.08274188878212L182.6699997584025,139.93740957918L200.93699973424273,105.44579056890497L219.20399971008302,88.2002631576499L237.47099968592326,88.2002631576499L255.73799966176352,80.80883924902777L274.00499963760376,80.80883924902777L292.271999613444,83.27264721856848L310.53899958928423,78.34559546725201L328.8059995651245,83.27264721856848L347.07299954096476,73.41797952817059L365.339999516805,78.34559546725201L383.60699949264523,75.8817874977113L401.87399946848547,83.27264721856848L420.1409994443258,75.8817874977113L438.40799942016605,75.8817874977113L456.6749993960063,73.41797952817059L474.9419993718465,78.34559546725201L493.20899934768676,78.34559546725201L511.47599932352705,78.34559546725201L529.7429992993673,78.34559546725201L548.0099992752075,78.34559546725201L566.2769992510479,78.34559546725201L584.543999226888,78.34559546725201L602.8109992027283,78.34559546725201L621.0779991785685,78.34559546725201L639.3449991544088,73.41797952817059L657.611999130249,73.41797952817059L675.8789991060893,78.34559546725201L694.1459990819295,78.34559546725201L712.4129990577698,78.34559546725201L730.67999903361,78.34559546725201L748.9469990094503,78.34559546725201L767.2139989852905,78.34559546725201L785.4809989611308,78.34559546725201L803.7479989369709,78.34559546725201L822.0149989128113,78.34559546725201L840.2819988886516,78.34559546725201L858.5489988644918,78.34559546725201L876.8159988403321,78.34559546725201L895.0829988161722,78.34559546725201L913.3499987920126,78.34559546725201L931.6169987678528,78.34559546725201L949.883998743693,78.34559546725201L968.1509987195333,78.34559546725201L986.4179986953735,78.34559546725201" fill="none"></path></g><g><path style="fill: none;" stroke="rgb(0, 119, 187)" stroke-width="2px" d="M91.33499987920125,471.5573866253321L109.60199985504151,250.74501499107242L127.86899983088176,272.82619573572185L146.135999806722,216.39613548532992L164.40299978256226,191.86186633867382L182.6699997584025,164.8733804144812L200.93699973424273,130.5245009087387L219.20399971008302,108.44332016408926L237.47099968592326,98.62983818053279L255.73799966176352,74.0950048461117L274.00499963760376,76.54809324811835L292.271999613444,108.44332016408926L310.53899958928423,86.36213941943977L328.8059995651245,91.26944459898296L347.07299954096476,79.00174583788994L365.339999516805,105.99023176208262L383.60699949264523,79.00174583788994L401.87399946848547,96.1761855907612L420.1409994443258,81.45539842766154L438.40799942016605,98.62983818053279L456.6749993960063,101.08292658253943L474.9419993718465,96.1761855907612L493.20899934768676,103.53657917231102L511.47599932352705,69.18769966656856L529.7429992993673,79.00174583788994L548.0099992752075,98.62983818053279L566.2769992510479,71.64135225634011L584.543999226888,113.35062534363244L602.8109992027283,76.54809324811835L621.0779991785685,64.28095867479033L639.3449991544088,81.45539842766154L657.611999130249,83.90905101743313L675.8789991060893,93.7225330009896L694.1459990819295,118.25736633541068L712.4129990577698,76.54809324811835L730.67999903361,101.08292658253943L748.9469990094503,101.08292658253943L767.2139989852905,105.99023176208262L785.4809989611308,88.81579200921136L803.7479989369709,81.45539842766154L822.0149989128113,103.53657917231102L840.2819988886516,96.1761855907612L858.5489988644918,88.81579200921136L876.8159988403321,123.16410732718887L895.0829988161722,118.25736633541068L913.3499987920126,93.7225330009896L931.6169987678528,103.53657917231102L949.883998743693,98.62983818053279L968.1509987195333,98.62983818053279L986.4179986953735,74.0950048461117" fill="none"></path></g></g></g></g></g></g><g transform="translate(59, 378)" clip-path="url(#clip_1)"><clipPath id="clip_1"><rect width="1096" height="21"></rect></clipPath><g><g><line x1="0" y1="0" x2="0" y2="5" style="visibility: inherit;" fill="rgb(0, 0, 0)" stroke="rgb(204, 204, 204)" stroke-width="1px"></line><line x1="91.33499987920125" y1="0" x2="91.33499987920125" y2="5" style="visibility: inherit;" fill="rgb(0, 0, 0)" stroke="rgb(204, 204, 204)" stroke-width="1px"></line><line x1="182.6699997584025" y1="0" x2="182.6699997584025" y2="5" style="visibility: inherit;" fill="rgb(0, 0, 0)" stroke="rgb(204, 204, 204)" stroke-width="1px"></line><line x1="274.00499963760376" y1="0" x2="274.00499963760376" y2="5" style="visibility: inherit;" fill="rgb(0, 0, 0)" stroke="rgb(204, 204, 204)" stroke-width="1px"></line><line x1="365.339999516805" y1="0" x2="365.339999516805" y2="5" style="visibility: inherit;" fill="rgb(0, 0, 0)" stroke="rgb(204, 204, 204)" stroke-width="1px"></line><line x1="456.6749993960063" y1="0" x2="456.6749993960063" y2="5" style="visibility: inherit;" fill="rgb(0, 0, 0)" stroke="rgb(204, 204, 204)" stroke-width="1px"></line><line x1="548.0099992752075" y1="0" x2="548.0099992752075" y2="5" style="visibility: inherit;" fill="rgb(0, 0, 0)" stroke="rgb(204, 204, 204)" stroke-width="1px"></line><line x1="639.3449991544088" y1="0" x2="639.3449991544088" y2="5" style="visibility: inherit;" fill="rgb(0, 0, 0)" stroke="rgb(204, 204, 204)" stroke-width="1px"></line><line x1="730.67999903361" y1="0" x2="730.67999903361" y2="5" style="visibility: inherit;" fill="rgb(0, 0, 0)" stroke="rgb(204, 204, 204)" stroke-width="1px"></line><line x1="822.0149989128113" y1="0" x2="822.0149989128113" y2="5" style="visibility: inherit;" fill="rgb(0, 0, 0)" stroke="rgb(204, 204, 204)" stroke-width="1px"></line><line x1="913.3499987920126" y1="0" x2="913.3499987920126" y2="5" style="visibility: inherit;" fill="rgb(0, 0, 0)" stroke="rgb(204, 204, 204)" stroke-width="1px"></line><line x1="1004.6849986712137" y1="0" x2="1004.6849986712137" y2="5" style="visibility: inherit;" fill="rgb(0, 0, 0)" stroke="rgb(204, 204, 204)" stroke-width="1px"></line><line x1="1096.019998550415" y1="0" x2="1096.019998550415" y2="5" style="visibility: inherit;" fill="rgb(0, 0, 0)" stroke="rgb(204, 204, 204)" stroke-width="1px"></line></g><g transform="translate(0, 8)"><text style="text-anchor: middle; visibility: hidden; font-family: Roboto, sans-serif; font-size: 12px; font-weight: 200;" x="0" y="0" dx="0em" dy="0.95em" fill="rgb(50, 49, 63)" stroke="none" stroke-width="1px">-5</text><text style="text-anchor: middle; visibility: hidden; font-family: Roboto, sans-serif; font-size: 12px; font-weight: 200;" x="91.33499987920125" y="0" dx="0em" dy="0.95em" fill="rgb(50, 49, 63)" stroke="none" stroke-width="1px">0</text><text style="text-anchor: middle; visibility: hidden; font-family: Roboto, sans-serif; font-size: 12px; font-weight: 200;" x="182.6699997584025" y="0" dx="0em" dy="0.95em" fill="rgb(50, 49, 63)" stroke="none" stroke-width="1px">5</text><text style="text-anchor: middle; visibility: hidden; font-family: Roboto, sans-serif; font-size: 12px; font-weight: 200;" x="274.00499963760376" y="0" dx="0em" dy="0.95em" fill="rgb(50, 49, 63)" stroke="none" stroke-width="1px">10</text><text style="text-anchor: middle; visibility: hidden; font-family: Roboto, sans-serif; font-size: 12px; font-weight: 200;" x="365.339999516805" y="0" dx="0em" dy="0.95em" fill="rgb(50, 49, 63)" stroke="none" stroke-width="1px">15</text><text style="text-anchor: middle; visibility: hidden; font-family: Roboto, sans-serif; font-size: 12px; font-weight: 200;" x="456.6749993960063" y="0" dx="0em" dy="0.95em" fill="rgb(50, 49, 63)" stroke="none" stroke-width="1px">20</text><text style="text-anchor: middle; visibility: hidden; font-family: Roboto, sans-serif; font-size: 12px; font-weight: 200;" x="548.0099992752075" y="0" dx="0em" dy="0.95em" fill="rgb(50, 49, 63)" stroke="none" stroke-width="1px">25</text><text style="text-anchor: middle; visibility: hidden; font-family: Roboto, sans-serif; font-size: 12px; font-weight: 200;" x="639.3449991544088" y="0" dx="0em" dy="0.95em" fill="rgb(50, 49, 63)" stroke="none" stroke-width="1px">30</text><text style="text-anchor: middle; visibility: hidden; font-family: Roboto, sans-serif; font-size: 12px; font-weight: 200;" x="730.67999903361" y="0" dx="0em" dy="0.95em" fill="rgb(50, 49, 63)" stroke="none" stroke-width="1px">35</text><text style="text-anchor: middle; visibility: hidden; font-family: Roboto, sans-serif; font-size: 12px; font-weight: 200;" x="822.0149989128113" y="0" dx="0em" dy="0.95em" fill="rgb(50, 49, 63)" stroke="none" stroke-width="1px">40</text><text style="text-anchor: middle; visibility: hidden; font-family: Roboto, sans-serif; font-size: 12px; font-weight: 200;" x="913.3499987920126" y="0" dx="0em" dy="0.95em" fill="rgb(50, 49, 63)" stroke="none" stroke-width="1px">45</text><text style="text-anchor: middle; visibility: hidden; font-family: Roboto, sans-serif; font-size: 12px; font-weight: 200;" x="1004.6849986712137" y="0" dx="0em" dy="0.95em" fill="rgb(50, 49, 63)" stroke="none" stroke-width="1px">50</text><text style="text-anchor: middle; visibility: hidden; font-family: Roboto, sans-serif; font-size: 12px; font-weight: 200;" x="1096.019998550415" y="0" dx="0em" dy="0.95em" fill="rgb(50, 49, 63)" stroke="none" stroke-width="1px">55</text></g><line x1="0" y1="0" x2="1096.019998550415" y2="0" fill="rgb(0, 0, 0)" stroke="rgb(204, 204, 204)" stroke-width="1px"></line></g></g></g></g></svg>