<svg viewBox="0 0 1100 400" xmlns="http://www.w3.org/2000/svg"><g><g><g><g><g><line x1="49.98400115966797" y1="378.6199998855591" x2="44.98400115966797" y2="378.6199998855591" style="visibility: inherit;" fill="rgb(0, 0, 0)" stroke="rgb(204, 204, 204)" stroke-width="1px"></line><line x1="49.98400115966797" y1="340.7579998970036" x2="44.98400115966797" y2="340.7579998970036" style="visibility: inherit;" fill="rgb(0, 0, 0)" stroke="rgb(204, 204, 204)" stroke-width="1px"></line><line x1="49.98400115966797" y1="302.8959999084476" x2="44.98400115966797" y2="302.8959999084476" style="visibility: inherit;" fill="rgb(0, 0, 0)" stroke="rgb(204, 204, 204)" stroke-width="1px"></line><line x1="49.98400115966797" y1="265.0339999198917" x2="44.98400115966797" y2="265.0339999198917" style="visibility: inherit;" fill="rgb(0, 0, 0)" stroke="rgb(204, 204, 204)" stroke-width="1px"></line><line x1="49.98400115966797" y1="227.1719999313357" x2="44.98400115966797" y2="227.1719999313357" style="visibility: inherit;" fill="rgb(0, 0, 0)" stroke="rgb(204, 204, 204)" stroke-width="1px"></line><line x1="49.98400115966797" y1="189.30999994277974" x2="44.98400115966797" y2="189.30999994277974" style="visibility: inherit;" fill="rgb(0, 0, 0)" stroke="rgb(204, 204, 204)" stroke-width="1px"></line><line x1="49.98400115966797" y1="151.4479999542238" x2="44.98400115966797" y2="151.4479999542238" style="visibility: inherit;" fill="rgb(0, 0, 0)" stroke="rgb(204, 204, 204)" stroke-width="1px"></line><line x1="49.98400115966797" y1="113.58599996566787" x2="44.98400115966797" y2="113.58599996566787" style="visibility: inherit;" fill="rgb(0, 0, 0)" stroke="rgb(204, 204, 204)" stroke-width="1px"></line><line x1="49.98400115966797" y1="75.72399997711189" x2="44.98400115966797" y2="75.72399997711189" style="visibility: inherit;" fill="rgb(0, 0, 0)" stroke="rgb(204, 204, 204)" stroke-width="1px"></line><line x1="49.98400115966797" y1="37.861999988555944" x2="44.98400115966797" y2="37.861999988555944" style="visibility: inherit;" fill="rgb(0, 0, 0)" stroke="rgb(204, 204, 204)" stroke-width="1px"></line><line x1="49.98400115966797" y1="0" x2="44.98400115966797" y2="0" style="visibility: inherit;" fill="rgb(0, 0, 0)" stroke="rgb(204, 204, 204)" stroke-width="1px"></line></g><g transform="translate(39.98400115966797, 0)"><text style="text-anchor: end; visibility: hidden; font-family: Roboto, sans-serif; font-size: 12px; font-weight: 200;" x="0" y="378.6199998855591" dx="0em" dy="0.3em" fill="rgb(50, 49, 63)" stroke="none" stroke-width="1px">0.81</text><text style="text-anchor: end; visibility: inherit; font-family: Roboto, sans-serif; font-size: 12px; font-weight: 200;" x="0" y="340.7579998970036" dx="0em" dy="0.3em" fill="rgb(50, 49, 63)" stroke="none" stroke-width="1px">0.82</text><text style="text-anchor: end; visibility: inherit; font-family: Roboto, sans-serif; font-size: 12px; font-weight: 200;" x="0" y="302.8959999084476" dx="0em" dy="0.3em" fill="rgb(50, 49, 63)" stroke="none" stroke-width="1px">0.83</text><text style="text-anchor: end; visibility: inherit; font-family: Roboto, sans-serif; font-size: 12px; font-weight: 200;" x="0" y="265.0339999198917" dx="0em" dy="0.3em" fill="rgb(50, 49, 63)" stroke="none" stroke-width="1px">0.84</text><text style="text-anchor: end; visibility: inherit; font-family: Roboto, sans-serif; font-size: 12px; font-weight: 200;" x="0" y="227.1719999313357" dx="0em" dy="0.3em" fill="rgb(50, 49, 63)" stroke="none" stroke-width="1px">0.85</text><text style="text-anchor: end; visibility: inherit; font-family: Roboto, sans-serif; font-size: 12px; font-weight: 200;" x="0" y="189.30999994277974" dx="0em" dy="0.3em" fill="rgb(50, 49, 63)" stroke="none" stroke-width="1px">0.86</text><text style="text-anchor: end; visibility: inherit; font-family: Roboto, sans-serif; font-size: 12px; font-weight: 200;" x="0" y="151.4479999542238" dx="0em" dy="0.3em" fill="rgb(50, 49, 63)" stroke="none" stroke-width="1px">0.87</text><text style="text-anchor: end; visibility: inherit; font-family: Roboto, sans-serif; font-size: 12px; font-weight: 200;" x="0" y="113.58599996566787" dx="0em" dy="0.3em" fill="rgb(50, 49, 63)" stroke="none" stroke-width="1px">0.88</text><text style="text-anchor: end; visibility: inherit; font-family: Roboto, sans-serif; font-size: 12px; font-weight: 200;" x="0" y="75.72399997711189" dx="0em" dy="0.3em" fill="rgb(50, 49, 63)" stroke="none" stroke-width="1px">0.89</text><text style="text-anchor: end; visibility: inherit; font-family: Roboto, sans-serif; font-size: 12px; font-weight: 200;" x="0" y="37.861999988555944" dx="0em" dy="0.3em" fill="rgb(50, 49, 63)" stroke="none" stroke-width="1px">0.9</text><text style="text-anchor: end; visibility: hidden; font-family: Roboto, sans-serif; font-size: 12px; font-weight: 200;" x="0" y="0" dx="0em" dy="0.3em" fill="rgb(50, 49, 63)" stroke="none" stroke-width="1px">0.91</text></g><line x1="49.98400115966797" y1="0" x2="49.98400115966797" y2="378.6199998855591" fill="rgb(0, 0, 0)" stroke="rgb(204, 204, 204)" stroke-width="1px"></line></g></g><g transform="translate(49, 0)" clip-path="url(#clip_0)"><clipPath id="clip_0"><rect width="1050" height="378"></rect></clipPath><g><g><g><line x1="0" y1="0" x2="0" y2="378.6199998855591" fill="rgb(0, 0, 0)" stroke="rgb(60, 60, 60)" stroke-width="1px" opacity="0.25"></line><line x1="87.50133323669434" y1="0" x2="87.50133323669434" y2="378.6199998855591" fill="rgb(0, 0, 0)" stroke="rgb(60, 60, 60)" stroke-width="1px" opacity="0.25"></line><line x1="175.00266647338867" y1="0" x2="175.00266647338867" y2="378.6199998855591" fill="rgb(0, 0, 0)" stroke="rgb(60, 60, 60)" stroke-width="1px" opacity="0.25"></line><line x1="262.503999710083" y1="0" x2="262.503999710083" y2="378.6199998855591" fill="rgb(0, 0, 0)" stroke="rgb(60, 60, 60)" stroke-width="1px" opacity="0.25"></line><line x1="350.00533294677734" y1="0" x2="350.00533294677734" y2="378.6199998855591" fill="rgb(0, 0, 0)" stroke="rgb(60, 60, 60)" stroke-width="1px" opacity="0.25"></line><line x1="437.5066661834717" y1="0" x2="437.5066661834717" y2="378.6199998855591" fill="rgb(0, 0, 0)" stroke="rgb(60, 60, 60)" stroke-width="1px" opacity="0.25"></line><line x1="525.007999420166" y1="0" x2="525.007999420166" y2="378.6199998855591" fill="rgb(0, 0, 0)" stroke="rgb(60, 60, 60)" stroke-width="1px" opacity="0.25"></line><line x1="612.5093326568604" y1="0" x2="612.5093326568604" y2="378.6199998855591" fill="rgb(0, 0, 0)" stroke="rgb(60, 60, 60)" stroke-width="1px" opacity="0.25"></line><line x1="700.0106658935547" y1="0" x2="700.0106658935547" y2="378.6199998855591" fill="rgb(0, 0, 0)" stroke="rgb(60, 60, 60)" stroke-width="1px" opacity="0.25"></line><line x1="787.511999130249" y1="0" x2="787.511999130249" y2="378.6199998855591" fill="rgb(0, 0, 0)" stroke="rgb(60, 60, 60)" stroke-width="1px" opacity="0.25"></line><line x1="875.0133323669434" y1="0" x2="875.0133323669434" y2="378.6199998855591" fill="rgb(0, 0, 0)" stroke="rgb(60, 60, 60)" stroke-width="1px" opacity="0.25"></line><line x1="962.5146656036377" y1="0" x2="962.5146656036377" y2="378.6199998855591" fill="rgb(0, 0, 0)" stroke="rgb(60, 60, 60)" stroke-width="1px" opacity="0.25"></line><line x1="1050.015998840332" y1="0" x2="1050.015998840332" y2="378.6199998855591" fill="rgb(0, 0, 0)" stroke="rgb(60, 60, 60)" stroke-width="1px" opacity="0.25"></line></g><g><line x1="0" y1="378.6199998855591" x2="1050.015998840332" y2="378.6199998855591" fill="rgb(0, 0, 0)" stroke="rgb(60, 60, 60)" stroke-width="1px" opacity="0.25"></line><line x1="0" y1="340.7579998970036" x2="1050.015998840332" y2="340.7579998970036" fill="rgb(0, 0, 0)" stroke="rgb(60, 60, 60)" stroke-width="1px" opacity="0.25"></line><line x1="0" y1="302.8959999084476" x2="1050.015998840332" y2="302.8959999084476" fill="rgb(0, 0, 0)" stroke="rgb(60, 60, 60)" stroke-width="1px" opacity="0.25"></line><line x1="0" y1="265.0339999198917" x2="1050.015998840332" y2="265.0339999198917" fill="rgb(0, 0, 0)" stroke="rgb(60, 60, 60)" stroke-width="1px" opacity="0.25"></line><line x1="0" y1="227.1719999313357" x2="1050.015998840332" y2="227.1719999313357" fill="rgb(0, 0, 0)" stroke="rgb(60, 60, 60)" stroke-width="1px" opacity="0.25"></line><line x1="0" y1="189.30999994277974" x2="1050.015998840332" y2="189.30999994277974" fill="rgb(0, 0, 0)" stroke="rgb(60, 60, 60)" stroke-width="1px" opacity="0.25"></line><line x1="0" y1="151.4479999542238" x2="1050.015998840332" y2="151.4479999542238" fill="rgb(0, 0, 0)" stroke="rgb(60, 60, 60)" stroke-width="1px" opacity="0.25"></line><line x1="0" y1="113.58599996566787" x2="1050.015998840332" y2="113.58599996566787" fill="rgb(0, 0, 0)" stroke="rgb(60, 60, 60)" stroke-width="1px" opacity="0.25"></line><line x1="0" y1="75.72399997711189" x2="1050.015998840332" y2="75.72399997711189" fill="rgb(0, 0, 0)" stroke="rgb(60, 60, 60)" stroke-width="1px" opacity="0.25"></line><line x1="0" y1="37.861999988555944" x2="1050.015998840332" y2="37.861999988555944" fill="rgb(0, 0, 0)" stroke="rgb(60, 60, 60)" stroke-width="1px" opacity="0.25"></line><line x1="0" y1="0" x2="1050.015998840332" y2="0" fill="rgb(0, 0, 0)" stroke="rgb(60, 60, 60)" stroke-width="1px" opacity="0.25"></line></g></g></g><g><g><line x1="0" y1="3445.441998958589" x2="1050.015998840332" y2="3445.441998958589" fill="rgb(0, 0, 0)" stroke="rgb(153, 153, 153)" stroke-width="1.5px"></line></g></g><g><g><line x1="87.50133323669434" y1="0" x2="87.50133323669434" y2="378.6199998855591" fill="rgb(0, 0, 0)" stroke="rgb(153, 153, 153)" stroke-width="1.5px"></line></g></g><g><g><g><g><g><path style="fill: none;" stroke="rgb(255, 112, 67)" stroke-width="2px" d="M87.50133323669434,325.4240805519678L105.00159988403321,214.0651508561652L122.50186653137207,180.5589421961534L140.00213317871095,95.8080101958606L157.5023998260498,89.89509674406884L175.00266647338867,93.836963820228L192.50293312072753,80.04031621611796L210.00319976806642,73.14210525161593L227.50346641540528,73.14210525161593L245.00373306274415,70.18553568816708L262.503999710083,70.18553568816708L280.0042663574219,71.17105887598336L297.50453300476073,69.20023817545678L315.0047996520996,71.17105887598336L332.50506629943845,67.2291917998242L350.00533294677734,69.20023817545678L367.5055995941162,68.21471498764049L385.00586624145507,71.17105887598336L402.50613288879396,68.21471498764049L420.00639953613285,68.21471498764049L437.5066661834717,67.2291917998242L455.00693283081057,69.20023817545678L472.5071994781494,69.20023817545678L490.0074661254883,69.20023817545678L507.5077327728271,69.20023817545678L525.007999420166,69.20023817545678L542.5082660675049,69.20023817545678L560.0085327148438,69.20023817545678L577.5087993621827,69.20023817545678L595.0090660095215,69.20023817545678L612.5093326568604,67.2291917998242L630.0095993041992,67.2291917998242L647.5098659515381,69.20023817545678L665.0101325988769,69.20023817545678L682.5103992462158,69.20023817545678L700.0106658935547,69.20023817545678L717.5109325408936,69.20023817545678L735.0111991882324,69.20023817545678L752.5114658355712,69.20023817545678L770.0117324829101,69.20023817545678L787.511999130249,69.20023817545678L805.0122657775879,69.20023817545678L822.5125324249268,69.20023817545678L840.0127990722657,69.20023817545678L857.5130657196045,69.20023817545678L875.0133323669434,69.20023817545678L892.5135990142822,69.20023817545678L910.0138656616211,69.20023817545678L927.5141323089599,69.20023817545678L945.0143989562988,69.20023817545678" fill="none"></path></g><g><path style="fill: none;" stroke="rgb(0, 119, 187)" stroke-width="2px" d="M157.5023998260498,392.3399089266318L175.00266647338867,374.6747386558062L192.50293312072753,355.0470976633753L210.00319976806642,334.4377699599298L227.50346641540528,308.9218141022591L245.00373306274415,320.6984438327388L262.503999710083,331.4936125273099L280.0042663574219,316.77282536421023L297.50453300476073,321.67967919354146L315.0047996520996,307.94035306635044L332.50506629943845,308.9218141022591L350.00533294677734,288.3124863988136L367.5055995941162,306.9588920304418L385.00586624145507,308.9218141022591L402.50613288879396,304.01473459782187L420.00639953613285,329.5309161305986L437.5066661834717,272.6102381998053L455.00693283081057,292.23810486734214L472.5071994781494,318.73552176092153L490.0074661254883,298.126419732582L507.5077327728271,299.10788076849065L525.007999420166,303.0334992370192L542.5082660675049,295.1822622999621L560.0085327148438,302.0520382011106L577.5087993621827,302.0520382011106L595.0090660095215,289.2939474347222L612.5093326568604,289.2939474347222L630.0095993041992,295.1822622999621L647.5098659515381,326.58675869797867L665.0101325988769,252.98259720737437L682.5103992462158,281.44293617277106L700.0106658935547,298.126419732582L717.5109325408936,295.1822622999621L735.0111991882324,309.90304946306173L752.5114658355712,309.90304946306173L770.0117324829101,325.60529766207003L787.511999130249,287.3312510380109L805.0122657775879,298.126419732582L822.5125324249268,269.66608076718535L840.0127990722657,310.88451049897037L857.5130657196045,317.7542864001189L875.0133323669434,305.97765666963915L892.5135990142822,294.20080126405344L910.0138656616211,287.3312510380109L927.5141323089599,304.01473459782187L945.0143989562988,334.4377699599298" fill="none"></path></g><g><path style="fill: none;" stroke="rgb(204, 51, 17)" stroke-width="2px" d="M87.50133323669434,357.0097940600866L105.00159988403321,299.10788076849065L122.50186653137207,204.89439157444082L140.00213317871095,185.26675058200993L157.5023998260498,184.2852895461013L175.00266647338867,155.82495058070464L192.50293312072753,148.95517467955614L210.00319976806642,141.10416341760498L227.50346641540528,127.36461161530796L245.00373306274415,134.23438751645648L262.503999710083,151.89933211217607L280.0042663574219,154.84371521990198L297.50453300476073,151.89933211217607L315.0047996520996,121.4762967500681L332.50506629943845,130.3087690479279L350.00533294677734,118.53213931744817L367.5055995941162,143.06685981431627L385.00586624145507,139.14146702089369L402.50613288879396,130.3087690479279L420.00639953613285,144.0483208502249L437.5066661834717,133.25315215565382L455.00693283081057,129.32753368712525L472.5071994781494,125.40191521859667L490.0074661254883,110.68112805549701L507.5077327728271,136.19730958827375L525.007999420166,137.1785449490764L542.5082660675049,143.06685981431627L560.0085327148438,137.1785449490764L577.5087993621827,129.32753368712525L595.0090660095215,128.34607265121662L612.5093326568604,145.02978188613355L630.0095993041992,135.21584855236512L647.5098659515381,126.38337625450531L665.0101325988769,136.19730958827375L682.5103992462158,131.29023008383655L700.0106658935547,150.9180967513734L717.5109325408936,127.36461161530796L735.0111991882324,135.21584855236512L752.5114658355712,139.14146702089369L770.0117324829101,134.23438751645648L787.511999130249,122.45775778597674L805.0122657775879,146.99247828284484L822.5125324249268,126.38337625450531L840.0127990722657,139.14146702089369L857.5130657196045,128.34607265121662L875.0133323669434,143.06685981431627L892.5135990142822,142.08562445351362L910.0138656616211,148.95517467955614L927.5141323089599,145.02978188613355L945.0143989562988,116.56944292073688" fill="none"></path></g><g><path style="fill: none;" stroke="rgb(51, 187, 238)" stroke-width="2px" d="M87.50133323669434,282.4241715335737L105.00159988403321,204.89439157444082L122.50186653137207,148.95517467955614L140.00213317871095,159.7505690492332L157.5023998260498,116.56944292073688L175.00266647338867,130.3087690479279L192.50293312072753,110.68112805549701L210.00319976806642,104.79281319025715L227.50346641540528,95.96034089239735L245.00373306274415,96.94157625320001L262.503999710083,100.86719472172858L280.0042663574219,102.82989111843987L297.50453300476073,113.62528548811694L315.0047996520996,94.97887985648872L332.50506629943845,88.10910395534017L350.00533294677734,90.07180035205147L367.5055995941162,93.01618345977738L385.00586624145507,93.99741882058004L402.50613288879396,89.09056499124881L420.00639953613285,91.0532613879601L437.5066661834717,89.09056499124881L455.00693283081057,78.29517062157174L472.5071994781494,91.0532613879601L490.0074661254883,95.96034089239735L507.5077327728271,104.79281319025715L525.007999420166,91.0532613879601L542.5082660675049,93.99741882058004L560.0085327148438,98.90449832501729L577.5087993621827,88.10910395534017L595.0090660095215,80.25809269338902L612.5093326568604,73.38831679224052L630.0095993041992,106.75550958696844L647.5098659515381,94.97887985648872L665.0101325988769,92.03472242386874L682.5103992462158,85.16494652272024L700.0106658935547,81.23932805419167L717.5109325408936,84.1834854868116L735.0111991882324,102.82989111843987L752.5114658355712,107.73697062287708L770.0117324829101,81.23932805419167L787.511999130249,93.01618345977738L805.0122657775879,87.12764291943154L822.5125324249268,86.14640755862888L840.0127990722657,80.25809269338902L857.5130657196045,83.20225012600895L875.0133323669434,85.16494652272024L892.5135990142822,81.23932805419167L910.0138656616211,102.82989111843987L927.5141323089599,88.10910395534017L945.0143989562988,94.97887985648872" fill="none"></path></g><g><path style="fill: none;" stroke="rgb(238, 51, 119)" stroke-width="2px" d="M87.50133323669434,222.5595618452664L105.00159988403321,204.89439157444082L122.50186653137207,168.583041347093L140.00213317871095,122.45775778597674L157.5023998260498,93.99741882058004L175.00266647338867,96.94157625320001L192.50293312072753,98.90449832501729L210.00319976806642,97.92303728910865L227.50346641540528,92.03472242386874L245.00373306274415,83.20225012600895L262.503999710083,88.10910395534017L280.0042663574219,85.16494652272024L297.50453300476073,65.53707985518338L315.0047996520996,75.35101318895181L332.50506629943845,81.23932805419167L350.00533294677734,69.46269832371195L367.5055995941162,78.29517062157174L385.00586624145507,70.44415935962058L402.50613288879396,59.64876498994352L420.00639953613285,79.27663165748038L437.5066661834717,70.44415935962058L455.00693283081057,79.27663165748038L472.5071994781494,69.46269832371195L490.0074661254883,67.50000192700065L507.5077327728271,73.38831679224052L525.007999420166,78.29517062157174L542.5082660675049,80.25809269338902L560.0085327148438,72.40685575633188L577.5087993621827,66.51854089109202L595.0090660095215,91.0532613879601L612.5093326568604,62.592922422563454L630.0095993041992,71.42562039552922L647.5098659515381,76.33247422486045L665.0101325988769,59.64876498994352L682.5103992462158,86.14640755862888L700.0106658935547,68.48123728780331L717.5109325408936,73.38831679224052L735.0111991882324,63.57438345847209L752.5114658355712,85.16494652272024L770.0117324829101,74.36977782814915L787.511999130249,63.57438345847209L805.0122657775879,97.92303728910865L822.5125324249268,86.14640755862888L840.0127990722657,85.16494652272024L857.5130657196045,75.35101318895181L875.0133323669434,71.42562039552922L892.5135990142822,86.14640755862888L910.0138656616211,75.35101318895181L927.5141323089599,78.29517062157174L945.0143989562988,72.40685575633188" fill="none"></path></g><g><path style="fill: none;" stroke="rgb(0, 153, 136)" stroke-width="2px" d="M87.50133323669434,251.0196751355571L105.00159988403321,151.89933211217607L122.50186653137207,122.45775778597674L140.00213317871095,117.55090395664551L157.5023998260498,102.82989111843987L175.00266647338867,93.99741882058004L192.50293312072753,89.09056499124881L210.00319976806642,93.99741882058004L227.50346641540528,78.29517062157174L245.00373306274415,81.23932805419167L262.503999710083,75.35101318895181L280.0042663574219,73.38831679224052L297.50453300476073,74.36977782814915L315.0047996520996,72.40685575633188L332.50506629943845,79.27663165748038L350.00533294677734,74.36977782814915L367.5055995941162,67.50000192700065L385.00586624145507,76.33247422486045L402.50613288879396,86.14640755862888L420.00639953613285,86.14640755862888L437.5066661834717,61.6116870617608L455.00693283081057,72.40685575633188L472.5071994781494,73.38831679224052L490.0074661254883,73.38831679224052L507.5077327728271,71.42562039552922L525.007999420166,68.48123728780331L542.5082660675049,74.36977782814915L560.0085327148438,74.36977782814915L577.5087993621827,93.99741882058004L595.0090660095215,65.53707985518338L612.5093326568604,77.31393526076909L630.0095993041992,71.42562039552922L647.5098659515381,75.35101318895181L665.0101325988769,76.33247422486045L682.5103992462158,74.36977782814915L700.0106658935547,79.27663165748038L717.5109325408936,88.10910395534017L735.0111991882324,79.27663165748038L752.5114658355712,73.38831679224052L770.0117324829101,72.40685575633188L787.511999130249,68.48123728780331L805.0122657775879,79.27663165748038L822.5125324249268,69.46269832371195L840.0127990722657,72.40685575633188L857.5130657196045,70.44415935962058L875.0133323669434,69.46269832371195L892.5135990142822,64.55584449438072L910.0138656616211,68.48123728780331L927.5141323089599,77.31393526076909L945.0143989562988,72.40685575633188" fill="none"></path></g></g></g></g></g></g><g transform="translate(49, 378)" clip-path="url(#clip_1)"><clipPath id="clip_1"><rect width="1050" height="21"></rect></clipPath><g><g><line x1="0" y1="0" x2="0" y2="5" style="visibility: inherit;" fill="rgb(0, 0, 0)" stroke="rgb(204, 204, 204)" stroke-width="1px"></line><line x1="87.50133323669434" y1="0" x2="87.50133323669434" y2="5" style="visibility: inherit;" fill="rgb(0, 0, 0)" stroke="rgb(204, 204, 204)" stroke-width="1px"></line><line x1="175.00266647338867" y1="0" x2="175.00266647338867" y2="5" style="visibility: inherit;" fill="rgb(0, 0, 0)" stroke="rgb(204, 204, 204)" stroke-width="1px"></line><line x1="262.503999710083" y1="0" x2="262.503999710083" y2="5" style="visibility: inherit;" fill="rgb(0, 0, 0)" stroke="rgb(204, 204, 204)" stroke-width="1px"></line><line x1="350.00533294677734" y1="0" x2="350.00533294677734" y2="5" style="visibility: inherit;" fill="rgb(0, 0, 0)" stroke="rgb(204, 204, 204)" stroke-width="1px"></line><line x1="437.5066661834717" y1="0" x2="437.5066661834717" y2="5" style="visibility: inherit;" fill="rgb(0, 0, 0)" stroke="rgb(204, 204, 204)" stroke-width="1px"></line><line x1="525.007999420166" y1="0" x2="525.007999420166" y2="5" style="visibility: inherit;" fill="rgb(0, 0, 0)" stroke="rgb(204, 204, 204)" stroke-width="1px"></line><line x1="612.5093326568604" y1="0" x2="612.5093326568604" y2="5" style="visibility: inherit;" fill="rgb(0, 0, 0)" stroke="rgb(204, 204, 204)" stroke-width="1px"></line><line x1="700.0106658935547" y1="0" x2="700.0106658935547" y2="5" style="visibility: inherit;" fill="rgb(0, 0, 0)" stroke="rgb(204, 204, 204)" stroke-width="1px"></line><line x1="787.511999130249" y1="0" x2="787.511999130249" y2="5" style="visibility: inherit;" fill="rgb(0, 0, 0)" stroke="rgb(204, 204, 204)" stroke-width="1px"></line><line x1="875.0133323669434" y1="0" x2="875.0133323669434" y2="5" style="visibility: inherit;" fill="rgb(0, 0, 0)" stroke="rgb(204, 204, 204)" stroke-width="1px"></line><line x1="962.5146656036377" y1="0" x2="962.5146656036377" y2="5" style="visibility: inherit;" fill="rgb(0, 0, 0)" stroke="rgb(204, 204, 204)" stroke-width="1px"></line><line x1="1050.015998840332" y1="0" x2="1050.015998840332" y2="5" style="visibility: inherit;" fill="rgb(0, 0, 0)" stroke="rgb(204, 204, 204)" stroke-width="1px"></line></g><g transform="translate(0, 8)"><text style="text-anchor: middle; visibility: hidden; font-family: Roboto, sans-serif; font-size: 12px; font-weight: 200;" x="0" y="0" dx="0em" dy="0.95em" fill="rgb(50, 49, 63)" stroke="none" stroke-width="1px">-5</text><text style="text-anchor: middle; visibility: hidden; font-family: Roboto, sans-serif; font-size: 12px; font-weight: 200;" x="87.50133323669434" y="0" dx="0em" dy="0.95em" fill="rgb(50, 49, 63)" stroke="none" stroke-width="1px">0</text><text style="text-anchor: middle; visibility: hidden; font-family: Roboto, sans-serif; font-size: 12px; font-weight: 200;" x="175.00266647338867" y="0" dx="0em" dy="0.95em" fill="rgb(50, 49, 63)" stroke="none" stroke-width="1px">5</text><text style="text-anchor: middle; visibility: hidden; font-family: Roboto, sans-serif; font-size: 12px; font-weight: 200;" x="262.503999710083" y="0" dx="0em" dy="0.95em" fill="rgb(50, 49, 63)" stroke="none" stroke-width="1px">10</text><text style="text-anchor: middle; visibility: hidden; font-family: Roboto, sans-serif; font-size: 12px; font-weight: 200;" x="350.00533294677734" y="0" dx="0em" dy="0.95em" fill="rgb(50, 49, 63)" stroke="none" stroke-width="1px">15</text><text style="text-anchor: middle; visibility: hidden; font-family: Roboto, sans-serif; font-size: 12px; font-weight: 200;" x="437.5066661834717" y="0" dx="0em" dy="0.95em" fill="rgb(50, 49, 63)" stroke="none" stroke-width="1px">20</text><text style="text-anchor: middle; visibility: hidden; font-family: Roboto, sans-serif; font-size: 12px; font-weight: 200;" x="525.007999420166" y="0" dx="0em" dy="0.95em" fill="rgb(50, 49, 63)" stroke="none" stroke-width="1px">25</text><text style="text-anchor: middle; visibility: hidden; font-family: Roboto, sans-serif; font-size: 12px; font-weight: 200;" x="612.5093326568604" y="0" dx="0em" dy="0.95em" fill="rgb(50, 49, 63)" stroke="none" stroke-width="1px">30</text><text style="text-anchor: middle; visibility: hidden; font-family: Roboto, sans-serif; font-size: 12px; font-weight: 200;" x="700.0106658935547" y="0" dx="0em" dy="0.95em" fill="rgb(50, 49, 63)" stroke="none" stroke-width="1px">35</text><text style="text-anchor: middle; visibility: hidden; font-family: Roboto, sans-serif; font-size: 12px; font-weight: 200;" x="787.511999130249" y="0" dx="0em" dy="0.95em" fill="rgb(50, 49, 63)" stroke="none" stroke-width="1px">40</text><text style="text-anchor: middle; visibility: hidden; font-family: Roboto, sans-serif; font-size: 12px; font-weight: 200;" x="875.0133323669434" y="0" dx="0em" dy="0.95em" fill="rgb(50, 49, 63)" stroke="none" stroke-width="1px">45</text><text style="text-anchor: middle; visibility: hidden; font-family: Roboto, sans-serif; font-size: 12px; font-weight: 200;" x="962.5146656036377" y="0" dx="0em" dy="0.95em" fill="rgb(50, 49, 63)" stroke="none" stroke-width="1px">50</text><text style="text-anchor: middle; visibility: hidden; font-family: Roboto, sans-serif; font-size: 12px; font-weight: 200;" x="1050.015998840332" y="0" dx="0em" dy="0.95em" fill="rgb(50, 49, 63)" stroke="none" stroke-width="1px">55</text></g><line x1="0" y1="0" x2="1050.015998840332" y2="0" fill="rgb(0, 0, 0)" stroke="rgb(204, 204, 204)" stroke-width="1px"></line></g></g></g></g></svg>