<svg viewBox="0 0 1369 400" xmlns="http://www.w3.org/2000/svg"><g><g><g><g><g><line x1="49.98400115966797" y1="378.6199998855591" x2="44.98400115966797" y2="378.6199998855591" style="visibility: inherit;" fill="rgb(0, 0, 0)" stroke="rgb(204, 204, 204)" stroke-width="1px"></line><line x1="49.98400115966797" y1="351.5757141794477" x2="44.98400115966797" y2="351.5757141794477" style="visibility: inherit;" fill="rgb(0, 0, 0)" stroke="rgb(204, 204, 204)" stroke-width="1px"></line><line x1="49.98400115966797" y1="324.5314284733363" x2="44.98400115966797" y2="324.5314284733363" style="visibility: inherit;" fill="rgb(0, 0, 0)" stroke="rgb(204, 204, 204)" stroke-width="1px"></line><line x1="49.98400115966797" y1="297.48714276722495" x2="44.98400115966797" y2="297.48714276722495" style="visibility: inherit;" fill="rgb(0, 0, 0)" stroke="rgb(204, 204, 204)" stroke-width="1px"></line><line x1="49.98400115966797" y1="270.44285706111356" x2="44.98400115966797" y2="270.44285706111356" style="visibility: inherit;" fill="rgb(0, 0, 0)" stroke="rgb(204, 204, 204)" stroke-width="1px"></line><line x1="49.98400115966797" y1="243.39857135500233" x2="44.98400115966797" y2="243.39857135500233" style="visibility: inherit;" fill="rgb(0, 0, 0)" stroke="rgb(204, 204, 204)" stroke-width="1px"></line><line x1="49.98400115966797" y1="216.35428564889094" x2="44.98400115966797" y2="216.35428564889094" style="visibility: inherit;" fill="rgb(0, 0, 0)" stroke="rgb(204, 204, 204)" stroke-width="1px"></line><line x1="49.98400115966797" y1="189.30999994277954" x2="44.98400115966797" y2="189.30999994277954" style="visibility: inherit;" fill="rgb(0, 0, 0)" stroke="rgb(204, 204, 204)" stroke-width="1px"></line><line x1="49.98400115966797" y1="162.26571423666815" x2="44.98400115966797" y2="162.26571423666815" style="visibility: inherit;" fill="rgb(0, 0, 0)" stroke="rgb(204, 204, 204)" stroke-width="1px"></line><line x1="49.98400115966797" y1="135.22142853055675" x2="44.98400115966797" y2="135.22142853055675" style="visibility: inherit;" fill="rgb(0, 0, 0)" stroke="rgb(204, 204, 204)" stroke-width="1px"></line><line x1="49.98400115966797" y1="108.1771428244454" x2="44.98400115966797" y2="108.1771428244454" style="visibility: inherit;" fill="rgb(0, 0, 0)" stroke="rgb(204, 204, 204)" stroke-width="1px"></line><line x1="49.98400115966797" y1="81.13285711833414" x2="44.98400115966797" y2="81.13285711833414" style="visibility: inherit;" fill="rgb(0, 0, 0)" stroke="rgb(204, 204, 204)" stroke-width="1px"></line><line x1="49.98400115966797" y1="54.088571412222784" x2="44.98400115966797" y2="54.088571412222784" style="visibility: inherit;" fill="rgb(0, 0, 0)" stroke="rgb(204, 204, 204)" stroke-width="1px"></line><line x1="49.98400115966797" y1="27.044285706111392" x2="44.98400115966797" y2="27.044285706111392" style="visibility: inherit;" fill="rgb(0, 0, 0)" stroke="rgb(204, 204, 204)" stroke-width="1px"></line><line x1="49.98400115966797" y1="0" x2="44.98400115966797" y2="0" style="visibility: inherit;" fill="rgb(0, 0, 0)" stroke="rgb(204, 204, 204)" stroke-width="1px"></line></g><g transform="translate(39.98400115966797, 0)"><text style="text-anchor: end; visibility: hidden; font-family: Roboto, sans-serif; font-size: 12px; font-weight: 200;" x="0" y="378.6199998855591" dx="0em" dy="0.3em" fill="rgb(50, 49, 63)" stroke="none" stroke-width="1px">0.24</text><text style="text-anchor: end; visibility: inherit; font-family: Roboto, sans-serif; font-size: 12px; font-weight: 200;" x="0" y="351.5757141794477" dx="0em" dy="0.3em" fill="rgb(50, 49, 63)" stroke="none" stroke-width="1px">0.25</text><text style="text-anchor: end; visibility: inherit; font-family: Roboto, sans-serif; font-size: 12px; font-weight: 200;" x="0" y="324.5314284733363" dx="0em" dy="0.3em" fill="rgb(50, 49, 63)" stroke="none" stroke-width="1px">0.26</text><text style="text-anchor: end; visibility: inherit; font-family: Roboto, sans-serif; font-size: 12px; font-weight: 200;" x="0" y="297.48714276722495" dx="0em" dy="0.3em" fill="rgb(50, 49, 63)" stroke="none" stroke-width="1px">0.27</text><text style="text-anchor: end; visibility: inherit; font-family: Roboto, sans-serif; font-size: 12px; font-weight: 200;" x="0" y="270.44285706111356" dx="0em" dy="0.3em" fill="rgb(50, 49, 63)" stroke="none" stroke-width="1px">0.28</text><text style="text-anchor: end; visibility: inherit; font-family: Roboto, sans-serif; font-size: 12px; font-weight: 200;" x="0" y="243.39857135500233" dx="0em" dy="0.3em" fill="rgb(50, 49, 63)" stroke="none" stroke-width="1px">0.29</text><text style="text-anchor: end; visibility: inherit; font-family: Roboto, sans-serif; font-size: 12px; font-weight: 200;" x="0" y="216.35428564889094" dx="0em" dy="0.3em" fill="rgb(50, 49, 63)" stroke="none" stroke-width="1px">0.3</text><text style="text-anchor: end; visibility: inherit; font-family: Roboto, sans-serif; font-size: 12px; font-weight: 200;" x="0" y="189.30999994277954" dx="0em" dy="0.3em" fill="rgb(50, 49, 63)" stroke="none" stroke-width="1px">0.31</text><text style="text-anchor: end; visibility: inherit; font-family: Roboto, sans-serif; font-size: 12px; font-weight: 200;" x="0" y="162.26571423666815" dx="0em" dy="0.3em" fill="rgb(50, 49, 63)" stroke="none" stroke-width="1px">0.32</text><text style="text-anchor: end; visibility: inherit; font-family: Roboto, sans-serif; font-size: 12px; font-weight: 200;" x="0" y="135.22142853055675" dx="0em" dy="0.3em" fill="rgb(50, 49, 63)" stroke="none" stroke-width="1px">0.33</text><text style="text-anchor: end; visibility: inherit; font-family: Roboto, sans-serif; font-size: 12px; font-weight: 200;" x="0" y="108.1771428244454" dx="0em" dy="0.3em" fill="rgb(50, 49, 63)" stroke="none" stroke-width="1px">0.34</text><text style="text-anchor: end; visibility: inherit; font-family: Roboto, sans-serif; font-size: 12px; font-weight: 200;" x="0" y="81.13285711833414" dx="0em" dy="0.3em" fill="rgb(50, 49, 63)" stroke="none" stroke-width="1px">0.35</text><text style="text-anchor: end; visibility: inherit; font-family: Roboto, sans-serif; font-size: 12px; font-weight: 200;" x="0" y="54.088571412222784" dx="0em" dy="0.3em" fill="rgb(50, 49, 63)" stroke="none" stroke-width="1px">0.36</text><text style="text-anchor: end; visibility: inherit; font-family: Roboto, sans-serif; font-size: 12px; font-weight: 200;" x="0" y="27.044285706111392" dx="0em" dy="0.3em" fill="rgb(50, 49, 63)" stroke="none" stroke-width="1px">0.37</text><text style="text-anchor: end; visibility: hidden; font-family: Roboto, sans-serif; font-size: 12px; font-weight: 200;" x="0" y="0" dx="0em" dy="0.3em" fill="rgb(50, 49, 63)" stroke="none" stroke-width="1px">0.38</text></g><line x1="49.98400115966797" y1="0" x2="49.98400115966797" y2="378.6199998855591" fill="rgb(0, 0, 0)" stroke="rgb(204, 204, 204)" stroke-width="1px"></line></g></g><g transform="translate(49, 0)" clip-path="url(#clip_0)"><clipPath id="clip_0"><rect width="1319" height="378"></rect></clipPath><g><g><g><line x1="0" y1="0" x2="0" y2="378.6199998855591" fill="rgb(0, 0, 0)" stroke="rgb(60, 60, 60)" stroke-width="1px" opacity="0.25"></line><line x1="109.917999903361" y1="0" x2="109.917999903361" y2="378.6199998855591" fill="rgb(0, 0, 0)" stroke="rgb(60, 60, 60)" stroke-width="1px" opacity="0.25"></line><line x1="219.835999806722" y1="0" x2="219.835999806722" y2="378.6199998855591" fill="rgb(0, 0, 0)" stroke="rgb(60, 60, 60)" stroke-width="1px" opacity="0.25"></line><line x1="329.753999710083" y1="0" x2="329.753999710083" y2="378.6199998855591" fill="rgb(0, 0, 0)" stroke="rgb(60, 60, 60)" stroke-width="1px" opacity="0.25"></line><line x1="439.671999613444" y1="0" x2="439.671999613444" y2="378.6199998855591" fill="rgb(0, 0, 0)" stroke="rgb(60, 60, 60)" stroke-width="1px" opacity="0.25"></line><line x1="549.589999516805" y1="0" x2="549.589999516805" y2="378.6199998855591" fill="rgb(0, 0, 0)" stroke="rgb(60, 60, 60)" stroke-width="1px" opacity="0.25"></line><line x1="659.507999420166" y1="0" x2="659.507999420166" y2="378.6199998855591" fill="rgb(0, 0, 0)" stroke="rgb(60, 60, 60)" stroke-width="1px" opacity="0.25"></line><line x1="769.4259993235271" y1="0" x2="769.4259993235271" y2="378.6199998855591" fill="rgb(0, 0, 0)" stroke="rgb(60, 60, 60)" stroke-width="1px" opacity="0.25"></line><line x1="879.343999226888" y1="0" x2="879.343999226888" y2="378.6199998855591" fill="rgb(0, 0, 0)" stroke="rgb(60, 60, 60)" stroke-width="1px" opacity="0.25"></line><line x1="989.261999130249" y1="0" x2="989.261999130249" y2="378.6199998855591" fill="rgb(0, 0, 0)" stroke="rgb(60, 60, 60)" stroke-width="1px" opacity="0.25"></line><line x1="1099.17999903361" y1="0" x2="1099.17999903361" y2="378.6199998855591" fill="rgb(0, 0, 0)" stroke="rgb(60, 60, 60)" stroke-width="1px" opacity="0.25"></line><line x1="1209.097998936971" y1="0" x2="1209.097998936971" y2="378.6199998855591" fill="rgb(0, 0, 0)" stroke="rgb(60, 60, 60)" stroke-width="1px" opacity="0.25"></line><line x1="1319.015998840332" y1="0" x2="1319.015998840332" y2="378.6199998855591" fill="rgb(0, 0, 0)" stroke="rgb(60, 60, 60)" stroke-width="1px" opacity="0.25"></line></g><g><line x1="0" y1="378.6199998855591" x2="1319.015998840332" y2="378.6199998855591" fill="rgb(0, 0, 0)" stroke="rgb(60, 60, 60)" stroke-width="1px" opacity="0.25"></line><line x1="0" y1="351.5757141794477" x2="1319.015998840332" y2="351.5757141794477" fill="rgb(0, 0, 0)" stroke="rgb(60, 60, 60)" stroke-width="1px" opacity="0.25"></line><line x1="0" y1="324.5314284733363" x2="1319.015998840332" y2="324.5314284733363" fill="rgb(0, 0, 0)" stroke="rgb(60, 60, 60)" stroke-width="1px" opacity="0.25"></line><line x1="0" y1="297.48714276722495" x2="1319.015998840332" y2="297.48714276722495" fill="rgb(0, 0, 0)" stroke="rgb(60, 60, 60)" stroke-width="1px" opacity="0.25"></line><line x1="0" y1="270.44285706111356" x2="1319.015998840332" y2="270.44285706111356" fill="rgb(0, 0, 0)" stroke="rgb(60, 60, 60)" stroke-width="1px" opacity="0.25"></line><line x1="0" y1="243.39857135500233" x2="1319.015998840332" y2="243.39857135500233" fill="rgb(0, 0, 0)" stroke="rgb(60, 60, 60)" stroke-width="1px" opacity="0.25"></line><line x1="0" y1="216.35428564889094" x2="1319.015998840332" y2="216.35428564889094" fill="rgb(0, 0, 0)" stroke="rgb(60, 60, 60)" stroke-width="1px" opacity="0.25"></line><line x1="0" y1="189.30999994277954" x2="1319.015998840332" y2="189.30999994277954" fill="rgb(0, 0, 0)" stroke="rgb(60, 60, 60)" stroke-width="1px" opacity="0.25"></line><line x1="0" y1="162.26571423666815" x2="1319.015998840332" y2="162.26571423666815" fill="rgb(0, 0, 0)" stroke="rgb(60, 60, 60)" stroke-width="1px" opacity="0.25"></line><line x1="0" y1="135.22142853055675" x2="1319.015998840332" y2="135.22142853055675" fill="rgb(0, 0, 0)" stroke="rgb(60, 60, 60)" stroke-width="1px" opacity="0.25"></line><line x1="0" y1="108.1771428244454" x2="1319.015998840332" y2="108.1771428244454" fill="rgb(0, 0, 0)" stroke="rgb(60, 60, 60)" stroke-width="1px" opacity="0.25"></line><line x1="0" y1="81.13285711833414" x2="1319.015998840332" y2="81.13285711833414" fill="rgb(0, 0, 0)" stroke="rgb(60, 60, 60)" stroke-width="1px" opacity="0.25"></line><line x1="0" y1="54.088571412222784" x2="1319.015998840332" y2="54.088571412222784" fill="rgb(0, 0, 0)" stroke="rgb(60, 60, 60)" stroke-width="1px" opacity="0.25"></line><line x1="0" y1="27.044285706111392" x2="1319.015998840332" y2="27.044285706111392" fill="rgb(0, 0, 0)" stroke="rgb(60, 60, 60)" stroke-width="1px" opacity="0.25"></line><line x1="0" y1="0" x2="1319.015998840332" y2="0" fill="rgb(0, 0, 0)" stroke="rgb(60, 60, 60)" stroke-width="1px" opacity="0.25"></line></g></g></g><g><g><line x1="0" y1="1027.6828568322317" x2="1319.015998840332" y2="1027.6828568322317" fill="rgb(0, 0, 0)" stroke="rgb(153, 153, 153)" stroke-width="1.5px"></line></g></g><g><g><line x1="109.917999903361" y1="0" x2="109.917999903361" y2="378.6199998855591" fill="rgb(0, 0, 0)" stroke="rgb(153, 153, 153)" stroke-width="1.5px"></line></g></g><g><g><g><g><g><path style="fill: none;" stroke="rgb(0, 153, 136)" stroke-width="2px" d="M131.9015998840332,-81.80713242391226L153.8851998647054,92.36375608360198L175.8687998453776,151.36683493517876L197.8523998260498,173.7700862953631L219.835999806722,200.41135494935452L241.8195997873942,202.67463446758128L263.8031997680664,191.18148490951373L285.78679974873864,198.1313915929357L307.7703997294108,196.43576556450174L329.753999710083,202.03823066871664L351.7375996907552,200.61744468006586L373.72119967142737,216.24262483038186L395.7047996520996,213.52412638409191L417.6883996327718,213.16643134111303L439.671999613444,215.58615206673545L461.65559959411615,213.1645775813139L483.6391995747884,211.8922535730974L505.62279955546063,213.12492324126302L527.6063995361328,213.04666233843915L549.589999516805,213.25065651459497L571.5735994974773,213.2036677335998L593.5571994781494,213.0941347089472L615.5407994588217,212.636578431572L637.5243994394938,212.84290995703972L659.507999420166,212.87240891732148L681.4915994008383,212.84089500073634L703.4751993815104,212.80180484845044L725.4587993621827,212.83356055979198L747.4423993428547,212.75199512863045L769.4259993235271,212.7723058881687L791.4095993041992,212.74788461777155L813.3931992848715,212.75167273562198L835.3767992655436,212.75916837307057L857.3603992462158,212.76327888392947L879.343999226888,212.76142512413037L901.3275992075603,212.7758522112627L923.3111991882323,212.7835090452156L945.2947991689047,212.7823806696857L967.2783991495768,212.78439562598913L989.261999130249,212.78447622424125L1011.2455991109213,212.78600759103182L1033.2291990915935,212.7861687875361L1055.2127990722656,212.78649118054463L1077.1963990529377,212.7862493857882L1099.17999903361,212.78657177879677L1121.1635990142822,212.78632998404035L1143.1471989949546,212.78632998404035L1165.1307989756265,212.78649118054463L1187.1143989562988,212.78665237704894" fill="none"></path></g><g><path style="fill: none;" stroke="rgb(204, 51, 17)" stroke-width="2px" d="M109.917999903361,-297.54544109495987L131.9015998840332,76.63009068591116L153.8851998647054,184.68591057338156L175.8687998453776,225.62071505590052L197.8523998260498,218.36703356017858L219.835999806722,213.58094815184768L241.8195997873942,216.62095302590757L263.8031997680664,203.7926934212097L285.78679974873864,218.79283412621223L307.7703997294108,219.34009625821463L329.753999710083,217.82226997399235L351.7375996907552,219.0680771572561L373.72119967142737,223.68579281687522L395.7047996520996,225.40987002831315L417.6883996327718,224.90709813148976L439.671999613444,227.3265770623557L461.65559959411615,224.0240636810894L483.6391995747884,223.1739133175605L505.62279955546063,225.07159916409896L527.6063995361328,223.8507774389973L549.589999516805,225.1505854511921L571.5735994974773,225.44009437286408L593.5571994781494,225.45500504950923L615.5407994588217,225.2496407030671L637.5243994394938,225.1919323545378L659.507999420166,225.1530033987562L681.4915994008383,225.15469596205105L703.4751993815104,225.3172626366091L725.4587993621827,225.28244419168635L747.4423993428547,225.33048074995932L769.4259993235271,225.31984178067736L791.4095993041992,225.3173432348612L813.3931992848715,225.35530501161716L835.3767992655436,225.35860953995473L857.3603992462158,225.38190243482197L879.343999226888,225.38569055267237L901.3275992075603,225.38440098063825L923.3111991882323,225.38810850023643L945.2947991689047,225.38867268800138L967.2783991495768,225.39092943906118L989.261999130249,225.39254140410392L1011.2455991109213,225.39366977963383L1033.2291990915935,225.3939921726424L1055.2127990722656,225.39423396739878L1077.1963990529377,225.39407277089452L1099.17999903361,225.39407277089452L1121.1635990142822,225.39391157439024L1143.1471989949546,225.39415336914664L1165.1307989756265,225.39407277089452L1187.1143989562988,225.3938309761381" fill="none"></path></g><g><path style="fill: none;" stroke="rgb(238, 51, 119)" stroke-width="2px" d="M109.917999903361,-353.2344004169627L131.9015998840332,64.67688630465223L153.8851998647054,221.56581699094605L175.8687998453776,200.43762997955085L197.8523998260498,234.76047624985344L219.835999806722,243.43857065557222L241.8195997873942,233.73865160927514L263.8031997680664,227.56998378380598L285.78679974873864,231.4084755417757L307.7703997294108,236.1973818889313L329.753999710083,235.081176695102L351.7375996907552,234.17452695682584L373.72119967142737,239.48232485123208L395.7047996520996,241.19810044269997L417.6883996327718,241.78630648678737L439.671999613444,243.80545389929458L461.65559959411615,241.03311582057788L483.6391995747884,242.8829263053477L505.62279955546063,244.1847492738459L527.6063995361328,244.4410517156379L549.589999516805,243.34249753902634L571.5735994974773,243.28148466215947L593.5571994781494,243.54721709945136L615.5407994588217,243.69237455154803L637.5243994394938,243.68745805816772L659.507999420166,243.77007126660698L681.4915994008383,243.7579815287866L703.4751993815104,243.76725032778222L725.4587993621827,243.74524700494914L747.4423993428547,243.7618502448891L769.4259993235271,243.76563836273954L791.4095993041992,243.78030724462826L813.3931992848715,243.80682406958095L835.3767992655436,243.81101517869197L857.3603992462158,243.8178660301235L879.343999226888,243.81810782487997L901.3275992075603,243.82987516969177L923.3111991882323,243.83213192075158L945.2947991689047,243.82987516969177L967.2783991495768,243.8301975627003L989.261999130249,243.82931098192682L1011.2455991109213,243.83084234871737L1033.2291990915935,243.83084234871737L1055.2127990722656,243.8305199557089L1077.1963990529377,243.83076175046526L1099.17999903361,243.83084234871737L1121.1635990142822,243.83100354522168L1143.1471989949546,243.83084234871737L1165.1307989756265,243.83084234871737L1187.1143989562988,243.83092294696954" fill="none"></path></g><g><path style="fill: none;" stroke="rgb(51, 187, 238)" stroke-width="2px" d="M109.917999903361,-351.79910674292756L131.9015998840332,114.60033025836938L153.8851998647054,185.3261830883487L175.8687998453776,213.67831084042777L197.8523998260498,202.6510191797055L219.835999806722,178.68424232633782L241.8195997873942,190.99635072435765L263.8031997680664,204.15949606667996L285.78679974873864,219.96707006157942L307.7703997294108,216.86041043300312L329.753999710083,222.39549539843244L351.7375996907552,212.4617608226893L373.72119967142737,221.03677006392638L395.7047996520996,218.16980963720212L417.6883996327718,217.93760607279876L439.671999613444,214.90243709386704L461.65559959411615,215.17614875812035L483.6391995747884,215.58953719332516L505.62279955546063,215.34927380370817L527.6063995361328,216.6632671082789L549.589999516805,216.82454421080274L571.5735994974773,216.84300121054181L593.5571994781494,216.96623593805754L615.5407994588217,216.69308846156918L637.5243994394938,217.21923385151192L659.507999420166,217.36132857002744L681.4915994008383,217.27887655809246L703.4751993815104,217.24333272890055L725.4587993621827,217.31103526069467L747.4423993428547,217.28097211264804L769.4259993235271,217.26283750591745L791.4095993041992,217.2904021081479L813.3931992848715,217.27500784198995L835.3767992655436,217.25203734013124L857.3603992462158,217.23607888620833L879.343999226888,217.22535931867426L901.3275992075603,217.22310256761446L923.3111991882323,217.21987863752904L945.2947991689047,217.22084581655466L967.2783991495768,217.22092641480677L989.261999130249,217.2228607728581L1011.2455991109213,217.22310256761446L1033.2291990915935,217.22302196936232L1055.2127990722656,217.2229413711102L1077.1963990529377,217.2228607728581L1099.17999903361,217.2229413711102L1121.1635990142822,217.22302196936232L1143.1471989949546,217.22310256761446L1165.1307989756265,217.22326376411874L1187.1143989562988,217.22326376411874" fill="none"></path></g><g><path style="fill: none;" stroke="rgb(0, 119, 187)" stroke-width="2px" d="M109.917999903361,-316.9532584145154L131.9015998840332,3.6508719227178377L153.8851998647054,129.91964004182987L175.8687998453776,175.72814023275134L197.8523998260498,187.2044447561225L219.835999806722,175.1501701666852L241.8195997873942,214.61333116345574L263.8031997680664,204.70127751753716L285.78679974873864,210.46284357146817L307.7703997294108,214.4655139690386L329.753999710083,210.081855633622L351.7375996907552,219.27045936836925L373.72119967142737,214.6948965946172L395.7047996520996,211.58694739400678L417.6883996327718,223.25942806307657L439.671999613444,220.3154157073105L461.65559959411615,217.86514824412862L483.6391995747884,218.16513493857826L505.62279955546063,218.86714571468147L527.6063995361328,218.0620497740965L549.589999516805,218.2716052296497L571.5735994974773,218.01796253017818L593.5571994781494,217.70080840802365L615.5407994588217,217.481500563962L637.5243994394938,217.49963517069253L659.507999420166,217.5413850652989L681.4915994008383,217.38196172257426L703.4751993815104,217.3191756841604L725.4587993621827,217.32844448315603L747.4423993428547,217.35077019899765L769.4259993235271,217.3243339722971L791.4095993041992,217.2870169815582L813.3931992848715,217.29185287668633L835.3767992655436,217.28983792038295L857.3603992462158,217.31063226943397L879.343999226888,217.32691311636543L901.3275992075603,217.3115188502075L923.3111991882323,217.31716072785701L945.2947991689047,217.31587115582283L967.2783991495768,217.3186920946476L989.261999130249,217.31941747891682L1011.2455991109213,217.31957867542107L1033.2291990915935,217.31949807716893L1055.2127990722656,217.3204652561946L1077.1963990529377,217.32022346143813L1099.17999903361,217.32022346143813L1121.1635990142822,217.3204652561946L1143.1471989949546,217.3203040596903L1165.1307989756265,217.32022346143813L1187.1143989562988,217.3203040596903" fill="none"></path></g><g><path style="fill: none;" stroke="rgb(255, 112, 67)" stroke-width="2px" d="M109.917999903361,-248.3123211707862L131.9015998840332,81.36668876743063L153.8851998647054,186.77936957435804L175.8687998453776,282.00975079595537L197.8523998260498,295.31628042882727L219.835999806722,289.8727550778243L241.8195997873942,306.0648633336639L263.8031997680664,308.4882915788845L285.78679974873864,308.54970744701205L307.7703997294108,301.95032256212886L329.753999710083,309.16652587060764L351.7375996907552,309.7607767836053L373.72119967142737,311.0623579573471L395.7047996520996,309.826464359096L417.6883996327718,309.3675379114345L439.671999613444,309.7497348230627L461.65559959411615,310.3748548666283L483.6391995747884,311.772509156916L505.62279955546063,309.94663635303056L527.6063995361328,309.636010689299L549.589999516805,310.34124539548765L571.5735994974773,310.1496633501607L593.5571994781494,310.3210152342016L615.5407994588217,310.39637459994856L637.5243994394938,310.3336691597869L659.507999420166,310.39879254751264L681.4915994008383,310.29981789388984L703.4751993815104,310.35518889310714L725.4587993621827,310.3112628456931L747.4423993428547,310.30562096804357L769.4259993235271,310.2616143223774L791.4095993041992,310.238240829258L813.3931992848715,310.2242167333864L835.3767992655436,310.2188166504933L857.3603992462158,310.2247003228992L879.343999226888,310.2242167333864L901.3275992075603,310.2231689561086L923.3111991882323,310.22397493863L945.2947991689047,310.22526451066415L967.2783991495768,310.2273600652197L989.261999130249,310.22864963725385L1011.2455991109213,310.22889143201024L1033.2291990915935,310.2291332267667L1055.2127990722656,310.22929442327097L1077.1963990529377,310.22929442327097L1099.17999903361,310.22953621802736L1121.1635990142822,310.22953621802736L1143.1471989949546,310.2294556197752L1165.1307989756265,310.2294556197752L1187.1143989562988,310.2293750215231" fill="none"></path></g></g></g></g></g></g><g transform="translate(49, 378)" clip-path="url(#clip_1)"><clipPath id="clip_1"><rect width="1319" height="21"></rect></clipPath><g><g><line x1="0" y1="0" x2="0" y2="5" style="visibility: inherit;" fill="rgb(0, 0, 0)" stroke="rgb(204, 204, 204)" stroke-width="1px"></line><line x1="109.917999903361" y1="0" x2="109.917999903361" y2="5" style="visibility: inherit;" fill="rgb(0, 0, 0)" stroke="rgb(204, 204, 204)" stroke-width="1px"></line><line x1="219.835999806722" y1="0" x2="219.835999806722" y2="5" style="visibility: inherit;" fill="rgb(0, 0, 0)" stroke="rgb(204, 204, 204)" stroke-width="1px"></line><line x1="329.753999710083" y1="0" x2="329.753999710083" y2="5" style="visibility: inherit;" fill="rgb(0, 0, 0)" stroke="rgb(204, 204, 204)" stroke-width="1px"></line><line x1="439.671999613444" y1="0" x2="439.671999613444" y2="5" style="visibility: inherit;" fill="rgb(0, 0, 0)" stroke="rgb(204, 204, 204)" stroke-width="1px"></line><line x1="549.589999516805" y1="0" x2="549.589999516805" y2="5" style="visibility: inherit;" fill="rgb(0, 0, 0)" stroke="rgb(204, 204, 204)" stroke-width="1px"></line><line x1="659.507999420166" y1="0" x2="659.507999420166" y2="5" style="visibility: inherit;" fill="rgb(0, 0, 0)" stroke="rgb(204, 204, 204)" stroke-width="1px"></line><line x1="769.4259993235271" y1="0" x2="769.4259993235271" y2="5" style="visibility: inherit;" fill="rgb(0, 0, 0)" stroke="rgb(204, 204, 204)" stroke-width="1px"></line><line x1="879.343999226888" y1="0" x2="879.343999226888" y2="5" style="visibility: inherit;" fill="rgb(0, 0, 0)" stroke="rgb(204, 204, 204)" stroke-width="1px"></line><line x1="989.261999130249" y1="0" x2="989.261999130249" y2="5" style="visibility: inherit;" fill="rgb(0, 0, 0)" stroke="rgb(204, 204, 204)" stroke-width="1px"></line><line x1="1099.17999903361" y1="0" x2="1099.17999903361" y2="5" style="visibility: inherit;" fill="rgb(0, 0, 0)" stroke="rgb(204, 204, 204)" stroke-width="1px"></line><line x1="1209.097998936971" y1="0" x2="1209.097998936971" y2="5" style="visibility: inherit;" fill="rgb(0, 0, 0)" stroke="rgb(204, 204, 204)" stroke-width="1px"></line><line x1="1319.015998840332" y1="0" x2="1319.015998840332" y2="5" style="visibility: inherit;" fill="rgb(0, 0, 0)" stroke="rgb(204, 204, 204)" stroke-width="1px"></line></g><g transform="translate(0, 8)"><text style="text-anchor: middle; visibility: hidden; font-family: Roboto, sans-serif; font-size: 12px; font-weight: 200;" x="0" y="0" dx="0em" dy="0.95em" fill="rgb(50, 49, 63)" stroke="none" stroke-width="1px">-5</text><text style="text-anchor: middle; visibility: hidden; font-family: Roboto, sans-serif; font-size: 12px; font-weight: 200;" x="109.917999903361" y="0" dx="0em" dy="0.95em" fill="rgb(50, 49, 63)" stroke="none" stroke-width="1px">0</text><text style="text-anchor: middle; visibility: hidden; font-family: Roboto, sans-serif; font-size: 12px; font-weight: 200;" x="219.835999806722" y="0" dx="0em" dy="0.95em" fill="rgb(50, 49, 63)" stroke="none" stroke-width="1px">5</text><text style="text-anchor: middle; visibility: hidden; font-family: Roboto, sans-serif; font-size: 12px; font-weight: 200;" x="329.753999710083" y="0" dx="0em" dy="0.95em" fill="rgb(50, 49, 63)" stroke="none" stroke-width="1px">10</text><text style="text-anchor: middle; visibility: hidden; font-family: Roboto, sans-serif; font-size: 12px; font-weight: 200;" x="439.671999613444" y="0" dx="0em" dy="0.95em" fill="rgb(50, 49, 63)" stroke="none" stroke-width="1px">15</text><text style="text-anchor: middle; visibility: hidden; font-family: Roboto, sans-serif; font-size: 12px; font-weight: 200;" x="549.589999516805" y="0" dx="0em" dy="0.95em" fill="rgb(50, 49, 63)" stroke="none" stroke-width="1px">20</text><text style="text-anchor: middle; visibility: hidden; font-family: Roboto, sans-serif; font-size: 12px; font-weight: 200;" x="659.507999420166" y="0" dx="0em" dy="0.95em" fill="rgb(50, 49, 63)" stroke="none" stroke-width="1px">25</text><text style="text-anchor: middle; visibility: hidden; font-family: Roboto, sans-serif; font-size: 12px; font-weight: 200;" x="769.4259993235271" y="0" dx="0em" dy="0.95em" fill="rgb(50, 49, 63)" stroke="none" stroke-width="1px">30</text><text style="text-anchor: middle; visibility: hidden; font-family: Roboto, sans-serif; font-size: 12px; font-weight: 200;" x="879.343999226888" y="0" dx="0em" dy="0.95em" fill="rgb(50, 49, 63)" stroke="none" stroke-width="1px">35</text><text style="text-anchor: middle; visibility: hidden; font-family: Roboto, sans-serif; font-size: 12px; font-weight: 200;" x="989.261999130249" y="0" dx="0em" dy="0.95em" fill="rgb(50, 49, 63)" stroke="none" stroke-width="1px">40</text><text style="text-anchor: middle; visibility: hidden; font-family: Roboto, sans-serif; font-size: 12px; font-weight: 200;" x="1099.17999903361" y="0" dx="0em" dy="0.95em" fill="rgb(50, 49, 63)" stroke="none" stroke-width="1px">45</text><text style="text-anchor: middle; visibility: hidden; font-family: Roboto, sans-serif; font-size: 12px; font-weight: 200;" x="1209.097998936971" y="0" dx="0em" dy="0.95em" fill="rgb(50, 49, 63)" stroke="none" stroke-width="1px">50</text><text style="text-anchor: middle; visibility: hidden; font-family: Roboto, sans-serif; font-size: 12px; font-weight: 200;" x="1319.015998840332" y="0" dx="0em" dy="0.95em" fill="rgb(50, 49, 63)" stroke="none" stroke-width="1px">55</text></g><line x1="0" y1="0" x2="1319.015998840332" y2="0" fill="rgb(0, 0, 0)" stroke="rgb(204, 204, 204)" stroke-width="1px"></line></g></g></g></g></svg>