<svg viewBox="0 0 1050 400" xmlns="http://www.w3.org/2000/svg"><g><g><g><g><g><line x1="61.91500186920166" y1="377.5999994277954" x2="56.91500186920166" y2="377.5999994277954" style="visibility: inherit;" fill="rgb(0, 0, 0)" stroke="rgb(204, 204, 204)" stroke-width="1px"></line><line x1="61.91500186920166" y1="350.6285708972386" x2="56.91500186920166" y2="350.6285708972386" style="visibility: inherit;" fill="rgb(0, 0, 0)" stroke="rgb(204, 204, 204)" stroke-width="1px"></line><line x1="61.91500186920166" y1="323.6571423666818" x2="56.91500186920166" y2="323.6571423666818" style="visibility: inherit;" fill="rgb(0, 0, 0)" stroke="rgb(204, 204, 204)" stroke-width="1px"></line><line x1="61.91500186920166" y1="296.68571383612493" x2="56.91500186920166" y2="296.68571383612493" style="visibility: inherit;" fill="rgb(0, 0, 0)" stroke="rgb(204, 204, 204)" stroke-width="1px"></line><line x1="61.91500186920166" y1="269.7142853055682" x2="56.91500186920166" y2="269.7142853055682" style="visibility: inherit;" fill="rgb(0, 0, 0)" stroke="rgb(204, 204, 204)" stroke-width="1px"></line><line x1="61.91500186920166" y1="242.74285677501132" x2="56.91500186920166" y2="242.74285677501132" style="visibility: inherit;" fill="rgb(0, 0, 0)" stroke="rgb(204, 204, 204)" stroke-width="1px"></line><line x1="61.91500186920166" y1="215.7714282444545" x2="56.91500186920166" y2="215.7714282444545" style="visibility: inherit;" fill="rgb(0, 0, 0)" stroke="rgb(204, 204, 204)" stroke-width="1px"></line><line x1="61.91500186920166" y1="188.7999997138977" x2="56.91500186920166" y2="188.7999997138977" style="visibility: inherit;" fill="rgb(0, 0, 0)" stroke="rgb(204, 204, 204)" stroke-width="1px"></line><line x1="61.91500186920166" y1="161.8285711833409" x2="56.91500186920166" y2="161.8285711833409" style="visibility: inherit;" fill="rgb(0, 0, 0)" stroke="rgb(204, 204, 204)" stroke-width="1px"></line><line x1="61.91500186920166" y1="134.85714265278406" x2="56.91500186920166" y2="134.85714265278406" style="visibility: inherit;" fill="rgb(0, 0, 0)" stroke="rgb(204, 204, 204)" stroke-width="1px"></line><line x1="61.91500186920166" y1="107.88571412222726" x2="56.91500186920166" y2="107.88571412222726" style="visibility: inherit;" fill="rgb(0, 0, 0)" stroke="rgb(204, 204, 204)" stroke-width="1px"></line><line x1="61.91500186920166" y1="80.91428559167045" x2="56.91500186920166" y2="80.91428559167045" style="visibility: inherit;" fill="rgb(0, 0, 0)" stroke="rgb(204, 204, 204)" stroke-width="1px"></line><line x1="61.91500186920166" y1="53.94285706111365" x2="56.91500186920166" y2="53.94285706111365" style="visibility: inherit;" fill="rgb(0, 0, 0)" stroke="rgb(204, 204, 204)" stroke-width="1px"></line><line x1="61.91500186920166" y1="26.971428530556803" x2="56.91500186920166" y2="26.971428530556803" style="visibility: inherit;" fill="rgb(0, 0, 0)" stroke="rgb(204, 204, 204)" stroke-width="1px"></line><line x1="61.91500186920166" y1="0" x2="56.91500186920166" y2="0" style="visibility: inherit;" fill="rgb(0, 0, 0)" stroke="rgb(204, 204, 204)" stroke-width="1px"></line></g><g transform="translate(51.91500186920166, 0)"><text style="text-anchor: end; visibility: hidden; font-family: Roboto, sans-serif; font-size: 12px; font-weight: 200;" x="0" y="377.5999994277954" dx="0em" dy="0.3em" fill="rgb(50, 49, 63)" stroke="none" stroke-width="1px">0.866</text><text style="text-anchor: end; visibility: inherit; font-family: Roboto, sans-serif; font-size: 12px; font-weight: 200;" x="0" y="350.6285708972386" dx="0em" dy="0.3em" fill="rgb(50, 49, 63)" stroke="none" stroke-width="1px">0.868</text><text style="text-anchor: end; visibility: inherit; font-family: Roboto, sans-serif; font-size: 12px; font-weight: 200;" x="0" y="323.6571423666818" dx="0em" dy="0.3em" fill="rgb(50, 49, 63)" stroke="none" stroke-width="1px">0.87</text><text style="text-anchor: end; visibility: inherit; font-family: Roboto, sans-serif; font-size: 12px; font-weight: 200;" x="0" y="296.68571383612493" dx="0em" dy="0.3em" fill="rgb(50, 49, 63)" stroke="none" stroke-width="1px">0.872</text><text style="text-anchor: end; visibility: inherit; font-family: Roboto, sans-serif; font-size: 12px; font-weight: 200;" x="0" y="269.7142853055682" dx="0em" dy="0.3em" fill="rgb(50, 49, 63)" stroke="none" stroke-width="1px">0.874</text><text style="text-anchor: end; visibility: inherit; font-family: Roboto, sans-serif; font-size: 12px; font-weight: 200;" x="0" y="242.74285677501132" dx="0em" dy="0.3em" fill="rgb(50, 49, 63)" stroke="none" stroke-width="1px">0.876</text><text style="text-anchor: end; visibility: inherit; font-family: Roboto, sans-serif; font-size: 12px; font-weight: 200;" x="0" y="215.7714282444545" dx="0em" dy="0.3em" fill="rgb(50, 49, 63)" stroke="none" stroke-width="1px">0.878</text><text style="text-anchor: end; visibility: inherit; font-family: Roboto, sans-serif; font-size: 12px; font-weight: 200;" x="0" y="188.7999997138977" dx="0em" dy="0.3em" fill="rgb(50, 49, 63)" stroke="none" stroke-width="1px">0.88</text><text style="text-anchor: end; visibility: inherit; font-family: Roboto, sans-serif; font-size: 12px; font-weight: 200;" x="0" y="161.8285711833409" dx="0em" dy="0.3em" fill="rgb(50, 49, 63)" stroke="none" stroke-width="1px">0.882</text><text style="text-anchor: end; visibility: inherit; font-family: Roboto, sans-serif; font-size: 12px; font-weight: 200;" x="0" y="134.85714265278406" dx="0em" dy="0.3em" fill="rgb(50, 49, 63)" stroke="none" stroke-width="1px">0.884</text><text style="text-anchor: end; visibility: inherit; font-family: Roboto, sans-serif; font-size: 12px; font-weight: 200;" x="0" y="107.88571412222726" dx="0em" dy="0.3em" fill="rgb(50, 49, 63)" stroke="none" stroke-width="1px">0.886</text><text style="text-anchor: end; visibility: inherit; font-family: Roboto, sans-serif; font-size: 12px; font-weight: 200;" x="0" y="80.91428559167045" dx="0em" dy="0.3em" fill="rgb(50, 49, 63)" stroke="none" stroke-width="1px">0.888</text><text style="text-anchor: end; visibility: inherit; font-family: Roboto, sans-serif; font-size: 12px; font-weight: 200;" x="0" y="53.94285706111365" dx="0em" dy="0.3em" fill="rgb(50, 49, 63)" stroke="none" stroke-width="1px">0.89</text><text style="text-anchor: end; visibility: inherit; font-family: Roboto, sans-serif; font-size: 12px; font-weight: 200;" x="0" y="26.971428530556803" dx="0em" dy="0.3em" fill="rgb(50, 49, 63)" stroke="none" stroke-width="1px">0.892</text><text style="text-anchor: end; visibility: hidden; font-family: Roboto, sans-serif; font-size: 12px; font-weight: 200;" x="0" y="0" dx="0em" dy="0.3em" fill="rgb(50, 49, 63)" stroke="none" stroke-width="1px">0.894</text></g><line x1="61.91500186920166" y1="0" x2="61.91500186920166" y2="377.5999994277954" fill="rgb(0, 0, 0)" stroke="rgb(204, 204, 204)" stroke-width="1px"></line></g></g><g transform="translate(61, 0)" clip-path="url(#clip_0)"><clipPath id="clip_0"><rect width="988" height="377"></rect></clipPath><g><g><g><line x1="0" y1="0" x2="0" y2="377.5999994277954" fill="rgb(0, 0, 0)" stroke="rgb(60, 60, 60)" stroke-width="1px" opacity="0.25"></line><line x1="82.34041651089986" y1="0" x2="82.34041651089986" y2="377.5999994277954" fill="rgb(0, 0, 0)" stroke="rgb(60, 60, 60)" stroke-width="1px" opacity="0.25"></line><line x1="164.6808330217997" y1="0" x2="164.6808330217997" y2="377.5999994277954" fill="rgb(0, 0, 0)" stroke="rgb(60, 60, 60)" stroke-width="1px" opacity="0.25"></line><line x1="247.02124953269958" y1="0" x2="247.02124953269958" y2="377.5999994277954" fill="rgb(0, 0, 0)" stroke="rgb(60, 60, 60)" stroke-width="1px" opacity="0.25"></line><line x1="329.3616660435994" y1="0" x2="329.3616660435994" y2="377.5999994277954" fill="rgb(0, 0, 0)" stroke="rgb(60, 60, 60)" stroke-width="1px" opacity="0.25"></line><line x1="411.7020825544993" y1="0" x2="411.7020825544993" y2="377.5999994277954" fill="rgb(0, 0, 0)" stroke="rgb(60, 60, 60)" stroke-width="1px" opacity="0.25"></line><line x1="494.04249906539917" y1="0" x2="494.04249906539917" y2="377.5999994277954" fill="rgb(0, 0, 0)" stroke="rgb(60, 60, 60)" stroke-width="1px" opacity="0.25"></line><line x1="576.3829155762991" y1="0" x2="576.3829155762991" y2="377.5999994277954" fill="rgb(0, 0, 0)" stroke="rgb(60, 60, 60)" stroke-width="1px" opacity="0.25"></line><line x1="658.7233320871989" y1="0" x2="658.7233320871989" y2="377.5999994277954" fill="rgb(0, 0, 0)" stroke="rgb(60, 60, 60)" stroke-width="1px" opacity="0.25"></line><line x1="741.0637485980988" y1="0" x2="741.0637485980988" y2="377.5999994277954" fill="rgb(0, 0, 0)" stroke="rgb(60, 60, 60)" stroke-width="1px" opacity="0.25"></line><line x1="823.4041651089987" y1="0" x2="823.4041651089987" y2="377.5999994277954" fill="rgb(0, 0, 0)" stroke="rgb(60, 60, 60)" stroke-width="1px" opacity="0.25"></line><line x1="905.7445816198984" y1="0" x2="905.7445816198984" y2="377.5999994277954" fill="rgb(0, 0, 0)" stroke="rgb(60, 60, 60)" stroke-width="1px" opacity="0.25"></line><line x1="988.0849981307983" y1="0" x2="988.0849981307983" y2="377.5999994277954" fill="rgb(0, 0, 0)" stroke="rgb(60, 60, 60)" stroke-width="1px" opacity="0.25"></line></g><g><line x1="0" y1="377.5999994277954" x2="988.0849981307983" y2="377.5999994277954" fill="rgb(0, 0, 0)" stroke="rgb(60, 60, 60)" stroke-width="1px" opacity="0.25"></line><line x1="0" y1="350.6285708972386" x2="988.0849981307983" y2="350.6285708972386" fill="rgb(0, 0, 0)" stroke="rgb(60, 60, 60)" stroke-width="1px" opacity="0.25"></line><line x1="0" y1="323.6571423666818" x2="988.0849981307983" y2="323.6571423666818" fill="rgb(0, 0, 0)" stroke="rgb(60, 60, 60)" stroke-width="1px" opacity="0.25"></line><line x1="0" y1="296.68571383612493" x2="988.0849981307983" y2="296.68571383612493" fill="rgb(0, 0, 0)" stroke="rgb(60, 60, 60)" stroke-width="1px" opacity="0.25"></line><line x1="0" y1="269.7142853055682" x2="988.0849981307983" y2="269.7142853055682" fill="rgb(0, 0, 0)" stroke="rgb(60, 60, 60)" stroke-width="1px" opacity="0.25"></line><line x1="0" y1="242.74285677501132" x2="988.0849981307983" y2="242.74285677501132" fill="rgb(0, 0, 0)" stroke="rgb(60, 60, 60)" stroke-width="1px" opacity="0.25"></line><line x1="0" y1="215.7714282444545" x2="988.0849981307983" y2="215.7714282444545" fill="rgb(0, 0, 0)" stroke="rgb(60, 60, 60)" stroke-width="1px" opacity="0.25"></line><line x1="0" y1="188.7999997138977" x2="988.0849981307983" y2="188.7999997138977" fill="rgb(0, 0, 0)" stroke="rgb(60, 60, 60)" stroke-width="1px" opacity="0.25"></line><line x1="0" y1="161.8285711833409" x2="988.0849981307983" y2="161.8285711833409" fill="rgb(0, 0, 0)" stroke="rgb(60, 60, 60)" stroke-width="1px" opacity="0.25"></line><line x1="0" y1="134.85714265278406" x2="988.0849981307983" y2="134.85714265278406" fill="rgb(0, 0, 0)" stroke="rgb(60, 60, 60)" stroke-width="1px" opacity="0.25"></line><line x1="0" y1="107.88571412222726" x2="988.0849981307983" y2="107.88571412222726" fill="rgb(0, 0, 0)" stroke="rgb(60, 60, 60)" stroke-width="1px" opacity="0.25"></line><line x1="0" y1="80.91428559167045" x2="988.0849981307983" y2="80.91428559167045" fill="rgb(0, 0, 0)" stroke="rgb(60, 60, 60)" stroke-width="1px" opacity="0.25"></line><line x1="0" y1="53.94285706111365" x2="988.0849981307983" y2="53.94285706111365" fill="rgb(0, 0, 0)" stroke="rgb(60, 60, 60)" stroke-width="1px" opacity="0.25"></line><line x1="0" y1="26.971428530556803" x2="988.0849981307983" y2="26.971428530556803" fill="rgb(0, 0, 0)" stroke="rgb(60, 60, 60)" stroke-width="1px" opacity="0.25"></line><line x1="0" y1="0" x2="988.0849981307983" y2="0" fill="rgb(0, 0, 0)" stroke="rgb(60, 60, 60)" stroke-width="1px" opacity="0.25"></line></g></g></g><g><g><line x1="0" y1="12056.228553158886" x2="988.0849981307983" y2="12056.228553158886" fill="rgb(0, 0, 0)" stroke="rgb(153, 153, 153)" stroke-width="1.5px"></line></g></g><g><g><line x1="82.34041651089986" y1="0" x2="82.34041651089986" y2="377.5999994277954" fill="rgb(0, 0, 0)" stroke="rgb(153, 153, 153)" stroke-width="1.5px"></line></g></g><g><g><g><g><g><path style="fill: none;" stroke="rgb(255, 112, 67)" stroke-width="2px" d="M98.80849981307983,377.6981094086385L115.27658311525981,265.8413492806405L131.7446664174398,209.91296921664144L148.21274971961975,150.4888142076399L164.6808330217997,143.49806812884313L181.14891632397968,122.52502608124455L197.61699962615967,112.03850505744525L214.08508292833966,80.57894198604737L230.55316623051962,101.55198403364595L247.02124953269958,80.57894198604737L263.4893328348796,87.5696880648441L279.9574161370595,63.10087107224296L296.4254994392395,77.08316704104482L312.89358274141944,70.09242096224807L329.3616660435994,66.59664601724552L345.8297493457794,73.58739209604225L362.29783264795935,63.10087107224296L378.7659159501394,77.08316704104482L395.23399925231934,77.08316704104482L411.7020825544993,77.08316704104482L428.1701658566793,80.57894198604737L444.63824915885925,77.08316704104482L461.10633246103924,80.57894198604737L477.5744157632192,77.08316704104482L494.04249906539917,77.08316704104482L510.5105823675792,77.08316704104482L526.9786656697592,77.08316704104482L543.4467489719391,77.08316704104482L559.914832274119,77.08316704104482L576.3829155762991,77.08316704104482L592.850998878479,77.08316704104482L609.319082180659,77.08316704104482L625.7871654828389,77.08316704104482L642.2552487850189,77.08316704104482L658.7233320871989,77.08316704104482L675.1914153893789,77.08316704104482L691.6594986915588,77.08316704104482L708.1275819937388,77.08316704104482L724.5956652959187,77.08316704104482L741.0637485980988,77.08316704104482L757.5318319002788,77.08316704104482L773.9999152024587,77.08316704104482L790.4679985046387,77.08316704104482L806.9360818068186,77.08316704104482L823.4041651089987,77.08316704104482L839.8722484111786,77.08316704104482L856.3403317133586,77.08316704104482L872.8084150155385,77.08316704104482L889.2764983177185,77.08316704104482" fill="none"></path></g><g><path style="fill: none;" stroke="rgb(204, 51, 17)" stroke-width="2px" d="M82.34041651089986,695.7903188788283L98.80849981307983,349.7335174710349L115.27658311525981,311.28320832084023L131.7446664174398,185.44415222404032L148.21274971961975,174.95763120024102L164.6808330217997,136.50732205004638L181.14891632397968,105.04695516744017L197.61699962615967,143.49806812884313L214.08508292833966,122.52502608124455L230.55316623051962,119.02925113624198L247.02124953269958,126.0208010262471L263.4893328348796,105.04695516744017L279.9574161370595,112.03850505744525L296.4254994392395,108.5427301124427L312.89358274141944,91.06546300984667L329.3616660435994,105.04695516744017L345.8297493457794,115.5342800024478L362.29783264795935,108.5427301124427L378.7659159501394,105.04695516744017L395.23399925231934,101.55198403364595L411.7020825544993,105.04695516744017L428.1701658566793,105.04695516744017L444.63824915885925,105.04695516744017L461.10633246103924,105.04695516744017L477.5744157632192,105.04695516744017L494.04249906539917,105.04695516744017L510.5105823675792,105.04695516744017L526.9786656697592,105.04695516744017L543.4467489719391,105.04695516744017L559.914832274119,105.04695516744017L576.3829155762991,105.04695516744017L592.850998878479,105.04695516744017L609.319082180659,105.04695516744017L625.7871654828389,105.04695516744017L642.2552487850189,105.04695516744017L658.7233320871989,105.04695516744017L675.1914153893789,105.04695516744017L691.6594986915588,105.04695516744017L708.1275819937388,105.04695516744017L724.5956652959187,105.04695516744017L741.0637485980988,105.04695516744017L757.5318319002788,105.04695516744017L773.9999152024587,105.04695516744017L790.4679985046387,105.04695516744017L806.9360818068186,105.04695516744017L823.4041651089987,105.04695516744017L839.8722484111786,105.04695516744017L856.3403317133586,105.04695516744017L872.8084150155385,105.04695516744017L889.2764983177185,105.04695516744017" fill="none"></path></g><g><path style="fill: none;" stroke="rgb(0, 119, 187)" stroke-width="2px" d="M98.80849981307983,405.66189753503386L115.27658311525981,318.273954399637L131.7446664174398,230.88601126424004L148.21274971961975,181.94918109024613L164.6808330217997,220.39949024044074L181.14891632397968,160.9753352314392L197.61699962615967,136.50732205004638L214.08508292833966,140.00229318384058L230.55316623051962,119.02925113624198L247.02124953269958,98.0562090886434L263.4893328348796,87.5696880648441L279.9574161370595,84.07391311984159L296.4254994392395,87.5696880648441L312.89358274141944,80.57894198604737L329.3616660435994,84.07391311984159L345.8297493457794,80.57894198604737L362.29783264795935,80.57894198604737L378.7659159501394,84.07391311984159L395.23399925231934,80.57894198604737L411.7020825544993,73.58739209604225L428.1701658566793,77.08316704104482L444.63824915885925,73.58739209604225L461.10633246103924,73.58739209604225L477.5744157632192,73.58739209604225L494.04249906539917,70.09242096224807L510.5105823675792,70.09242096224807L526.9786656697592,66.59664601724552L543.4467489719391,73.58739209604225L559.914832274119,66.59664601724552L576.3829155762991,66.59664601724552L592.850998878479,66.59664601724552L609.319082180659,66.59664601724552L625.7871654828389,66.59664601724552L642.2552487850189,66.59664601724552L658.7233320871989,66.59664601724552L675.1914153893789,66.59664601724552L691.6594986915588,66.59664601724552L708.1275819937388,66.59664601724552L724.5956652959187,66.59664601724552L741.0637485980988,66.59664601724552L757.5318319002788,66.59664601724552L773.9999152024587,66.59664601724552L790.4679985046387,66.59664601724552L806.9360818068186,66.59664601724552L823.4041651089987,66.59664601724552L839.8722484111786,66.59664601724552L856.3403317133586,66.59664601724552L872.8084150155385,66.59664601724552L889.2764983177185,66.59664601724552" fill="none"></path></g><g><path style="fill: none;" stroke="rgb(51, 187, 238)" stroke-width="2px" d="M98.80849981307983,409.1576724800364L115.27658311525981,335.7520253134414L131.7446664174398,251.85905331183864L148.21274971961975,157.48036409764498L164.6808330217997,167.96688512144428L181.14891632397968,122.52502608124455L197.61699962615967,122.52502608124455L214.08508292833966,112.03850505744525L230.55316623051962,94.56043414364089L247.02124953269958,112.03850505744525L263.4893328348796,94.56043414364089L279.9574161370595,94.56043414364089L296.4254994392395,91.06546300984667L312.89358274141944,87.5696880648441L329.3616660435994,94.56043414364089L345.8297493457794,87.5696880648441L362.29783264795935,84.07391311984159L378.7659159501394,98.0562090886434L395.23399925231934,87.5696880648441L411.7020825544993,84.07391311984159L428.1701658566793,84.07391311984159L444.63824915885925,84.07391311984159L461.10633246103924,87.5696880648441L477.5744157632192,77.08316704104482L494.04249906539917,77.08316704104482L510.5105823675792,77.08316704104482L526.9786656697592,77.08316704104482L543.4467489719391,77.08316704104482L559.914832274119,77.08316704104482L576.3829155762991,77.08316704104482L592.850998878479,77.08316704104482L609.319082180659,77.08316704104482L625.7871654828389,77.08316704104482L642.2552487850189,77.08316704104482L658.7233320871989,77.08316704104482L675.1914153893789,80.57894198604737L691.6594986915588,80.57894198604737L708.1275819937388,80.57894198604737L724.5956652959187,80.57894198604737L741.0637485980988,80.57894198604737L757.5318319002788,80.57894198604737L773.9999152024587,80.57894198604737L790.4679985046387,80.57894198604737L806.9360818068186,80.57894198604737L823.4041651089987,80.57894198604737L839.8722484111786,80.57894198604737L856.3403317133586,80.57894198604737L872.8084150155385,80.57894198604737L889.2764983177185,80.57894198604737" fill="none"></path></g><g><path style="fill: none;" stroke="rgb(238, 51, 119)" stroke-width="2px" d="M98.80849981307983,433.62648947263756L115.27658311525981,335.7520253134414L131.7446664174398,216.9037152954382L148.21274971961975,143.49806812884313L164.6808330217997,206.4171942716389L181.14891632397968,174.95763120024102L197.61699962615967,143.49806812884313L214.08508292833966,143.49806812884313L230.55316623051962,112.03850505744525L247.02124953269958,105.04695516744017L263.4893328348796,108.5427301124427L279.9574161370595,101.55198403364595L296.4254994392395,94.56043414364089L312.89358274141944,105.04695516744017L329.3616660435994,119.02925113624198L345.8297493457794,126.0208010262471L362.29783264795935,105.04695516744017L378.7659159501394,101.55198403364595L395.23399925231934,105.04695516744017L411.7020825544993,119.02925113624198L428.1701658566793,115.5342800024478L444.63824915885925,115.5342800024478L461.10633246103924,112.03850505744525L477.5744157632192,112.03850505744525L494.04249906539917,112.03850505744525L510.5105823675792,112.03850505744525L526.9786656697592,112.03850505744525L543.4467489719391,112.03850505744525L559.914832274119,112.03850505744525L576.3829155762991,112.03850505744525L592.850998878479,112.03850505744525L609.319082180659,112.03850505744525L625.7871654828389,112.03850505744525L642.2552487850189,112.03850505744525L658.7233320871989,112.03850505744525L675.1914153893789,112.03850505744525L691.6594986915588,112.03850505744525L708.1275819937388,112.03850505744525L724.5956652959187,112.03850505744525L741.0637485980988,112.03850505744525L757.5318319002788,112.03850505744525L773.9999152024587,112.03850505744525L790.4679985046387,112.03850505744525L806.9360818068186,112.03850505744525L823.4041651089987,112.03850505744525L839.8722484111786,112.03850505744525L856.3403317133586,112.03850505744525L872.8084150155385,112.03850505744525L889.2764983177185,112.03850505744525" fill="none"></path></g></g></g></g></g></g><g transform="translate(61, 377)" clip-path="url(#clip_1)"><clipPath id="clip_1"><rect width="988" height="22"></rect></clipPath><g><g><line x1="0" y1="0" x2="0" y2="5" style="visibility: inherit;" fill="rgb(0, 0, 0)" stroke="rgb(204, 204, 204)" stroke-width="1px"></line><line x1="82.34041651089986" y1="0" x2="82.34041651089986" y2="5" style="visibility: inherit;" fill="rgb(0, 0, 0)" stroke="rgb(204, 204, 204)" stroke-width="1px"></line><line x1="164.6808330217997" y1="0" x2="164.6808330217997" y2="5" style="visibility: inherit;" fill="rgb(0, 0, 0)" stroke="rgb(204, 204, 204)" stroke-width="1px"></line><line x1="247.02124953269958" y1="0" x2="247.02124953269958" y2="5" style="visibility: inherit;" fill="rgb(0, 0, 0)" stroke="rgb(204, 204, 204)" stroke-width="1px"></line><line x1="329.3616660435994" y1="0" x2="329.3616660435994" y2="5" style="visibility: inherit;" fill="rgb(0, 0, 0)" stroke="rgb(204, 204, 204)" stroke-width="1px"></line><line x1="411.7020825544993" y1="0" x2="411.7020825544993" y2="5" style="visibility: inherit;" fill="rgb(0, 0, 0)" stroke="rgb(204, 204, 204)" stroke-width="1px"></line><line x1="494.04249906539917" y1="0" x2="494.04249906539917" y2="5" style="visibility: inherit;" fill="rgb(0, 0, 0)" stroke="rgb(204, 204, 204)" stroke-width="1px"></line><line x1="576.3829155762991" y1="0" x2="576.3829155762991" y2="5" style="visibility: inherit;" fill="rgb(0, 0, 0)" stroke="rgb(204, 204, 204)" stroke-width="1px"></line><line x1="658.7233320871989" y1="0" x2="658.7233320871989" y2="5" style="visibility: inherit;" fill="rgb(0, 0, 0)" stroke="rgb(204, 204, 204)" stroke-width="1px"></line><line x1="741.0637485980988" y1="0" x2="741.0637485980988" y2="5" style="visibility: inherit;" fill="rgb(0, 0, 0)" stroke="rgb(204, 204, 204)" stroke-width="1px"></line><line x1="823.4041651089987" y1="0" x2="823.4041651089987" y2="5" style="visibility: inherit;" fill="rgb(0, 0, 0)" stroke="rgb(204, 204, 204)" stroke-width="1px"></line><line x1="905.7445816198984" y1="0" x2="905.7445816198984" y2="5" style="visibility: inherit;" fill="rgb(0, 0, 0)" stroke="rgb(204, 204, 204)" stroke-width="1px"></line><line x1="988.0849981307983" y1="0" x2="988.0849981307983" y2="5" style="visibility: inherit;" fill="rgb(0, 0, 0)" stroke="rgb(204, 204, 204)" stroke-width="1px"></line></g><g transform="translate(0, 8)"><text style="text-anchor: middle; visibility: hidden; font-family: Roboto, sans-serif; font-size: 12px; font-weight: 200;" x="0" y="0" dx="0em" dy="0.95em" fill="rgb(50, 49, 63)" stroke="none" stroke-width="1px">-5</text><text style="text-anchor: middle; visibility: inherit; font-family: Roboto, sans-serif; font-size: 12px; font-weight: 200;" x="82.34041651089986" y="0" dx="0em" dy="0.95em" fill="rgb(50, 49, 63)" stroke="none" stroke-width="1px">0</text><text style="text-anchor: middle; visibility: inherit; font-family: Roboto, sans-serif; font-size: 12px; font-weight: 200;" x="164.6808330217997" y="0" dx="0em" dy="0.95em" fill="rgb(50, 49, 63)" stroke="none" stroke-width="1px">5</text><text style="text-anchor: middle; visibility: inherit; font-family: Roboto, sans-serif; font-size: 12px; font-weight: 200;" x="247.02124953269958" y="0" dx="0em" dy="0.95em" fill="rgb(50, 49, 63)" stroke="none" stroke-width="1px">10</text><text style="text-anchor: middle; visibility: inherit; font-family: Roboto, sans-serif; font-size: 12px; font-weight: 200;" x="329.3616660435994" y="0" dx="0em" dy="0.95em" fill="rgb(50, 49, 63)" stroke="none" stroke-width="1px">15</text><text style="text-anchor: middle; visibility: inherit; font-family: Roboto, sans-serif; font-size: 12px; font-weight: 200;" x="411.7020825544993" y="0" dx="0em" dy="0.95em" fill="rgb(50, 49, 63)" stroke="none" stroke-width="1px">20</text><text style="text-anchor: middle; visibility: inherit; font-family: Roboto, sans-serif; font-size: 12px; font-weight: 200;" x="494.04249906539917" y="0" dx="0em" dy="0.95em" fill="rgb(50, 49, 63)" stroke="none" stroke-width="1px">25</text><text style="text-anchor: middle; visibility: inherit; font-family: Roboto, sans-serif; font-size: 12px; font-weight: 200;" x="576.3829155762991" y="0" dx="0em" dy="0.95em" fill="rgb(50, 49, 63)" stroke="none" stroke-width="1px">30</text><text style="text-anchor: middle; visibility: inherit; font-family: Roboto, sans-serif; font-size: 12px; font-weight: 200;" x="658.7233320871989" y="0" dx="0em" dy="0.95em" fill="rgb(50, 49, 63)" stroke="none" stroke-width="1px">35</text><text style="text-anchor: middle; visibility: inherit; font-family: Roboto, sans-serif; font-size: 12px; font-weight: 200;" x="741.0637485980988" y="0" dx="0em" dy="0.95em" fill="rgb(50, 49, 63)" stroke="none" stroke-width="1px">40</text><text style="text-anchor: middle; visibility: inherit; font-family: Roboto, sans-serif; font-size: 12px; font-weight: 200;" x="823.4041651089987" y="0" dx="0em" dy="0.95em" fill="rgb(50, 49, 63)" stroke="none" stroke-width="1px">45</text><text style="text-anchor: middle; visibility: inherit; font-family: Roboto, sans-serif; font-size: 12px; font-weight: 200;" x="905.7445816198984" y="0" dx="0em" dy="0.95em" fill="rgb(50, 49, 63)" stroke="none" stroke-width="1px">50</text><text style="text-anchor: middle; visibility: hidden; font-family: Roboto, sans-serif; font-size: 12px; font-weight: 200;" x="988.0849981307983" y="0" dx="0em" dy="0.95em" fill="rgb(50, 49, 63)" stroke="none" stroke-width="1px">55</text></g><line x1="0" y1="0" x2="988.0849981307983" y2="0" fill="rgb(0, 0, 0)" stroke="rgb(204, 204, 204)" stroke-width="1px"></line></g></g></g></g></svg>