<svg viewBox="0 0 1100 400" xmlns="http://www.w3.org/2000/svg"><g><g><g><g><g><line x1="49.98400115966797" y1="378.6199998855591" x2="44.98400115966797" y2="378.6199998855591" style="visibility: inherit;" fill="rgb(0, 0, 0)" stroke="rgb(204, 204, 204)" stroke-width="1px"></line><line x1="49.98400115966797" y1="349.4953845097469" x2="44.98400115966797" y2="349.4953845097469" style="visibility: inherit;" fill="rgb(0, 0, 0)" stroke="rgb(204, 204, 204)" stroke-width="1px"></line><line x1="49.98400115966797" y1="320.37076913393463" x2="44.98400115966797" y2="320.37076913393463" style="visibility: inherit;" fill="rgb(0, 0, 0)" stroke="rgb(204, 204, 204)" stroke-width="1px"></line><line x1="49.98400115966797" y1="291.2461537581223" x2="44.98400115966797" y2="291.2461537581223" style="visibility: inherit;" fill="rgb(0, 0, 0)" stroke="rgb(204, 204, 204)" stroke-width="1px"></line><line x1="49.98400115966797" y1="262.1215383823101" x2="44.98400115966797" y2="262.1215383823101" style="visibility: inherit;" fill="rgb(0, 0, 0)" stroke="rgb(204, 204, 204)" stroke-width="1px"></line><line x1="49.98400115966797" y1="232.99692300649792" x2="44.98400115966797" y2="232.99692300649792" style="visibility: inherit;" fill="rgb(0, 0, 0)" stroke="rgb(204, 204, 204)" stroke-width="1px"></line><line x1="49.98400115966797" y1="203.8723076306856" x2="44.98400115966797" y2="203.8723076306856" style="visibility: inherit;" fill="rgb(0, 0, 0)" stroke="rgb(204, 204, 204)" stroke-width="1px"></line><line x1="49.98400115966797" y1="174.74769225487344" x2="44.98400115966797" y2="174.74769225487344" style="visibility: inherit;" fill="rgb(0, 0, 0)" stroke="rgb(204, 204, 204)" stroke-width="1px"></line><line x1="49.98400115966797" y1="145.62307687906116" x2="44.98400115966797" y2="145.62307687906116" style="visibility: inherit;" fill="rgb(0, 0, 0)" stroke="rgb(204, 204, 204)" stroke-width="1px"></line><line x1="49.98400115966797" y1="116.49846150324892" x2="44.98400115966797" y2="116.49846150324892" style="visibility: inherit;" fill="rgb(0, 0, 0)" stroke="rgb(204, 204, 204)" stroke-width="1px"></line><line x1="49.98400115966797" y1="87.37384612743674" x2="44.98400115966797" y2="87.37384612743674" style="visibility: inherit;" fill="rgb(0, 0, 0)" stroke="rgb(204, 204, 204)" stroke-width="1px"></line><line x1="49.98400115966797" y1="58.24923075162448" x2="44.98400115966797" y2="58.24923075162448" style="visibility: inherit;" fill="rgb(0, 0, 0)" stroke="rgb(204, 204, 204)" stroke-width="1px"></line><line x1="49.98400115966797" y1="29.12461537581222" x2="44.98400115966797" y2="29.12461537581222" style="visibility: inherit;" fill="rgb(0, 0, 0)" stroke="rgb(204, 204, 204)" stroke-width="1px"></line><line x1="49.98400115966797" y1="0" x2="44.98400115966797" y2="0" style="visibility: inherit;" fill="rgb(0, 0, 0)" stroke="rgb(204, 204, 204)" stroke-width="1px"></line></g><g transform="translate(39.98400115966797, 0)"><text style="text-anchor: end; visibility: hidden; font-family: Roboto, sans-serif; font-size: 12px; font-weight: 200;" x="0" y="378.6199998855591" dx="0em" dy="0.3em" fill="rgb(50, 49, 63)" stroke="none" stroke-width="1px">0.22</text><text style="text-anchor: end; visibility: inherit; font-family: Roboto, sans-serif; font-size: 12px; font-weight: 200;" x="0" y="349.4953845097469" dx="0em" dy="0.3em" fill="rgb(50, 49, 63)" stroke="none" stroke-width="1px">0.24</text><text style="text-anchor: end; visibility: inherit; font-family: Roboto, sans-serif; font-size: 12px; font-weight: 200;" x="0" y="320.37076913393463" dx="0em" dy="0.3em" fill="rgb(50, 49, 63)" stroke="none" stroke-width="1px">0.26</text><text style="text-anchor: end; visibility: inherit; font-family: Roboto, sans-serif; font-size: 12px; font-weight: 200;" x="0" y="291.2461537581223" dx="0em" dy="0.3em" fill="rgb(50, 49, 63)" stroke="none" stroke-width="1px">0.28</text><text style="text-anchor: end; visibility: inherit; font-family: Roboto, sans-serif; font-size: 12px; font-weight: 200;" x="0" y="262.1215383823101" dx="0em" dy="0.3em" fill="rgb(50, 49, 63)" stroke="none" stroke-width="1px">0.3</text><text style="text-anchor: end; visibility: inherit; font-family: Roboto, sans-serif; font-size: 12px; font-weight: 200;" x="0" y="232.99692300649792" dx="0em" dy="0.3em" fill="rgb(50, 49, 63)" stroke="none" stroke-width="1px">0.32</text><text style="text-anchor: end; visibility: inherit; font-family: Roboto, sans-serif; font-size: 12px; font-weight: 200;" x="0" y="203.8723076306856" dx="0em" dy="0.3em" fill="rgb(50, 49, 63)" stroke="none" stroke-width="1px">0.34</text><text style="text-anchor: end; visibility: inherit; font-family: Roboto, sans-serif; font-size: 12px; font-weight: 200;" x="0" y="174.74769225487344" dx="0em" dy="0.3em" fill="rgb(50, 49, 63)" stroke="none" stroke-width="1px">0.36</text><text style="text-anchor: end; visibility: inherit; font-family: Roboto, sans-serif; font-size: 12px; font-weight: 200;" x="0" y="145.62307687906116" dx="0em" dy="0.3em" fill="rgb(50, 49, 63)" stroke="none" stroke-width="1px">0.38</text><text style="text-anchor: end; visibility: inherit; font-family: Roboto, sans-serif; font-size: 12px; font-weight: 200;" x="0" y="116.49846150324892" dx="0em" dy="0.3em" fill="rgb(50, 49, 63)" stroke="none" stroke-width="1px">0.4</text><text style="text-anchor: end; visibility: inherit; font-family: Roboto, sans-serif; font-size: 12px; font-weight: 200;" x="0" y="87.37384612743674" dx="0em" dy="0.3em" fill="rgb(50, 49, 63)" stroke="none" stroke-width="1px">0.42</text><text style="text-anchor: end; visibility: inherit; font-family: Roboto, sans-serif; font-size: 12px; font-weight: 200;" x="0" y="58.24923075162448" dx="0em" dy="0.3em" fill="rgb(50, 49, 63)" stroke="none" stroke-width="1px">0.44</text><text style="text-anchor: end; visibility: inherit; font-family: Roboto, sans-serif; font-size: 12px; font-weight: 200;" x="0" y="29.12461537581222" dx="0em" dy="0.3em" fill="rgb(50, 49, 63)" stroke="none" stroke-width="1px">0.46</text><text style="text-anchor: end; visibility: hidden; font-family: Roboto, sans-serif; font-size: 12px; font-weight: 200;" x="0" y="0" dx="0em" dy="0.3em" fill="rgb(50, 49, 63)" stroke="none" stroke-width="1px">0.48</text></g><line x1="49.98400115966797" y1="0" x2="49.98400115966797" y2="378.6199998855591" fill="rgb(0, 0, 0)" stroke="rgb(204, 204, 204)" stroke-width="1px"></line></g></g><g transform="translate(49, 0)" clip-path="url(#clip_0)"><clipPath id="clip_0"><rect width="1050" height="378"></rect></clipPath><g><g><g><line x1="0" y1="0" x2="0" y2="378.6199998855591" fill="rgb(0, 0, 0)" stroke="rgb(60, 60, 60)" stroke-width="1px" opacity="0.25"></line><line x1="87.50133323669434" y1="0" x2="87.50133323669434" y2="378.6199998855591" fill="rgb(0, 0, 0)" stroke="rgb(60, 60, 60)" stroke-width="1px" opacity="0.25"></line><line x1="175.00266647338867" y1="0" x2="175.00266647338867" y2="378.6199998855591" fill="rgb(0, 0, 0)" stroke="rgb(60, 60, 60)" stroke-width="1px" opacity="0.25"></line><line x1="262.503999710083" y1="0" x2="262.503999710083" y2="378.6199998855591" fill="rgb(0, 0, 0)" stroke="rgb(60, 60, 60)" stroke-width="1px" opacity="0.25"></line><line x1="350.00533294677734" y1="0" x2="350.00533294677734" y2="378.6199998855591" fill="rgb(0, 0, 0)" stroke="rgb(60, 60, 60)" stroke-width="1px" opacity="0.25"></line><line x1="437.5066661834717" y1="0" x2="437.5066661834717" y2="378.6199998855591" fill="rgb(0, 0, 0)" stroke="rgb(60, 60, 60)" stroke-width="1px" opacity="0.25"></line><line x1="525.007999420166" y1="0" x2="525.007999420166" y2="378.6199998855591" fill="rgb(0, 0, 0)" stroke="rgb(60, 60, 60)" stroke-width="1px" opacity="0.25"></line><line x1="612.5093326568604" y1="0" x2="612.5093326568604" y2="378.6199998855591" fill="rgb(0, 0, 0)" stroke="rgb(60, 60, 60)" stroke-width="1px" opacity="0.25"></line><line x1="700.0106658935547" y1="0" x2="700.0106658935547" y2="378.6199998855591" fill="rgb(0, 0, 0)" stroke="rgb(60, 60, 60)" stroke-width="1px" opacity="0.25"></line><line x1="787.511999130249" y1="0" x2="787.511999130249" y2="378.6199998855591" fill="rgb(0, 0, 0)" stroke="rgb(60, 60, 60)" stroke-width="1px" opacity="0.25"></line><line x1="875.0133323669434" y1="0" x2="875.0133323669434" y2="378.6199998855591" fill="rgb(0, 0, 0)" stroke="rgb(60, 60, 60)" stroke-width="1px" opacity="0.25"></line><line x1="962.5146656036377" y1="0" x2="962.5146656036377" y2="378.6199998855591" fill="rgb(0, 0, 0)" stroke="rgb(60, 60, 60)" stroke-width="1px" opacity="0.25"></line><line x1="1050.015998840332" y1="0" x2="1050.015998840332" y2="378.6199998855591" fill="rgb(0, 0, 0)" stroke="rgb(60, 60, 60)" stroke-width="1px" opacity="0.25"></line></g><g><line x1="0" y1="378.6199998855591" x2="1050.015998840332" y2="378.6199998855591" fill="rgb(0, 0, 0)" stroke="rgb(60, 60, 60)" stroke-width="1px" opacity="0.25"></line><line x1="0" y1="349.4953845097469" x2="1050.015998840332" y2="349.4953845097469" fill="rgb(0, 0, 0)" stroke="rgb(60, 60, 60)" stroke-width="1px" opacity="0.25"></line><line x1="0" y1="320.37076913393463" x2="1050.015998840332" y2="320.37076913393463" fill="rgb(0, 0, 0)" stroke="rgb(60, 60, 60)" stroke-width="1px" opacity="0.25"></line><line x1="0" y1="291.2461537581223" x2="1050.015998840332" y2="291.2461537581223" fill="rgb(0, 0, 0)" stroke="rgb(60, 60, 60)" stroke-width="1px" opacity="0.25"></line><line x1="0" y1="262.1215383823101" x2="1050.015998840332" y2="262.1215383823101" fill="rgb(0, 0, 0)" stroke="rgb(60, 60, 60)" stroke-width="1px" opacity="0.25"></line><line x1="0" y1="232.99692300649792" x2="1050.015998840332" y2="232.99692300649792" fill="rgb(0, 0, 0)" stroke="rgb(60, 60, 60)" stroke-width="1px" opacity="0.25"></line><line x1="0" y1="203.8723076306856" x2="1050.015998840332" y2="203.8723076306856" fill="rgb(0, 0, 0)" stroke="rgb(60, 60, 60)" stroke-width="1px" opacity="0.25"></line><line x1="0" y1="174.74769225487344" x2="1050.015998840332" y2="174.74769225487344" fill="rgb(0, 0, 0)" stroke="rgb(60, 60, 60)" stroke-width="1px" opacity="0.25"></line><line x1="0" y1="145.62307687906116" x2="1050.015998840332" y2="145.62307687906116" fill="rgb(0, 0, 0)" stroke="rgb(60, 60, 60)" stroke-width="1px" opacity="0.25"></line><line x1="0" y1="116.49846150324892" x2="1050.015998840332" y2="116.49846150324892" fill="rgb(0, 0, 0)" stroke="rgb(60, 60, 60)" stroke-width="1px" opacity="0.25"></line><line x1="0" y1="87.37384612743674" x2="1050.015998840332" y2="87.37384612743674" fill="rgb(0, 0, 0)" stroke="rgb(60, 60, 60)" stroke-width="1px" opacity="0.25"></line><line x1="0" y1="58.24923075162448" x2="1050.015998840332" y2="58.24923075162448" fill="rgb(0, 0, 0)" stroke="rgb(60, 60, 60)" stroke-width="1px" opacity="0.25"></line><line x1="0" y1="29.12461537581222" x2="1050.015998840332" y2="29.12461537581222" fill="rgb(0, 0, 0)" stroke="rgb(60, 60, 60)" stroke-width="1px" opacity="0.25"></line><line x1="0" y1="0" x2="1050.015998840332" y2="0" fill="rgb(0, 0, 0)" stroke="rgb(60, 60, 60)" stroke-width="1px" opacity="0.25"></line></g></g></g><g><g><line x1="0" y1="698.9907690194938" x2="1050.015998840332" y2="698.9907690194938" fill="rgb(0, 0, 0)" stroke="rgb(153, 153, 153)" stroke-width="1.5px"></line></g></g><g><g><line x1="87.50133323669434" y1="0" x2="87.50133323669434" y2="378.6199998855591" fill="rgb(0, 0, 0)" stroke="rgb(153, 153, 153)" stroke-width="1.5px"></line></g></g><g><g><g><g><g><path style="fill: none;" stroke="rgb(255, 112, 67)" stroke-width="2px" d="M87.50133323669434,11.916442402483947L105.00159988403321,189.43590929229308L122.50186653137207,246.1965835729463L140.00213317871095,297.47448115380644L157.5023998260498,304.63953557150666L175.00266647338867,301.7084065363512L192.50293312072753,310.42723405872636L210.00319976806642,311.732156959999L227.50346641540528,311.7652270428369L245.00373306274415,308.21171210482294L262.503999710083,312.09736004015764L280.0042663574219,312.4173413010025L297.50453300476073,313.11819270224805L315.0047996520996,312.4527115339591L332.50506629943845,312.20559729291057L350.00533294677734,312.41139562994107L367.5055995941162,312.7479987303226L385.00586624145507,313.5005818097083L402.50613288879396,312.5174195306931L420.00639953613285,312.3501595579145L437.5066661834717,312.72990132278534L455.00693283081057,312.62674175991697L472.5071994781494,312.7190081590159L490.0074661254883,312.7595862790335L507.5077327728271,312.72582181125415L525.007999420166,312.76088825079876L542.5082660675049,312.7075942065403L560.0085327148438,312.73740935996506L577.5087993621827,312.713756872896L595.0090660095215,312.710718938777L612.5093326568604,312.68702305264907L630.0095993041992,312.6744373255848L647.5098659515381,312.6668858893462L665.0101325988769,312.66397815240373L682.5103992462158,312.66714628369925L700.0106658935547,312.6668858893462L717.5109325408936,312.66632170158124L735.0111991882324,312.66675569216966L752.5114658355712,312.66745007711114L770.0117324829101,312.66857845264104L787.511999130249,312.66927283758247L805.0122657775879,312.66940303475906L822.5125324249268,312.6695332319356L840.0127990722657,312.66962003005324L857.5130657196045,312.66962003005324L875.0133323669434,312.6697502272298L892.5135990142822,312.6697502272298L910.0138656616211,312.66970682817094L927.5141323089599,312.66970682817094L945.0143989562988,312.66966342911206" fill="none"></path></g><g><path style="fill: none;" stroke="rgb(0, 119, 187)" stroke-width="2px" d="M157.5023998260498,-12.538797058020233L175.00266647338867,22.188739236122107L192.50293312072753,35.898111332900115L210.00319976806642,48.15101101492786L227.50346641540528,85.95389141675882L245.00373306274415,110.42058822879733L262.503999710083,62.84263401048543L280.0042663574219,72.06463022107914L297.50453300476073,67.17932836436904L315.0047996520996,84.91739169442627L332.50506629943845,78.28744767225254L350.00533294677734,107.30323383214926L367.5055995941162,97.73782086893584L385.00586624145507,59.170986834302504L402.50613288879396,111.52665664245424L420.00639953613285,86.33710510633699L437.5066661834717,123.84495870615744L455.00693283081057,97.42947055586073L472.5071994781494,67.0273014612442L490.0074661254883,91.95064317042225L507.5077327728271,73.57062096196854L525.007999420166,85.03331058059426L542.5082660675049,107.73223352880615L560.0085327148438,111.87658325390032L577.5087993621827,103.18014964588787L595.0090660095215,125.4019867402455L612.5093326568604,98.84927076588917L630.0095993041992,86.3475208804592L647.5098659515381,96.58579285196487L665.0101325988769,141.8234528222015L682.5103992462158,122.48535299074342L700.0106658935547,121.6321274939022L717.5109325408936,91.65713533547122L735.0111991882324,108.60650756918591L752.5114658355712,87.50519077507965L770.0117324829101,84.60205413287753L787.511999130249,108.26669293845009L805.0122657775879,111.04310432883244L822.5125324249268,125.64758201423452L840.0127990722657,105.91355256895744L857.5130657196045,68.68332274855169L875.0133323669434,94.75999444646597L892.5135990142822,98.43546073982705L910.0138656616211,96.45806942179172L927.5141323089599,94.4502553635079L945.0143989562988,65.49392591422526" fill="none"></path></g><g><path style="fill: none;" stroke="rgb(204, 51, 17)" stroke-width="2px" d="M87.50133323669434,46.59814929048872L105.00159988403321,76.66909676802018L122.50186653137207,203.2999556347853L140.00213317871095,222.45330567275138L157.5023998260498,245.7513092292235L175.00266647338867,255.11973386435136L192.50293312072753,236.25260061945082L210.00319976806642,255.92018610564023L227.50346641540528,282.8710450458166L245.00373306274415,277.70130575745344L262.503999710083,259.3211099527644L280.0042663574219,272.82806883910155L297.50453300476073,277.7495655108862L315.0047996520996,256.4743920870574L332.50506629943845,267.30835954023354L350.00533294677734,272.16840314469744L367.5055995941162,273.01077887682794L385.00586624145507,295.26855039190707L402.50613288879396,281.77773595545926L420.00639953613285,264.35375161424435L437.5066661834717,272.4876900206008L455.00693283081057,274.04797298410193L472.5071994781494,275.6831193241063L490.0074661254883,292.6282818491133L507.5077327728271,267.95743586428017L525.007999420166,278.42107914835435L542.5082660675049,255.81212244912265L560.0085327148438,278.36205642832874L577.5087993621827,283.78034212668206L595.0090660095215,283.0051915366983L612.5093326568604,273.22165490374306L630.0095993041992,277.07557812706403L647.5098659515381,288.881554301133L665.0101325988769,278.7933996741631L682.5103992462158,279.8927412336994L700.0106658935547,259.3481475664232L717.5109325408936,283.06417085766515L735.0111991882324,271.7402714292173L752.5114658355712,285.6085708794761L770.0117324829101,286.9947368189017L787.511999130249,288.29584060299624L805.0122657775879,282.6767474593792L822.5125324249268,275.9738930183502L840.0127990722657,258.5476519260755L857.5130657196045,289.66625268406204L875.0133323669434,274.8601429712783L892.5135990142822,284.52177164794523L910.0138656616211,275.18741527400863L927.5141323089599,267.10564253638074L945.0143989562988,304.11848647104506" fill="none"></path></g><g><path style="fill: none;" stroke="rgb(51, 187, 238)" stroke-width="2px" d="M87.50133323669434,120.71189385020843L105.00159988403321,196.94086513884685L122.50186653137207,274.44602915180434L140.00213317871095,277.5364327329113L157.5023998260498,286.67753309782273L175.00266647338867,285.94209264667984L192.50293312072753,296.85465579541955L210.00319976806642,286.9582816094741L227.50346641540528,304.78717916968844L245.00373306274415,301.30531607782325L262.503999710083,306.54488445186365L280.0042663574219,307.801981590292L297.50453300476073,299.15554369806597L315.0047996520996,297.21525857534084L332.50506629943845,312.1480935399444L350.00533294677734,306.7325419822981L367.5055995941162,313.9985860099246L385.00586624145507,308.2168331937663L402.50613288879396,321.12041496501786L420.00639953613285,310.75580833322203L437.5066661834717,314.51551219979615L455.00693283081057,313.3449093856407L472.5071994781494,308.07999596123625L490.0074661254883,299.49657350244934L507.5077327728271,307.6438788189292L525.007999420166,307.39377004282056L542.5082660675049,316.323994380817L560.0085327148438,308.2148368370595L577.5087993621827,316.68850307603407L595.0090660095215,311.6627184658512L612.5093326568604,319.5837410895269L630.0095993041992,306.13693329874525L647.5098659515381,297.7871713727657L665.0101325988769,312.48387205820785L682.5103992462158,326.76237941264486L700.0106658935547,313.0263168946788L717.5109325408936,315.3923467846476L735.0111991882324,292.72697130892084L752.5114658355712,296.1835761485398L770.0117324829101,295.81030084343655L787.511999130249,306.1327669890964L805.0122657775879,302.9303938361761L822.5125324249268,308.0513959814591L840.0127990722657,304.6382335997414L857.5130657196045,317.58564842042375L875.0133323669434,306.1427053735713L892.5135990142822,309.9836956773572L910.0138656616211,297.61196937221905L927.5141323089599,307.6291231389228L945.0143989562988,301.2518484373294" fill="none"></path></g><g><path style="fill: none;" stroke="rgb(238, 51, 119)" stroke-width="2px" d="M87.50133323669434,174.5551965973592L105.00159988403321,201.18828762869168L122.50186653137207,227.2209960799986L140.00213317871095,286.701966767951L157.5023998260498,299.4507440963118L175.00266647338867,303.4062211173239L192.50293312072753,306.5660631925787L210.00319976806642,293.24532966773427L227.50346641540528,306.0378532474081L245.00373306274415,316.5719766030423L262.503999710083,316.1624196847468L280.0042663574219,313.06151353139995L297.50453300476073,323.67275701459704L315.0047996520996,324.82699838356893L332.50506629943845,322.40424592369317L350.00533294677734,320.369524448927L367.5055995941162,325.3205758797833L385.00586624145507,315.37911007170067L402.50613288879396,325.33806570049677L420.00639953613285,318.9428237885426L437.5066661834717,318.9330156012443L455.00693283081057,317.5590881964122L472.5071994781494,319.27452279527495L490.0074661254883,326.2244914773524L507.5077327728271,323.2602055612413L525.007999420166,318.3129298485044L542.5082660675049,328.85243468743494L560.0085327148438,312.4280174694777L577.5087993621827,326.4672224134578L595.0090660095215,312.09944319498203L612.5093326568604,336.72070575508775L630.0095993041992,323.1656824110827L647.5098659515381,340.0250015976994L665.0101325988769,324.1271017616179L682.5103992462158,327.84670489782167L700.0106658935547,324.8962632814814L717.5109325408936,324.40194800126665L735.0111991882324,331.7736253381155L752.5114658355712,320.1493176243608L770.0117324829101,325.71437893971904L787.511999130249,329.4448318406334L805.0122657775879,314.84130893452596L822.5125324249268,314.9950284009456L840.0127990722657,318.4619622165691L857.5130657196045,316.3130144189298L875.0133323669434,321.92811484913335L892.5135990142822,313.2137140307601L910.0138656616211,326.3644100430602L927.5141323089599,311.00222818932906L945.0143989562988,324.20283311929785" fill="none"></path></g><g><path style="fill: none;" stroke="rgb(0, 153, 136)" stroke-width="2px" d="M87.50133323669434,175.1209467284285L105.00159988403321,275.69392568975803L122.50186653137207,276.26948400812574L140.00213317871095,289.6743249090067L157.5023998260498,301.5229189588589L175.00266647338867,304.1187468653981L192.50293312072753,298.7258062174087L210.00319976806642,301.3692862905569L227.50346641540528,312.9230705336928L245.00373306274415,303.92323410531316L262.503999710083,314.36383248914206L280.0042663574219,316.4084489493242L297.50453300476073,311.00209799215247L315.0047996520996,316.6237082811824L332.50506629943845,306.71713531640904L350.00533294677734,318.5505830947252L367.5055995941162,313.7628423222928L385.00586624145507,316.8839290380013L402.50613288879396,309.7765519695026L420.00639953613285,311.01281755968654L437.5066661834717,313.34256583646317L455.00693283081057,315.042550370378L472.5071994781494,316.87820036223417L490.0074661254883,313.53256691607515L507.5077327728271,322.91231870556084L525.007999420166,318.55153787401974L542.5082660675049,315.4107045865379L560.0085327148438,306.77342389572766L577.5087993621827,308.3999338230223L595.0090660095215,317.19280013978255L612.5093326568604,309.0028335484606L630.0095993041992,302.9122096305211L647.5098659515381,313.76353670723427L665.0101325988769,304.7928644463968L682.5103992462158,308.8051074363747L700.0106658935547,308.21856915612L717.5109325408936,312.1723536138373L735.0111991882324,325.65275227616286L752.5114658355712,312.5427211819981L770.0117324829101,308.1275613297275L787.511999130249,312.03829392107315L805.0122657775879,311.2851466539225L822.5125324249268,313.9314910649543L840.0127990722657,310.40253999424505L857.5130657196045,319.5109174687894L875.0133323669434,314.9031525933763L892.5135990142822,320.91878293763614L910.0138656616211,308.1455285400883L927.5141323089599,304.6172284552617L945.0143989562988,316.9103156657775" fill="none"></path></g></g></g></g></g><g><g opacity="0.096506"><span fill="rgb(0, 0, 0)" stroke="none" stroke-width="1px">Alt + Scroll to Zoom</span></g></g></g><g transform="translate(49, 378)" clip-path="url(#clip_1)"><clipPath id="clip_1"><rect width="1050" height="21"></rect></clipPath><g><g><line x1="0" y1="0" x2="0" y2="5" style="visibility: inherit;" fill="rgb(0, 0, 0)" stroke="rgb(204, 204, 204)" stroke-width="1px"></line><line x1="87.50133323669434" y1="0" x2="87.50133323669434" y2="5" style="visibility: inherit;" fill="rgb(0, 0, 0)" stroke="rgb(204, 204, 204)" stroke-width="1px"></line><line x1="175.00266647338867" y1="0" x2="175.00266647338867" y2="5" style="visibility: inherit;" fill="rgb(0, 0, 0)" stroke="rgb(204, 204, 204)" stroke-width="1px"></line><line x1="262.503999710083" y1="0" x2="262.503999710083" y2="5" style="visibility: inherit;" fill="rgb(0, 0, 0)" stroke="rgb(204, 204, 204)" stroke-width="1px"></line><line x1="350.00533294677734" y1="0" x2="350.00533294677734" y2="5" style="visibility: inherit;" fill="rgb(0, 0, 0)" stroke="rgb(204, 204, 204)" stroke-width="1px"></line><line x1="437.5066661834717" y1="0" x2="437.5066661834717" y2="5" style="visibility: inherit;" fill="rgb(0, 0, 0)" stroke="rgb(204, 204, 204)" stroke-width="1px"></line><line x1="525.007999420166" y1="0" x2="525.007999420166" y2="5" style="visibility: inherit;" fill="rgb(0, 0, 0)" stroke="rgb(204, 204, 204)" stroke-width="1px"></line><line x1="612.5093326568604" y1="0" x2="612.5093326568604" y2="5" style="visibility: inherit;" fill="rgb(0, 0, 0)" stroke="rgb(204, 204, 204)" stroke-width="1px"></line><line x1="700.0106658935547" y1="0" x2="700.0106658935547" y2="5" style="visibility: inherit;" fill="rgb(0, 0, 0)" stroke="rgb(204, 204, 204)" stroke-width="1px"></line><line x1="787.511999130249" y1="0" x2="787.511999130249" y2="5" style="visibility: inherit;" fill="rgb(0, 0, 0)" stroke="rgb(204, 204, 204)" stroke-width="1px"></line><line x1="875.0133323669434" y1="0" x2="875.0133323669434" y2="5" style="visibility: inherit;" fill="rgb(0, 0, 0)" stroke="rgb(204, 204, 204)" stroke-width="1px"></line><line x1="962.5146656036377" y1="0" x2="962.5146656036377" y2="5" style="visibility: inherit;" fill="rgb(0, 0, 0)" stroke="rgb(204, 204, 204)" stroke-width="1px"></line><line x1="1050.015998840332" y1="0" x2="1050.015998840332" y2="5" style="visibility: inherit;" fill="rgb(0, 0, 0)" stroke="rgb(204, 204, 204)" stroke-width="1px"></line></g><g transform="translate(0, 8)"><text style="text-anchor: middle; visibility: hidden; font-family: Roboto, sans-serif; font-size: 12px; font-weight: 200;" x="0" y="0" dx="0em" dy="0.95em" fill="rgb(50, 49, 63)" stroke="none" stroke-width="1px">-5</text><text style="text-anchor: middle; visibility: hidden; font-family: Roboto, sans-serif; font-size: 12px; font-weight: 200;" x="87.50133323669434" y="0" dx="0em" dy="0.95em" fill="rgb(50, 49, 63)" stroke="none" stroke-width="1px">0</text><text style="text-anchor: middle; visibility: hidden; font-family: Roboto, sans-serif; font-size: 12px; font-weight: 200;" x="175.00266647338867" y="0" dx="0em" dy="0.95em" fill="rgb(50, 49, 63)" stroke="none" stroke-width="1px">5</text><text style="text-anchor: middle; visibility: hidden; font-family: Roboto, sans-serif; font-size: 12px; font-weight: 200;" x="262.503999710083" y="0" dx="0em" dy="0.95em" fill="rgb(50, 49, 63)" stroke="none" stroke-width="1px">10</text><text style="text-anchor: middle; visibility: hidden; font-family: Roboto, sans-serif; font-size: 12px; font-weight: 200;" x="350.00533294677734" y="0" dx="0em" dy="0.95em" fill="rgb(50, 49, 63)" stroke="none" stroke-width="1px">15</text><text style="text-anchor: middle; visibility: hidden; font-family: Roboto, sans-serif; font-size: 12px; font-weight: 200;" x="437.5066661834717" y="0" dx="0em" dy="0.95em" fill="rgb(50, 49, 63)" stroke="none" stroke-width="1px">20</text><text style="text-anchor: middle; visibility: hidden; font-family: Roboto, sans-serif; font-size: 12px; font-weight: 200;" x="525.007999420166" y="0" dx="0em" dy="0.95em" fill="rgb(50, 49, 63)" stroke="none" stroke-width="1px">25</text><text style="text-anchor: middle; visibility: hidden; font-family: Roboto, sans-serif; font-size: 12px; font-weight: 200;" x="612.5093326568604" y="0" dx="0em" dy="0.95em" fill="rgb(50, 49, 63)" stroke="none" stroke-width="1px">30</text><text style="text-anchor: middle; visibility: hidden; font-family: Roboto, sans-serif; font-size: 12px; font-weight: 200;" x="700.0106658935547" y="0" dx="0em" dy="0.95em" fill="rgb(50, 49, 63)" stroke="none" stroke-width="1px">35</text><text style="text-anchor: middle; visibility: hidden; font-family: Roboto, sans-serif; font-size: 12px; font-weight: 200;" x="787.511999130249" y="0" dx="0em" dy="0.95em" fill="rgb(50, 49, 63)" stroke="none" stroke-width="1px">40</text><text style="text-anchor: middle; visibility: hidden; font-family: Roboto, sans-serif; font-size: 12px; font-weight: 200;" x="875.0133323669434" y="0" dx="0em" dy="0.95em" fill="rgb(50, 49, 63)" stroke="none" stroke-width="1px">45</text><text style="text-anchor: middle; visibility: hidden; font-family: Roboto, sans-serif; font-size: 12px; font-weight: 200;" x="962.5146656036377" y="0" dx="0em" dy="0.95em" fill="rgb(50, 49, 63)" stroke="none" stroke-width="1px">50</text><text style="text-anchor: middle; visibility: hidden; font-family: Roboto, sans-serif; font-size: 12px; font-weight: 200;" x="1050.015998840332" y="0" dx="0em" dy="0.95em" fill="rgb(50, 49, 63)" stroke="none" stroke-width="1px">55</text></g><line x1="0" y1="0" x2="1050.015998840332" y2="0" fill="rgb(0, 0, 0)" stroke="rgb(204, 204, 204)" stroke-width="1px"></line></g></g></g></g></svg>