<svg viewBox="0 0 813.888916015625 400.0000305175781" xmlns="http://www.w3.org/2000/svg"><g><g><g><g><g><line x1="50" y1="378" x2="45" y2="378" style="visibility: inherit;" fill="rgb(0, 0, 0)" stroke="rgb(204, 204, 204)" stroke-width="1px"></line><line x1="50" y1="336" x2="45" y2="336" style="visibility: inherit;" fill="rgb(0, 0, 0)" stroke="rgb(204, 204, 204)" stroke-width="1px"></line><line x1="50" y1="294" x2="45" y2="294" style="visibility: inherit;" fill="rgb(0, 0, 0)" stroke="rgb(204, 204, 204)" stroke-width="1px"></line><line x1="50" y1="252.00000000000003" x2="45" y2="252.00000000000003" style="visibility: inherit;" fill="rgb(0, 0, 0)" stroke="rgb(204, 204, 204)" stroke-width="1px"></line><line x1="50" y1="210" x2="45" y2="210" style="visibility: inherit;" fill="rgb(0, 0, 0)" stroke="rgb(204, 204, 204)" stroke-width="1px"></line><line x1="50" y1="168" x2="45" y2="168" style="visibility: inherit;" fill="rgb(0, 0, 0)" stroke="rgb(204, 204, 204)" stroke-width="1px"></line><line x1="50" y1="126.00000000000001" x2="45" y2="126.00000000000001" style="visibility: inherit;" fill="rgb(0, 0, 0)" stroke="rgb(204, 204, 204)" stroke-width="1px"></line><line x1="50" y1="84" x2="45" y2="84" style="visibility: inherit;" fill="rgb(0, 0, 0)" stroke="rgb(204, 204, 204)" stroke-width="1px"></line><line x1="50" y1="42.00000000000002" x2="45" y2="42.00000000000002" style="visibility: inherit;" fill="rgb(0, 0, 0)" stroke="rgb(204, 204, 204)" stroke-width="1px"></line><line x1="50" y1="0" x2="45" y2="0" style="visibility: inherit;" fill="rgb(0, 0, 0)" stroke="rgb(204, 204, 204)" stroke-width="1px"></line></g><g transform="translate(40, 0)"><text x="0" y="378" dx="0em" dy="0.3em" style="text-anchor: end; visibility: hidden; font-family: Roboto, sans-serif; font-size: 12px; font-weight: 200;" fill="rgb(50, 49, 63)" stroke="none" stroke-width="1px">0.82</text><text x="0" y="336" dx="0em" dy="0.3em" style="text-anchor: end; visibility: inherit; font-family: Roboto, sans-serif; font-size: 12px; font-weight: 200;" fill="rgb(50, 49, 63)" stroke="none" stroke-width="1px">0.83</text><text x="0" y="294" dx="0em" dy="0.3em" style="text-anchor: end; visibility: inherit; font-family: Roboto, sans-serif; font-size: 12px; font-weight: 200;" fill="rgb(50, 49, 63)" stroke="none" stroke-width="1px">0.84</text><text x="0" y="252.00000000000003" dx="0em" dy="0.3em" style="text-anchor: end; visibility: inherit; font-family: Roboto, sans-serif; font-size: 12px; font-weight: 200;" fill="rgb(50, 49, 63)" stroke="none" stroke-width="1px">0.85</text><text x="0" y="210" dx="0em" dy="0.3em" style="text-anchor: end; visibility: inherit; font-family: Roboto, sans-serif; font-size: 12px; font-weight: 200;" fill="rgb(50, 49, 63)" stroke="none" stroke-width="1px">0.86</text><text x="0" y="168" dx="0em" dy="0.3em" style="text-anchor: end; visibility: inherit; font-family: Roboto, sans-serif; font-size: 12px; font-weight: 200;" fill="rgb(50, 49, 63)" stroke="none" stroke-width="1px">0.87</text><text x="0" y="126.00000000000001" dx="0em" dy="0.3em" style="text-anchor: end; visibility: inherit; font-family: Roboto, sans-serif; font-size: 12px; font-weight: 200;" fill="rgb(50, 49, 63)" stroke="none" stroke-width="1px">0.88</text><text x="0" y="84" dx="0em" dy="0.3em" style="text-anchor: end; visibility: inherit; font-family: Roboto, sans-serif; font-size: 12px; font-weight: 200;" fill="rgb(50, 49, 63)" stroke="none" stroke-width="1px">0.89</text><text x="0" y="42.00000000000002" dx="0em" dy="0.3em" style="text-anchor: end; visibility: inherit; font-family: Roboto, sans-serif; font-size: 12px; font-weight: 200;" fill="rgb(50, 49, 63)" stroke="none" stroke-width="1px">0.9</text><text x="0" y="0" dx="0em" dy="0.3em" style="text-anchor: end; visibility: hidden; font-family: Roboto, sans-serif; font-size: 12px; font-weight: 200;" fill="rgb(50, 49, 63)" stroke="none" stroke-width="1px">0.91</text></g><line x1="50" y1="0" x2="50" y2="378" fill="rgb(0, 0, 0)" stroke="rgb(204, 204, 204)" stroke-width="1px"></line></g></g><g transform="translate(50, 0)" clip-path="url(#clip_0)"><clipPath id="clip_0"><rect width="763" height="377"></rect></clipPath><g><g><g><line x1="0" y1="0" x2="0" y2="378" fill="rgb(0, 0, 0)" stroke="rgb(60, 60, 60)" stroke-width="1px" opacity="0.25"></line><line x1="63.65741666666666" y1="0" x2="63.65741666666666" y2="378" fill="rgb(0, 0, 0)" stroke="rgb(60, 60, 60)" stroke-width="1px" opacity="0.25"></line><line x1="127.31483333333333" y1="0" x2="127.31483333333333" y2="378" fill="rgb(0, 0, 0)" stroke="rgb(60, 60, 60)" stroke-width="1px" opacity="0.25"></line><line x1="190.97225" y1="0" x2="190.97225" y2="378" fill="rgb(0, 0, 0)" stroke="rgb(60, 60, 60)" stroke-width="1px" opacity="0.25"></line><line x1="254.62966666666665" y1="0" x2="254.62966666666665" y2="378" fill="rgb(0, 0, 0)" stroke="rgb(60, 60, 60)" stroke-width="1px" opacity="0.25"></line><line x1="318.2870833333333" y1="0" x2="318.2870833333333" y2="378" fill="rgb(0, 0, 0)" stroke="rgb(60, 60, 60)" stroke-width="1px" opacity="0.25"></line><line x1="381.9445" y1="0" x2="381.9445" y2="378" fill="rgb(0, 0, 0)" stroke="rgb(60, 60, 60)" stroke-width="1px" opacity="0.25"></line><line x1="445.6019166666667" y1="0" x2="445.6019166666667" y2="378" fill="rgb(0, 0, 0)" stroke="rgb(60, 60, 60)" stroke-width="1px" opacity="0.25"></line><line x1="509.2593333333333" y1="0" x2="509.2593333333333" y2="378" fill="rgb(0, 0, 0)" stroke="rgb(60, 60, 60)" stroke-width="1px" opacity="0.25"></line><line x1="572.91675" y1="0" x2="572.91675" y2="378" fill="rgb(0, 0, 0)" stroke="rgb(60, 60, 60)" stroke-width="1px" opacity="0.25"></line><line x1="636.5741666666667" y1="0" x2="636.5741666666667" y2="378" fill="rgb(0, 0, 0)" stroke="rgb(60, 60, 60)" stroke-width="1px" opacity="0.25"></line><line x1="700.2315833333333" y1="0" x2="700.2315833333333" y2="378" fill="rgb(0, 0, 0)" stroke="rgb(60, 60, 60)" stroke-width="1px" opacity="0.25"></line><line x1="763.889" y1="0" x2="763.889" y2="378" fill="rgb(0, 0, 0)" stroke="rgb(60, 60, 60)" stroke-width="1px" opacity="0.25"></line></g><g><line x1="0" y1="378" x2="763.889" y2="378" fill="rgb(0, 0, 0)" stroke="rgb(60, 60, 60)" stroke-width="1px" opacity="0.25"></line><line x1="0" y1="336" x2="763.889" y2="336" fill="rgb(0, 0, 0)" stroke="rgb(60, 60, 60)" stroke-width="1px" opacity="0.25"></line><line x1="0" y1="294" x2="763.889" y2="294" fill="rgb(0, 0, 0)" stroke="rgb(60, 60, 60)" stroke-width="1px" opacity="0.25"></line><line x1="0" y1="252.00000000000003" x2="763.889" y2="252.00000000000003" fill="rgb(0, 0, 0)" stroke="rgb(60, 60, 60)" stroke-width="1px" opacity="0.25"></line><line x1="0" y1="210" x2="763.889" y2="210" fill="rgb(0, 0, 0)" stroke="rgb(60, 60, 60)" stroke-width="1px" opacity="0.25"></line><line x1="0" y1="168" x2="763.889" y2="168" fill="rgb(0, 0, 0)" stroke="rgb(60, 60, 60)" stroke-width="1px" opacity="0.25"></line><line x1="0" y1="126.00000000000001" x2="763.889" y2="126.00000000000001" fill="rgb(0, 0, 0)" stroke="rgb(60, 60, 60)" stroke-width="1px" opacity="0.25"></line><line x1="0" y1="84" x2="763.889" y2="84" fill="rgb(0, 0, 0)" stroke="rgb(60, 60, 60)" stroke-width="1px" opacity="0.25"></line><line x1="0" y1="42.00000000000002" x2="763.889" y2="42.00000000000002" fill="rgb(0, 0, 0)" stroke="rgb(60, 60, 60)" stroke-width="1px" opacity="0.25"></line><line x1="0" y1="0" x2="763.889" y2="0" fill="rgb(0, 0, 0)" stroke="rgb(60, 60, 60)" stroke-width="1px" opacity="0.25"></line></g></g></g><g><g><line x1="0" y1="3821.9999999999964" x2="763.889" y2="3821.9999999999964" fill="rgb(0, 0, 0)" stroke="rgb(153, 153, 153)" stroke-width="1.5px"></line></g></g><g><g><line x1="63.65741666666666" y1="0" x2="63.65741666666666" y2="378" fill="rgb(0, 0, 0)" stroke="rgb(153, 153, 153)" stroke-width="1.5px"></line></g></g><g><g><g><g><g><path stroke="rgb(255, 112, 67)" stroke-width="2px" d="M63.65741666666666,360.99021148681624L76.3889,237.46068191528315L89.12038333333334,200.29252481460568L101.85186666666667,106.27902460098271L114.58335,99.71987915039067L127.31483333333333,104.09255933761601L140.04631666666666,88.78805351257328L152.7778,81.13592576980598L165.50928333333334,81.13592576980598L178.24076666666667,77.8562278747559L190.97225,77.8562278747559L203.70373333333333,78.9494605064393L216.43521666666666,76.76324558258064L229.1667,78.9494605064393L241.89818333333332,74.57678031921394L254.62966666666665,76.76324558258064L267.36115,75.67001295089729L280.0926333333333,78.9494605064393L292.82411666666667,75.67001295089729L305.5556,75.67001295089729L318.2870833333333,74.57678031921394L331.0185666666667,76.76324558258064L343.75005,76.76324558258064L356.48153333333335,76.76324558258064L369.21301666666665,76.76324558258064L381.9445,76.76324558258064L394.67598333333336,76.76324558258064L407.40746666666666,76.76324558258064L420.13895,76.76324558258064L432.8704333333333,76.76324558258064L445.6019166666667,74.57678031921394L458.3334,74.57678031921394L471.06488333333334,76.76324558258064L483.79636666666664,76.76324558258064L496.52785,76.76324558258064L509.2593333333333,76.76324558258064L521.9908166666667,76.76324558258064L534.7223,76.76324558258064L547.4537833333334,76.76324558258064L560.1852666666666,76.76324558258064L572.91675,76.76324558258064L585.6482333333333,76.76324558258064L598.3797166666667,76.76324558258064L611.1112,76.76324558258064L623.8426833333333,76.76324558258064L636.5741666666667,76.76324558258064L649.30565,76.76324558258064L662.0371333333334,76.76324558258064L674.7686166666666,76.76324558258064L687.5001,76.76324558258064" style="fill: none;" fill="none"></path></g><g><path stroke="rgb(0, 119, 187)" stroke-width="2px" d="M76.3889,398.29830837249733L89.12038333333334,357.2699160575865L101.85186666666667,323.79952383041365L114.58335,292.4883098602294L127.31483333333333,291.40884590148914L140.04631666666666,286.0102744102477L152.7778,274.13366746902454L165.50928333333334,279.532238960266L178.24076666666667,290.32913160324085L190.97225,280.61170291900623L203.70373333333333,281.6914172172545L216.43521666666666,274.13366746902454L229.1667,270.89452457427967L241.89818333333332,276.2930960655211L254.62966666666665,283.8508458137511L267.36115,280.61170291900623L280.0926333333333,279.532238960266L292.82411666666667,279.532238960266L305.5556,276.2930960655211L318.2870833333333,276.2930960655211L331.0185666666667,276.2930960655211L343.75005,278.4525246620177L356.48153333333335,278.4525246620177L369.21301666666665,278.4525246620177L381.9445,278.4525246620177L394.67598333333336,278.4525246620177L407.40746666666666,278.4525246620177L420.13895,278.4525246620177L432.8704333333333,278.4525246620177L445.6019166666667,278.4525246620177L458.3334,278.4525246620177L471.06488333333334,278.4525246620177L483.79636666666664,278.4525246620177L496.52785,278.4525246620177L509.2593333333333,278.4525246620177L521.9908166666667,278.4525246620177L534.7223,278.4525246620177L547.4537833333334,278.4525246620177L560.1852666666666,278.4525246620177L572.91675,278.4525246620177L585.6482333333333,278.4525246620177L598.3797166666667,278.4525246620177L611.1112,278.4525246620177L623.8426833333333,278.4525246620177L636.5741666666667,278.4525246620177L649.30565,278.4525246620177L662.0371333333334,278.4525246620177L674.7686166666666,278.4525246620177L687.5001,278.4525246620177" style="fill: none;" fill="none"></path></g><g><path stroke="rgb(204, 51, 17)" stroke-width="2px" d="M63.65741666666666,338.91527366638167L76.3889,289.2494173049925L89.12038333333334,238.50384664535517L101.85186666666667,220.1492042541503L114.58335,221.22866821289057L127.31483333333333,207.19288301467887L140.04631666666666,194.23656177520746L152.7778,169.4036335945129L165.50928333333334,175.8816690444946L178.24076666666667,183.43966913223264L190.97225,178.04109764099115L203.70373333333333,179.1208119392395L216.43521666666666,179.1208119392395L229.1667,181.28024053573606L241.89818333333332,180.2005262374878L254.62966666666665,179.1208119392395L267.36115,179.1208119392395L280.0926333333333,176.9613833427429L292.82411666666667,173.72224044799802L305.5556,174.8019547462463L318.2870833333333,174.8019547462463L331.0185666666667,176.9613833427429L343.75005,176.9613833427429L356.48153333333335,175.8816690444946L369.21301666666665,175.8816690444946L381.9445,173.72224044799802L394.67598333333336,173.72224044799802L407.40746666666666,173.72224044799802L420.13895,173.72224044799802L432.8704333333333,173.72224044799802L445.6019166666667,173.72224044799802L458.3334,173.72224044799802L471.06488333333334,173.72224044799802L483.79636666666664,173.72224044799802L496.52785,173.72224044799802L509.2593333333333,173.72224044799802L521.9908166666667,173.72224044799802L534.7223,173.72224044799802L547.4537833333334,173.72224044799802L560.1852666666666,173.72224044799802L572.91675,173.72224044799802L585.6482333333333,173.72224044799802L598.3797166666667,173.72224044799802L611.1112,173.72224044799802L623.8426833333333,173.72224044799802L636.5741666666667,173.72224044799802L649.30565,173.72224044799802L662.0371333333334,173.72224044799802L674.7686166666666,173.72224044799802L687.5001,173.72224044799802" style="fill: none;" fill="none"></path></g><g><path stroke="rgb(51, 187, 238)" stroke-width="2px" d="M63.65741666666666,405.810496330261L76.3889,280.09475183486927L89.12038333333334,224.34264135360715L101.85186666666667,188.26746654510495L114.58335,171.86997842788696L127.31483333333333,157.65845489501953L140.04631666666666,156.56522226333615L152.7778,160.93815279006958L165.50928333333334,155.4722399711609L178.24076666666667,137.98126888275146L190.97225,140.16773414611816L203.70373333333333,132.51535606384277L216.43521666666666,135.79480361938477L229.1667,135.79480361938477L241.89818333333332,136.88803625106812L254.62966666666665,140.16773414611816L267.36115,135.79480361938477L280.0926333333333,133.60858869552612L292.82411666666667,135.79480361938477L305.5556,134.70182132720947L318.2870833333333,133.60858869552612L331.0185666666667,134.70182132720947L343.75005,135.79480361938477L356.48153333333335,135.79480361938477L369.21301666666665,135.79480361938477L381.9445,135.79480361938477L394.67598333333336,135.79480361938477L407.40746666666666,135.79480361938477L420.13895,135.79480361938477L432.8704333333333,135.79480361938477L445.6019166666667,134.70182132720947L458.3334,134.70182132720947L471.06488333333334,134.70182132720947L483.79636666666664,134.70182132720947L496.52785,134.70182132720947L509.2593333333333,134.70182132720947L521.9908166666667,134.70182132720947L534.7223,134.70182132720947L547.4537833333334,134.70182132720947L560.1852666666666,134.70182132720947L572.91675,134.70182132720947L585.6482333333333,134.70182132720947L598.3797166666667,134.70182132720947L611.1112,134.70182132720947L623.8426833333333,134.70182132720947L636.5741666666667,134.70182132720947L649.30565,134.70182132720947L662.0371333333334,134.70182132720947L674.7686166666666,134.70182132720947L687.5001,134.70182132720947" style="fill: none;" fill="none"></path></g><g><path stroke="rgb(238, 51, 119)" stroke-width="2px" d="M63.65741666666666,484.5194907188412L76.3889,293.2127923965453L89.12038333333334,194.826611995697L101.85186666666667,178.42887353897092L114.58335,158.75168752670288L127.31483333333333,144.5404143333435L140.04631666666666,152.19254207611084L152.7778,132.51535606384277L165.50928333333334,131.42212343215942L178.24076666666667,134.70182132720947L190.97225,120.49029779434204L203.70373333333333,125.95621061325073L216.43521666666666,128.14267587661746L229.1667,121.58353042602543L241.89818333333332,124.8629779815674L254.62966666666665,120.49029779434204L267.36115,120.49029779434204L280.0926333333333,120.49029779434204L292.82411666666667,119.3970651626587L305.5556,122.67676305770878L318.2870833333333,120.49029779434204L331.0185666666667,121.58353042602543L343.75005,121.58353042602543L356.48153333333335,120.49029779434204L369.21301666666665,119.3970651626587L381.9445,120.49029779434204L394.67598333333336,120.49029779434204L407.40746666666666,120.49029779434204L420.13895,120.49029779434204L432.8704333333333,120.49029779434204L445.6019166666667,120.49029779434204L458.3334,120.49029779434204L471.06488333333334,120.49029779434204L483.79636666666664,120.49029779434204L496.52785,120.49029779434204L509.2593333333333,120.49029779434204L521.9908166666667,120.49029779434204L534.7223,120.49029779434204L547.4537833333334,120.49029779434204L560.1852666666666,120.49029779434204L572.91675,120.49029779434204L585.6482333333333,120.49029779434204L598.3797166666667,120.49029779434204L611.1112,120.49029779434204L623.8426833333333,120.49029779434204L636.5741666666667,120.49029779434204L649.30565,120.49029779434204L662.0371333333334,120.49029779434204L674.7686166666666,120.49029779434204L687.5001,120.49029779434204" style="fill: none;" fill="none"></path></g><g><path stroke="rgb(0, 153, 136)" stroke-width="2px" d="M63.65741666666666,425.487682342529L76.3889,292.11981010436995L89.12038333333334,193.73337936401362L101.85186666666667,153.2857747077942L114.58335,140.16773414611816L127.31483333333333,134.70182132720947L140.04631666666666,109.5584721565247L152.7778,111.7449374198914L165.50928333333334,107.37225723266604L178.24076666666667,100.81311178207402L190.97225,94.25396633148198L203.70373333333333,100.81311178207402L216.43521666666666,98.62664651870732L229.1667,97.53366422653201L241.89818333333332,95.34719896316533L254.62966666666665,92.06775140762332L267.36115,95.34719896316533L280.0926333333333,96.44043159484866L292.82411666666667,96.44043159484866L305.5556,96.44043159484866L318.2870833333333,95.34719896316533L331.0185666666667,94.25396633148198L343.75005,94.25396633148198L356.48153333333335,94.25396633148198L369.21301666666665,95.34719896316533L381.9445,95.34719896316533L394.67598333333336,95.34719896316533L407.40746666666666,95.34719896316533L420.13895,95.34719896316533L432.8704333333333,95.34719896316533L445.6019166666667,95.34719896316533L458.3334,95.34719896316533L471.06488333333334,95.34719896316533L483.79636666666664,95.34719896316533L496.52785,95.34719896316533L509.2593333333333,95.34719896316533L521.9908166666667,95.34719896316533L534.7223,95.34719896316533L547.4537833333334,95.34719896316533L560.1852666666666,95.34719896316533L572.91675,95.34719896316533L585.6482333333333,95.34719896316533L598.3797166666667,95.34719896316533L611.1112,95.34719896316533L623.8426833333333,95.34719896316533L636.5741666666667,95.34719896316533L649.30565,95.34719896316533L662.0371333333334,95.34719896316533L674.7686166666666,95.34719896316533L687.5001,95.34719896316533" style="fill: none;" fill="none"></path></g></g></g></g></g></g><g transform="translate(50, 378)" clip-path="url(#clip_1)"><clipPath id="clip_1"><rect width="763" height="21"></rect></clipPath><g><g><line x1="0" y1="0" x2="0" y2="5" style="visibility: inherit;" fill="rgb(0, 0, 0)" stroke="rgb(204, 204, 204)" stroke-width="1px"></line><line x1="63.65741666666666" y1="0" x2="63.65741666666666" y2="5" style="visibility: inherit;" fill="rgb(0, 0, 0)" stroke="rgb(204, 204, 204)" stroke-width="1px"></line><line x1="127.31483333333333" y1="0" x2="127.31483333333333" y2="5" style="visibility: inherit;" fill="rgb(0, 0, 0)" stroke="rgb(204, 204, 204)" stroke-width="1px"></line><line x1="190.97225" y1="0" x2="190.97225" y2="5" style="visibility: inherit;" fill="rgb(0, 0, 0)" stroke="rgb(204, 204, 204)" stroke-width="1px"></line><line x1="254.62966666666665" y1="0" x2="254.62966666666665" y2="5" style="visibility: inherit;" fill="rgb(0, 0, 0)" stroke="rgb(204, 204, 204)" stroke-width="1px"></line><line x1="318.2870833333333" y1="0" x2="318.2870833333333" y2="5" style="visibility: inherit;" fill="rgb(0, 0, 0)" stroke="rgb(204, 204, 204)" stroke-width="1px"></line><line x1="381.9445" y1="0" x2="381.9445" y2="5" style="visibility: inherit;" fill="rgb(0, 0, 0)" stroke="rgb(204, 204, 204)" stroke-width="1px"></line><line x1="445.6019166666667" y1="0" x2="445.6019166666667" y2="5" style="visibility: inherit;" fill="rgb(0, 0, 0)" stroke="rgb(204, 204, 204)" stroke-width="1px"></line><line x1="509.2593333333333" y1="0" x2="509.2593333333333" y2="5" style="visibility: inherit;" fill="rgb(0, 0, 0)" stroke="rgb(204, 204, 204)" stroke-width="1px"></line><line x1="572.91675" y1="0" x2="572.91675" y2="5" style="visibility: inherit;" fill="rgb(0, 0, 0)" stroke="rgb(204, 204, 204)" stroke-width="1px"></line><line x1="636.5741666666667" y1="0" x2="636.5741666666667" y2="5" style="visibility: inherit;" fill="rgb(0, 0, 0)" stroke="rgb(204, 204, 204)" stroke-width="1px"></line><line x1="700.2315833333333" y1="0" x2="700.2315833333333" y2="5" style="visibility: inherit;" fill="rgb(0, 0, 0)" stroke="rgb(204, 204, 204)" stroke-width="1px"></line><line x1="763.889" y1="0" x2="763.889" y2="5" style="visibility: inherit;" fill="rgb(0, 0, 0)" stroke="rgb(204, 204, 204)" stroke-width="1px"></line></g><g transform="translate(0, 8)"><text x="0" y="0" dx="0em" dy="0.95em" style="text-anchor: middle; visibility: hidden; font-family: Roboto, sans-serif; font-size: 12px; font-weight: 200;" fill="rgb(50, 49, 63)" stroke="none" stroke-width="1px">-5</text><text x="63.65741666666666" y="0" dx="0em" dy="0.95em" style="text-anchor: middle; visibility: inherit; font-family: Roboto, sans-serif; font-size: 12px; font-weight: 200;" fill="rgb(50, 49, 63)" stroke="none" stroke-width="1px">0</text><text x="127.31483333333333" y="0" dx="0em" dy="0.95em" style="text-anchor: middle; visibility: inherit; font-family: Roboto, sans-serif; font-size: 12px; font-weight: 200;" fill="rgb(50, 49, 63)" stroke="none" stroke-width="1px">5</text><text x="190.97225" y="0" dx="0em" dy="0.95em" style="text-anchor: middle; visibility: inherit; font-family: Roboto, sans-serif; font-size: 12px; font-weight: 200;" fill="rgb(50, 49, 63)" stroke="none" stroke-width="1px">10</text><text x="254.62966666666665" y="0" dx="0em" dy="0.95em" style="text-anchor: middle; visibility: inherit; font-family: Roboto, sans-serif; font-size: 12px; font-weight: 200;" fill="rgb(50, 49, 63)" stroke="none" stroke-width="1px">15</text><text x="318.2870833333333" y="0" dx="0em" dy="0.95em" style="text-anchor: middle; visibility: inherit; font-family: Roboto, sans-serif; font-size: 12px; font-weight: 200;" fill="rgb(50, 49, 63)" stroke="none" stroke-width="1px">20</text><text x="381.9445" y="0" dx="0em" dy="0.95em" style="text-anchor: middle; visibility: inherit; font-family: Roboto, sans-serif; font-size: 12px; font-weight: 200;" fill="rgb(50, 49, 63)" stroke="none" stroke-width="1px">25</text><text x="445.6019166666667" y="0" dx="0em" dy="0.95em" style="text-anchor: middle; visibility: inherit; font-family: Roboto, sans-serif; font-size: 12px; font-weight: 200;" fill="rgb(50, 49, 63)" stroke="none" stroke-width="1px">30</text><text x="509.2593333333333" y="0" dx="0em" dy="0.95em" style="text-anchor: middle; visibility: inherit; font-family: Roboto, sans-serif; font-size: 12px; font-weight: 200;" fill="rgb(50, 49, 63)" stroke="none" stroke-width="1px">35</text><text x="572.91675" y="0" dx="0em" dy="0.95em" style="text-anchor: middle; visibility: inherit; font-family: Roboto, sans-serif; font-size: 12px; font-weight: 200;" fill="rgb(50, 49, 63)" stroke="none" stroke-width="1px">40</text><text x="636.5741666666667" y="0" dx="0em" dy="0.95em" style="text-anchor: middle; visibility: inherit; font-family: Roboto, sans-serif; font-size: 12px; font-weight: 200;" fill="rgb(50, 49, 63)" stroke="none" stroke-width="1px">45</text><text x="700.2315833333333" y="0" dx="0em" dy="0.95em" style="text-anchor: middle; visibility: inherit; font-family: Roboto, sans-serif; font-size: 12px; font-weight: 200;" fill="rgb(50, 49, 63)" stroke="none" stroke-width="1px">50</text><text x="763.889" y="0" dx="0em" dy="0.95em" style="text-anchor: middle; visibility: hidden; font-family: Roboto, sans-serif; font-size: 12px; font-weight: 200;" fill="rgb(50, 49, 63)" stroke="none" stroke-width="1px">55</text></g><line x1="0" y1="0" x2="763.889" y2="0" fill="rgb(0, 0, 0)" stroke="rgb(204, 204, 204)" stroke-width="1px"></line></g></g></g></g></svg>