<svg viewBox="0 0 725.0000610351562 400.0000305175781" xmlns="http://www.w3.org/2000/svg"><g><g><g><g><g><line x1="50" y1="378" x2="45" y2="378" style="visibility: inherit;" fill="rgb(0, 0, 0)" stroke="rgb(204, 204, 204)" stroke-width="1px"></line><line x1="50" y1="340.20000000000005" x2="45" y2="340.20000000000005" style="visibility: inherit;" fill="rgb(0, 0, 0)" stroke="rgb(204, 204, 204)" stroke-width="1px"></line><line x1="50" y1="302.40000000000003" x2="45" y2="302.40000000000003" style="visibility: inherit;" fill="rgb(0, 0, 0)" stroke="rgb(204, 204, 204)" stroke-width="1px"></line><line x1="50" y1="264.59999999999997" x2="45" y2="264.59999999999997" style="visibility: inherit;" fill="rgb(0, 0, 0)" stroke="rgb(204, 204, 204)" stroke-width="1px"></line><line x1="50" y1="226.79999999999995" x2="45" y2="226.79999999999995" style="visibility: inherit;" fill="rgb(0, 0, 0)" stroke="rgb(204, 204, 204)" stroke-width="1px"></line><line x1="50" y1="188.99999999999997" x2="45" y2="188.99999999999997" style="visibility: inherit;" fill="rgb(0, 0, 0)" stroke="rgb(204, 204, 204)" stroke-width="1px"></line><line x1="50" y1="151.20000000000013" x2="45" y2="151.20000000000013" style="visibility: inherit;" fill="rgb(0, 0, 0)" stroke="rgb(204, 204, 204)" stroke-width="1px"></line><line x1="50" y1="113.4000000000001" x2="45" y2="113.4000000000001" style="visibility: inherit;" fill="rgb(0, 0, 0)" stroke="rgb(204, 204, 204)" stroke-width="1px"></line><line x1="50" y1="75.60000000000007" x2="45" y2="75.60000000000007" style="visibility: inherit;" fill="rgb(0, 0, 0)" stroke="rgb(204, 204, 204)" stroke-width="1px"></line><line x1="50" y1="37.80000000000003" x2="45" y2="37.80000000000003" style="visibility: inherit;" fill="rgb(0, 0, 0)" stroke="rgb(204, 204, 204)" stroke-width="1px"></line><line x1="50" y1="0" x2="45" y2="0" style="visibility: inherit;" fill="rgb(0, 0, 0)" stroke="rgb(204, 204, 204)" stroke-width="1px"></line></g><g transform="translate(40, 0)"><text x="0" y="378" dx="0em" dy="0.3em" style="text-anchor: end; visibility: hidden; font-family: Roboto, sans-serif; font-size: 12px; font-weight: 200;" fill="rgb(50, 49, 63)" stroke="none" stroke-width="1px">0.23</text><text x="0" y="340.20000000000005" dx="0em" dy="0.3em" style="text-anchor: end; visibility: inherit; font-family: Roboto, sans-serif; font-size: 12px; font-weight: 200;" fill="rgb(50, 49, 63)" stroke="none" stroke-width="1px">0.24</text><text x="0" y="302.40000000000003" dx="0em" dy="0.3em" style="text-anchor: end; visibility: inherit; font-family: Roboto, sans-serif; font-size: 12px; font-weight: 200;" fill="rgb(50, 49, 63)" stroke="none" stroke-width="1px">0.25</text><text x="0" y="264.59999999999997" dx="0em" dy="0.3em" style="text-anchor: end; visibility: inherit; font-family: Roboto, sans-serif; font-size: 12px; font-weight: 200;" fill="rgb(50, 49, 63)" stroke="none" stroke-width="1px">0.26</text><text x="0" y="226.79999999999995" dx="0em" dy="0.3em" style="text-anchor: end; visibility: inherit; font-family: Roboto, sans-serif; font-size: 12px; font-weight: 200;" fill="rgb(50, 49, 63)" stroke="none" stroke-width="1px">0.27</text><text x="0" y="188.99999999999997" dx="0em" dy="0.3em" style="text-anchor: end; visibility: inherit; font-family: Roboto, sans-serif; font-size: 12px; font-weight: 200;" fill="rgb(50, 49, 63)" stroke="none" stroke-width="1px">0.28</text><text x="0" y="151.20000000000013" dx="0em" dy="0.3em" style="text-anchor: end; visibility: inherit; font-family: Roboto, sans-serif; font-size: 12px; font-weight: 200;" fill="rgb(50, 49, 63)" stroke="none" stroke-width="1px">0.29</text><text x="0" y="113.4000000000001" dx="0em" dy="0.3em" style="text-anchor: end; visibility: inherit; font-family: Roboto, sans-serif; font-size: 12px; font-weight: 200;" fill="rgb(50, 49, 63)" stroke="none" stroke-width="1px">0.3</text><text x="0" y="75.60000000000007" dx="0em" dy="0.3em" style="text-anchor: end; visibility: inherit; font-family: Roboto, sans-serif; font-size: 12px; font-weight: 200;" fill="rgb(50, 49, 63)" stroke="none" stroke-width="1px">0.31</text><text x="0" y="37.80000000000003" dx="0em" dy="0.3em" style="text-anchor: end; visibility: inherit; font-family: Roboto, sans-serif; font-size: 12px; font-weight: 200;" fill="rgb(50, 49, 63)" stroke="none" stroke-width="1px">0.32</text><text x="0" y="0" dx="0em" dy="0.3em" style="text-anchor: end; visibility: hidden; font-family: Roboto, sans-serif; font-size: 12px; font-weight: 200;" fill="rgb(50, 49, 63)" stroke="none" stroke-width="1px">0.33</text></g><line x1="50" y1="0" x2="50" y2="378" fill="rgb(0, 0, 0)" stroke="rgb(204, 204, 204)" stroke-width="1px"></line></g></g><g transform="translate(50, 0)" clip-path="url(#clip_0)"><clipPath id="clip_0"><rect width="675" height="377"></rect></clipPath><g><g><g><line x1="0" y1="0" x2="0" y2="378" fill="rgb(0, 0, 0)" stroke="rgb(60, 60, 60)" stroke-width="1px" opacity="0.25"></line><line x1="56.25" y1="0" x2="56.25" y2="378" fill="rgb(0, 0, 0)" stroke="rgb(60, 60, 60)" stroke-width="1px" opacity="0.25"></line><line x1="112.5" y1="0" x2="112.5" y2="378" fill="rgb(0, 0, 0)" stroke="rgb(60, 60, 60)" stroke-width="1px" opacity="0.25"></line><line x1="168.75" y1="0" x2="168.75" y2="378" fill="rgb(0, 0, 0)" stroke="rgb(60, 60, 60)" stroke-width="1px" opacity="0.25"></line><line x1="225" y1="0" x2="225" y2="378" fill="rgb(0, 0, 0)" stroke="rgb(60, 60, 60)" stroke-width="1px" opacity="0.25"></line><line x1="281.25" y1="0" x2="281.25" y2="378" fill="rgb(0, 0, 0)" stroke="rgb(60, 60, 60)" stroke-width="1px" opacity="0.25"></line><line x1="337.5" y1="0" x2="337.5" y2="378" fill="rgb(0, 0, 0)" stroke="rgb(60, 60, 60)" stroke-width="1px" opacity="0.25"></line><line x1="393.75" y1="0" x2="393.75" y2="378" fill="rgb(0, 0, 0)" stroke="rgb(60, 60, 60)" stroke-width="1px" opacity="0.25"></line><line x1="450" y1="0" x2="450" y2="378" fill="rgb(0, 0, 0)" stroke="rgb(60, 60, 60)" stroke-width="1px" opacity="0.25"></line><line x1="506.25" y1="0" x2="506.25" y2="378" fill="rgb(0, 0, 0)" stroke="rgb(60, 60, 60)" stroke-width="1px" opacity="0.25"></line><line x1="562.5" y1="0" x2="562.5" y2="378" fill="rgb(0, 0, 0)" stroke="rgb(60, 60, 60)" stroke-width="1px" opacity="0.25"></line><line x1="618.75" y1="0" x2="618.75" y2="378" fill="rgb(0, 0, 0)" stroke="rgb(60, 60, 60)" stroke-width="1px" opacity="0.25"></line><line x1="675" y1="0" x2="675" y2="378" fill="rgb(0, 0, 0)" stroke="rgb(60, 60, 60)" stroke-width="1px" opacity="0.25"></line></g><g><line x1="0" y1="378" x2="675" y2="378" fill="rgb(0, 0, 0)" stroke="rgb(60, 60, 60)" stroke-width="1px" opacity="0.25"></line><line x1="0" y1="340.20000000000005" x2="675" y2="340.20000000000005" fill="rgb(0, 0, 0)" stroke="rgb(60, 60, 60)" stroke-width="1px" opacity="0.25"></line><line x1="0" y1="302.40000000000003" x2="675" y2="302.40000000000003" fill="rgb(0, 0, 0)" stroke="rgb(60, 60, 60)" stroke-width="1px" opacity="0.25"></line><line x1="0" y1="264.59999999999997" x2="675" y2="264.59999999999997" fill="rgb(0, 0, 0)" stroke="rgb(60, 60, 60)" stroke-width="1px" opacity="0.25"></line><line x1="0" y1="226.79999999999995" x2="675" y2="226.79999999999995" fill="rgb(0, 0, 0)" stroke="rgb(60, 60, 60)" stroke-width="1px" opacity="0.25"></line><line x1="0" y1="188.99999999999997" x2="675" y2="188.99999999999997" fill="rgb(0, 0, 0)" stroke="rgb(60, 60, 60)" stroke-width="1px" opacity="0.25"></line><line x1="0" y1="151.20000000000013" x2="675" y2="151.20000000000013" fill="rgb(0, 0, 0)" stroke="rgb(60, 60, 60)" stroke-width="1px" opacity="0.25"></line><line x1="0" y1="113.4000000000001" x2="675" y2="113.4000000000001" fill="rgb(0, 0, 0)" stroke="rgb(60, 60, 60)" stroke-width="1px" opacity="0.25"></line><line x1="0" y1="75.60000000000007" x2="675" y2="75.60000000000007" fill="rgb(0, 0, 0)" stroke="rgb(60, 60, 60)" stroke-width="1px" opacity="0.25"></line><line x1="0" y1="37.80000000000003" x2="675" y2="37.80000000000003" fill="rgb(0, 0, 0)" stroke="rgb(60, 60, 60)" stroke-width="1px" opacity="0.25"></line><line x1="0" y1="0" x2="675" y2="0" fill="rgb(0, 0, 0)" stroke="rgb(60, 60, 60)" stroke-width="1px" opacity="0.25"></line></g></g></g><g><g><line x1="0" y1="1247.3999999999999" x2="675" y2="1247.3999999999999" fill="rgb(0, 0, 0)" stroke="rgb(153, 153, 153)" stroke-width="1.5px"></line></g></g><g><g><line x1="56.25" y1="0" x2="56.25" y2="378" fill="rgb(0, 0, 0)" stroke="rgb(153, 153, 153)" stroke-width="1.5px"></line></g></g><g><g><g><g><g><path stroke="rgb(0, 119, 187)" stroke-width="2px" d="M56.25,-119.87206885814656L67.5,67.74831762313849L78.75,143.24223926067359L90,204.7107773065567L101.25,234.7259836435318L112.5,258.1163053750992L123.74999999999999,261.8497311115265L135,270.79638948440555L146.25,267.2612326383591L157.5,267.1352868318558L168.75,266.4108168125153L180,269.0946566104889L191.25,269.8216049909592L202.5,271.32146408557895L213.75,271.52953376770023L225,271.5909295320511L236.24999999999997,271.7849176168442L247.49999999999997,271.97946896553043L258.75,272.01191296577457L270,271.9935505628586L281.25,272.0014362573624L292.5,272.00515379905704L303.75,272.0112370491028L315,272.018108868599L326.25,272.0209251880646L337.5,272.0243047714234L348.75000000000006,272.0245300769806L360,272.02509334087375L371.25000000000006,272.0252059936524L382.5,272.02543129920963L393.75,272.025318646431L405,272.025318646431L416.25,272.025318646431L427.5,272.025318646431L438.75,272.025318646431L450,272.025318646431L461.25,272.025318646431L472.49999999999994,272.025318646431L483.75,272.025318646431L494.99999999999994,272.025318646431L506.25,272.025318646431L517.5,272.025318646431L528.75,272.025318646431L540,272.025318646431L551.25,272.025318646431L562.5,272.025318646431L573.75,272.025318646431L585,272.025318646431L596.25,272.025318646431L607.5,272.025318646431" style="fill: none;" fill="none"></path></g><g><path stroke="rgb(0, 153, 136)" stroke-width="2px" d="M56.25,-177.37173686027518L67.5,54.432083272934015L78.75,121.75439765453345L90,184.9995826721192L101.25,175.70020844936377L112.5,210.81836035251618L123.74999999999999,230.0529210805893L135,244.83679583072663L146.25,237.7914910554886L157.5,245.88919808864594L168.75,254.5160352230072L180,239.7578453063965L191.25,250.94584336280823L202.5,254.66045608520508L213.75,250.4511850118637L225,251.671439909935L236.24999999999997,253.10933997631074L247.49999999999997,252.45741834640503L258.75,252.50169088840485L270,254.0677898168564L281.25,254.11792030334473L292.5,254.5951174736023L303.75,254.90705301761628L315,254.57957139015198L326.25,254.55659022331238L337.5,254.62992718219758L348.75000000000006,254.5407061815262L360,254.54487433433533L371.25000000000006,254.53653802871705L382.5,254.61257865428925L393.75,254.60187664031983L405,254.61438109874726L416.25,254.60469295978547L427.5,254.60581948757172L438.75,254.59568073749543L450,254.59038605690003L461.25,254.60198929309846L472.49999999999994,254.6052562236786L483.75,254.61156477928162L494.99999999999994,254.61269130706788L506.25,254.6158455848694L517.5,254.6167468070984L528.75,254.61776068210602L540,254.61787333488465L551.25,254.6180986404419L562.5,254.61821129322053L573.75,254.61832394599915L585,254.61832394599915L596.25,254.6185492515564L607.5,254.61832394599915" style="fill: none;" fill="none"></path></g><g><path stroke="rgb(51, 187, 238)" stroke-width="2px" d="M56.25,-237.47379670143118L67.5,121.95154001712805L78.75,199.95795657634736L90,230.5656038761139L101.25,257.4116622447968L112.5,266.68951978683475L123.74999999999999,271.55533125400547L135,271.9217907428742L146.25,273.7247984647751L157.5,274.19219484329227L168.75,273.8634740352631L180,273.80759825706485L191.25,273.94954075813297L202.5,273.9992206335068L213.75,274.02772178649906L225,274.0385364532471L236.24999999999997,274.037071967125L247.49999999999997,274.0403388977051L258.75,274.04101481437687L270,274.0412401199341L281.25,274.04146542549137L292.5,274.04157807827L303.75,274.04157807827L315,274.04135277271274L326.25,274.04135277271274L337.5,274.04135277271274L348.75000000000006,274.04135277271274L360,274.04135277271274L371.25000000000006,274.04135277271274L382.5,274.04135277271274L393.75,274.04135277271274L405,274.04135277271274L416.25,274.04135277271274L427.5,274.04135277271274L438.75,274.04135277271274L450,274.04135277271274L461.25,274.04135277271274L472.49999999999994,274.04135277271274L483.75,274.04135277271274L494.99999999999994,274.04135277271274L506.25,274.04135277271274L517.5,274.04135277271274L528.75,274.04135277271274L540,274.04135277271274L551.25,274.04135277271274L562.5,274.04135277271274L573.75,274.04135277271274L585,274.04135277271274L596.25,274.04135277271274L607.5,274.04135277271274" style="fill: none;" fill="none"></path></g><g><path stroke="rgb(204, 51, 17)" stroke-width="2px" d="M56.25,-91.6881460905074L67.5,112.52599468231207L78.75,203.08452179431916L90,216.74919118881226L101.25,232.4767582654953L112.5,252.44243552684785L123.74999999999999,260.71745803356174L135,272.5676291227341L146.25,271.32765998840335L157.5,274.85369195938114L168.75,273.0172263622284L180,273.2059197664261L191.25,274.17484631538395L202.5,273.8696699380875L213.75,273.86685361862186L225,274.40026452541355L236.24999999999997,274.58411386013034L247.49999999999997,274.7515158891678L258.75,274.7363077640534L270,274.81347491741184L281.25,274.8151647090912L292.5,274.8367940425873L303.75,274.8481719732285L315,274.85808541774753L326.25,274.8636054039002L337.5,274.86428132057193L348.75000000000006,274.8649572372437L360,274.86529519557956L371.25000000000006,274.86518254280094L382.5,274.86518254280094L393.75,274.8654078483582L405,274.86529519557956L416.25,274.86529519557956L427.5,274.86529519557956L438.75,274.8654078483582L450,274.8654078483582L461.25,274.8654078483582L472.49999999999994,274.8654078483582L483.75,274.8654078483582L494.99999999999994,274.8654078483582L506.25,274.8654078483582L517.5,274.8654078483582L528.75,274.8654078483582L540,274.8654078483582L551.25,274.8654078483582L562.5,274.8654078483582L573.75,274.8654078483582L585,274.8654078483582L596.25,274.8654078483582L607.5,274.8654078483582" style="fill: none;" fill="none"></path></g><g><path stroke="rgb(238, 51, 119)" stroke-width="2px" d="M56.25,-190.42718002796164L67.5,181.80948128700263L78.75,237.61113395690919L90,246.8078814983368L101.25,292.1485971450806L112.5,289.8228805303574L123.74999999999999,294.2496841192246L135,294.0155916452408L146.25,294.7842215538025L157.5,295.27809133529666L168.75,295.0002895832062L180,295.4205971002579L191.25,295.4047130584717L202.5,295.34523239135746L213.75,295.3450070858002L225,295.34207811355594L236.24999999999997,295.3450070858002L247.49999999999997,295.3453450441361L258.75,295.34647157192234L270,295.3466968774796L281.25,295.3466968774796L292.5,295.3466968774796L303.75,295.3466968774796L315,295.3466968774796L326.25,295.3466968774796L337.5,295.3466968774796L348.75000000000006,295.3466968774796L360,295.3466968774796L371.25000000000006,295.3466968774796L382.5,295.3466968774796L393.75,295.3466968774796L405,295.3466968774796L416.25,295.3466968774796L427.5,295.3466968774796L438.75,295.3466968774796L450,295.3466968774796L461.25,295.3466968774796L472.49999999999994,295.3466968774796L483.75,295.3466968774796L494.99999999999994,295.3466968774796L506.25,295.3466968774796L517.5,295.3466968774796L528.75,295.3466968774796L540,295.3466968774796L551.25,295.3466968774796L562.5,295.3466968774796L573.75,295.3466968774796L585,295.3466968774796L596.25,295.3466968774796L607.5,295.3466968774796" style="fill: none;" fill="none"></path></g><g><path stroke="rgb(187, 187, 187)" stroke-width="2px" d="M56.25,-135.3219468355178L67.5,11.121370697021543L78.75,81.87103321552283L90,123.69450380802161L101.25,162.93259313106543L112.5,205.3388165473938L123.74999999999999,204.8327802658081L135,219.86865928173066L146.25,224.70957448482514L157.5,230.5713491678238L168.75,226.47484352588654L180,221.41436805725098L191.25,229.33442165851594L202.5,232.34979858398438L213.75,230.47210206985474L225,228.11067452430726L236.24999999999997,232.1054547071457L247.49999999999997,233.14219822883607L258.75,232.9186951160431L270,234.03722455501557L281.25,232.5810747385025L292.5,232.17191984653473L303.75,232.0383136510849L315,232.02141573429108L326.25,232.0360605955124L337.5,232.35351612567902L348.75000000000006,232.1509664297104L360,232.1093975543976L371.25000000000006,232.18960633277894L382.5,232.32636680603028L393.75,232.3366182088852L405,232.29583790302277L416.25,232.29978075027466L427.5,232.2672240972519L438.75,232.23928620815278L450,232.23466744422913L461.25,232.24852373600007L472.49999999999994,232.25787391662598L483.75,232.26328125L494.99999999999994,232.2658722639084L506.25,232.26699879169465L517.5,232.2676747083664L528.75,232.26711144447327L540,232.2676747083664L551.25,232.26744940280915L562.5,232.26756205558777L573.75,232.26744940280915L585,232.26744940280915L596.25,232.26744940280915L607.5,232.26733675003052" style="fill: none;" fill="none"></path></g><g><path stroke="rgb(255, 112, 67)" stroke-width="2px" d="M67.5,-75.27317175865163L78.75,72.06291904449469L90,205.16713371276856L101.25,223.7657695055008L112.5,216.15731348991395L123.74999999999999,238.78914406299592L135,242.1763878107071L146.25,242.26222922801972L157.5,233.03821971416474L168.75,243.12436094284058L180,243.9549498796463L191.25,245.77417960166932L202.5,244.04676189422608L213.75,243.40531697273255L225,243.93951644897462L236.24999999999997,244.8132513999939L247.49999999999997,246.7667632341385L258.75,244.21472718715668L270,243.78056337833405L281.25,244.76627519130707L292.5,244.4984995365143L303.75,244.73799934387208L315,244.8433296918869L326.25,244.75568583011628L337.5,244.84670927524567L348.75000000000006,244.70837166309357L360,244.78576412200928L371.25000000000006,244.7243683576584L382.5,244.7164826631546L393.75,244.6549742460251L405,244.6223049402237L416.25,244.60270335674286L427.5,244.59515562057496L438.75,244.60337927341462L450,244.60270335674286L461.25,244.60123887062073L472.49999999999994,244.602365398407L483.75,244.604167842865L494.99999999999994,244.60709681510926L506.25,244.60889925956727L517.5,244.60923721790314L528.75,244.60957517623902L540,244.60980048179627L551.25,244.60980048179627L562.5,244.61013844013215L573.75,244.61013844013215L585,244.61002578735352L596.25,244.61002578735352L607.5,244.6099131345749" style="fill: none;" fill="none"></path></g></g></g></g></g><g><g><span fill="rgb(0, 0, 0)" stroke="none" stroke-width="1px">Alt + Scroll to Zoom</span></g></g></g><g transform="translate(50, 378)" clip-path="url(#clip_1)"><clipPath id="clip_1"><rect width="675" height="21"></rect></clipPath><g><g><line x1="0" y1="0" x2="0" y2="5" style="visibility: inherit;" fill="rgb(0, 0, 0)" stroke="rgb(204, 204, 204)" stroke-width="1px"></line><line x1="56.25" y1="0" x2="56.25" y2="5" style="visibility: inherit;" fill="rgb(0, 0, 0)" stroke="rgb(204, 204, 204)" stroke-width="1px"></line><line x1="112.5" y1="0" x2="112.5" y2="5" style="visibility: inherit;" fill="rgb(0, 0, 0)" stroke="rgb(204, 204, 204)" stroke-width="1px"></line><line x1="168.75" y1="0" x2="168.75" y2="5" style="visibility: inherit;" fill="rgb(0, 0, 0)" stroke="rgb(204, 204, 204)" stroke-width="1px"></line><line x1="225" y1="0" x2="225" y2="5" style="visibility: inherit;" fill="rgb(0, 0, 0)" stroke="rgb(204, 204, 204)" stroke-width="1px"></line><line x1="281.25" y1="0" x2="281.25" y2="5" style="visibility: inherit;" fill="rgb(0, 0, 0)" stroke="rgb(204, 204, 204)" stroke-width="1px"></line><line x1="337.5" y1="0" x2="337.5" y2="5" style="visibility: inherit;" fill="rgb(0, 0, 0)" stroke="rgb(204, 204, 204)" stroke-width="1px"></line><line x1="393.75" y1="0" x2="393.75" y2="5" style="visibility: inherit;" fill="rgb(0, 0, 0)" stroke="rgb(204, 204, 204)" stroke-width="1px"></line><line x1="450" y1="0" x2="450" y2="5" style="visibility: inherit;" fill="rgb(0, 0, 0)" stroke="rgb(204, 204, 204)" stroke-width="1px"></line><line x1="506.25" y1="0" x2="506.25" y2="5" style="visibility: inherit;" fill="rgb(0, 0, 0)" stroke="rgb(204, 204, 204)" stroke-width="1px"></line><line x1="562.5" y1="0" x2="562.5" y2="5" style="visibility: inherit;" fill="rgb(0, 0, 0)" stroke="rgb(204, 204, 204)" stroke-width="1px"></line><line x1="618.75" y1="0" x2="618.75" y2="5" style="visibility: inherit;" fill="rgb(0, 0, 0)" stroke="rgb(204, 204, 204)" stroke-width="1px"></line><line x1="675" y1="0" x2="675" y2="5" style="visibility: inherit;" fill="rgb(0, 0, 0)" stroke="rgb(204, 204, 204)" stroke-width="1px"></line></g><g transform="translate(0, 8)"><text x="0" y="0" dx="0em" dy="0.95em" style="text-anchor: middle; visibility: hidden; font-family: Roboto, sans-serif; font-size: 12px; font-weight: 200;" fill="rgb(50, 49, 63)" stroke="none" stroke-width="1px">-5</text><text x="56.25" y="0" dx="0em" dy="0.95em" style="text-anchor: middle; visibility: inherit; font-family: Roboto, sans-serif; font-size: 12px; font-weight: 200;" fill="rgb(50, 49, 63)" stroke="none" stroke-width="1px">0</text><text x="112.5" y="0" dx="0em" dy="0.95em" style="text-anchor: middle; visibility: inherit; font-family: Roboto, sans-serif; font-size: 12px; font-weight: 200;" fill="rgb(50, 49, 63)" stroke="none" stroke-width="1px">5</text><text x="168.75" y="0" dx="0em" dy="0.95em" style="text-anchor: middle; visibility: inherit; font-family: Roboto, sans-serif; font-size: 12px; font-weight: 200;" fill="rgb(50, 49, 63)" stroke="none" stroke-width="1px">10</text><text x="225" y="0" dx="0em" dy="0.95em" style="text-anchor: middle; visibility: inherit; font-family: Roboto, sans-serif; font-size: 12px; font-weight: 200;" fill="rgb(50, 49, 63)" stroke="none" stroke-width="1px">15</text><text x="281.25" y="0" dx="0em" dy="0.95em" style="text-anchor: middle; visibility: inherit; font-family: Roboto, sans-serif; font-size: 12px; font-weight: 200;" fill="rgb(50, 49, 63)" stroke="none" stroke-width="1px">20</text><text x="337.5" y="0" dx="0em" dy="0.95em" style="text-anchor: middle; visibility: inherit; font-family: Roboto, sans-serif; font-size: 12px; font-weight: 200;" fill="rgb(50, 49, 63)" stroke="none" stroke-width="1px">25</text><text x="393.75" y="0" dx="0em" dy="0.95em" style="text-anchor: middle; visibility: inherit; font-family: Roboto, sans-serif; font-size: 12px; font-weight: 200;" fill="rgb(50, 49, 63)" stroke="none" stroke-width="1px">30</text><text x="450" y="0" dx="0em" dy="0.95em" style="text-anchor: middle; visibility: inherit; font-family: Roboto, sans-serif; font-size: 12px; font-weight: 200;" fill="rgb(50, 49, 63)" stroke="none" stroke-width="1px">35</text><text x="506.25" y="0" dx="0em" dy="0.95em" style="text-anchor: middle; visibility: inherit; font-family: Roboto, sans-serif; font-size: 12px; font-weight: 200;" fill="rgb(50, 49, 63)" stroke="none" stroke-width="1px">40</text><text x="562.5" y="0" dx="0em" dy="0.95em" style="text-anchor: middle; visibility: inherit; font-family: Roboto, sans-serif; font-size: 12px; font-weight: 200;" fill="rgb(50, 49, 63)" stroke="none" stroke-width="1px">45</text><text x="618.75" y="0" dx="0em" dy="0.95em" style="text-anchor: middle; visibility: inherit; font-family: Roboto, sans-serif; font-size: 12px; font-weight: 200;" fill="rgb(50, 49, 63)" stroke="none" stroke-width="1px">50</text><text x="675" y="0" dx="0em" dy="0.95em" style="text-anchor: middle; visibility: hidden; font-family: Roboto, sans-serif; font-size: 12px; font-weight: 200;" fill="rgb(50, 49, 63)" stroke="none" stroke-width="1px">55</text></g><line x1="0" y1="0" x2="675" y2="0" fill="rgb(0, 0, 0)" stroke="rgb(204, 204, 204)" stroke-width="1px"></line></g></g></g></g></svg>