<svg viewBox="0 0 813.888916015625 400.0000305175781" xmlns="http://www.w3.org/2000/svg"><g><g><g><g><g><line x1="50" y1="378" x2="45" y2="378" style="visibility: inherit;" fill="rgb(0, 0, 0)" stroke="rgb(204, 204, 204)" stroke-width="1px"></line><line x1="50" y1="343.6363636363637" x2="45" y2="343.6363636363637" style="visibility: inherit;" fill="rgb(0, 0, 0)" stroke="rgb(204, 204, 204)" stroke-width="1px"></line><line x1="50" y1="309.27272727272725" x2="45" y2="309.27272727272725" style="visibility: inherit;" fill="rgb(0, 0, 0)" stroke="rgb(204, 204, 204)" stroke-width="1px"></line><line x1="50" y1="274.9090909090909" x2="45" y2="274.9090909090909" style="visibility: inherit;" fill="rgb(0, 0, 0)" stroke="rgb(204, 204, 204)" stroke-width="1px"></line><line x1="50" y1="240.5454545454546" x2="45" y2="240.5454545454546" style="visibility: inherit;" fill="rgb(0, 0, 0)" stroke="rgb(204, 204, 204)" stroke-width="1px"></line><line x1="50" y1="206.18181818181816" x2="45" y2="206.18181818181816" style="visibility: inherit;" fill="rgb(0, 0, 0)" stroke="rgb(204, 204, 204)" stroke-width="1px"></line><line x1="50" y1="171.81818181818178" x2="45" y2="171.81818181818178" style="visibility: inherit;" fill="rgb(0, 0, 0)" stroke="rgb(204, 204, 204)" stroke-width="1px"></line><line x1="50" y1="137.4545454545455" x2="45" y2="137.4545454545455" style="visibility: inherit;" fill="rgb(0, 0, 0)" stroke="rgb(204, 204, 204)" stroke-width="1px"></line><line x1="50" y1="103.09090909090908" x2="45" y2="103.09090909090908" style="visibility: inherit;" fill="rgb(0, 0, 0)" stroke="rgb(204, 204, 204)" stroke-width="1px"></line><line x1="50" y1="68.7272727272727" x2="45" y2="68.7272727272727" style="visibility: inherit;" fill="rgb(0, 0, 0)" stroke="rgb(204, 204, 204)" stroke-width="1px"></line><line x1="50" y1="34.363636363636374" x2="45" y2="34.363636363636374" style="visibility: inherit;" fill="rgb(0, 0, 0)" stroke="rgb(204, 204, 204)" stroke-width="1px"></line><line x1="50" y1="0" x2="45" y2="0" style="visibility: inherit;" fill="rgb(0, 0, 0)" stroke="rgb(204, 204, 204)" stroke-width="1px"></line></g><g transform="translate(40, 0)"><text x="0" y="378" dx="0em" dy="0.3em" style="text-anchor: end; visibility: hidden; font-family: Roboto, sans-serif; font-size: 12px; font-weight: 200;" fill="rgb(50, 49, 63)" stroke="none" stroke-width="1px">0.22</text><text x="0" y="343.6363636363637" dx="0em" dy="0.3em" style="text-anchor: end; visibility: inherit; font-family: Roboto, sans-serif; font-size: 12px; font-weight: 200;" fill="rgb(50, 49, 63)" stroke="none" stroke-width="1px">0.24</text><text x="0" y="309.27272727272725" dx="0em" dy="0.3em" style="text-anchor: end; visibility: inherit; font-family: Roboto, sans-serif; font-size: 12px; font-weight: 200;" fill="rgb(50, 49, 63)" stroke="none" stroke-width="1px">0.26</text><text x="0" y="274.9090909090909" dx="0em" dy="0.3em" style="text-anchor: end; visibility: inherit; font-family: Roboto, sans-serif; font-size: 12px; font-weight: 200;" fill="rgb(50, 49, 63)" stroke="none" stroke-width="1px">0.28</text><text x="0" y="240.5454545454546" dx="0em" dy="0.3em" style="text-anchor: end; visibility: inherit; font-family: Roboto, sans-serif; font-size: 12px; font-weight: 200;" fill="rgb(50, 49, 63)" stroke="none" stroke-width="1px">0.3</text><text x="0" y="206.18181818181816" dx="0em" dy="0.3em" style="text-anchor: end; visibility: inherit; font-family: Roboto, sans-serif; font-size: 12px; font-weight: 200;" fill="rgb(50, 49, 63)" stroke="none" stroke-width="1px">0.32</text><text x="0" y="171.81818181818178" dx="0em" dy="0.3em" style="text-anchor: end; visibility: inherit; font-family: Roboto, sans-serif; font-size: 12px; font-weight: 200;" fill="rgb(50, 49, 63)" stroke="none" stroke-width="1px">0.34</text><text x="0" y="137.4545454545455" dx="0em" dy="0.3em" style="text-anchor: end; visibility: inherit; font-family: Roboto, sans-serif; font-size: 12px; font-weight: 200;" fill="rgb(50, 49, 63)" stroke="none" stroke-width="1px">0.36</text><text x="0" y="103.09090909090908" dx="0em" dy="0.3em" style="text-anchor: end; visibility: inherit; font-family: Roboto, sans-serif; font-size: 12px; font-weight: 200;" fill="rgb(50, 49, 63)" stroke="none" stroke-width="1px">0.38</text><text x="0" y="68.7272727272727" dx="0em" dy="0.3em" style="text-anchor: end; visibility: inherit; font-family: Roboto, sans-serif; font-size: 12px; font-weight: 200;" fill="rgb(50, 49, 63)" stroke="none" stroke-width="1px">0.4</text><text x="0" y="34.363636363636374" dx="0em" dy="0.3em" style="text-anchor: end; visibility: inherit; font-family: Roboto, sans-serif; font-size: 12px; font-weight: 200;" fill="rgb(50, 49, 63)" stroke="none" stroke-width="1px">0.42</text><text x="0" y="0" dx="0em" dy="0.3em" style="text-anchor: end; visibility: hidden; font-family: Roboto, sans-serif; font-size: 12px; font-weight: 200;" fill="rgb(50, 49, 63)" stroke="none" stroke-width="1px">0.44</text></g><line x1="50" y1="0" x2="50" y2="378" fill="rgb(0, 0, 0)" stroke="rgb(204, 204, 204)" stroke-width="1px"></line></g></g><g transform="translate(50, 0)" clip-path="url(#clip_0)"><clipPath id="clip_0"><rect width="763" height="377"></rect></clipPath><g><g><g><line x1="0" y1="0" x2="0" y2="378" fill="rgb(0, 0, 0)" stroke="rgb(60, 60, 60)" stroke-width="1px" opacity="0.25"></line><line x1="63.65741666666666" y1="0" x2="63.65741666666666" y2="378" fill="rgb(0, 0, 0)" stroke="rgb(60, 60, 60)" stroke-width="1px" opacity="0.25"></line><line x1="127.31483333333333" y1="0" x2="127.31483333333333" y2="378" fill="rgb(0, 0, 0)" stroke="rgb(60, 60, 60)" stroke-width="1px" opacity="0.25"></line><line x1="190.97225" y1="0" x2="190.97225" y2="378" fill="rgb(0, 0, 0)" stroke="rgb(60, 60, 60)" stroke-width="1px" opacity="0.25"></line><line x1="254.62966666666665" y1="0" x2="254.62966666666665" y2="378" fill="rgb(0, 0, 0)" stroke="rgb(60, 60, 60)" stroke-width="1px" opacity="0.25"></line><line x1="318.2870833333333" y1="0" x2="318.2870833333333" y2="378" fill="rgb(0, 0, 0)" stroke="rgb(60, 60, 60)" stroke-width="1px" opacity="0.25"></line><line x1="381.9445" y1="0" x2="381.9445" y2="378" fill="rgb(0, 0, 0)" stroke="rgb(60, 60, 60)" stroke-width="1px" opacity="0.25"></line><line x1="445.6019166666667" y1="0" x2="445.6019166666667" y2="378" fill="rgb(0, 0, 0)" stroke="rgb(60, 60, 60)" stroke-width="1px" opacity="0.25"></line><line x1="509.2593333333333" y1="0" x2="509.2593333333333" y2="378" fill="rgb(0, 0, 0)" stroke="rgb(60, 60, 60)" stroke-width="1px" opacity="0.25"></line><line x1="572.91675" y1="0" x2="572.91675" y2="378" fill="rgb(0, 0, 0)" stroke="rgb(60, 60, 60)" stroke-width="1px" opacity="0.25"></line><line x1="636.5741666666667" y1="0" x2="636.5741666666667" y2="378" fill="rgb(0, 0, 0)" stroke="rgb(60, 60, 60)" stroke-width="1px" opacity="0.25"></line><line x1="700.2315833333333" y1="0" x2="700.2315833333333" y2="378" fill="rgb(0, 0, 0)" stroke="rgb(60, 60, 60)" stroke-width="1px" opacity="0.25"></line><line x1="763.889" y1="0" x2="763.889" y2="378" fill="rgb(0, 0, 0)" stroke="rgb(60, 60, 60)" stroke-width="1px" opacity="0.25"></line></g><g><line x1="0" y1="378" x2="763.889" y2="378" fill="rgb(0, 0, 0)" stroke="rgb(60, 60, 60)" stroke-width="1px" opacity="0.25"></line><line x1="0" y1="343.6363636363637" x2="763.889" y2="343.6363636363637" fill="rgb(0, 0, 0)" stroke="rgb(60, 60, 60)" stroke-width="1px" opacity="0.25"></line><line x1="0" y1="309.27272727272725" x2="763.889" y2="309.27272727272725" fill="rgb(0, 0, 0)" stroke="rgb(60, 60, 60)" stroke-width="1px" opacity="0.25"></line><line x1="0" y1="274.9090909090909" x2="763.889" y2="274.9090909090909" fill="rgb(0, 0, 0)" stroke="rgb(60, 60, 60)" stroke-width="1px" opacity="0.25"></line><line x1="0" y1="240.5454545454546" x2="763.889" y2="240.5454545454546" fill="rgb(0, 0, 0)" stroke="rgb(60, 60, 60)" stroke-width="1px" opacity="0.25"></line><line x1="0" y1="206.18181818181816" x2="763.889" y2="206.18181818181816" fill="rgb(0, 0, 0)" stroke="rgb(60, 60, 60)" stroke-width="1px" opacity="0.25"></line><line x1="0" y1="171.81818181818178" x2="763.889" y2="171.81818181818178" fill="rgb(0, 0, 0)" stroke="rgb(60, 60, 60)" stroke-width="1px" opacity="0.25"></line><line x1="0" y1="137.4545454545455" x2="763.889" y2="137.4545454545455" fill="rgb(0, 0, 0)" stroke="rgb(60, 60, 60)" stroke-width="1px" opacity="0.25"></line><line x1="0" y1="103.09090909090908" x2="763.889" y2="103.09090909090908" fill="rgb(0, 0, 0)" stroke="rgb(60, 60, 60)" stroke-width="1px" opacity="0.25"></line><line x1="0" y1="68.7272727272727" x2="763.889" y2="68.7272727272727" fill="rgb(0, 0, 0)" stroke="rgb(60, 60, 60)" stroke-width="1px" opacity="0.25"></line><line x1="0" y1="34.363636363636374" x2="763.889" y2="34.363636363636374" fill="rgb(0, 0, 0)" stroke="rgb(60, 60, 60)" stroke-width="1px" opacity="0.25"></line><line x1="0" y1="0" x2="763.889" y2="0" fill="rgb(0, 0, 0)" stroke="rgb(60, 60, 60)" stroke-width="1px" opacity="0.25"></line></g></g></g><g><g><line x1="0" y1="756" x2="763.889" y2="756" fill="rgb(0, 0, 0)" stroke="rgb(153, 153, 153)" stroke-width="1.5px"></line></g></g><g><g><line x1="63.65741666666666" y1="0" x2="63.65741666666666" y2="378" fill="rgb(0, 0, 0)" stroke="rgb(153, 153, 153)" stroke-width="1.5px"></line></g></g><g><g><g><g><g><path stroke="rgb(255, 112, 67)" stroke-width="2px" d="M63.65741666666666,-54.66726581616839L76.3889,154.78492192788556L89.12038333333334,221.7558722929521L101.85186666666667,282.25778805125844L114.58335,290.7117134115913L127.31483333333333,287.25332431359726L140.04631666666666,297.5405200286345L152.7778,299.08017627759415L165.50928333333334,299.1191951036453L178.24076666666667,294.9264635064385L190.97225,299.51107315583664L203.70373333333333,299.8886135816574L216.43521666666666,300.71553618257695L229.1667,299.9303463155573L241.89818333333332,299.63878044215113L254.62966666666665,299.8815983858976L267.36115,300.2787506363609L280.0926333333333,301.16671056097204L292.82411666666667,300.00669417598033L305.5556,299.8093469901518L318.2870833333333,300.2573978142305L331.0185666666667,300.1356816075065L343.75005,300.2445451563055L356.48153333333335,300.2924225872213L369.21301666666665,300.25258446823466L381.9445,300.2939587614753L394.67598333333336,300.2310780286789L407.40746666666666,300.2662564190951L420.13895,300.2383492534811L432.8704333333333,300.2347648468885L445.6019166666667,300.20680647546595L458.3334,300.1919567910108L471.06488333333334,300.1830469803377L483.79636666666664,300.17961619117045L496.52785,300.18335421518844L509.2593333333333,300.1830469803377L521.9908166666667,300.18238130482763L534.7223,300.18289336291224L547.4537833333334,300.1837126558477L560.1852666666666,300.1850440068678L572.91675,300.1858632998033L585.6482333333333,300.1860169172287L598.3797166666667,300.1861705346541L611.1112,300.186272946271L623.8426833333333,300.186272946271L636.5741666666667,300.18642656369644L649.30565,300.18642656369644L662.0371333333334,300.186375357888L674.7686166666666,300.186375357888L687.5001,300.1863241520795" style="fill: none;" fill="none"></path></g><g><path stroke="rgb(0, 119, 187)" stroke-width="2px" d="M63.65741666666666,-55.81668259880766L76.3889,47.427131132646046L89.12038333333334,82.71822553331201L101.85186666666667,104.86494251814754L114.58335,147.07030603018674L127.31483333333333,142.141900582747L140.04631666666666,168.63752688061106L152.7778,172.85878011313352L165.50928333333334,170.00497799569908L178.24076666666667,174.3976170691577L190.97225,176.1958114450628L203.70373333333333,176.13528617945585L216.43521666666666,180.30661374872383L229.1667,180.8583563349464L241.89818333333332,181.46632289886475L254.62966666666665,180.75230910561302L267.36115,181.96921514381063L280.0926333333333,181.20030872388318L292.82411666666667,181.45347024093974L305.5556,181.57446956634521L318.2870833333333,181.5320199511268L331.0185666666667,181.1735280860554L343.75005,180.99461499127474L356.48153333333335,181.3218713131818L369.21301666666665,181.35177550532603L381.9445,181.34051022746348L394.67598333333336,181.4332951524041L407.40746666666666,181.46069025993347L420.13895,181.46688616275787L432.8704333333333,181.49115771597084L445.6019166666667,181.50948939540172L458.3334,181.50370313904503L471.06488333333334,181.5155316808007L483.79636666666664,181.51819438284096L496.52785,181.52290531721982L509.2593333333333,181.52812830968335L521.9908166666667,181.5285379561511L534.7223,181.53161030465904L547.4537833333334,181.5318663337014L560.1852666666666,181.5320199511268L572.91675,181.53304406729612L585.6482333333333,181.53401697765696L598.3797166666667,181.53442662412468L611.1112,181.53452903574166L623.8426833333333,181.53452903574166L636.5741666666667,181.53452903574166L649.30565,181.53452903574166L662.0371333333334,181.53452903574166L674.7686166666666,181.53447782993317L687.5001,181.53452903574166" style="fill: none;" fill="none"></path></g><g><path stroke="rgb(204, 51, 17)" stroke-width="2px" d="M63.65741666666666,68.06133094700901L76.3889,160.2161684144627L89.12038333333334,213.30737474831668L101.85186666666667,225.10299116914925L114.58335,226.37222954359922L127.31483333333333,240.09810012037102L140.04631666666666,254.12997660853648L152.7778,263.20369707454336L165.50928333333334,266.81360415978867L178.24076666666667,269.2659527388486L190.97225,273.1858597885479L203.70373333333333,271.0124804540114L216.43521666666666,272.94032793695277L229.1667,273.190929163586L241.89818333333332,273.2211917963895L254.62966666666665,272.809189861471L267.36115,273.440403862433L280.0926333333333,272.8282384222204L292.82411666666667,273.18258261680603L305.5556,272.84902798045766L318.2870833333333,273.0553361827677L331.0185666666667,272.94990342313594L343.75005,272.89910726113754L356.48153333333335,272.9276801022616L369.21301666666665,272.9786810874939L381.9445,272.99639829722315L394.67598333333336,272.9976272366264L407.40746666666666,272.9746358286251L420.13895,272.99578382752156L432.8704333333333,273.0037719336423L445.6019166666667,272.9871300458908L458.3334,272.97944917462087L471.06488333333334,272.9835456392982L483.79636666666664,272.9774521480907L496.52785,272.9692080129277L509.2593333333333,272.96808148514145L521.9908166666667,272.96618687022817L534.7223,272.96372899142176L547.4537833333334,272.96413863788956L560.1852666666666,272.9652139598673L572.91675,272.9652651656758L585.6482333333333,272.96562360633504L598.3797166666667,272.96582842956894L611.1112,272.96582842956894L623.8426833333333,272.96598204699427L636.5741666666667,272.9659308411858L649.30565,272.9659308411858L662.0371333333334,272.9659308411858L674.7686166666666,272.96587963537735L687.5001,272.9659308411858" style="fill: none;" fill="none"></path></g><g><path stroke="rgb(51, 187, 238)" stroke-width="2px" d="M63.65741666666666,-148.59331219846558L76.3889,30.312767386436462L89.12038333333334,111.76763911680742L101.85186666666667,141.21748212250796L114.58335,165.28795012560758L127.31483333333333,190.60184877569023L140.04631666666666,190.0091415426948L152.7778,181.39688782258466L165.50928333333334,184.81707738746297L178.24076666666667,196.69784906777468L190.97225,202.62681601264262L203.70373333333333,210.7678226774389L216.43521666666666,207.89200206236407L229.1667,211.56120547381315L241.89818333333332,211.75670925053683L254.62966666666665,207.68436250903392L267.36115,209.97771705280653L280.0926333333333,209.88339595361188L292.82411666666667,210.07372794368052L305.5556,209.62009568647906L318.2870833333333,209.7368961355903L331.0185666666667,210.19657067819074L343.75005,210.20292019844055L356.48153333333335,210.2566350915215L369.21301666666665,210.25038798288867L381.9445,210.35960997234693L394.67598333333336,210.37333312901583L407.40746666666666,210.32084717533803L420.13895,210.33702821081337L432.8704333333333,210.38828522508797L445.6019166666667,210.41834303465757L458.3334,210.46202158927917L471.06488333333334,210.45843718268657L483.79636666666664,210.46611805395648L496.52785,210.4648379087448L509.2593333333333,210.4832719997926L521.9908166666667,210.4837840578773L534.7223,210.48629314249214L547.4537833333334,210.49013357812706L560.1852666666666,210.49054322459483L572.91675,210.49233542789113L585.6482333333333,210.49233542789113L598.3797166666667,210.49284748597577L611.1112,210.49279628016734L623.8426833333333,210.49284748597577L636.5741666666667,210.49284748597577L649.30565,210.49289869178426L662.0371333333334,210.49284748597577L674.7686166666666,210.49289869178426L687.5001,210.49279628016734" style="fill: none;" fill="none"></path></g><g><path stroke="rgb(238, 51, 119)" stroke-width="2px" d="M63.65741666666666,-355.0604573379864L76.3889,23.309144139289856L89.12038333333334,147.79993759502065L101.85186666666667,157.33998935872856L114.58335,183.83971212126994L127.31483333333333,206.48327906565234L140.04631666666666,197.64541255344045L152.7778,210.13220497694883L165.50928333333334,208.65292037617078L178.24076666666667,215.54322516918182L190.97225,229.83302531459117L203.70373333333333,227.68734832243487L216.43521666666666,228.60695343667808L229.1667,229.47622324119916L241.89818333333332,231.29710179025474L254.62966666666665,231.05633207884702L267.36115,233.04593376679853L280.0926333333333,233.79538197950885L292.82411666666667,233.95739715749565L305.5556,233.9626713557677L318.2870833333333,234.868553313342L331.0185666666667,235.12878123196688L343.75005,234.82799831303683L356.48153333333335,234.8486342538487L369.21301666666665,234.73311394994911L381.9445,234.61114171418276L394.67598333333336,234.57591211795807L407.40746666666666,234.51221209222618L420.13895,234.52767624638295L432.8704333333333,234.50842286239973L445.6019166666667,234.5052993080833L458.3334,234.4841001033783L471.06488333333334,234.47846746444702L483.79636666666664,234.46392501484266L496.52785,234.45332541249013L509.2593333333333,234.4426746043292L521.9908166666667,234.44072878360748L534.7223,234.44543971798635L547.4537833333334,234.44241857528687L560.1852666666666,234.4434426914562L572.91675,234.44441560181704L585.6482333333333,234.44513248313558L598.3797166666667,234.445286100561L611.1112,234.44549092379484L623.8426833333333,234.4456957470287L636.5741666666667,234.4455421296033L649.30565,234.44549092379484L662.0371333333334,234.44564454122022L674.7686166666666,234.44549092379484L687.5001,234.4455421296033" style="fill: none;" fill="none"></path></g><g><path stroke="rgb(0, 153, 136)" stroke-width="2px" d="M63.65741666666666,-172.17758105017924L76.3889,31.8280496705662L89.12038333333334,130.66929040171885L101.85186666666667,179.47620915282857L114.58335,180.4513725692576L127.31483333333333,186.44542209668592L140.04631666666666,211.12201325459912L152.7778,224.005753105337L165.50928333333334,218.45770616964862L178.24076666666667,231.62696960839358L190.97225,231.27216456153178L203.70373333333333,232.96379965001884L216.43521666666666,236.29217720031738L229.1667,240.36201485720548L241.89818333333332,240.4754869287664L254.62966666666665,240.8942992362109L267.36115,242.01790829138324L280.0926333333333,240.07587679949674L292.82411666666667,242.28658516840503L305.5556,241.27701144868675L318.2870833333333,240.80100225318563L331.0185666666667,241.13286709785461L343.75005,241.25499295104635L356.48153333333335,241.1802324706858L369.21301666666665,241.50876893780446L381.9445,241.51097078756854L394.67598333333336,241.6127167289907L407.40746666666666,241.6579826636748L420.13895,241.5690893801776L432.8704333333333,241.59945442459798L445.6019166666667,241.61466254971242L458.3334,241.61456013809553L471.06488333333334,241.63637381250206L483.79636666666664,241.65235002474353L496.52785,241.6573681939732L509.2593333333333,241.66136224703357L521.9908166666667,241.66781417890027L534.7223,241.67093773321673L547.4537833333334,241.6737028468739L560.1852666666666,241.67564866759562L572.91675,241.67554625597867L585.6482333333333,241.67534143274483L598.3797166666667,241.67559746178713L611.1112,241.6761095198718L623.8426833333333,241.6761095198718L636.5741666666667,241.67616072568026L649.30565,241.67631434310567L662.0371333333334,241.6763655489141L674.7686166666666,241.6763655489141L687.5001,241.67631434310567" style="fill: none;" fill="none"></path></g></g></g></g></g><g><g opacity="0.0197822"><span fill="rgb(0, 0, 0)" stroke="none" stroke-width="1px">Alt + Scroll to Zoom</span></g></g></g><g transform="translate(50, 378)" clip-path="url(#clip_1)"><clipPath id="clip_1"><rect width="763" height="21"></rect></clipPath><g><g><line x1="0" y1="0" x2="0" y2="5" style="visibility: inherit;" fill="rgb(0, 0, 0)" stroke="rgb(204, 204, 204)" stroke-width="1px"></line><line x1="63.65741666666666" y1="0" x2="63.65741666666666" y2="5" style="visibility: inherit;" fill="rgb(0, 0, 0)" stroke="rgb(204, 204, 204)" stroke-width="1px"></line><line x1="127.31483333333333" y1="0" x2="127.31483333333333" y2="5" style="visibility: inherit;" fill="rgb(0, 0, 0)" stroke="rgb(204, 204, 204)" stroke-width="1px"></line><line x1="190.97225" y1="0" x2="190.97225" y2="5" style="visibility: inherit;" fill="rgb(0, 0, 0)" stroke="rgb(204, 204, 204)" stroke-width="1px"></line><line x1="254.62966666666665" y1="0" x2="254.62966666666665" y2="5" style="visibility: inherit;" fill="rgb(0, 0, 0)" stroke="rgb(204, 204, 204)" stroke-width="1px"></line><line x1="318.2870833333333" y1="0" x2="318.2870833333333" y2="5" style="visibility: inherit;" fill="rgb(0, 0, 0)" stroke="rgb(204, 204, 204)" stroke-width="1px"></line><line x1="381.9445" y1="0" x2="381.9445" y2="5" style="visibility: inherit;" fill="rgb(0, 0, 0)" stroke="rgb(204, 204, 204)" stroke-width="1px"></line><line x1="445.6019166666667" y1="0" x2="445.6019166666667" y2="5" style="visibility: inherit;" fill="rgb(0, 0, 0)" stroke="rgb(204, 204, 204)" stroke-width="1px"></line><line x1="509.2593333333333" y1="0" x2="509.2593333333333" y2="5" style="visibility: inherit;" fill="rgb(0, 0, 0)" stroke="rgb(204, 204, 204)" stroke-width="1px"></line><line x1="572.91675" y1="0" x2="572.91675" y2="5" style="visibility: inherit;" fill="rgb(0, 0, 0)" stroke="rgb(204, 204, 204)" stroke-width="1px"></line><line x1="636.5741666666667" y1="0" x2="636.5741666666667" y2="5" style="visibility: inherit;" fill="rgb(0, 0, 0)" stroke="rgb(204, 204, 204)" stroke-width="1px"></line><line x1="700.2315833333333" y1="0" x2="700.2315833333333" y2="5" style="visibility: inherit;" fill="rgb(0, 0, 0)" stroke="rgb(204, 204, 204)" stroke-width="1px"></line><line x1="763.889" y1="0" x2="763.889" y2="5" style="visibility: inherit;" fill="rgb(0, 0, 0)" stroke="rgb(204, 204, 204)" stroke-width="1px"></line></g><g transform="translate(0, 8)"><text x="0" y="0" dx="0em" dy="0.95em" style="text-anchor: middle; visibility: hidden; font-family: Roboto, sans-serif; font-size: 12px; font-weight: 200;" fill="rgb(50, 49, 63)" stroke="none" stroke-width="1px">-5</text><text x="63.65741666666666" y="0" dx="0em" dy="0.95em" style="text-anchor: middle; visibility: inherit; font-family: Roboto, sans-serif; font-size: 12px; font-weight: 200;" fill="rgb(50, 49, 63)" stroke="none" stroke-width="1px">0</text><text x="127.31483333333333" y="0" dx="0em" dy="0.95em" style="text-anchor: middle; visibility: inherit; font-family: Roboto, sans-serif; font-size: 12px; font-weight: 200;" fill="rgb(50, 49, 63)" stroke="none" stroke-width="1px">5</text><text x="190.97225" y="0" dx="0em" dy="0.95em" style="text-anchor: middle; visibility: inherit; font-family: Roboto, sans-serif; font-size: 12px; font-weight: 200;" fill="rgb(50, 49, 63)" stroke="none" stroke-width="1px">10</text><text x="254.62966666666665" y="0" dx="0em" dy="0.95em" style="text-anchor: middle; visibility: inherit; font-family: Roboto, sans-serif; font-size: 12px; font-weight: 200;" fill="rgb(50, 49, 63)" stroke="none" stroke-width="1px">15</text><text x="318.2870833333333" y="0" dx="0em" dy="0.95em" style="text-anchor: middle; visibility: inherit; font-family: Roboto, sans-serif; font-size: 12px; font-weight: 200;" fill="rgb(50, 49, 63)" stroke="none" stroke-width="1px">20</text><text x="381.9445" y="0" dx="0em" dy="0.95em" style="text-anchor: middle; visibility: inherit; font-family: Roboto, sans-serif; font-size: 12px; font-weight: 200;" fill="rgb(50, 49, 63)" stroke="none" stroke-width="1px">25</text><text x="445.6019166666667" y="0" dx="0em" dy="0.95em" style="text-anchor: middle; visibility: inherit; font-family: Roboto, sans-serif; font-size: 12px; font-weight: 200;" fill="rgb(50, 49, 63)" stroke="none" stroke-width="1px">30</text><text x="509.2593333333333" y="0" dx="0em" dy="0.95em" style="text-anchor: middle; visibility: inherit; font-family: Roboto, sans-serif; font-size: 12px; font-weight: 200;" fill="rgb(50, 49, 63)" stroke="none" stroke-width="1px">35</text><text x="572.91675" y="0" dx="0em" dy="0.95em" style="text-anchor: middle; visibility: inherit; font-family: Roboto, sans-serif; font-size: 12px; font-weight: 200;" fill="rgb(50, 49, 63)" stroke="none" stroke-width="1px">40</text><text x="636.5741666666667" y="0" dx="0em" dy="0.95em" style="text-anchor: middle; visibility: inherit; font-family: Roboto, sans-serif; font-size: 12px; font-weight: 200;" fill="rgb(50, 49, 63)" stroke="none" stroke-width="1px">45</text><text x="700.2315833333333" y="0" dx="0em" dy="0.95em" style="text-anchor: middle; visibility: inherit; font-family: Roboto, sans-serif; font-size: 12px; font-weight: 200;" fill="rgb(50, 49, 63)" stroke="none" stroke-width="1px">50</text><text x="763.889" y="0" dx="0em" dy="0.95em" style="text-anchor: middle; visibility: hidden; font-family: Roboto, sans-serif; font-size: 12px; font-weight: 200;" fill="rgb(50, 49, 63)" stroke="none" stroke-width="1px">55</text></g><line x1="0" y1="0" x2="763.889" y2="0" fill="rgb(0, 0, 0)" stroke="rgb(204, 204, 204)" stroke-width="1px"></line></g></g></g></g></svg>