<svg viewBox="0 0 1050 400" xmlns="http://www.w3.org/2000/svg"><g><g><g><g><g><line x1="51.53200149536133" y1="377.5999994277954" x2="46.53200149536133" y2="377.5999994277954" style="visibility: inherit;" fill="rgb(0, 0, 0)" stroke="rgb(204, 204, 204)" stroke-width="1px"></line><line x1="51.53200149536133" y1="335.6444439358181" x2="46.53200149536133" y2="335.6444439358181" style="visibility: inherit;" fill="rgb(0, 0, 0)" stroke="rgb(204, 204, 204)" stroke-width="1px"></line><line x1="51.53200149536133" y1="293.6888884438408" x2="46.53200149536133" y2="293.6888884438408" style="visibility: inherit;" fill="rgb(0, 0, 0)" stroke="rgb(204, 204, 204)" stroke-width="1px"></line><line x1="51.53200149536133" y1="251.73333295186356" x2="46.53200149536133" y2="251.73333295186356" style="visibility: inherit;" fill="rgb(0, 0, 0)" stroke="rgb(204, 204, 204)" stroke-width="1px"></line><line x1="51.53200149536133" y1="209.77777745988647" x2="46.53200149536133" y2="209.77777745988647" style="visibility: inherit;" fill="rgb(0, 0, 0)" stroke="rgb(204, 204, 204)" stroke-width="1px"></line><line x1="51.53200149536133" y1="167.8222219679092" x2="46.53200149536133" y2="167.8222219679092" style="visibility: inherit;" fill="rgb(0, 0, 0)" stroke="rgb(204, 204, 204)" stroke-width="1px"></line><line x1="51.53200149536133" y1="125.86666647593191" x2="46.53200149536133" y2="125.86666647593191" style="visibility: inherit;" fill="rgb(0, 0, 0)" stroke="rgb(204, 204, 204)" stroke-width="1px"></line><line x1="51.53200149536133" y1="83.91111098395457" x2="46.53200149536133" y2="83.91111098395457" style="visibility: inherit;" fill="rgb(0, 0, 0)" stroke="rgb(204, 204, 204)" stroke-width="1px"></line><line x1="51.53200149536133" y1="41.955555491977286" x2="46.53200149536133" y2="41.955555491977286" style="visibility: inherit;" fill="rgb(0, 0, 0)" stroke="rgb(204, 204, 204)" stroke-width="1px"></line><line x1="51.53200149536133" y1="0" x2="46.53200149536133" y2="0" style="visibility: inherit;" fill="rgb(0, 0, 0)" stroke="rgb(204, 204, 204)" stroke-width="1px"></line></g><g transform="translate(41.53200149536133, 0)"><text style="text-anchor: end; visibility: hidden; font-family: Roboto, sans-serif; font-size: 12px; font-weight: 200;" x="0" y="377.5999994277954" dx="0em" dy="0.3em" fill="rgb(50, 49, 63)" stroke="none" stroke-width="1px">0.25</text><text style="text-anchor: end; visibility: inherit; font-family: Roboto, sans-serif; font-size: 12px; font-weight: 200;" x="0" y="335.6444439358181" dx="0em" dy="0.3em" fill="rgb(50, 49, 63)" stroke="none" stroke-width="1px">0.26</text><text style="text-anchor: end; visibility: inherit; font-family: Roboto, sans-serif; font-size: 12px; font-weight: 200;" x="0" y="293.6888884438408" dx="0em" dy="0.3em" fill="rgb(50, 49, 63)" stroke="none" stroke-width="1px">0.27</text><text style="text-anchor: end; visibility: inherit; font-family: Roboto, sans-serif; font-size: 12px; font-weight: 200;" x="0" y="251.73333295186356" dx="0em" dy="0.3em" fill="rgb(50, 49, 63)" stroke="none" stroke-width="1px">0.28</text><text style="text-anchor: end; visibility: inherit; font-family: Roboto, sans-serif; font-size: 12px; font-weight: 200;" x="0" y="209.77777745988647" dx="0em" dy="0.3em" fill="rgb(50, 49, 63)" stroke="none" stroke-width="1px">0.29</text><text style="text-anchor: end; visibility: inherit; font-family: Roboto, sans-serif; font-size: 12px; font-weight: 200;" x="0" y="167.8222219679092" dx="0em" dy="0.3em" fill="rgb(50, 49, 63)" stroke="none" stroke-width="1px">0.3</text><text style="text-anchor: end; visibility: inherit; font-family: Roboto, sans-serif; font-size: 12px; font-weight: 200;" x="0" y="125.86666647593191" dx="0em" dy="0.3em" fill="rgb(50, 49, 63)" stroke="none" stroke-width="1px">0.31</text><text style="text-anchor: end; visibility: inherit; font-family: Roboto, sans-serif; font-size: 12px; font-weight: 200;" x="0" y="83.91111098395457" dx="0em" dy="0.3em" fill="rgb(50, 49, 63)" stroke="none" stroke-width="1px">0.32</text><text style="text-anchor: end; visibility: inherit; font-family: Roboto, sans-serif; font-size: 12px; font-weight: 200;" x="0" y="41.955555491977286" dx="0em" dy="0.3em" fill="rgb(50, 49, 63)" stroke="none" stroke-width="1px">0.33</text><text style="text-anchor: end; visibility: hidden; font-family: Roboto, sans-serif; font-size: 12px; font-weight: 200;" x="0" y="0" dx="0em" dy="0.3em" fill="rgb(50, 49, 63)" stroke="none" stroke-width="1px">0.34</text></g><line x1="51.53200149536133" y1="0" x2="51.53200149536133" y2="377.5999994277954" fill="rgb(0, 0, 0)" stroke="rgb(204, 204, 204)" stroke-width="1px"></line></g></g><g transform="translate(51, 0)" clip-path="url(#clip_0)"><clipPath id="clip_0"><rect width="998" height="377"></rect></clipPath><g><g><g><line x1="0" y1="0" x2="0" y2="377.5999994277954" fill="rgb(0, 0, 0)" stroke="rgb(60, 60, 60)" stroke-width="1px" opacity="0.25"></line><line x1="83.20566654205322" y1="0" x2="83.20566654205322" y2="377.5999994277954" fill="rgb(0, 0, 0)" stroke="rgb(60, 60, 60)" stroke-width="1px" opacity="0.25"></line><line x1="166.41133308410645" y1="0" x2="166.41133308410645" y2="377.5999994277954" fill="rgb(0, 0, 0)" stroke="rgb(60, 60, 60)" stroke-width="1px" opacity="0.25"></line><line x1="249.61699962615967" y1="0" x2="249.61699962615967" y2="377.5999994277954" fill="rgb(0, 0, 0)" stroke="rgb(60, 60, 60)" stroke-width="1px" opacity="0.25"></line><line x1="332.8226661682129" y1="0" x2="332.8226661682129" y2="377.5999994277954" fill="rgb(0, 0, 0)" stroke="rgb(60, 60, 60)" stroke-width="1px" opacity="0.25"></line><line x1="416.0283327102661" y1="0" x2="416.0283327102661" y2="377.5999994277954" fill="rgb(0, 0, 0)" stroke="rgb(60, 60, 60)" stroke-width="1px" opacity="0.25"></line><line x1="499.23399925231934" y1="0" x2="499.23399925231934" y2="377.5999994277954" fill="rgb(0, 0, 0)" stroke="rgb(60, 60, 60)" stroke-width="1px" opacity="0.25"></line><line x1="582.4396657943726" y1="0" x2="582.4396657943726" y2="377.5999994277954" fill="rgb(0, 0, 0)" stroke="rgb(60, 60, 60)" stroke-width="1px" opacity="0.25"></line><line x1="665.6453323364258" y1="0" x2="665.6453323364258" y2="377.5999994277954" fill="rgb(0, 0, 0)" stroke="rgb(60, 60, 60)" stroke-width="1px" opacity="0.25"></line><line x1="748.850998878479" y1="0" x2="748.850998878479" y2="377.5999994277954" fill="rgb(0, 0, 0)" stroke="rgb(60, 60, 60)" stroke-width="1px" opacity="0.25"></line><line x1="832.0566654205322" y1="0" x2="832.0566654205322" y2="377.5999994277954" fill="rgb(0, 0, 0)" stroke="rgb(60, 60, 60)" stroke-width="1px" opacity="0.25"></line><line x1="915.2623319625854" y1="0" x2="915.2623319625854" y2="377.5999994277954" fill="rgb(0, 0, 0)" stroke="rgb(60, 60, 60)" stroke-width="1px" opacity="0.25"></line><line x1="998.4679985046387" y1="0" x2="998.4679985046387" y2="377.5999994277954" fill="rgb(0, 0, 0)" stroke="rgb(60, 60, 60)" stroke-width="1px" opacity="0.25"></line></g><g><line x1="0" y1="377.5999994277954" x2="998.4679985046387" y2="377.5999994277954" fill="rgb(0, 0, 0)" stroke="rgb(60, 60, 60)" stroke-width="1px" opacity="0.25"></line><line x1="0" y1="335.6444439358181" x2="998.4679985046387" y2="335.6444439358181" fill="rgb(0, 0, 0)" stroke="rgb(60, 60, 60)" stroke-width="1px" opacity="0.25"></line><line x1="0" y1="293.6888884438408" x2="998.4679985046387" y2="293.6888884438408" fill="rgb(0, 0, 0)" stroke="rgb(60, 60, 60)" stroke-width="1px" opacity="0.25"></line><line x1="0" y1="251.73333295186356" x2="998.4679985046387" y2="251.73333295186356" fill="rgb(0, 0, 0)" stroke="rgb(60, 60, 60)" stroke-width="1px" opacity="0.25"></line><line x1="0" y1="209.77777745988647" x2="998.4679985046387" y2="209.77777745988647" fill="rgb(0, 0, 0)" stroke="rgb(60, 60, 60)" stroke-width="1px" opacity="0.25"></line><line x1="0" y1="167.8222219679092" x2="998.4679985046387" y2="167.8222219679092" fill="rgb(0, 0, 0)" stroke="rgb(60, 60, 60)" stroke-width="1px" opacity="0.25"></line><line x1="0" y1="125.86666647593191" x2="998.4679985046387" y2="125.86666647593191" fill="rgb(0, 0, 0)" stroke="rgb(60, 60, 60)" stroke-width="1px" opacity="0.25"></line><line x1="0" y1="83.91111098395457" x2="998.4679985046387" y2="83.91111098395457" fill="rgb(0, 0, 0)" stroke="rgb(60, 60, 60)" stroke-width="1px" opacity="0.25"></line><line x1="0" y1="41.955555491977286" x2="998.4679985046387" y2="41.955555491977286" fill="rgb(0, 0, 0)" stroke="rgb(60, 60, 60)" stroke-width="1px" opacity="0.25"></line><line x1="0" y1="0" x2="998.4679985046387" y2="0" fill="rgb(0, 0, 0)" stroke="rgb(60, 60, 60)" stroke-width="1px" opacity="0.25"></line></g></g></g><g><g><line x1="0" y1="1426.4888867272268" x2="998.4679985046387" y2="1426.4888867272268" fill="rgb(0, 0, 0)" stroke="rgb(153, 153, 153)" stroke-width="1.5px"></line></g></g><g><g><line x1="83.20566654205322" y1="0" x2="83.20566654205322" y2="377.5999994277954" fill="rgb(0, 0, 0)" stroke="rgb(153, 153, 153)" stroke-width="1.5px"></line></g></g><g><g><g><g><g><path style="fill: none;" stroke="rgb(255, 112, 67)" stroke-width="2px" d="M83.20566654205322,-154.91560187706142L99.84679985046387,102.3716478279961L116.48793315887451,177.0950630895181L133.12906646728516,247.29312842300192L149.7701997756958,236.97142442185168L166.41133308410645,275.9503019601692L183.0524663925171,297.29942047843576L199.69359970092773,313.70856538493916L216.33473300933838,305.8887327009341L232.97586631774902,314.8766638328761L249.61699962615967,324.4518951585625L266.2581329345703,308.07125875624763L282.89926624298096,320.48921307635123L299.5403995513916,324.61219297597364L316.18153285980225,319.94017429612313L332.8226661682129,321.29457831967835L349.46379947662354,322.89055440504194L366.1049327850342,322.16696355530837L382.7460660934448,322.21610321384395L399.38719940185547,323.9543717455523L416.0283327102661,324.0100133436396L432.66946601867676,324.5396713425115L449.3105993270874,324.8858996236437L465.95173263549805,324.52241619523943L482.5928659439087,324.49690858622864L499.23399925231934,324.57830786792493L515.87513256073,324.4792783270594L532.5162658691406,324.4839047071251L549.1573991775513,324.4746519469937L565.7985324859619,324.55905212386773L582.4396657943726,324.5471735804558L599.0807991027832,324.5610527206529L615.7219324111938,324.55029951293267L632.3630657196045,324.55154988592335L649.0041990280151,324.5402965290068L665.6453323364258,324.5344197759504L682.2864656448364,324.5472986177549L698.9275989532471,324.55092469942804L715.5687322616577,324.5579267881761L732.2098655700684,324.5591771611668L748.850998878479,324.56267820554086L765.4921321868896,324.56367850393343L782.1332654953003,324.5648038396251L798.7743988037109,324.56492887692417L815.4155321121216,324.5651789515223L832.0566654205322,324.56530398882137L848.6977987289429,324.56542902612046L865.3389320373535,324.56542902612046L881.9800653457642,324.5656791007186L898.6211986541748,324.56542902612046" fill="none"></path></g><g><path style="fill: none;" stroke="rgb(204, 51, 17)" stroke-width="2px" d="M83.20566654205322,-195.97034865458346L99.84679985046387,94.92017502705912L116.48793315887451,136.36691373717392L133.12906646728516,250.31165385991537L149.7701997756958,225.9628905368953L166.41133308410645,247.42979419088837L183.0524663925171,278.2618665081257L199.69359970092773,276.2819008773099L216.33473300933838,280.2825942984392L232.97586631774902,280.6258216843937L249.61699962615967,281.91395593944037L266.2581329345703,293.07603562765803L282.89926624298096,290.62705508802065L299.5403995513916,286.3585317722777L316.18153285980225,283.9095512326403L332.8226661682129,289.6431365816178L349.46379947662354,286.49144642119194L366.1049327850342,285.76110355730845L382.7460660934448,284.85208239305007L399.38719940185547,285.0753990091939L416.0283327102661,286.08132408023357L432.66946601867676,285.95141032649707L449.3105993270874,286.295387936246L465.95173263549805,285.8142444094143L482.5928659439087,286.539710818634L499.23399925231934,286.5539650707283L515.87513256073,286.73801997496327L532.5162658691406,286.6656233788002L549.1573991775513,286.78565918590994L565.7985324859619,286.7841587383211L582.4396657943726,286.8302975016789L599.0807991027832,286.80941627273376L615.7219324111938,286.82229511453824L632.3630657196045,286.83492388174454L649.0041990280151,286.86868395249417L665.6453323364258,286.875185892046L682.2864656448364,286.86668335570903L698.9275989532471,286.86843387789605L715.5687322616577,286.86130675184893L732.2098655700684,286.8653079454192L748.850998878479,286.86868395249417L765.4921321868896,286.870059362784L782.1332654953003,286.87080958657845L798.7743988037109,286.87105966117656L815.4155321121216,286.87080958657845L832.0566654205322,286.87068454927936L848.6977987289429,286.87068454927936L865.3389320373535,286.87080958657845L881.9800653457642,286.87068454927936L898.6211986541748,286.87080958657845" fill="none"></path></g><g><path style="fill: none;" stroke="rgb(0, 119, 187)" stroke-width="2px" d="M83.20566654205322,-154.13424379515632L99.84679985046387,61.4626945411928L116.48793315887451,148.34548698833615L133.12906646728516,206.0787090145641L149.7701997756958,222.68066143623756L166.41133308410645,220.0741338997686L183.0524663925171,259.45575657839913L199.69359970092773,251.76233660375655L216.33473300933838,278.0234203787941L232.97586631774902,274.3715810220776L249.61699962615967,276.32753949147144L266.2581329345703,287.75094713475096L282.89926624298096,279.5098637901701L299.5403995513916,277.8920061774687L316.18153285980225,275.1962020094619L332.8226661682129,278.47880622201683L349.46379947662354,279.7099234686864L366.1049327850342,278.68399242979507L382.7460660934448,280.3806235409122L399.38719940185547,283.1544509835404L416.0283327102661,281.6062391464226L432.66946601867676,280.4824039023573L449.3105993270874,281.52233911874475L465.95173263549805,281.95109201726495L482.5928659439087,282.1487759870989L499.23399925231934,282.74920509724586L515.87513256073,282.92663302462995L532.5162658691406,282.89874970693677L549.1573991775513,282.99602872561536L565.7985324859619,282.9073772805728L582.4396657943726,282.91200366063845L599.0807991027832,282.966269848436L615.7219324111938,282.9592677596879L632.3630657196045,282.98740115197927L649.0041990280151,282.9823996600164L665.6453323364258,283.01228357449475L682.2864656448364,283.00153036677455L698.9275989532471,283.0135339474855L715.5687322616577,283.02466226710294L732.2098655700684,283.02878849797236L748.850998878479,283.033289840739L765.4921321868896,283.0357905867204L782.1332654953003,283.036790885113L798.7743988037109,283.0375411089075L815.4155321121216,283.0382913327019L832.0566654205322,283.0380412581037L848.6977987289429,283.03841637000096L865.3389320373535,283.03854140730004L881.9800653457642,283.03854140730004L898.6211986541748,283.03854140730004" fill="none"></path></g><g><path style="fill: none;" stroke="rgb(51, 187, 238)" stroke-width="2px" d="M83.20566654205322,-128.51372610326806L99.84679985046387,107.27811144360786L116.48793315887451,119.76183538302368L133.12906646728516,179.64269805812387L149.7701997756958,247.55670704944714L166.41133308410645,206.34766424486943L183.0524663925171,247.41679031178478L199.69359970092773,249.41176041848934L216.33473300933838,276.4461998882914L232.97586631774902,281.0824579006071L249.61699962615967,277.2992043425652L266.2581329345703,264.49588506671955L282.89926624298096,265.87979789285595L299.5403995513916,272.9324017097511L316.18153285980225,279.1686370010008L332.8226661682129,274.2414171937429L349.46379947662354,274.50262011150573L366.1049327850342,276.49596473332235L382.7460660934448,277.99266120322227L399.38719940185547,280.11079304951335L416.0283327102661,279.47635379401856L432.66946601867676,277.0781383978047L449.3105993270874,277.5504042764022L465.95173263549805,277.6630628828667L482.5928659439087,277.85074386877477L499.23399925231934,277.3723511625227L515.87513256073,277.51226790018507L532.5162658691406,277.55165464939296L549.1573991775513,277.53252394263484L565.7985324859619,277.5396510686819L582.4396657943726,277.5651586776928L599.0807991027832,277.5152687953628L615.7219324111938,277.5228960706062L632.3630657196045,277.4981386853898L649.0041990280151,277.5150187207646L665.6453323364258,277.4997641702778L682.2864656448364,277.4831342095011L698.9275989532471,277.48863585066033L715.5687322616577,277.48626014197794L732.2098655700684,277.4876355522677L748.850998878479,277.48888592525844L765.4921321868896,277.49113659664175L782.1332654953003,277.4921368950343L798.7743988037109,277.4918868204362L815.4155321121216,277.4922619323334L832.0566654205322,277.4922619323334L848.6977987289429,277.4926370442306L865.3389320373535,277.4925120069315L881.9800653457642,277.4922619323334L898.6211986541748,277.4925120069315" fill="none"></path></g><g><path style="fill: none;" stroke="rgb(238, 51, 119)" stroke-width="2px" d="M83.20566654205322,-199.67945509427528L99.84679985046387,61.05857399058991L116.48793315887451,111.45698301591571L133.12906646728516,221.87679664049935L149.7701997756958,193.1359731502525L166.41133308410645,203.0325503345556L183.0524663925171,202.5791650881181L199.69359970092773,261.10424832937326L216.33473300933838,262.15268608209766L232.97586631774902,264.1725386113177L249.61699962615967,257.63221260872325L266.2581329345703,260.2797523792881L282.89926624298096,261.683546135977L299.5403995513916,262.51279350342696L316.18153285980225,262.7527400803474L332.8226661682129,266.1765114035554L349.46379947662354,265.8499139783776L366.1049327850342,266.1780118511443L382.7460660934448,267.1916892347265L399.38719940185547,266.25678534956006L416.0283327102661,267.40950420971103L432.66946601867676,267.29822101353636L449.3105993270874,267.8006208812104L465.95173263549805,267.78411595773275L482.5928659439087,267.91127889088966L499.23399925231934,267.94478888704117L515.87513256073,268.05007029286037L532.5162658691406,268.09045734046083L549.1573991775513,268.00768264847477L565.7985324859619,268.07807864785264L582.4396657943726,268.13121949995855L599.0807991027832,268.119966143042L615.7219324111938,268.14034722279087L632.3630657196045,268.19999001444853L649.0041990280151,268.21161848326227L665.6453323364258,268.22362206397327L682.2864656448364,268.228373481338L698.9275989532471,268.22399717587047L715.5687322616577,268.23149941381484L732.2098655700684,268.2385015025629L748.850998878479,268.2432529199276L765.4921321868896,268.2453785540119L782.1332654953003,268.24562862861L798.7743988037109,268.24612877780635L815.4155321121216,268.24637885240446L832.0566654205322,268.24637885240446L848.6977987289429,268.24650388970355L865.3389320373535,268.24612877780635L881.9800653457642,268.24625381510543L898.6211986541748,268.24637885240446" fill="none"></path></g></g></g></g></g><g><g opacity="0.0214478"><span fill="rgb(0, 0, 0)" stroke="none" stroke-width="1px">Alt + Scroll to Zoom</span></g></g></g><g transform="translate(51, 377)" clip-path="url(#clip_1)"><clipPath id="clip_1"><rect width="998" height="22"></rect></clipPath><g><g><line x1="0" y1="0" x2="0" y2="5" style="visibility: inherit;" fill="rgb(0, 0, 0)" stroke="rgb(204, 204, 204)" stroke-width="1px"></line><line x1="83.20566654205322" y1="0" x2="83.20566654205322" y2="5" style="visibility: inherit;" fill="rgb(0, 0, 0)" stroke="rgb(204, 204, 204)" stroke-width="1px"></line><line x1="166.41133308410645" y1="0" x2="166.41133308410645" y2="5" style="visibility: inherit;" fill="rgb(0, 0, 0)" stroke="rgb(204, 204, 204)" stroke-width="1px"></line><line x1="249.61699962615967" y1="0" x2="249.61699962615967" y2="5" style="visibility: inherit;" fill="rgb(0, 0, 0)" stroke="rgb(204, 204, 204)" stroke-width="1px"></line><line x1="332.8226661682129" y1="0" x2="332.8226661682129" y2="5" style="visibility: inherit;" fill="rgb(0, 0, 0)" stroke="rgb(204, 204, 204)" stroke-width="1px"></line><line x1="416.0283327102661" y1="0" x2="416.0283327102661" y2="5" style="visibility: inherit;" fill="rgb(0, 0, 0)" stroke="rgb(204, 204, 204)" stroke-width="1px"></line><line x1="499.23399925231934" y1="0" x2="499.23399925231934" y2="5" style="visibility: inherit;" fill="rgb(0, 0, 0)" stroke="rgb(204, 204, 204)" stroke-width="1px"></line><line x1="582.4396657943726" y1="0" x2="582.4396657943726" y2="5" style="visibility: inherit;" fill="rgb(0, 0, 0)" stroke="rgb(204, 204, 204)" stroke-width="1px"></line><line x1="665.6453323364258" y1="0" x2="665.6453323364258" y2="5" style="visibility: inherit;" fill="rgb(0, 0, 0)" stroke="rgb(204, 204, 204)" stroke-width="1px"></line><line x1="748.850998878479" y1="0" x2="748.850998878479" y2="5" style="visibility: inherit;" fill="rgb(0, 0, 0)" stroke="rgb(204, 204, 204)" stroke-width="1px"></line><line x1="832.0566654205322" y1="0" x2="832.0566654205322" y2="5" style="visibility: inherit;" fill="rgb(0, 0, 0)" stroke="rgb(204, 204, 204)" stroke-width="1px"></line><line x1="915.2623319625854" y1="0" x2="915.2623319625854" y2="5" style="visibility: inherit;" fill="rgb(0, 0, 0)" stroke="rgb(204, 204, 204)" stroke-width="1px"></line><line x1="998.4679985046387" y1="0" x2="998.4679985046387" y2="5" style="visibility: inherit;" fill="rgb(0, 0, 0)" stroke="rgb(204, 204, 204)" stroke-width="1px"></line></g><g transform="translate(0, 8)"><text style="text-anchor: middle; visibility: hidden; font-family: Roboto, sans-serif; font-size: 12px; font-weight: 200;" x="0" y="0" dx="0em" dy="0.95em" fill="rgb(50, 49, 63)" stroke="none" stroke-width="1px">-5</text><text style="text-anchor: middle; visibility: inherit; font-family: Roboto, sans-serif; font-size: 12px; font-weight: 200;" x="83.20566654205322" y="0" dx="0em" dy="0.95em" fill="rgb(50, 49, 63)" stroke="none" stroke-width="1px">0</text><text style="text-anchor: middle; visibility: inherit; font-family: Roboto, sans-serif; font-size: 12px; font-weight: 200;" x="166.41133308410645" y="0" dx="0em" dy="0.95em" fill="rgb(50, 49, 63)" stroke="none" stroke-width="1px">5</text><text style="text-anchor: middle; visibility: inherit; font-family: Roboto, sans-serif; font-size: 12px; font-weight: 200;" x="249.61699962615967" y="0" dx="0em" dy="0.95em" fill="rgb(50, 49, 63)" stroke="none" stroke-width="1px">10</text><text style="text-anchor: middle; visibility: inherit; font-family: Roboto, sans-serif; font-size: 12px; font-weight: 200;" x="332.8226661682129" y="0" dx="0em" dy="0.95em" fill="rgb(50, 49, 63)" stroke="none" stroke-width="1px">15</text><text style="text-anchor: middle; visibility: inherit; font-family: Roboto, sans-serif; font-size: 12px; font-weight: 200;" x="416.0283327102661" y="0" dx="0em" dy="0.95em" fill="rgb(50, 49, 63)" stroke="none" stroke-width="1px">20</text><text style="text-anchor: middle; visibility: inherit; font-family: Roboto, sans-serif; font-size: 12px; font-weight: 200;" x="499.23399925231934" y="0" dx="0em" dy="0.95em" fill="rgb(50, 49, 63)" stroke="none" stroke-width="1px">25</text><text style="text-anchor: middle; visibility: inherit; font-family: Roboto, sans-serif; font-size: 12px; font-weight: 200;" x="582.4396657943726" y="0" dx="0em" dy="0.95em" fill="rgb(50, 49, 63)" stroke="none" stroke-width="1px">30</text><text style="text-anchor: middle; visibility: inherit; font-family: Roboto, sans-serif; font-size: 12px; font-weight: 200;" x="665.6453323364258" y="0" dx="0em" dy="0.95em" fill="rgb(50, 49, 63)" stroke="none" stroke-width="1px">35</text><text style="text-anchor: middle; visibility: inherit; font-family: Roboto, sans-serif; font-size: 12px; font-weight: 200;" x="748.850998878479" y="0" dx="0em" dy="0.95em" fill="rgb(50, 49, 63)" stroke="none" stroke-width="1px">40</text><text style="text-anchor: middle; visibility: inherit; font-family: Roboto, sans-serif; font-size: 12px; font-weight: 200;" x="832.0566654205322" y="0" dx="0em" dy="0.95em" fill="rgb(50, 49, 63)" stroke="none" stroke-width="1px">45</text><text style="text-anchor: middle; visibility: inherit; font-family: Roboto, sans-serif; font-size: 12px; font-weight: 200;" x="915.2623319625854" y="0" dx="0em" dy="0.95em" fill="rgb(50, 49, 63)" stroke="none" stroke-width="1px">50</text><text style="text-anchor: middle; visibility: hidden; font-family: Roboto, sans-serif; font-size: 12px; font-weight: 200;" x="998.4679985046387" y="0" dx="0em" dy="0.95em" fill="rgb(50, 49, 63)" stroke="none" stroke-width="1px">55</text></g><line x1="0" y1="0" x2="998.4679985046387" y2="0" fill="rgb(0, 0, 0)" stroke="rgb(204, 204, 204)" stroke-width="1px"></line></g></g></g></g></svg>